<svg width="18" height="20" viewBox="0 0 18 20" fill="none" xmlns="http://www.w3.org/2000/svg">
<g clip-path="url(#clip0_1026_527)">
<path d="M16.5974 6.818C16.4753 6.908 14.3187 8.062 14.3187 10.628C14.3187 13.596 17.0628 14.646 17.145 14.672C17.1323 14.736 16.709 16.11 15.6981 17.51C14.7968 18.742 13.8554 19.972 12.4233 19.972C10.9912 19.972 10.6227 19.182 8.96946 19.182C7.35837 19.182 6.78554 19.998 5.47561 19.998C4.16567 19.998 3.25167 18.858 2.20077 17.458C0.983503 15.814 0 13.26 0 10.836C0 6.948 2.66199 4.886 5.28185 4.886C6.67392 4.886 7.83433 5.754 8.70832 5.754C9.54019 5.754 10.8375 4.834 12.4212 4.834C13.0214 4.834 15.178 4.886 16.5974 6.818ZM11.6694 3.188C12.3243 2.45 12.7876 1.426 12.7876 0.402C12.7876 0.26 12.775 0.116 12.7476 0C11.682 0.038 10.4142 0.674 9.6497 1.516C9.04949 2.164 8.4893 3.188 8.4893 4.226C8.4893 4.382 8.51667 4.538 8.52931 4.588C8.5967 4.6 8.70621 4.614 8.81573 4.614C9.77185 4.614 10.9744 4.006 11.6694 3.188Z" fill="#F9F9F9"/>
</g>
<defs>
<clipPath id="clip0_1026_527">
<rect width="17.1429" height="20" fill="white"/>
</clipPath>
</defs>
</svg>
