<svg width="16" height="18" viewBox="0 0 16 18" fill="none" xmlns="http://www.w3.org/2000/svg">
<path fill-rule="evenodd" clip-rule="evenodd" d="M7.18005 17.3585C7.64868 17.8271 8.40848 17.8271 8.87711 17.3585L15.0996 11.136C15.2949 10.9407 15.2949 10.6241 15.0996 10.4288C14.9044 10.2336 14.5878 10.2336 14.3925 10.4288L8.02858 16.7928L1.66462 10.4288C1.46936 10.2336 1.15277 10.2336 0.957512 10.4288C0.76225 10.6241 0.76225 10.9407 0.957512 11.1359L7.18005 17.3585Z" fill="#89959F"/>
<path fill-rule="evenodd" clip-rule="evenodd" d="M7.99965 0.199911C7.72351 0.199911 7.49965 0.423769 7.49965 0.699911L7.49965 17.3999H8.49965V0.699911C8.49965 0.423769 8.27579 0.199911 7.99965 0.199911Z" fill="#89959F"/>
</svg>
