<svg width="16" height="18" viewBox="0 0 16 18" fill="none" xmlns="http://www.w3.org/2000/svg">
<path fill-rule="evenodd" clip-rule="evenodd" d="M8.81995 0.641511C8.35132 0.172882 7.59152 0.172882 7.12289 0.641511L0.900353 6.86405C0.705091 7.05931 0.705091 7.37589 0.900353 7.57116C1.09561 7.76642 1.4122 7.76642 1.60746 7.57116L7.97142 1.2072L14.3354 7.57116C14.5306 7.76642 14.8472 7.76642 15.0425 7.57116C15.2378 7.37589 15.2378 7.05931 15.0425 6.86405L8.81995 0.641511Z" fill="#89959F"/>
<path fill-rule="evenodd" clip-rule="evenodd" d="M8.00035 17.8001C8.27649 17.8001 8.50035 17.5762 8.50035 17.3001V0.60009H7.50035L7.50035 17.3001C7.50035 17.5762 7.72421 17.8001 8.00035 17.8001Z" fill="#89959F"/>
</svg>
