<svg width="24" height="24" viewBox="0 0 24 24" fill="none" xmlns="http://www.w3.org/2000/svg">
<path d="M19.8458 3.14658C17.9571 1.25781 14.6913 1.34317 12.5485 3.48599L2.83285 13.2016C2.59854 13.436 2.21864 13.436 1.98432 13.2016C1.75001 12.9673 1.75001 12.5874 1.98432 12.3531L11.7 2.63747C14.2434 0.094004 18.2717 -0.124564 20.6944 2.29805C23.117 4.72067 22.8984 8.74899 20.355 11.2925L9.62539 22.022C9.62271 22.0247 9.62006 22.0274 9.61737 22.0301C9.61547 22.032 9.61356 22.0339 9.61165 22.0358L9.57865 22.0688L9.57835 22.0685C7.77511 23.8225 4.90174 23.8407 3.12985 22.0688C1.34246 20.2814 1.37665 17.3732 3.17661 15.5732L11.9545 6.79529L12.8031 7.64382L4.02514 16.4218C2.6805 17.7664 2.67281 19.9147 3.97838 21.2203C5.28002 22.5219 7.41933 22.5182 8.76473 21.1856L19.5064 10.4439C21.6493 8.3011 21.7346 5.03535 19.8458 3.14658Z" fill="#0E141E"/>
<path d="M16.1972 11.0378L8.43315 18.8018C8.19883 19.0361 7.81893 19.0361 7.58462 18.8018C7.35031 18.5675 7.35031 18.1876 7.58462 17.9533L15.3487 10.1892C16.0516 9.48629 16.0516 8.34659 15.3487 7.64365C14.6457 6.94071 13.506 6.94071 12.8031 7.64365L11.9545 6.79512C13.1261 5.62355 15.0256 5.62355 16.1972 6.79512C17.3688 7.9667 17.3688 9.86619 16.1972 11.0378Z" fill="#0E141E"/>
</svg>
