<svg width="16" height="16" viewBox="0 0 16 16" fill="none" xmlns="http://www.w3.org/2000/svg">
<path d="M5.97526 14.24C6.19196 15.1573 7.01606 15.84 7.99961 15.84C8.98315 15.84 9.80725 15.1573 10.0239 14.24H5.97526Z" fill="#89959F"/>
<path fill-rule="evenodd" clip-rule="evenodd" d="M10.0239 14.24C9.80725 15.1573 8.98315 15.84 7.99961 15.84C7.01606 15.84 6.19196 15.1573 5.97526 14.24H10.0239Z" fill="#89959F"/>
<path d="M7.99971 0.47998C5.17201 0.47998 2.87971 2.77228 2.87971 5.59998V9.75998L1.36891 11.9318C0.926114 12.5683 1.38159 13.44 2.15698 13.44H13.8424C14.6178 13.44 15.0733 12.5683 14.6305 11.9318L13.1197 9.75998V5.59998C13.1197 2.77228 10.8274 0.47998 7.99971 0.47998Z" fill="#89959F"/>
<path fill-rule="evenodd" clip-rule="evenodd" d="M13.8424 13.44C14.6178 13.44 15.0733 12.5683 14.6305 11.9318L13.1197 9.75998V5.59998C13.1197 2.77228 10.8274 0.47998 7.99971 0.47998C5.17201 0.47998 2.87971 2.77228 2.87971 5.59998V9.75998L1.36891 11.9318C0.926114 12.5683 1.38159 13.44 2.15698 13.44H13.8424Z" fill="#89959F"/>
</svg>
