<svg width="20" height="20" viewBox="0 0 20 20" fill="none" xmlns="http://www.w3.org/2000/svg">
<path d="M7.46957 17.8001C7.74043 18.9468 8.77056 19.8001 10 19.8001C11.2294 19.8001 12.2596 18.9468 12.5304 17.8001H7.46957Z" fill="#E3AF7B"/>
<path fill-rule="evenodd" clip-rule="evenodd" d="M12.5304 17.8001C12.2596 18.9468 11.2294 19.8001 10 19.8001C8.77056 19.8001 7.74043 18.9468 7.46957 17.8001H12.5304Z" fill="#E3AF7B"/>
<path d="M10.0001 0.600098C6.4655 0.600098 3.60012 3.46548 3.60012 7.0001V12.2001L1.71162 14.9148C1.15813 15.7105 1.72748 16.8001 2.69671 16.8001H17.3035C18.2728 16.8001 18.8421 15.7105 18.2886 14.9148L16.4001 12.2001V7.0001C16.4001 3.46548 13.5347 0.600098 10.0001 0.600098Z" fill="#E3AF7B"/>
<path fill-rule="evenodd" clip-rule="evenodd" d="M17.3035 16.8001C18.2728 16.8001 18.8421 15.7105 18.2886 14.9148L16.4001 12.2001V7.0001C16.4001 3.46548 13.5347 0.600098 10.0001 0.600098C6.4655 0.600098 3.60012 3.46548 3.60012 7.0001V12.2001L1.71162 14.9148C1.15813 15.7105 1.72748 16.8001 2.69671 16.8001H17.3035Z" fill="#E3AF7B"/>
</svg>
