<svg width="32" height="32" viewBox="0 0 32 32" fill="none" xmlns="http://www.w3.org/2000/svg">
<g clip-path="url(#clip0_6_41)">
<path d="M5.6 28.32C5.6 25.8458 7.60576 23.84 10.08 23.84H19.68C22.1542 23.84 24.16 25.8458 24.16 28.32V32H5.6V28.32Z" fill="#1E2D3D"/>
<path d="M8.10783 15.7612C6.87071 13.6184 7.60487 10.8785 9.74762 9.6414L14.9998 6.60906C16.2711 5.87505 17.8968 6.31064 18.6308 7.582C19.3649 8.85336 18.9293 10.479 17.6579 11.2131L8.52594 16.4854L8.10783 15.7612Z" fill="#1E2D3D"/>
<path d="M10.3549 11.6286C9.22478 12.759 8.5258 14.3204 8.5258 16.0452C8.5258 16.0972 8.52643 16.1491 8.5277 16.2008L13.401 13.3872L10.3549 11.6286Z" fill="#1E2D3D"/>
<path d="M15.001 14.311L8.80258 17.8896C9.5894 20.4392 11.9645 22.2917 14.7724 22.2917C17.6626 22.2917 20.0944 20.3288 20.8073 17.6633L15.001 14.311Z" fill="#1E2D3D"/>
<path d="M21.2264 16.0577L16.601 13.3872L21.4711 10.5754C22.6395 12.2269 22.5579 14.492 21.2264 16.0577Z" fill="#1E2D3D"/>
<path d="M15.001 12.4635L11.7417 10.5817C12.6393 10.0828 13.6726 9.79858 14.7724 9.79858C15.9662 9.79858 17.0818 10.1335 18.0303 10.7145L15.001 12.4635Z" fill="#1E2D3D"/>
<path d="M7.03324 0.8304C6.87315 0.232918 6.25901 -0.121654 5.66153 0.038441L2.80397 0.804122C2.20649 0.964217 1.85191 1.57835 2.01201 2.17584L2.28627 3.19939L0.379082 6.60459C0.190122 6.93721 0.0571842 7.26774 0.0146085 7.63338C-0.0278951 7.99841 0.0276908 8.33205 0.112477 8.65142L0.112952 8.6532L1.27285 12.982C1.52236 13.9132 2.47952 14.4658 3.41071 14.2163C4.34191 13.9668 4.89452 13.0096 4.64501 12.0784L4.43842 11.5723C4.40228 11.4837 4.31611 11.4354 4.22093 11.426C3.70629 11.375 3.20598 11.1697 2.80852 10.778C2.41166 10.387 2.16511 9.85758 2.07189 9.23758C2.00766 8.81042 2.12015 8.4197 2.25025 8.11401C2.38048 7.80799 2.56386 7.50807 2.72453 7.25122L2.76764 7.18235C2.89847 6.97338 3.01521 6.78692 3.11325 6.61505C3.33216 6.23127 3.77137 5.94703 4.20539 6.02972C4.63941 6.11241 4.92412 6.53503 4.74333 6.93818C4.56758 7.3301 4.34344 7.68442 4.16345 7.96895C4.13472 8.01436 4.10709 8.05804 4.08099 8.09977C3.91689 8.36208 3.79742 8.56443 3.72247 8.74054C3.68 8.88463 3.65054 9.02223 3.68 9.2C3.71426 9.40676 3.81158 9.57316 3.92 9.68C4.0278 9.78623 4.20652 9.90083 4.4 9.92C4.58128 9.92623 4.8 9.92 5.06361 9.71616C5.31222 9.46618 5.51975 9.15035 5.68746 8.88463C5.7352 8.80898 5.78043 8.73624 5.82419 8.66587C5.95043 8.46284 6.06439 8.27955 6.19119 8.10297C6.3588 7.86956 6.50291 7.71617 6.63336 7.62578C7.19094 7.23939 7.57861 6.79404 7.81248 6.29892C8.04614 5.80426 8.10231 5.31083 8.0752 4.86488C8.04858 4.42707 7.94091 4.02479 7.84002 3.70189C7.79161 3.54694 7.75058 3.42532 7.71568 3.32188C7.66671 3.17673 7.62977 3.06723 7.60143 2.95161L7.59939 2.94329L7.03324 0.8304Z" fill="#1E2D3D"/>
<path d="M24.9668 14.9104C25.1269 14.3129 25.741 13.9583 26.3385 14.1184L29.196 14.8841C29.7935 15.0442 30.1481 15.6584 29.988 16.2558L29.7137 17.2794L31.6209 20.6846C31.8099 21.0172 31.9428 21.3477 31.9854 21.7134C32.0279 22.0784 31.9723 22.4121 31.8875 22.7314L31.887 22.7332L30.7271 27.062C30.4776 27.9932 29.5205 28.5458 28.5893 28.2963C27.6581 28.0468 27.1055 27.0896 27.355 26.1584L27.5616 25.6523C27.5977 25.5637 27.6839 25.5154 27.7791 25.506C28.2937 25.455 28.794 25.2497 29.1915 24.858C29.5883 24.467 29.8349 23.9376 29.9281 23.3176C29.9923 22.8904 29.8799 22.4997 29.7498 22.194C29.6195 21.888 29.4361 21.5881 29.2755 21.3312L29.2324 21.2623C29.1015 21.0534 28.9848 20.8669 28.8868 20.6951C28.6678 20.3113 28.2286 20.027 27.7946 20.1097C27.3606 20.1924 27.0759 20.615 27.2567 21.0182C27.4324 21.4101 27.6566 21.7644 27.8366 22.0489C27.8653 22.0944 27.8929 22.138 27.919 22.1798C28.0831 22.4421 28.2026 22.6444 28.2775 22.8205C28.32 22.9646 28.3495 23.1022 28.32 23.28C28.2857 23.4868 28.1884 23.6532 28.08 23.76C27.9722 23.8662 27.7935 23.9808 27.6 24C27.4187 24.0062 27.2 24 26.9364 23.7962C26.6878 23.5462 26.4802 23.2303 26.3125 22.9646C26.2648 22.889 26.2196 22.8162 26.1758 22.7459C26.0496 22.5428 25.9356 22.3596 25.8088 22.183C25.6412 21.9496 25.4971 21.7962 25.3666 21.7058C24.8091 21.3194 24.4214 20.874 24.1875 20.3789C23.9539 19.8843 23.8977 19.3908 23.9248 18.9449C23.9514 18.5071 24.0591 18.1048 24.16 17.7819C24.2084 17.6269 24.2494 17.5053 24.2843 17.4019C24.3333 17.2567 24.3702 17.1472 24.3986 17.0316L24.4006 17.0233L24.9668 14.9104Z" fill="#1E2D3D"/>
</g>
<defs>
<clipPath id="clip0_6_41">
<rect width="32" height="32" fill="white"/>
</clipPath>
</defs>
</svg>
