<svg width="229" height="73" viewBox="0 0 229 73" fill="none" xmlns="http://www.w3.org/2000/svg">
<path d="M227.542 20.288C228.113 24.3509 225.76 28.8005 220.597 33.4092C215.458 37.9957 207.686 42.5975 197.826 46.9424C178.115 55.6279 150.222 63.2167 118.823 67.6296C87.4237 72.0424 58.519 72.436 37.1779 69.52C26.502 68.0612 17.7628 65.7799 11.5589 62.7876C5.32479 59.7807 1.83683 56.152 1.26583 52.0891C0.694824 48.0262 3.04746 43.5767 8.21125 38.9679C13.3501 34.3815 21.1219 29.7797 30.9821 25.4348C50.6927 16.7492 78.5862 9.16041 109.985 4.74756C141.384 0.334715 170.289 -0.0588951 191.63 2.85717C202.306 4.31593 211.045 6.59724 217.249 9.58959C223.483 12.5965 226.971 16.2251 227.542 20.288Z" stroke="#FFC692" stroke-width="1.5"/>
</svg>
