<svg width="20" height="20" viewBox="0 0 20 20" fill="none" xmlns="http://www.w3.org/2000/svg">
<path fill-rule="evenodd" clip-rule="evenodd" d="M0.600098 6.60002H19.4001V18.4C19.4001 19.0628 18.8628 19.6 18.2001 19.6H1.8001C1.13736 19.6 0.600098 19.0628 0.600098 18.4V6.60002ZM3.8001 9.50002C3.8001 9.38956 3.88964 9.30002 4.0001 9.30002H6.4001C6.51056 9.30002 6.6001 9.38956 6.6001 9.50002V11.9C6.6001 12.0105 6.51056 12.1 6.4001 12.1H4.0001C3.88964 12.1 3.8001 12.0105 3.8001 11.9V9.50002ZM8.8001 9.30002C8.68964 9.30002 8.6001 9.38956 8.6001 9.50002V11.9C8.6001 12.0105 8.68964 12.1 8.8001 12.1H11.2001C11.3106 12.1 11.4001 12.0105 11.4001 11.9V9.50002C11.4001 9.38956 11.3106 9.30002 11.2001 9.30002H8.8001ZM13.4001 9.50002C13.4001 9.38956 13.4896 9.30002 13.6001 9.30002H16.0001C16.1106 9.30002 16.2001 9.38956 16.2001 9.50002V11.9C16.2001 12.0105 16.1106 12.1 16.0001 12.1H13.6001C13.4896 12.1 13.4001 12.0105 13.4001 11.9V9.50002ZM13.6001 14.1C13.4896 14.1 13.4001 14.1896 13.4001 14.3V16.7C13.4001 16.8105 13.4896 16.9 13.6001 16.9H16.0001C16.1106 16.9 16.2001 16.8105 16.2001 16.7V14.3C16.2001 14.1896 16.1106 14.1 16.0001 14.1H13.6001ZM8.6001 14.3C8.6001 14.1896 8.68964 14.1 8.8001 14.1H11.2001C11.3106 14.1 11.4001 14.1896 11.4001 14.3V16.7C11.4001 16.8105 11.3106 16.9 11.2001 16.9H8.8001C8.68964 16.9 8.6001 16.8105 8.6001 16.7V14.3ZM4.0001 14.1C3.88964 14.1 3.8001 14.1896 3.8001 14.3V16.7C3.8001 16.8105 3.88964 16.9 4.0001 16.9H6.4001C6.51056 16.9 6.6001 16.8105 6.6001 16.7V14.3C6.6001 14.1896 6.51056 14.1 6.4001 14.1H4.0001Z" fill="#E3AF7B"/>
<path d="M4.4001 2.00002H1.8001C1.13736 2.00002 0.600098 2.53727 0.600098 3.20002V5.60002H19.4001V3.20002C19.4001 2.53727 18.8628 2.00002 18.2001 2.00002H15.6001V3.30001C15.6001 3.57616 15.3762 3.80002 15.1001 3.80002C14.824 3.80002 14.6001 3.57616 14.6001 3.30002V2.00002H5.4001V3.30001C5.4001 3.57616 5.17624 3.80002 4.9001 3.80002C4.62396 3.80002 4.4001 3.57616 4.4001 3.30002V2.00002Z" fill="#E3AF7B"/>
<path d="M2.00008 8.00002H17.0001V18H2.00008V8.00002Z" fill="#E3AF7B"/>
</svg>
