<svg width="24" height="24" viewBox="0 0 24 24" fill="none" xmlns="http://www.w3.org/2000/svg">
<path fill-rule="evenodd" clip-rule="evenodd" d="M21.8402 3.59986H2.16021C2.02767 3.59986 1.92021 3.70731 1.92021 3.83986V22.0799C1.92021 22.2124 2.02767 22.3199 2.16021 22.3199H21.8402C21.9728 22.3199 22.0802 22.2124 22.0802 22.0799V3.83986C22.0802 3.70731 21.9728 3.59986 21.8402 3.59986ZM2.16021 2.39986C1.36492 2.39986 0.720215 3.04457 0.720215 3.83986V22.0799C0.720215 22.8752 1.36492 23.5199 2.16021 23.5199H21.8402C22.6355 23.5199 23.2802 22.8752 23.2802 22.0799V3.83986C23.2802 3.04457 22.6355 2.39986 21.8402 2.39986H2.16021Z" fill="#0E141E"/>
<path fill-rule="evenodd" clip-rule="evenodd" d="M21.8402 3.59986H2.16021C2.02767 3.59986 1.92021 3.70731 1.92021 3.83986V6.71986H22.0802V3.83986C22.0802 3.70731 21.9728 3.59986 21.8402 3.59986ZM2.16021 2.39986C1.36492 2.39986 0.720215 3.04457 0.720215 3.83986V7.91986H23.2802V3.83986C23.2802 3.04457 22.6355 2.39986 21.8402 2.39986H2.16021Z" fill="#0E141E"/>
<path fill-rule="evenodd" clip-rule="evenodd" d="M5.52022 11.5199V12.9599H6.96022V11.5199H5.52022ZM4.56021 10.3199C4.42767 10.3199 4.32021 10.4273 4.32021 10.5599V13.9199C4.32021 14.0524 4.42767 14.1599 4.56021 14.1599H7.92022C8.05276 14.1599 8.16022 14.0524 8.16022 13.9199V10.5599C8.16022 10.4273 8.05276 10.3199 7.92022 10.3199H4.56021Z" fill="#0E141E"/>
<path fill-rule="evenodd" clip-rule="evenodd" d="M11.2802 11.5199V12.9599H12.7202V11.5199H11.2802ZM10.3202 10.3199C10.1877 10.3199 10.0802 10.4273 10.0802 10.5599V13.9199C10.0802 14.0524 10.1877 14.1599 10.3202 14.1599H13.6802C13.8128 14.1599 13.9202 14.0524 13.9202 13.9199V10.5599C13.9202 10.4273 13.8128 10.3199 13.6802 10.3199H10.3202Z" fill="#0E141E"/>
<path fill-rule="evenodd" clip-rule="evenodd" d="M17.0402 11.5199V12.9599H18.4802V11.5199H17.0402ZM16.0802 10.3199C15.9477 10.3199 15.8402 10.4273 15.8402 10.5599V13.9199C15.8402 14.0524 15.9477 14.1599 16.0802 14.1599H19.4402C19.5728 14.1599 19.6802 14.0524 19.6802 13.9199V10.5599C19.6802 10.4273 19.5728 10.3199 19.4402 10.3199H16.0802Z" fill="#0E141E"/>
<path fill-rule="evenodd" clip-rule="evenodd" d="M17.0402 17.2799V18.7199H18.4802V17.2799H17.0402ZM16.0802 16.0799C15.9477 16.0799 15.8402 16.1873 15.8402 16.3199V19.6799C15.8402 19.8124 15.9477 19.9199 16.0802 19.9199H19.4402C19.5728 19.9199 19.6802 19.8124 19.6802 19.6799V16.3199C19.6802 16.1873 19.5728 16.0799 19.4402 16.0799H16.0802Z" fill="#0E141E"/>
<path fill-rule="evenodd" clip-rule="evenodd" d="M11.2802 17.2799V18.7199H12.7202V17.2799H11.2802ZM10.3202 16.0799C10.1877 16.0799 10.0802 16.1873 10.0802 16.3199V19.6799C10.0802 19.8124 10.1877 19.9199 10.3202 19.9199H13.6802C13.8128 19.9199 13.9202 19.8124 13.9202 19.6799V16.3199C13.9202 16.1873 13.8128 16.0799 13.6802 16.0799H10.3202Z" fill="#0E141E"/>
<path fill-rule="evenodd" clip-rule="evenodd" d="M5.52022 17.2799V18.7199H6.96022V17.2799H5.52022ZM4.56021 16.0799C4.42767 16.0799 4.32021 16.1873 4.32021 16.3199V19.6799C4.32021 19.8124 4.42767 19.9199 4.56021 19.9199H7.92022C8.05276 19.9199 8.16022 19.8124 8.16022 19.6799V16.3199C8.16022 16.1873 8.05276 16.0799 7.92022 16.0799H4.56021Z" fill="#0E141E"/>
<path d="M5.28022 0.959863C5.28022 0.628492 5.54884 0.359863 5.88022 0.359863C6.21159 0.359863 6.48022 0.628492 6.48022 0.959863V4.55986C6.48022 4.89123 6.21159 5.15986 5.88022 5.15986C5.54884 5.15986 5.28022 4.89123 5.28022 4.55986V0.959863Z" fill="#0E141E"/>
<path d="M17.5202 0.959863C17.5202 0.628492 17.7888 0.359863 18.1202 0.359863C18.4516 0.359863 18.7202 0.628492 18.7202 0.959863V4.55986C18.7202 4.89123 18.4516 5.15986 18.1202 5.15986C17.7888 5.15986 17.5202 4.89123 17.5202 4.55986V0.959863Z" fill="#0E141E"/>
</svg>
