<svg width="24" height="24" viewBox="0 0 24 24" fill="none" xmlns="http://www.w3.org/2000/svg">
<path fill-rule="evenodd" clip-rule="evenodd" d="M3.87857 18.5806L4.08 17.7514C4.08 17.7514 4.11782 17.1663 3.52775 16.7353C2.93768 16.3042 1.2 13.5816 1.2 11.2799C1.2 6.36454 5.43599 2.63994 12 2.63994C18.564 2.63994 22.8 6.36454 22.8 11.2799C22.8 13.7938 21.7284 15.8179 19.8859 17.2439C18.0171 18.69 15.295 19.5599 12 19.5599C10.7541 19.5599 9.58613 19.4352 8.51415 19.2006L8.10724 19.1115L3.19654 21.5003L3.87857 18.5806ZM1.9675 16.8414C2.23206 17.1568 2.52086 17.4552 2.8324 17.7359C2.83701 17.7401 2.84164 17.7442 2.84626 17.7484L2.83996 17.7514L1.91332 21.7182C1.72945 22.5054 2.5412 23.1535 3.26808 22.7999L8.25757 20.3729C9.42016 20.6273 10.6746 20.7599 12 20.7599C18.9874 20.7599 24 17.0744 24 11.2799C24 5.48546 18.9874 1.43994 12 1.43994C5.01258 1.43994 0 5.48546 0 11.2799C0 13.4604 0.709789 15.3422 1.9675 16.8414Z" fill="#1E2D3D"/>
</svg>
