<svg width="16" height="17" viewBox="0 0 16 17" fill="none" xmlns="http://www.w3.org/2000/svg">
<circle cx="8" cy="8.5" r="8" fill="#D8DDE8"/>
<path d="M10.1392 11.3523C10.3361 11.5492 10.6554 11.5492 10.8523 11.3523C11.0492 11.1554 11.0492 10.8361 10.8523 10.6392L8.71308 8.5L10.8523 6.36076C11.0492 6.16386 11.0492 5.84457 10.8523 5.64767C10.6554 5.45078 10.3361 5.45078 10.1392 5.64767L8 7.78692L5.86076 5.64767C5.66386 5.45078 5.34457 5.45078 5.14767 5.64767C4.95078 5.84457 4.95078 6.16386 5.14767 6.36076L7.28692 8.5L5.14767 10.6392C4.95078 10.8361 4.95078 11.1554 5.14767 11.3523C5.34457 11.5492 5.66386 11.5492 5.86076 11.3523L8 9.21308L10.1392 11.3523Z" fill="white"/>
</svg>
