<svg width="16" height="16" viewBox="0 0 16 16" fill="none" xmlns="http://www.w3.org/2000/svg">
<path d="M0 3.60014C0 3.06994 0.429807 2.64014 0.96 2.64014H15.04C15.5702 2.64014 16 3.06994 16 3.60014V5.84014H0V3.60014Z" fill="#89959F"/>
<path fill-rule="evenodd" clip-rule="evenodd" d="M0.96 13.3601C0.429807 13.3601 0 12.9303 0 12.4001V6.64014H16V12.4001C16 12.9303 15.5702 13.3601 15.04 13.3601H0.96ZM2.24 9.84014C2.06327 9.84014 1.92 9.98341 1.92 10.1601V11.1201C1.92 11.2969 2.06327 11.4401 2.24 11.4401H3.2C3.37673 11.4401 3.52 11.2969 3.52 11.1201V10.1601C3.52 9.98341 3.37673 9.84014 3.2 9.84014H2.24Z" fill="#89959F"/>
</svg>
