<svg width="20" height="20" viewBox="0 0 20 20" fill="none" xmlns="http://www.w3.org/2000/svg">
<path d="M8.5936 8.3696C8.4112 8.216 8.32 8.0192 8.32 7.7792C8.32 7.5296 8.4064 7.3136 8.5792 7.1312C8.752 6.9392 9.0208 6.8 9.3856 6.7136V8.7584C9.04 8.6528 8.776 8.5232 8.5936 8.3696Z" fill="#E3AF7B"/>
<path d="M11.6032 12.848C11.4304 13.0208 11.1712 13.1456 10.8256 13.2224V11.2352C11.1616 11.3504 11.416 11.4848 11.5888 11.6384C11.7712 11.792 11.8624 11.9888 11.8624 12.2288C11.8624 12.4688 11.776 12.6752 11.6032 12.848Z" fill="#E3AF7B"/>
<path fill-rule="evenodd" clip-rule="evenodd" d="M10 19.5C15.2467 19.5 19.5 15.2467 19.5 10C19.5 4.75329 15.2467 0.5 10 0.5C4.75329 0.5 0.5 4.75329 0.5 10C0.5 15.2467 4.75329 19.5 10 19.5ZM13.3168 14.0864C13.8928 13.52 14.1808 12.8432 14.1808 12.056C14.1808 11.4224 14.0224 10.9136 13.7056 10.5296C13.3888 10.136 12.9952 9.8432 12.5248 9.6512C12.064 9.4496 11.4976 9.272 10.8256 9.1184V6.6704C11.5744 6.7568 12.3088 7.0064 13.0288 7.4192L13.7488 5.648C12.9808 5.1584 12.0064 4.8656 10.8256 4.7696V3.2H9.3856V4.7984C8.2912 4.9232 7.4512 5.2736 6.8656 5.8496C6.2896 6.416 6.0016 7.0976 6.0016 7.8944C6.0016 8.5376 6.16 9.056 6.4768 9.4496C6.7936 9.8336 7.1872 10.1264 7.6576 10.328C8.128 10.5296 8.704 10.712 9.3856 10.8752V13.28C8.8672 13.232 8.3632 13.1168 7.8736 12.9344C7.384 12.752 6.9568 12.5264 6.592 12.2576L5.8 14.0144C6.1936 14.3216 6.712 14.5808 7.3552 14.792C7.9984 15.0032 8.6752 15.128 9.3856 15.1664V16.736H10.8256V15.1232C11.9104 14.9888 12.7408 14.6432 13.3168 14.0864Z" fill="#E3AF7B"/>
</svg>
