<svg width="23" height="23" viewBox="0 0 23 23" fill="none" xmlns="http://www.w3.org/2000/svg">
<path fill-rule="evenodd" clip-rule="evenodd" d="M15.2549 3.89412H2.40094C1.60565 3.89412 0.960938 4.53883 0.960938 5.33412V20.7229C0.960938 21.5182 1.60565 22.1629 2.40094 22.1629H17.7897C18.585 22.1629 19.2297 21.5182 19.2297 20.7229V7.44116L17.3097 9.36116V20.2429H2.88094V5.81412H13.3349L15.2549 3.89412Z" fill="#352B28"/>
<path fill-rule="evenodd" clip-rule="evenodd" d="M19.426 2.43816L10.3402 11.524L9.93743 12.9112L11.4131 12.5423L20.4717 3.48379L19.426 2.43816ZM20.4443 0.741102C19.8819 0.178747 18.9701 0.178747 18.4078 0.741102L8.80817 10.3407C8.69378 10.4551 8.61016 10.5965 8.56506 10.7519L7.86071 13.178C7.55094 14.245 8.515 15.2459 9.59286 14.9765L12.1368 14.3405C12.3056 14.2983 12.4597 14.211 12.5828 14.088L22.1687 4.50203C22.7311 3.93967 22.7311 3.02791 22.1687 2.46556L20.4443 0.741102Z" fill="#352B28"/>
<path fill-rule="evenodd" clip-rule="evenodd" d="M12.225 13.1376L9.77226 10.6849L11.1299 9.32722L13.5827 11.78L12.225 13.1376Z" fill="#352B28"/>
</svg>
