<svg width="20" height="20" viewBox="0 0 20 20" fill="none" xmlns="http://www.w3.org/2000/svg">
<path fill-rule="evenodd" clip-rule="evenodd" d="M10 8.74228e-07C4.47715 1.35705e-06 -1.35705e-06 4.47715 -8.74228e-07 10C-3.91405e-07 15.5228 4.47715 20 10 20C15.5228 20 20 15.5228 20 10C20 4.47715 15.5228 3.91405e-07 10 8.74228e-07ZM8.9168 5.00001L8.9168 12.7472L11.1632 12.7472L11.1632 5.00001L8.9168 5.00001ZM11.048 14.1872C10.7888 13.9472 10.4528 13.8272 10.04 13.8272C9.6272 13.8272 9.2912 13.9472 9.032 14.1872C8.7728 14.4368 8.6432 14.7488 8.6432 15.1232C8.6432 15.4688 8.7728 15.7568 9.032 15.9872C9.2912 16.2176 9.6272 16.3328 10.04 16.3328C10.4528 16.3328 10.7888 16.2128 11.048 15.9728C11.3072 15.7328 11.4368 15.4352 11.4368 15.08C11.4368 14.7248 11.3072 14.4272 11.048 14.1872Z" fill="#DB6960"/>
</svg>
