<svg width="24" height="19" viewBox="0 0 24 19" fill="none" xmlns="http://www.w3.org/2000/svg">
<path d="M2.91297 12.0334C3.12055 11.7948 3.45674 11.7751 3.70302 11.9736C3.70522 11.9753 3.70741 11.9771 3.70959 11.9788C6.53182 14.245 10.3382 14.6862 12.78 14.5155C15.2217 14.3448 18.9296 13.3781 21.409 10.7412C21.4109 10.7391 21.4128 10.7371 21.4148 10.735C21.631 10.5042 21.9667 10.4769 22.2055 10.6844C22.8026 11.2004 22.4756 11.758 21.877 12.2723C20.3909 13.5487 17.318 15.6417 12.8804 15.952C8.44277 16.2623 5.10855 14.6174 3.45929 13.5602C2.79488 13.1342 2.39347 12.6275 2.91297 12.0334Z" fill="#97A1AA"/>
<path d="M2.91249 11.5534C3.12007 11.3147 3.45626 11.295 3.70254 11.4935C3.70474 11.4953 3.70693 11.497 3.70911 11.4988C6.53134 13.7649 10.3377 14.2062 12.7795 14.0354C15.2212 13.8647 18.9292 12.898 21.4085 10.2611C21.4104 10.2591 21.4124 10.257 21.4143 10.255C21.6306 10.0241 21.9662 9.99683 22.205 10.2043C22.8021 10.7203 22.6184 11.6457 22.0198 12.16C20.5337 13.4365 17.3176 15.1616 12.8799 15.4719C8.4423 15.7822 5.00902 14.5372 3.35975 13.48C2.51978 13 2.39299 12.1475 2.91249 11.5534Z" fill="#97A1AA"/>
<path d="M11.5137 15.8916L12.9535 15.8671L12.9902 18.0268C12.9969 18.4244 12.6801 18.7522 12.2825 18.759C11.8849 18.7657 11.5571 18.4489 11.5504 18.0513L11.5137 15.8916Z" fill="#97A1AA"/>
<path d="M8.09668 15.3496L9.49374 15.6986L8.97022 17.7942C8.87384 18.18 8.48296 18.4146 8.09718 18.3182C7.71139 18.2219 7.47677 17.831 7.57315 17.4452L8.09668 15.3496Z" fill="#97A1AA"/>
<path d="M16.2539 15.2109L14.8695 15.6072L15.4639 17.6838C15.5733 18.0661 15.972 18.2873 16.3543 18.1779C16.7365 18.0685 16.9577 17.6698 16.8483 17.2875L16.2539 15.2109Z" fill="#97A1AA"/>
<path d="M4.63818 13.8481L5.89731 14.5469L4.84924 16.4355C4.6563 16.7832 4.21802 16.9087 3.87032 16.7158C3.52262 16.5228 3.39717 16.0845 3.59011 15.7368L4.63818 13.8481Z" fill="#97A1AA"/>
<path d="M19.6597 13.5928L18.425 14.3339L19.5366 16.1859C19.7413 16.5268 20.1836 16.6373 20.5245 16.4326C20.8654 16.228 20.9759 15.7857 20.7713 15.4448L19.6597 13.5928Z" fill="#97A1AA"/>
<path d="M0.563365 3.43387C-0.3081 3.6721 0.0337359 4.6203 0.260773 5.33971C0.556288 6.27611 0.678628 6.56503 1.13509 7.64303L1.16854 7.72203C1.65268 8.86553 3.26651 8.59554 4.01291 8.31761C6.13105 7.56321 10.8394 5.91148 12.7276 5.33971C15.0878 4.625 17.2483 5.00249 19.1425 5.57796C20.9263 6.11989 22.5404 7.11934 22.7419 7.25148C22.9234 7.3706 23.3062 7.71012 23.7419 7.42424C24.1776 7.13837 23.9806 6.66699 23.7419 6.29265C22.3788 4.15449 20.6595 2.36428 17.8111 1.2898C15.0291 0.240384 11.8601 0.694226 10.1858 1.05157C7.34142 1.74641 1.43483 3.19564 0.563365 3.43387Z" fill="#97A1AA"/>
</svg>
