<svg width="40" height="40" viewBox="0 0 40 40" fill="none" xmlns="http://www.w3.org/2000/svg">
<path fill-rule="evenodd" clip-rule="evenodd" d="M20 40C31.0457 40 40 31.0457 40 20C40 8.9543 31.0457 0 20 0C8.9543 0 0 8.9543 0 20C0 31.0457 8.9543 40 20 40ZM25.2956 10.3125C27.149 10.3125 28.8537 11.0546 30.0961 12.4021C31.3238 13.7338 32 15.5532 32 17.525C32 19.5549 31.2438 21.4129 29.6198 23.3723C28.1671 25.1253 26.0793 26.9044 23.6619 28.9645L23.6414 28.9819C22.8203 29.6818 21.8913 30.4737 20.9274 31.3165C20.6711 31.541 20.3415 31.6648 20 31.6648C19.6583 31.6648 19.3289 31.541 19.0722 31.3162C18.1011 30.4671 17.1659 29.6701 16.3407 28.9667L16.339 28.9653C13.9211 26.9048 11.8331 25.1254 10.3804 23.3725C8.75641 21.4129 8 19.5549 8 17.5252C8 15.5532 8.67621 13.7338 9.90375 12.4021C11.1461 11.0546 12.851 10.3125 14.7044 10.3125C16.0898 10.3125 17.3585 10.7505 18.4753 11.6142C19.0391 12.0502 19.5499 12.5837 20 13.2061C20.4503 12.5836 20.9609 12.0502 21.5245 11.6142C22.6415 10.7505 23.9102 10.3125 25.2956 10.3125Z" fill="#E3AF7B"/>
</svg>
