<svg width="16" height="16" viewBox="0 0 16 16" fill="none" xmlns="http://www.w3.org/2000/svg">
<path d="M10.88 8C10.88 8.69884 10.8517 9.37333 10.7971 10.0147C10.79 10.097 10.7209 10.16 10.6382 10.16H5.36176C5.27908 10.16 5.20996 10.097 5.20294 10.0147C5.14829 9.37333 5.12 8.69884 5.12 8C5.12 7.30116 5.14829 6.62667 5.20294 5.98534C5.20996 5.90296 5.27908 5.84 5.36176 5.84H10.6382C10.7209 5.84 10.79 5.90296 10.7971 5.98534C10.8517 6.62667 10.88 7.30116 10.88 8Z" fill="#0E141E"/>
<path d="M11.7623 5.84C11.6683 5.84 11.5946 5.92054 11.6022 6.01419C11.6538 6.65237 11.68 7.3171 11.68 8C11.68 8.6829 11.6538 9.34763 11.6022 9.98581C11.5946 10.0795 11.6683 10.16 11.7623 10.16H15.5836C15.6554 10.16 15.7185 10.1123 15.7368 10.0429C15.9085 9.39074 16 8.70604 16 7.99999C16 7.29394 15.9085 6.60925 15.7368 5.95713C15.7185 5.88774 15.6554 5.84 15.5836 5.84H11.7623Z" fill="#0E141E"/>
<path d="M15.3439 4.82209C15.3889 4.92587 15.3117 5.04 15.1986 5.04H11.6419C11.5614 5.04 11.4935 4.97996 11.4827 4.90017C11.2417 3.11819 10.7839 1.61134 10.1308 0.595309C10.0485 0.467289 10.1639 0.294562 10.3096 0.338431C12.5736 1.01997 14.4147 2.67753 15.3439 4.82209Z" fill="#0E141E"/>
<path d="M10.6692 4.85889C10.683 4.95468 10.6083 5.04 10.5115 5.04H5.48846C5.39168 5.04 5.31702 4.95468 5.33077 4.85889C5.48435 3.78948 5.71855 2.84312 6.0224 2.07012C6.62153 0.545848 7.34959 0 8 0C8.65041 0 9.37847 0.545848 9.9776 2.07012C10.2814 2.84312 10.5156 3.78947 10.6692 4.85889Z" fill="#0E141E"/>
<path d="M4.35805 5.04C4.43857 5.04 4.5065 4.97996 4.51729 4.90017C4.75827 3.11819 5.21611 1.61134 5.86917 0.595309C5.95145 0.467289 5.83611 0.294562 5.69038 0.338431C3.42644 1.01997 1.58532 2.67753 0.656054 4.82209C0.611084 4.92587 0.688334 5.04 0.80144 5.04H4.35805Z" fill="#0E141E"/>
<path d="M0.416379 5.84C0.344615 5.84 0.281467 5.88774 0.263192 5.95713C0.0914646 6.60925 0 7.29394 0 7.99999C0 8.70604 0.0914673 9.39074 0.263199 10.0429C0.281474 10.1123 0.344623 10.16 0.416387 10.16H4.23773C4.33168 10.16 4.40536 10.0795 4.39779 9.98581C4.34621 9.34763 4.32 8.6829 4.32 8C4.32 7.3171 4.34621 6.65237 4.39779 6.01419C4.40536 5.92054 4.33168 5.84 4.23773 5.84H0.416379Z" fill="#0E141E"/>
<path d="M6.0224 13.9299C5.71855 13.1569 5.48435 12.2105 5.33077 11.1411C5.31702 11.0453 5.39169 10.96 5.48846 10.96H10.5115C10.6083 10.96 10.683 11.0453 10.6692 11.1411C10.5156 12.2105 10.2814 13.1569 9.9776 13.9299C9.38032 15.4494 8.65491 15.9966 8.00603 16H7.99397C7.34509 15.9966 6.61968 15.4494 6.0224 13.9299Z" fill="#0E141E"/>
<path d="M4.51729 11.0998C4.5065 11.02 4.43857 10.96 4.35805 10.96H0.801452C0.688346 10.96 0.611096 11.0741 0.656066 11.1779C1.58533 13.3224 3.42644 14.98 5.69036 15.6615C5.83608 15.7054 5.95143 15.5327 5.86914 15.4047C5.2161 14.3886 4.75827 12.8818 4.51729 11.0998Z" fill="#0E141E"/>
<path d="M15.3439 11.1779C15.3889 11.0741 15.3117 10.96 15.1985 10.96H11.6419C11.5614 10.96 11.4935 11.02 11.4827 11.0998C11.2417 12.8818 10.7839 14.3886 10.1309 15.4047C10.0486 15.5327 10.1639 15.7054 10.3096 15.6615C12.5736 14.98 14.4147 13.3224 15.3439 11.1779Z" fill="#0E141E"/>
</svg>
