<svg width="16" height="16" viewBox="0 0 16 16" fill="none" xmlns="http://www.w3.org/2000/svg">
<g clip-path="url(#clip0)">
<path d="M4.58016 0.113269L1.6386 3.05483C1.2637 3.42974 1.2637 4.03758 1.6386 4.41248L4.67543 7.44931L7.11297 5.45509L7.02232 5.36444L8.42682 3.95993C8.48931 3.89745 8.48931 3.79614 8.42682 3.73366L7.97428 3.28111C7.91179 3.21862 7.81049 3.21862 7.748 3.28111L6.34349 4.68562L5.4384 3.78052L6.84291 2.37601C6.90539 2.31353 6.90539 2.21222 6.84291 2.14974L6.39036 1.69719C6.32787 1.6347 6.22657 1.6347 6.16408 1.69719L4.75957 3.1017L3.85448 2.1966L5.25899 0.792092C5.32147 0.729608 5.32147 0.628301 5.25899 0.565817L4.80644 0.113269C4.74395 0.0507853 4.64265 0.0507853 4.58016 0.113269Z" fill="#0E141E"/>
<path d="M7.68148 6.0236L5.24394 8.01782L8.01633 10.7902L10.0123 8.35441L7.68148 6.0236Z" fill="#0E141E"/>
<path d="M11.5947 14.3685L8.58479 11.3587L10.5808 8.92288L10.6427 8.98482L12.0472 7.58032C12.1097 7.51783 12.211 7.51783 12.2735 7.58032L12.726 8.03287C12.7885 8.09535 12.7885 8.19666 12.726 8.25914L11.3215 9.66365L12.2266 10.5687L13.6311 9.16424C13.6936 9.10175 13.7949 9.10175 13.8574 9.16424L14.31 9.61678C14.3724 9.67927 14.3724 9.78057 14.31 9.84306L12.9054 11.2476L13.8105 12.1527L15.215 10.7482C15.2775 10.6857 15.3788 10.6857 15.4413 10.7482L15.8939 11.2007C15.9564 11.2632 15.9564 11.3645 15.8939 11.427L12.9523 14.3685C12.5774 14.7434 11.9696 14.7434 11.5947 14.3685Z" fill="#0E141E"/>
<path d="M3.64547 8.52902L7.50917 7.49374L7.67481 8.11194L3.81111 9.14721L3.64547 8.52902Z" fill="#0E141E"/>
<path d="M7.48401 12.3676L8.51928 8.50386L7.90109 8.33821L6.86581 12.2019L7.48401 12.3676Z" fill="#0E141E"/>
<path fill-rule="evenodd" clip-rule="evenodd" d="M0.647298 11.3019C1.49083 12.1455 2.85847 12.1455 3.702 11.3019C4.54553 10.4584 4.54553 9.09076 3.702 8.24723C2.85847 7.4037 1.49083 7.4037 0.647298 8.24723C-0.196235 9.09076 -0.196235 10.4584 0.647298 11.3019ZM1.22656 10.72C1.74205 11.2355 2.57783 11.2355 3.09332 10.72C3.60881 10.2045 3.60881 9.36875 3.09332 8.85326C2.57783 8.33777 1.74205 8.33777 1.22656 8.85326C0.711068 9.36875 0.711068 10.2045 1.22656 10.72Z" fill="#0E141E"/>
<path fill-rule="evenodd" clip-rule="evenodd" d="M4.7126 15.3819C5.55613 16.2254 6.92376 16.2254 7.7673 15.3819C8.61083 14.5384 8.61083 13.1707 7.7673 12.3272C6.92376 11.4837 5.55613 11.4837 4.7126 12.3272C3.86906 13.1707 3.86906 14.5384 4.7126 15.3819ZM5.30657 14.8C5.82206 15.3155 6.65784 15.3155 7.17333 14.8C7.68882 14.2845 7.68882 13.4487 7.17333 12.9332C6.65784 12.4177 5.82206 12.4177 5.30657 12.9332C4.79107 13.4487 4.79107 14.2845 5.30657 14.8Z" fill="#0E141E"/>
<path d="M14.7259 0.230108C14.8574 0.122343 15.0213 0.0619762 15.1913 0.0587345C15.6205 0.0505475 15.9706 0.400637 15.9624 0.829868C15.9592 0.999831 15.8988 1.16375 15.791 1.29522L7.77497 11.0746L4.94654 8.24618L14.7259 0.230108Z" fill="#0E141E"/>
</g>
<defs>
<clipPath id="clip0">
<rect width="16" height="16" fill="white"/>
</clipPath>
</defs>
</svg>
