<svg width="32" height="32" viewBox="0 0 32 32" fill="none" xmlns="http://www.w3.org/2000/svg">
<path d="M15.483 30.5598C18.9089 30.5598 21.5749 28.0797 21.84 25.0397C21.8833 23.6436 21.8998 23.0397 21.5749 20.9766C21.4862 20.4138 21.3516 19.9648 21.2612 19.5622C21.2185 19.3721 21.3669 19.1997 21.5616 19.1997H32V31.9998H0V19.1997H9.97184C10.1885 19.1997 10.3425 19.4108 10.2798 19.6182C9.85642 21.0188 9.66532 22.0653 9.43997 23.4397C9.39139 23.8169 9.384 24.6397 9.43999 25.1997C9.75999 28.3998 12.0572 30.5598 15.483 30.5598Z" fill="#BB534B"/>
<path d="M15.6814 28.6398C18.1552 28.6398 20.1606 26.3703 20.1606 23.5707C20.1919 22.2825 20.0275 20.9491 19.8492 19.5023C19.5714 17.2486 19.2597 14.7199 19.6007 11.6585C19.9578 8.45247 22.1417 3.24385 23.4106 0.560049C23.4507 0.475203 23.3273 0.394478 23.2637 0.46351C23.0686 0.67542 22.8405 0.918495 22.585 1.19077C21.0572 2.81888 18.5499 5.49097 16.2413 8.78605C15.2862 10.1494 14.4893 11.6183 13.8293 13.1294C13.7769 13.2492 13.804 13.3887 13.8965 13.4812L16.1419 15.7266C16.2427 15.8274 16.1713 15.9998 16.0287 15.9998H12.9785C12.8397 15.9998 12.7166 16.0892 12.6748 16.2216C11.9831 18.4144 11.5396 20.606 11.2821 22.6129C11.2297 22.9231 11.2022 23.2433 11.2022 23.5707C11.1223 26.9501 13.2076 28.6398 15.6814 28.6398Z" fill="#BB534B"/>
<path d="M5.50333 13.9399C5.4001 14.1525 5.55489 14.3997 5.79117 14.3997H12.103C12.2442 14.3997 12.3162 14.2302 12.2181 14.1286L8.00707 9.76898C7.85262 9.60908 7.58619 9.65152 7.48907 9.85149L5.50333 13.9399Z" fill="#BB534B"/>
</svg>
