<svg width="14" height="14" viewBox="0 0 14 14" fill="none" xmlns="http://www.w3.org/2000/svg">
<path d="M7.25607 11.7027C7.01886 11.9207 6.81774 12.1028 6.66667 12.2384C6.51559 12.1028 6.31447 11.9207 6.07727 11.7027C5.53457 11.204 4.80449 10.5183 4.05327 9.76917C3.3009 9.01888 2.53325 8.21084 1.91257 7.46661C1.27719 6.70475 0.844602 6.06596 0.700439 5.64435C0.0714645 3.80487 0.973042 1.80257 2.6508 1.15255C3.97131 0.640948 5.41341 1.10232 6.26923 2.22342L6.66667 2.74404L7.0641 2.22342C7.91993 1.10232 9.36202 0.640948 10.6825 1.15255C12.3603 1.80257 13.2619 3.80487 12.6329 5.64435C12.4887 6.06596 12.0561 6.70475 11.4208 7.46661C10.8001 8.21084 10.0324 9.01888 9.28006 9.76917C8.52884 10.5183 7.79876 11.204 7.25607 11.7027Z" stroke="#8D8D8D"/>
</svg>
