<svg width="14" height="14" viewBox="0 0 14 14" fill="none" xmlns="http://www.w3.org/2000/svg">
<path d="M7.58944 11.7028C7.35224 11.9208 7.15112 12.1028 7.00004 12.2385C6.84896 12.1028 6.64784 11.9208 6.41064 11.7028C5.86795 11.2041 5.13786 10.5184 4.38665 9.76926C3.63427 9.01898 2.86662 8.21093 2.24594 7.4667C1.61057 6.70484 1.17798 6.06605 1.03381 5.64444C0.404839 3.80496 1.30642 1.80266 2.98418 1.15264C4.30469 0.64104 5.74678 1.10241 6.60261 2.22351L7.00004 2.74413L7.39747 2.22351C8.2533 1.10241 9.69539 0.64104 11.0159 1.15264C12.6937 1.80266 13.5952 3.80496 12.9663 5.64444C12.8221 6.06605 12.3895 6.70484 11.7541 7.4667C11.1335 8.21093 10.3658 9.01898 9.61343 9.76926C8.86222 10.5184 8.13213 11.2041 7.58944 11.7028Z" fill="#1E2D3D" stroke="#1E2D3D"/>
</svg>
