<svg width="24" height="22" viewBox="0 0 24 22" fill="none" xmlns="http://www.w3.org/2000/svg">
<path d="M11.0276 3.9093L11.9999 5.25387L12.9723 3.90935C13.1535 3.65881 13.3443 3.42752 13.5435 3.21545L10.4565 3.21544C10.6558 3.42753 10.8465 3.65883 11.0276 3.9093Z" fill="#0E141E"/>
<path fill-rule="evenodd" clip-rule="evenodd" d="M11.2061 2.26386C10.9738 2.02794 10.7299 1.81111 10.4753 1.6142C9.35852 0.750488 8.08978 0.3125 6.70441 0.3125C4.85101 0.3125 3.14612 1.05463 1.90375 2.4021C0.676208 3.73383 0 5.55316 0 7.52521C0 9.55493 0.756409 11.4129 2.38037 13.3725C3.83313 15.1254 5.92108 16.9048 8.33899 18.9653L8.34072 18.9667L8.34101 18.967C9.16613 19.6702 10.1013 20.4672 11.0722 21.3162C11.3289 21.541 11.6583 21.6648 12 21.6648C12.3415 21.6648 12.6711 21.541 12.9274 21.3165C13.8912 20.4737 14.8202 19.6818 15.6412 18.982L15.6414 18.9819L15.6616 18.9647L15.6619 18.9645C18.0793 16.9044 20.1671 15.1253 21.6198 13.3723C23.2438 11.4129 24 9.55493 24 7.52502C24 5.55316 23.3238 3.73383 22.0961 2.4021C20.8537 1.05463 19.149 0.3125 17.2956 0.3125C15.9102 0.3125 14.6415 0.750488 13.5245 1.6142C13.27 1.81112 13.0262 2.02792 12.7939 2.26384C12.5119 2.55021 12.2469 2.86476 12 3.20612C11.7532 2.86485 11.4881 2.55028 11.2061 2.26386ZM6.70441 1.5125C7.8186 1.5125 8.83029 1.85897 9.7412 2.56347C9.98977 2.75569 10.2287 2.97303 10.4565 3.21544L13.5435 3.21545C13.7713 2.97298 14.0102 2.75563 14.2588 2.56336C15.1699 1.85887 16.1815 1.5125 17.2956 1.5125C18.818 1.5125 20.2015 2.11753 21.2138 3.21548C22.2183 4.30513 22.8 5.82553 22.8 7.52502C22.8 9.21026 22.1879 10.8064 20.6959 12.6066C19.324 14.262 17.3279 15.9681 14.8832 18.0514L14.8831 18.0515L14.8609 18.0704C14.0409 18.7694 13.107 19.5653 12.1375 20.4132L12.1369 20.4138C12.0998 20.4462 12.0513 20.4648 12 20.4648C11.9488 20.4648 11.9005 20.4464 11.8629 20.4135L11.8621 20.4128C10.8852 19.5587 9.94515 18.7575 9.12097 18.055L9.11738 18.052C6.67238 15.9684 4.67618 14.262 3.3043 12.6068C1.81221 10.8063 1.2 9.21018 1.2 7.52521C1.2 5.82556 1.78173 4.30507 2.78609 3.21541C3.79838 2.11754 5.18196 1.5125 6.70441 1.5125Z" fill="#0E141E"/>
</svg>
