<svg width="26" height="26" viewBox="0 0 26 26" fill="none" xmlns="http://www.w3.org/2000/svg">
<path d="M21.3214 25.5H4.67865C2.37885 25.5 0.5 23.6212 0.5 21.3214V4.67865C0.5 2.37885 2.37885 0.5 4.67865 0.5H21.3214C23.6211 0.5 25.5 2.37885 25.5 4.67865V21.3214C25.5 23.6314 23.6314 25.5 21.3214 25.5Z" fill="black"/>
<path d="M13.0067 19.4225C11.2921 19.4225 9.68019 18.7552 8.46869 17.5437C7.25719 16.3322 6.58984 14.7203 6.58984 13.0057C6.58984 11.2911 7.25719 9.67922 8.46869 8.46772C9.68019 7.25622 11.2921 6.58887 13.0067 6.58887C14.7213 6.58887 16.3332 7.25622 17.5447 8.46772C18.7562 9.67922 19.4235 11.2911 19.4235 13.0057C19.4235 14.7203 18.7562 16.3322 17.5447 17.5437C16.3229 18.7552 14.7213 19.4225 13.0067 19.4225ZM13.0067 7.95437C10.2243 7.95437 7.95535 10.2131 7.95535 13.0057C7.95535 15.788 10.2141 18.057 13.0067 18.057C15.789 18.057 18.058 15.7983 18.058 13.0057C18.0477 10.2234 15.789 7.95437 13.0067 7.95437Z" fill="white"/>
<path d="M20.6754 6.37721C21.3559 6.37721 21.9075 5.8256 21.9075 5.14515C21.9075 4.4647 21.3559 3.91309 20.6754 3.91309C19.995 3.91309 19.4434 4.4647 19.4434 5.14515C19.4434 5.8256 19.995 6.37721 20.6754 6.37721Z" fill="white"/>
</svg>
