<svg width="23" height="26" viewBox="0 0 23 26" fill="none" xmlns="http://www.w3.org/2000/svg">
<path d="M16.6748 1.45102L16.0716 0.5H12.4215V9.06539L12.4091 17.4319C12.4153 17.494 12.4215 17.5624 12.4215 17.6246C12.4215 19.7193 10.7177 21.4286 8.61599 21.4286C6.51425 21.4286 4.81047 19.7255 4.81047 17.6246C4.81047 15.5298 6.51425 13.8205 8.61599 13.8205C9.05127 13.8205 9.4741 13.9013 9.86585 14.038V9.86101C9.46167 9.79264 9.04505 9.75535 8.61599 9.75535C4.28192 9.76156 0.75 13.2921 0.75 17.6308C0.75 21.9694 4.28192 25.5 8.62221 25.5C12.9625 25.5 16.4944 21.9694 16.4944 17.6308V7.67926C18.0676 9.25186 20.101 10.7872 22.3519 11.2782V7.00796C19.9082 5.9264 17.4769 2.73148 16.6748 1.45102Z" fill="#F49071"/>
</svg>
