<svg width="26" height="26" viewBox="0 0 26 26" fill="none" xmlns="http://www.w3.org/2000/svg">
<path d="M21.3214 25.5H4.67865C2.37885 25.5 0.5 23.6212 0.5 21.3214V4.67865C0.5 2.37885 2.37885 0.5 4.67865 0.5H21.3214C23.6211 0.5 25.5 2.37885 25.5 4.67865V21.3214C25.5 23.6314 23.6314 25.5 21.3214 25.5Z" fill="#F49071"/>
<path d="M13.0067 19.4216C11.2921 19.4216 9.68019 18.7542 8.46869 17.5427C7.25719 16.3312 6.58984 14.7193 6.58984 13.0047C6.58984 11.2901 7.25719 9.67824 8.46869 8.46674C9.68019 7.25524 11.2921 6.58789 13.0067 6.58789C14.7213 6.58789 16.3332 7.25524 17.5447 8.46674C18.7562 9.67824 19.4235 11.2901 19.4235 13.0047C19.4235 14.7193 18.7562 16.3312 17.5447 17.5427C16.3229 18.7542 14.7213 19.4216 13.0067 19.4216ZM13.0067 7.95339C10.2243 7.95339 7.95535 10.2121 7.95535 13.0047C7.95535 15.7871 10.2141 18.0561 13.0067 18.0561C15.789 18.0561 18.058 15.7973 18.058 13.0047C18.0477 10.2224 15.789 7.95339 13.0067 7.95339Z" fill="#0A0A0A"/>
<path d="M20.6754 6.37624C21.3559 6.37624 21.9075 5.82462 21.9075 5.14417C21.9075 4.46372 21.3559 3.91211 20.6754 3.91211C19.995 3.91211 19.4434 4.46372 19.4434 5.14417C19.4434 5.82462 19.995 6.37624 20.6754 6.37624Z" fill="#0A0A0A"/>
</svg>
