<svg width="24" height="24" viewBox="0 0 24 24" fill="none" xmlns="http://www.w3.org/2000/svg">
<path d="M12 8.5C10.0705 8.5 8.5 10.07 8.5 12C8.5 13.93 10.0705 15.5 12 15.5C13.9295 15.5 15.5 13.93 15.5 12C15.5 10.07 13.9295 8.5 12 8.5ZM12 13.5C11.173 13.5 10.5 12.827 10.5 12C10.5 11.173 11.173 10.5 12 10.5C12.827 10.5 13.5 11.173 13.5 12C13.5 12.827 12.827 13.5 12 13.5Z" fill="#AB7358"/>
<path d="M23 11H20.941C20.478 6.8355 17.1645 3.522 13 3.059V1C13 0.448 12.552 0 12 0C11.448 0 11 0.448 11 1V3.059C6.8355 3.522 3.522 6.8355 3.059 11H1C0.448 11 0 11.448 0 12C0 12.552 0.448 13 1 13H3.059C3.522 17.1645 6.8355 20.478 11 20.941V23C11 23.552 11.448 24 12 24C12.552 24 13 23.552 13 23V20.941C17.1645 20.478 20.478 17.1645 20.941 13H23C23.552 13 24 12.552 24 12C24 11.448 23.552 11 23 11ZM12 19C8.14 19 5 15.86 5 12C5 8.14 8.14 5 12 5C15.86 5 19 8.14 19 12C19 15.86 15.86 19 12 19Z" fill="#AB7358"/>
</svg>
