<svg width="23" height="24" viewBox="0 0 23 24" fill="none" xmlns="http://www.w3.org/2000/svg">
<path d="M0.720215 17.04C0.720215 16.9075 0.827667 16.8 0.960215 16.8H8.64021C8.77276 16.8 8.88021 16.9075 8.88021 17.04V22.56C8.88021 23.3553 8.23551 24 7.44022 24H2.16021C1.36492 24 0.720215 23.3553 0.720215 22.56V17.04Z" fill="#97A1AA"/>
<path d="M13.4402 10.44C13.4402 10.3075 13.5477 10.2 13.6802 10.2H19.2002C19.3328 10.2 19.4402 10.3075 19.4402 10.44V22.56C19.4402 23.3553 18.7955 24 18.0002 24H14.8802C14.0849 24 13.4402 23.3553 13.4402 22.56V10.44Z" fill="#97A1AA"/>
<path d="M1.44021 9.6C1.44021 9.46745 1.54767 9.36 1.68021 9.36H7.92022C8.05276 9.36 8.16022 9.46745 8.16022 9.6V15.36C8.16022 15.4925 8.05276 15.6 7.92022 15.6H1.68021C1.54767 15.6 1.44021 15.4925 1.44021 15.36V9.6Z" fill="#97A1AA"/>
<path d="M2.28021 2.86472C2.28021 2.3246 2.58246 1.8299 3.06306 1.58341L5.22306 0.475592C6.1813 -0.0158745 7.32022 0.679968 7.32022 1.7569V7.92C7.32022 8.05255 7.21276 8.16 7.08021 8.16H2.52021C2.38767 8.16 2.28021 8.05255 2.28021 7.92V2.86472Z" fill="#97A1AA"/>
<path d="M10.1239 4.74561C9.80592 4.26857 9.80236 3.64834 10.1745 3.21218C11.1537 2.06447 13.3452 0 16.4402 0C19.5352 0 21.7267 2.06447 22.7059 3.21218C23.0781 3.64834 23.0745 4.26857 22.7565 4.74561L20.3477 8.35877C20.0806 8.75937 19.631 9 19.1495 9H18.161L19.1081 7.35962C19.2737 7.07264 19.1754 6.70569 18.8884 6.54C18.6015 6.37431 18.2345 6.47264 18.0688 6.75961L16.7753 9H16.1051L14.8116 6.75961C14.6459 6.47264 14.279 6.37431 13.992 6.54C13.705 6.70569 13.6067 7.07264 13.7724 7.35962L14.7194 9H13.7309C13.2494 9 12.7998 8.75937 12.5327 8.35877L10.1239 4.74561Z" fill="#97A1AA"/>
</svg>
