<svg width="24" height="24" viewBox="0 0 24 24" fill="none" xmlns="http://www.w3.org/2000/svg">
<path fill-rule="evenodd" clip-rule="evenodd" d="M12 18.72C14.0128 18.72 19.2 12.3134 19.2 7.10069C19.2 3.17909 15.9765 0 12 0C8.02353 0 4.79997 3.17909 4.79997 7.10069C4.79997 12.3134 9.98716 18.72 12 18.72ZM12.0001 10.5601C14.1209 10.5601 15.8401 8.8408 15.8401 6.72004C15.8401 4.59927 14.1209 2.88004 12.0001 2.88004C9.87929 2.88004 8.16006 4.59927 8.16006 6.72004C8.16006 8.8408 9.87929 10.5601 12.0001 10.5601Z" fill="white"/>
<path fill-rule="evenodd" clip-rule="evenodd" d="M15.5946 18C14.2191 19.3993 12.8607 20.2934 12 20.2934C11.1392 20.2934 9.78083 19.3993 8.40531 18H6.79896C6.3175 18 5.86788 18.2406 5.60081 18.6412L2.53748 23.2362C2.32482 23.5552 2.55349 23.9825 2.93686 23.9825H21.0847C21.4681 23.9825 21.6968 23.5552 21.4841 23.2362L18.4208 18.6412C18.1537 18.2406 17.7041 18 17.2226 18H15.5946Z" fill="white"/>
</svg>
