<svg width="24" height="24" viewBox="0 0 24 24" fill="none" xmlns="http://www.w3.org/2000/svg">
<path fill-rule="evenodd" clip-rule="evenodd" d="M10.1402 20.1602C10.101 20.3132 10.08 20.4739 10.08 20.6402C10.08 21.7006 10.9397 22.5602 12 22.5602C13.0604 22.5602 13.92 21.7006 13.92 20.6402C13.92 20.4739 13.8991 20.3132 13.8599 20.1602H10.1402ZM9.37052 18.9602C9.06005 19.4452 8.88005 20.0217 8.88005 20.6402C8.88005 22.3633 10.2769 23.7602 12 23.7602C13.7232 23.7602 15.12 22.3633 15.12 20.6402C15.12 20.0217 14.9401 19.4452 14.6296 18.9602H9.37052Z" fill="#0E141E"/>
<path fill-rule="evenodd" clip-rule="evenodd" d="M5.52005 15.0166L3.03893 18.5832C2.92824 18.7423 3.04211 18.9602 3.23595 18.9602H20.7642C20.958 18.9602 21.0719 18.7423 20.9612 18.5832L18.4801 15.0166V8.40022C18.4801 4.82141 15.5789 1.92021 12.0001 1.92021C8.42125 1.92021 5.52005 4.82141 5.52005 8.40022V15.0166ZM4.32005 8.40022C4.32005 4.15867 7.7585 0.720215 12.0001 0.720215C16.2416 0.720215 19.6801 4.15867 19.6801 8.40022V14.6402L21.9463 17.8979C22.6104 18.8527 21.9272 20.1602 20.7642 20.1602H3.23595C2.07288 20.1602 1.38966 18.8527 2.05385 17.8979L4.32005 14.6402V8.40022Z" fill="#0E141E"/>
</svg>
