<svg width="40" height="40" viewBox="0 0 40 40" fill="none" xmlns="http://www.w3.org/2000/svg">
<path fill-rule="evenodd" clip-rule="evenodd" d="M20 40C31.0457 40 40 31.0457 40 20C40 8.9543 31.0457 0 20 0C8.9543 0 0 8.9543 0 20C0 31.0457 8.9543 40 20 40ZM19.9999 8.72C15.7583 8.72 12.3199 12.1585 12.3199 16.4V22.64L10.0536 25.8977C9.38946 26.8524 10.0727 28.16 11.2358 28.16H28.764C29.927 28.16 30.6102 26.8524 29.9461 25.8977L27.6799 22.64V16.4C27.6799 12.1585 24.2414 8.72 19.9999 8.72ZM19.9997 31.76C18.5244 31.76 17.2882 30.736 16.9632 29.36H23.0362C22.7112 30.736 21.475 31.76 19.9997 31.76Z" fill="#E3AF7B"/>
</svg>
