<svg width="16" height="16" viewBox="0 0 16 16" fill="none" xmlns="http://www.w3.org/2000/svg">
<path fill-rule="evenodd" clip-rule="evenodd" d="M14.1044 9.96185C13.8944 9.90308 13.6773 10.0236 13.6014 10.228C12.6966 12.6641 10.3509 14.3998 7.5999 14.3998C4.06528 14.3998 1.1999 11.5344 1.1999 7.9998C1.1999 4.46518 4.06528 1.5998 7.5999 1.5998C11.1345 1.5998 13.9999 4.46518 13.9999 7.9998C13.9999 8.05329 13.9992 8.10663 13.9979 8.1598H14.7982C14.7993 8.10661 14.7999 8.05328 14.7999 7.9998C14.7999 4.02335 11.5764 0.799805 7.5999 0.799805C3.62345 0.799805 0.399902 4.02335 0.399902 7.9998C0.399902 11.9763 3.62345 15.1998 7.5999 15.1998C10.7126 15.1998 13.3639 13.2246 14.3689 10.4593C14.4454 10.2487 14.3202 10.0223 14.1044 9.96185Z" fill="#89959F"/>
<path fill-rule="evenodd" clip-rule="evenodd" d="M14.3175 7.58941L15.1095 6.79745C15.2657 6.64124 15.519 6.64124 15.6752 6.79745C15.8314 6.95366 15.8314 7.20693 15.6752 7.36314L14.3175 8.72078L12.9599 7.36314C12.8037 7.20693 12.8037 6.95366 12.9599 6.79745C13.1161 6.64124 13.3694 6.64124 13.5256 6.79745L14.3175 7.58941Z" fill="#89959F"/>
<path fill-rule="evenodd" clip-rule="evenodd" d="M7.5999 12.6398C10.1625 12.6398 12.2399 10.5624 12.2399 7.99983C12.2399 5.43723 10.1625 3.35983 7.5999 3.35983C5.0373 3.35983 2.9599 5.43723 2.9599 7.99983C2.9599 10.5624 5.0373 12.6398 7.5999 12.6398ZM9.3439 10.2283C9.6511 9.92623 9.8047 9.56527 9.8047 9.14543C9.8047 8.80751 9.72022 8.53615 9.55126 8.33135C9.3823 8.12143 9.17238 7.96527 8.9215 7.86287C8.67574 7.75535 8.37366 7.66063 8.01526 7.57871V6.27311C8.41462 6.31919 8.8063 6.45231 9.1903 6.67247L9.5743 5.72783C9.1647 5.46671 8.64502 5.31055 8.01526 5.25935V4.42223H7.24726V5.27471C6.66358 5.34127 6.21558 5.52815 5.90326 5.83535C5.59606 6.13743 5.44246 6.50095 5.44246 6.92591C5.44246 7.26895 5.52694 7.54543 5.6959 7.75535C5.86486 7.96015 6.07478 8.11631 6.32566 8.22383C6.57654 8.33135 6.88374 8.42863 7.24726 8.51567V9.79823C6.97078 9.77263 6.70198 9.71119 6.44086 9.61391C6.17974 9.51663 5.9519 9.39631 5.75734 9.25295L5.33494 10.1899C5.54486 10.3538 5.82134 10.492 6.16438 10.6046C6.50742 10.7173 6.86838 10.7838 7.24726 10.8043V11.6414H8.01526V10.7813C8.59382 10.7096 9.0367 10.5253 9.3439 10.2283ZM6.82486 7.17935C6.72758 7.09743 6.67894 6.99247 6.67894 6.86447C6.67894 6.73135 6.72502 6.61615 6.81718 6.51887C6.90934 6.41647 7.0527 6.34223 7.24726 6.29615V7.38671C7.06294 7.33039 6.92214 7.26127 6.82486 7.17935ZM8.42998 9.56783C8.33782 9.65999 8.19958 9.72655 8.01526 9.76751V8.70767C8.19446 8.76911 8.33014 8.84079 8.4223 8.92271C8.51958 9.00463 8.56822 9.10959 8.56822 9.23759C8.56822 9.36559 8.52214 9.47567 8.42998 9.56783Z" fill="#89959F"/>
</svg>
