<svg width="24" height="24" viewBox="0 0 24 24" fill="none" xmlns="http://www.w3.org/2000/svg">
<path fill-rule="evenodd" clip-rule="evenodd" d="M3.23688e-07 13.2005C-6.47375e-07 12.2553 0.364235 11.3952 0.96 10.7529V17.4004C0.96 19.7863 2.89413 21.7204 5.28 21.7204H6.72C9.10587 21.7204 11.04 19.7863 11.04 17.4004L11.04 11.9021L11.5265 11.4146C11.8278 11.9409 12 12.5506 12 13.2005L12 24.0005H0L3.23688e-07 13.2005Z" fill="white"/>
<path d="M7.84755 15.4461C7.77776 15.5864 7.68647 15.7192 7.54608 15.7889C7.22011 15.9505 6.50032 16.0918 5.48181 15.0733C4.4633 14.0548 4.60459 13.335 4.76628 13.0091C4.83591 12.8687 4.96876 12.7774 5.10908 12.7076L6.76154 11.8856C7.30902 11.6133 7.96927 11.7211 8.40164 12.1535C8.83401 12.5859 8.94186 13.2461 8.66953 13.7936L7.84755 15.4461Z" fill="white"/>
<path d="M7.78045 11.8309L14.2484 5.36296L15.0969 6.21148L8.62897 12.6795L7.78045 11.8309Z" fill="white"/>
<path d="M14.6881 0.000488443L24 0.000488281V2.22854L17.7267 8.5018C17.633 8.59553 17.4811 8.59553 17.3873 8.5018L11.9567 3.07123C11.863 2.9775 11.863 2.82554 11.9567 2.73182L14.6881 0.000488443Z" fill="white"/>
</svg>
