<svg width="22" height="23" viewBox="0 0 22 23" fill="none" xmlns="http://www.w3.org/2000/svg">
<path fill-rule="evenodd" clip-rule="evenodd" d="M11.9289 14.6002H10.0715C5.88308 14.6002 2.42889 17.7437 1.93955 21.8002H20.0608C19.5715 17.7437 16.1173 14.6002 11.9289 14.6002ZM10.0715 13.4002C4.88481 13.4002 0.680176 17.6048 0.680176 22.7915C0.680176 22.9068 0.773613 23.0002 0.888872 23.0002H21.1115C21.2267 23.0002 21.3202 22.9068 21.3202 22.7915C21.3202 17.6048 17.1155 13.4002 11.9289 13.4002H10.0715Z" fill="#0E141E"/>
<path fill-rule="evenodd" clip-rule="evenodd" d="M11.0002 11.0002C13.6511 11.0002 15.8002 8.85116 15.8002 6.2002C15.8002 3.54923 13.6511 1.4002 11.0002 1.4002C8.34921 1.4002 6.20018 3.54923 6.20018 6.2002C6.20018 8.85116 8.34921 11.0002 11.0002 11.0002ZM11.0002 12.2002C14.3139 12.2002 17.0002 9.5139 17.0002 6.2002C17.0002 2.88649 14.3139 0.200195 11.0002 0.200195C7.68647 0.200195 5.00018 2.88649 5.00018 6.2002C5.00018 9.5139 7.68647 12.2002 11.0002 12.2002Z" fill="#0E141E"/>
</svg>
