<svg width="11" height="11" viewBox="0 0 11 11" fill="none" xmlns="http://www.w3.org/2000/svg">
<path d="M10.4799 7.98692V9.49232C10.4804 9.63208 10.4518 9.77041 10.3958 9.89846C10.3398 10.0265 10.2577 10.1414 10.1548 10.2359C10.0518 10.3304 9.93019 10.4023 9.7978 10.4471C9.66542 10.4919 9.52514 10.5085 9.38595 10.4959C7.84183 10.3281 6.35859 9.8005 5.05541 8.9554C3.84297 8.18496 2.81504 7.15703 2.0446 5.94459C1.19655 4.63549 0.668786 3.14504 0.504073 1.59397C0.491533 1.45521 0.508025 1.31536 0.552497 1.18331C0.596969 1.05127 0.668448 0.929936 0.762383 0.827033C0.856318 0.724129 0.97065 0.641913 1.0981 0.585617C1.22555 0.529321 1.36333 0.50018 1.50266 0.500049H3.00806C3.25159 0.497652 3.48768 0.583889 3.67233 0.742686C3.85697 0.901483 3.97758 1.122 4.01166 1.36315C4.0752 1.84491 4.19304 2.31794 4.36292 2.77321C4.43044 2.95281 4.44505 3.14801 4.40503 3.33567C4.36501 3.52332 4.27203 3.69557 4.13711 3.83201L3.49983 4.46929C4.21417 5.72558 5.25435 6.76576 6.51063 7.4801L7.14792 6.84281C7.28435 6.7079 7.4566 6.61492 7.64426 6.5749C7.83192 6.53488 8.02711 6.54949 8.20672 6.617C8.66199 6.78689 9.13502 6.90473 9.61678 6.96826C9.86054 7.00265 10.0832 7.12543 10.2423 7.31325C10.4014 7.50107 10.486 7.74083 10.4799 7.98692Z" stroke="black" stroke-linecap="round" stroke-linejoin="round"/>
</svg>
