<svg width="20" height="20" viewBox="0 0 20 20" fill="none" xmlns="http://www.w3.org/2000/svg">
<path d="M7.08105 7.65723L1.97648 2.55265L3.68024 0.848894C4.14887 0.380265 4.90867 0.380266 5.3773 0.848895L8.78481 4.25641C9.25344 4.72504 9.25344 5.48484 8.78481 5.95347L7.08105 7.65723Z" fill="white"/>
<path d="M17.29 17.8662L12.1855 12.7616L13.8892 11.0579C14.3579 10.5892 15.1177 10.5893 15.5863 11.0579L18.9938 14.4654C19.4624 14.934 19.4624 15.6938 18.9938 16.1625L17.29 17.8662Z" fill="white"/>
<path fill-rule="evenodd" clip-rule="evenodd" d="M2.00204 2.52734C0.437819 4.09157 -0.116091 6.41553 0.902661 8.37913C1.86034 10.225 3.30929 12.5486 5.30187 14.5412C7.29446 16.5338 9.61809 17.9828 11.464 18.9404C13.4276 19.9592 15.7515 19.4053 17.3158 17.8411L12.2128 12.7381C11.696 13.2535 10.9859 13.5218 10.3441 13.174C9.83286 12.8969 9.14367 12.4103 8.28938 11.556C7.43508 10.7017 6.9485 10.0126 6.67142 9.50127C6.3236 8.85946 6.59192 8.14943 7.10733 7.63263L2.00204 2.52734Z" fill="white"/>
</svg>
