<svg width="16" height="16" viewBox="0 0 16 16" fill="none" xmlns="http://www.w3.org/2000/svg">
<path fill-rule="evenodd" clip-rule="evenodd" d="M8.00006 4C6.29633 4 3.97836 4.47254 2.56612 4.80555C2.23431 4.88379 2.02579 5.17161 2.04658 5.49025C2.13062 6.77776 2.35693 8.65195 2.91179 9.81855C4.11361 12.3454 6.52562 14.1232 7.7489 14.8972C7.93119 15.0126 8.14954 15.0113 8.32997 14.8946C9.52967 14.1182 11.8877 12.3428 13.0883 9.81855C13.6432 8.65195 13.8695 6.77776 13.9535 5.49025C13.9743 5.17161 13.7658 4.88379 13.434 4.80555C12.0218 4.47254 9.7038 4 8.00006 4ZM2.38252 4.0269C1.681 4.19232 1.20134 4.82312 1.24828 5.54235C1.33208 6.82632 1.56148 8.84208 2.18935 10.1622C3.49151 12.9 6.06501 14.7784 7.32114 15.5732C7.76681 15.8552 8.32183 15.8527 8.7646 15.5662C9.99903 14.7674 12.5125 12.8919 13.8108 10.1622C14.4386 8.84208 14.668 6.82632 14.7518 5.54235C14.7988 4.82312 14.3191 4.19232 13.6176 4.0269C12.205 3.6938 9.8062 3.2 8.00006 3.2C6.19393 3.2 3.79517 3.6938 2.38252 4.0269Z" fill="#89959F"/>
<path d="M10.3905 4.13664C10.3968 4.04502 10.4001 3.95167 10.4001 3.85668C10.4001 2.02226 9.19226 0.8 8.00006 0.8C6.80786 0.8 5.60006 2.02226 5.60006 3.85668C5.60006 3.95167 5.6033 4.04502 5.60961 4.13664C5.3408 4.18952 5.07613 4.24677 4.8215 4.30553C4.80734 4.15828 4.80006 4.00851 4.80006 3.85668C4.80006 1.72669 6.23275 0 8.00006 0C9.76737 0 11.2001 1.72669 11.2001 3.85668C11.2001 4.0085 11.1928 4.15828 11.1786 4.30552C10.924 4.24676 10.6593 4.18951 10.3905 4.13664Z" fill="#89959F"/>
<path fill-rule="evenodd" clip-rule="evenodd" d="M11.1882 4.19155C11.196 4.08119 11.2001 3.9695 11.2001 3.85668C11.2001 3.7318 11.1952 3.60839 11.1856 3.48668C11.1856 3.48736 11.1855 3.48601 11.1856 3.48668C11.03 1.52084 9.65364 0 8.00006 0C6.33631 0 4.96911 1.53027 4.8146 3.48668C4.80498 3.60845 4.80006 3.73187 4.80006 3.85668C4.80006 3.9695 4.80408 4.08119 4.81196 4.19156C4.81468 4.22971 4.81787 4.2677 4.8215 4.30553C5.07613 4.24677 5.3408 4.18952 5.60961 4.13664C5.6033 4.04502 5.60006 3.95167 5.60006 3.85668C5.60006 2.02226 6.80786 0.8 8.00006 0.8C9.19226 0.8 10.4001 2.02226 10.4001 3.85668C10.4001 3.95167 10.3968 4.04502 10.3905 4.13664C10.6593 4.18951 10.924 4.24676 11.1786 4.30552C11.1823 4.2677 11.1854 4.2297 11.1882 4.19155Z" fill="#89959F"/>
<path fill-rule="evenodd" clip-rule="evenodd" d="M2.12006 7.64L2.60006 9.72L3.40006 11.24L4.60006 12.48C4.7734 12.72 5.15206 13.224 5.28006 13.32C5.40806 13.416 6.5334 14.24 7.08006 14.64L8.20006 15.4L9.00006 14.92L11.2401 13.32L13.1601 10.48L13.6801 8.96L14.0401 6.28L14.2401 5.04L13.6801 4.48L10.7601 3.84H7.56006L4.00006 4.16L2.12006 4.72L1.56006 5.44L2.12006 7.64ZM8.64006 9.40002C9.29564 9.144 9.76006 8.50623 9.76006 7.76C9.76006 6.78798 8.97209 6 8.00006 6C7.02804 6 6.24006 6.78798 6.24006 7.76C6.24006 8.50623 6.70449 9.144 7.36006 9.40002V10.8C7.36006 10.9767 7.50333 11.12 7.68006 11.12H8.32006C8.49679 11.12 8.64006 10.9767 8.64006 10.8V9.40002Z" fill="#89959F"/>
</svg>
