<svg width="16" height="16" viewBox="0 0 16 16" fill="none" xmlns="http://www.w3.org/2000/svg">
<path fill-rule="evenodd" clip-rule="evenodd" d="M5.20961 5.80236C5.20311 5.73564 5.19979 5.66815 5.19979 5.6C5.19979 4.27452 6.4534 3.2 7.99979 3.2C9.54619 3.2 10.7998 4.27452 10.7998 5.6C10.7998 5.66815 10.7965 5.73563 10.79 5.80234C10.0307 6.42578 9.05893 6.8 7.99979 6.8C6.94065 6.8 5.96892 6.42578 5.20961 5.80236Z" fill="#89959F"/>
<path fill-rule="evenodd" clip-rule="evenodd" d="M6.01601 5.4047C6.58476 5.78116 7.26595 6 7.99979 6C8.73363 6 9.41483 5.78115 9.98357 5.40469C9.86636 4.69439 9.12162 4 7.99979 4C6.87797 4 6.13322 4.69439 6.01601 5.4047ZM10.79 5.80234C10.7965 5.73563 10.7998 5.66815 10.7998 5.6C10.7998 4.27452 9.54619 3.2 7.99979 3.2C6.4534 3.2 5.19979 4.27452 5.19979 5.6C5.19979 5.66815 5.20311 5.73564 5.20961 5.80236C5.96892 6.42578 6.94065 6.8 7.99979 6.8C9.05893 6.8 10.0307 6.42578 10.79 5.80234Z" fill="#89959F"/>
<path d="M9.59979 1.6C9.59979 2.48366 8.88345 3.2 7.99979 3.2C7.11614 3.2 6.39979 2.48366 6.39979 1.6C6.39979 0.716344 7.11614 0 7.99979 0C8.88345 0 9.59979 0.716344 9.59979 1.6Z" fill="#89959F"/>
<path fill-rule="evenodd" clip-rule="evenodd" d="M7.99979 2.4C8.44162 2.4 8.79979 2.04183 8.79979 1.6C8.79979 1.15817 8.44162 0.8 7.99979 0.8C7.55797 0.8 7.19979 1.15817 7.19979 1.6C7.19979 2.04183 7.55797 2.4 7.99979 2.4ZM7.99979 3.2C8.88345 3.2 9.59979 2.48366 9.59979 1.6C9.59979 0.716344 8.88345 0 7.99979 0C7.11614 0 6.39979 0.716344 6.39979 1.6C6.39979 2.48366 7.11614 3.2 7.99979 3.2Z" fill="#89959F"/>
<path fill-rule="evenodd" clip-rule="evenodd" d="M4.59972 13.2044L9.39971 13.2044C9.76666 13.2044 10.0085 13.1584 10.2049 13.0746C10.4016 12.9907 10.5841 12.8555 10.8142 12.6265L14.7737 8.66699C15.0861 8.35457 15.0861 7.84804 14.7737 7.53562C14.4613 7.2232 13.9548 7.2232 13.6424 7.53562L11.2826 9.89542L10.7169 9.32974L13.0767 6.96994C13.7015 6.3451 14.7146 6.3451 15.3394 6.96994C15.9643 7.59478 15.9643 8.60784 15.3394 9.23268L11.379 13.1931C11.1122 13.4586 10.8462 13.6707 10.5188 13.8104C10.1909 13.9504 9.83277 14.0044 9.39971 14.0044L4.79962 14.0002L4.59972 13.2044Z" fill="#89959F"/>
<path fill-rule="evenodd" clip-rule="evenodd" d="M4.47191 8.02535C5.10907 7.81023 5.54627 7.72967 6.2438 7.80675C6.8905 7.87822 7.43788 8.1647 7.80945 8.35916C7.87079 8.39126 7.92733 8.42086 7.97874 8.44656C8.09165 8.50301 8.3381 8.57486 8.63367 8.64361C8.91459 8.70895 9.1964 8.762 9.3504 8.78964C9.4053 8.79949 9.46245 8.80433 9.52216 8.80433H9.99986C10.7731 8.80433 11.3999 9.43113 11.3999 10.2043C11.3999 10.9775 10.7731 11.6043 9.99986 11.6043H6.75986C6.67149 11.6043 6.59986 11.5327 6.59986 11.4443V10.9643C6.59986 10.876 6.67149 10.8043 6.75986 10.8043H9.99986C10.3312 10.8043 10.5999 10.5357 10.5999 10.2043C10.5999 9.87296 10.3312 9.60433 9.99986 9.60433H9.52216C9.41908 9.60433 9.31441 9.59596 9.20908 9.57706C9.04909 9.54834 8.75229 9.49255 8.45243 9.42281C8.16723 9.35647 7.83073 9.26698 7.62097 9.1621C7.55332 9.12828 7.48525 9.09302 7.41638 9.05736C7.04023 8.86255 6.64035 8.65545 6.15592 8.60191C5.60167 8.54066 5.28388 8.59557 4.72781 8.78332C4.28121 8.9341 3.8979 9.22282 3.55808 9.55045C3.38895 9.71352 3.2351 9.88169 3.09048 10.0431C3.06687 10.0694 3.04324 10.0959 3.01965 10.1223C2.90332 10.2527 2.90518 10.2946 2.79978 10.4L2.51702 9.52149C2.60484 9.43367 2.30127 9.72569 2.41748 9.59555C2.44228 9.56778 2.46798 9.53901 2.49468 9.5092C2.64197 9.34483 2.81176 9.15874 3.00282 8.97453C3.3834 8.60761 3.86676 8.22966 4.47191 8.02535Z" fill="#89959F"/>
<path fill-rule="evenodd" clip-rule="evenodd" d="M2.15184 9.52746C2.1408 9.50833 2.11634 9.50177 2.0972 9.51282L1.12726 10.0728C1.10812 10.0839 1.10157 10.1083 1.11261 10.1275L3.87261 14.9079C3.88366 14.9271 3.90812 14.9336 3.92725 14.9226L4.8972 14.3626C4.91633 14.3515 4.92289 14.3271 4.91184 14.3079L2.15184 9.52746ZM0.692614 9.4C0.30998 9.62091 0.17888 10.1102 0.399794 10.4928L3.19979 15.3426C3.42071 15.7252 3.90998 15.8563 4.29261 15.6354L5.33184 15.0354C5.71448 14.8145 5.84558 14.3252 5.62466 13.9426L2.82466 9.09282C2.60375 8.71019 2.11448 8.57909 1.73184 8.8L0.692614 9.4Z" fill="#89959F"/>
<path d="M1.07979 9.76L2.11979 9.04L2.59979 9.6L3.35979 9.16L5.51979 8.36L7.55979 8.84L9.55979 9.28L10.9598 9.6L12.7998 7.68L14.3198 7.04L15.1998 7.44L15.3198 8.36L12.6798 11.36L10.2798 13.48H6.03979L5.11979 13.92V14.52L4.27979 15.2H3.71979L1.35979 11.08L0.839794 9.96L1.07979 9.76Z" fill="#89959F"/>
</svg>
