<svg width="20" height="20" viewBox="0 0 20 20" fill="none" xmlns="http://www.w3.org/2000/svg">
<path fill-rule="evenodd" clip-rule="evenodd" d="M8 1.5C8 0.671573 8.67157 0 9.5 0H10.5C11.3284 0 12 0.671573 12 1.5V2.38892C12 2.61383 12.1508 2.8094 12.3642 2.88024C12.7021 2.99238 13.0293 3.12788 13.3439 3.28485C13.5447 3.38505 13.789 3.35313 13.9477 3.19443L14.5814 2.56066C15.1672 1.97487 16.117 1.97487 16.7027 2.56066L17.4099 3.26777C17.9956 3.85355 17.9956 4.8033 17.4099 5.38909L16.7858 6.01312C16.6264 6.17258 16.595 6.41828 16.6968 6.61951C16.8616 6.94532 17.0033 7.28479 17.1198 7.63577C17.1906 7.84923 17.3862 8 17.6111 8H18.5C19.3284 8 20 8.67157 20 9.5V10.5C20 11.3284 19.3284 12 18.5 12H17.6111C17.3862 12 17.1906 12.1508 17.1198 12.3642C17.0054 12.7087 16.8668 13.042 16.706 13.3622C16.605 13.5633 16.6366 13.8082 16.7957 13.9673L17.4098 14.5815C17.9956 15.1673 17.9956 16.117 17.4098 16.7028L16.7027 17.4099C16.117 17.9957 15.1672 17.9957 14.5814 17.4099L13.9673 16.7957C13.8082 16.6367 13.5632 16.605 13.3622 16.706C13.042 16.8669 12.7086 17.0054 12.3642 17.1198C12.1508 17.1906 12 17.3862 12 17.6111V18.5C12 19.3284 11.3284 20 10.5 20H9.5C8.67157 20 8 19.3284 8 18.5V17.6111C8 17.3862 7.84923 17.1906 7.63577 17.1198C7.28479 17.0033 6.94532 16.8616 6.61951 16.6968C6.41828 16.595 6.17258 16.6264 6.01312 16.7858L5.38904 17.4099C4.80326 17.9957 3.85351 17.9957 3.26772 17.4099L2.56061 16.7028C1.97483 16.117 1.97483 15.1673 2.56062 14.5815L3.19443 13.9477C3.35313 13.789 3.38505 13.5447 3.28485 13.3439C3.12788 13.0293 2.99238 12.7021 2.88024 12.3642C2.8094 12.1508 2.61383 12 2.38892 12H1.5C0.671573 12 0 11.3284 0 10.5V9.5C0 8.67157 0.671574 8 1.5 8H2.38892C2.61383 8 2.8094 7.84923 2.88024 7.63577C2.99455 7.29137 3.13315 6.95804 3.29401 6.63783C3.395 6.4368 3.36334 6.19183 3.20426 6.03275L2.5606 5.38909C1.97482 4.8033 1.97482 3.85355 2.5606 3.26777L3.26771 2.56066C3.8535 1.97487 4.80324 1.97487 5.38903 2.56066L6.03267 3.2043C6.19175 3.36338 6.43673 3.39504 6.63776 3.29404C6.95799 3.13317 7.29134 2.99456 7.63577 2.88024C7.84923 2.8094 8 2.61383 8 2.38892V1.5ZM10 14C12.2091 14 14 12.2091 14 10C14 7.79086 12.2091 6 10 6C7.79086 6 6 7.79086 6 10C6 12.2091 7.79086 14 10 14Z" fill="#89959F"/>
</svg>
