<svg width="20" height="18" viewBox="0 0 20 18" fill="none" xmlns="http://www.w3.org/2000/svg">
<path fill-rule="evenodd" clip-rule="evenodd" d="M15.0998 15.9928L15.0998 0.899902C15.0998 0.62376 15.3237 0.399902 15.5998 0.399902C15.8759 0.399902 16.0998 0.623761 16.0998 0.899903L16.0998 15.9928L18.4282 13.6644C18.6235 13.4691 18.9401 13.4691 19.1353 13.6644C19.3306 13.8596 19.3306 14.1762 19.1353 14.3715L15.9534 17.5535C15.7581 17.7487 15.4415 17.7487 15.2462 17.5535L12.0643 14.3715C11.869 14.1762 11.869 13.8596 12.0643 13.6644C12.2595 13.4691 12.5761 13.4691 12.7714 13.6644L15.0998 15.9928Z" fill="white"/>
<path d="M0.799805 1.4999C0.799805 1.22376 1.02366 0.999902 1.2998 0.999902H5.0998C5.37595 0.999902 5.5998 1.22376 5.5998 1.4999C5.5998 1.77604 5.37595 1.9999 5.0998 1.9999H1.2998C1.02366 1.9999 0.799805 1.77604 0.799805 1.4999Z" fill="white"/>
<path d="M0.799805 5.2999C0.799805 5.02376 1.02366 4.7999 1.2998 4.7999H6.2998C6.57595 4.7999 6.7998 5.02376 6.7998 5.2999C6.7998 5.57604 6.57595 5.7999 6.2998 5.7999H1.2998C1.02366 5.7999 0.799805 5.57604 0.799805 5.2999Z" fill="white"/>
<path d="M0.799805 9.0999C0.799805 8.82376 1.02366 8.5999 1.2998 8.5999H7.4998C7.77595 8.5999 7.9998 8.82376 7.9998 9.0999C7.9998 9.37604 7.77595 9.5999 7.4998 9.5999H1.2998C1.02366 9.5999 0.799805 9.37604 0.799805 9.0999Z" fill="white"/>
<path d="M0.799805 12.8999C0.799805 12.6238 1.02366 12.3999 1.2998 12.3999H8.6998C8.97595 12.3999 9.19981 12.6238 9.19981 12.8999C9.19981 13.176 8.97595 13.3999 8.6998 13.3999H1.2998C1.02366 13.3999 0.799805 13.176 0.799805 12.8999Z" fill="white"/>
<path d="M0.799805 16.6999C0.799805 16.4238 1.02366 16.1999 1.2998 16.1999H9.89981C10.1759 16.1999 10.3998 16.4238 10.3998 16.6999C10.3998 16.976 10.1759 17.1999 9.89981 17.1999H1.2998C1.02366 17.1999 0.799805 16.976 0.799805 16.6999Z" fill="white"/>
</svg>
