<svg width="16" height="16" viewBox="0 0 16 16" fill="none" xmlns="http://www.w3.org/2000/svg">
<path d="M7.78408 1.55646C7.85211 1.34707 8.14834 1.34707 8.21637 1.55646L9.48409 5.45809C9.64839 5.96375 10.1196 6.30611 10.6513 6.30611H14.7537C14.9739 6.30611 15.0654 6.58784 14.8873 6.71725L11.5684 9.1286C11.1382 9.44111 10.9582 9.99506 11.1225 10.5007L12.3903 14.4024C12.4583 14.6118 12.2186 14.7859 12.0405 14.6565L8.7216 12.2451C8.29145 11.9326 7.709 11.9326 7.27885 12.2451L3.95993 14.6565C3.78181 14.7859 3.54215 14.6117 3.61019 14.4024L4.8779 10.5007C5.0422 9.99506 4.86222 9.44111 4.43207 9.1286L1.11315 6.71725C0.935027 6.58784 1.02657 6.30611 1.24673 6.30611H5.34915C5.88084 6.30611 6.35206 5.96375 6.51636 5.45809L7.78408 1.55646Z" stroke="#E3AF7B"/>
</svg>
