<svg width="24" height="24" viewBox="0 0 24 24" fill="none" xmlns="http://www.w3.org/2000/svg">
<path fill-rule="evenodd" clip-rule="evenodd" d="M14.9925 3.92695L15.0002 4.033V12.69L14.9851 12.838C14.8349 14.3073 13.5681 15.48 12.0002 15.48C10.4323 15.48 9.1655 14.3073 9.01532 12.838L9.0002 12.69V4.03299L9.0079 3.92695C9.11753 2.41784 10.4019 1.2 12.0002 1.2C13.5985 1.2 14.8829 2.41785 14.9925 3.92695ZM16.2002 3.84H16.1893C16.0334 1.69359 14.2174 0 12.0002 0C9.78295 0 7.96698 1.69359 7.81105 3.84H7.80019V5.04V11.76V12.96H7.82154C8.03508 15.0492 9.82443 16.68 12.0002 16.68C14.176 16.68 15.9653 15.0492 16.1788 12.96H16.2002V11.76V5.04V3.84ZM12.0002 19.08C8.55722 19.08 5.72999 16.4437 5.42706 13.0796C5.39734 12.7495 5.13157 12.48 4.8002 12.48C4.46882 12.48 4.19779 12.7495 4.22292 13.0799C4.5142 16.9094 7.57073 19.966 11.4002 20.2573V22.8H9.7202C9.38882 22.8 9.12019 23.0686 9.12019 23.4C9.12019 23.7314 9.38882 24 9.7202 24H14.2802C14.6116 24 14.8802 23.7314 14.8802 23.4C14.8802 23.0686 14.6116 22.8 14.2802 22.8H12.6002V20.2573C16.4297 19.966 19.4862 16.9094 19.7775 13.0799C19.8026 12.7495 19.5316 12.48 19.2002 12.48C18.8688 12.48 18.603 12.7495 18.5733 13.0796C18.2704 16.4437 15.4432 19.08 12.0002 19.08Z" fill="#0E141E"/>
</svg>
