<svg width="21" height="20" viewBox="0 0 21 20" fill="none" xmlns="http://www.w3.org/2000/svg">
<path d="M10.3767 0C4.70467 0 0.0886667 4.446 0.0866667 9.91C0.0853333 11.6573 0.56 13.3627 1.46 14.8647L0 20L5.45533 18.622C6.97281 19.4158 8.66011 19.8298 10.3727 19.8287H10.3767C16.0487 19.8287 20.6647 15.382 20.6667 9.918C20.668 7.27133 19.5987 4.78 17.6553 2.90733C15.7127 1.034 13.1293 0.000666667 10.3767 0ZM10.3767 18.1547H10.3733C8.83867 18.1547 7.33333 17.7573 6.02 17.0067L5.70667 16.828L2.47067 17.6453L3.33467 14.6053L3.13133 14.294C2.27727 12.9914 1.82262 11.4676 1.82333 9.91C1.82533 5.368 5.66267 1.674 10.38 1.674C12.664 1.67467 14.8113 2.53267 16.4267 4.08933C18.042 5.646 18.9307 7.716 18.9293 9.91733C18.9273 14.4593 15.0907 18.1547 10.376 18.1547H10.3767ZM15.068 11.9847C14.8107 11.8613 13.5467 11.262 13.3107 11.1787C13.0753 11.0967 12.904 11.054 12.7327 11.302C12.562 11.55 12.0687 12.108 11.9193 12.2727C11.7687 12.438 11.6187 12.458 11.3613 12.3347C11.104 12.2107 10.2753 11.9493 9.294 11.1053C8.52933 10.4493 8.01333 9.63867 7.86333 9.39C7.71333 9.14267 7.84733 9.00867 7.976 8.88533C8.09133 8.77533 8.23333 8.59667 8.36133 8.452C8.48933 8.30733 8.532 8.204 8.61867 8.03867C8.704 7.874 8.66133 7.72867 8.59667 7.60533C8.532 7.48067 8.01867 6.262 7.80333 5.76667C7.59533 5.284 7.38333 5.34867 7.22533 5.34067C7.07533 5.334 6.90467 5.332 6.732 5.332C6.562 5.332 6.28267 5.394 6.04667 5.642C5.81133 5.89 5.14667 6.48867 5.14667 7.70733C5.14667 8.92667 6.068 10.104 6.19667 10.2693C6.32533 10.434 8.01 12.936 10.5893 14.0093C11.2027 14.2633 11.6813 14.416 12.0553 14.5307C12.6713 14.7193 13.232 14.692 13.6747 14.6287C14.168 14.5573 15.196 14.03 15.4093 13.452C15.624 12.874 15.624 12.378 15.56 12.2747C15.4973 12.1713 15.3253 12.1093 15.068 11.9847Z" fill="black"/>
</svg>
