<svg width="288" height="334" viewBox="0 0 288 334" fill="none" xmlns="http://www.w3.org/2000/svg">
    <g filter="url(#filter0_d)">
        <rect x="30" y="22" width="228" height="274" rx="12" fill="white"/>
        <path d="M170.863 186L175.924 208.45C175.924 208.45 175.403 213.027 169.016 208.686C168.441 208.296 167.822 207.833 167.15 207.29L161.445 195.655L160.677 195.764L143.22 198.241L136.463 199.198L129.68 191.896L128.384 190.502L145.514 171.97L145.758 172.102L159.751 179.849L170.863 186Z" fill="#F1D7BD"/>
        <path d="M165.776 194.301L170.836 216.75C170.798 217.088 170.689 217.413 170.516 217.704C170.343 217.996 170.11 218.248 169.833 218.443C169.555 218.638 169.24 218.772 168.907 218.836C168.574 218.899 168.231 218.892 167.901 218.814C167.249 218.705 166.616 218.501 166.023 218.207C164.605 217.494 163.275 216.616 162.063 215.591L156.357 203.956L146.303 205.383L141.289 206.094L138.047 206.554L131.376 207.499L123.296 198.803L132.048 189.332L140.426 180.271L142.632 181.494L145.268 182.952L157.914 189.949L160.49 191.375L165.776 194.301Z" fill="#F1D7BD"/>
        <path d="M162.242 155.268C162.242 155.268 161.682 163.68 155.995 166.826C154.114 167.822 151.969 168.206 149.859 167.924L143.086 171.353L133.436 176.232L131.472 188.679L132.048 189.329L140.062 198.354L142.513 201.116L146.303 205.38L164.662 226.058C166.128 226.882 167.449 227.94 168.574 229.19C169.639 230.339 170.574 231.604 171.359 232.961C173.647 236.906 175.426 242.805 174.492 251.286L186.383 295.997L152.31 296L139.988 258.499C139.988 258.499 109.939 217.151 108.147 207.868C106.844 201.116 117.642 170.742 117.642 170.742L142.071 153.525L162.242 155.268Z" fill="#F1D7BD"/>
        <path d="M64 106.327C64 97.8622 70.8243 91 79.2426 91H209.757C218.176 91 225 97.8622 225 106.327V173.383C225 181.848 218.176 188.71 209.757 188.71H79.2426C70.8243 188.71 64 181.848 64 173.383V106.327Z" fill="white"/>
        <path d="M64.5 106.327C64.5 98.1357 71.1031 91.5 79.2426 91.5H209.757C217.897 91.5 224.5 98.1357 224.5 106.327V173.383C224.5 181.575 217.897 188.21 209.757 188.21H79.2426C71.1031 188.21 64.5 181.575 64.5 173.383V106.327Z" fill="white" stroke="#CCBCB8"/>
        <path d="M82.3658 106.605C81.597 106.605 80.8454 106.377 80.2062 105.949C79.5669 105.522 79.0686 104.914 78.7744 104.204C78.4802 103.493 78.4032 102.711 78.5532 101.956C78.7032 101.201 79.0734 100.508 79.6171 99.9642C80.1607 99.4202 80.8534 99.0497 81.6074 98.8996C82.3615 98.7495 83.1431 98.8265 83.8534 99.1209C84.5638 99.4154 85.1709 99.914 85.598 100.554C86.0251 101.193 86.2531 101.945 86.2531 102.715C86.2531 103.747 85.8436 104.736 85.1146 105.466C84.3856 106.195 83.3968 106.605 82.3658 106.605ZM82.3658 99.4732C81.7251 99.4732 81.0988 99.6633 80.5661 100.019C80.0334 100.376 79.6182 100.882 79.373 101.474C79.1278 102.067 79.0636 102.718 79.1886 103.347C79.3136 103.976 79.6222 104.554 80.0752 105.007C80.5283 105.46 81.1054 105.769 81.7338 105.894C82.3622 106.019 83.0136 105.955 83.6055 105.71C84.1974 105.464 84.7034 105.049 85.0593 104.516C85.4153 103.983 85.6053 103.356 85.6053 102.715C85.6053 102.289 85.5215 101.868 85.3587 101.474C85.1959 101.081 84.9573 100.724 84.6565 100.423C84.3557 100.122 83.9985 99.8828 83.6055 99.7199C83.2125 99.557 82.7912 99.4732 82.3658 99.4732Z" fill="#E3AF7B"/>
        <path d="M76.3241 102.715C76.3242 101.973 76.5556 101.25 76.986 100.646C77.4165 100.041 78.0245 99.5866 78.7255 99.3445C78.1888 99.1592 77.6156 99.1049 77.0536 99.1862C76.4917 99.2675 75.9573 99.482 75.495 99.8118C75.0327 100.142 74.6558 100.577 74.3957 101.082C74.1357 101.587 74 102.147 74 102.715C74 103.284 74.1357 103.844 74.3957 104.349C74.6558 104.854 75.0327 105.289 75.495 105.619C75.9573 105.949 76.4917 106.163 77.0536 106.245C77.6156 106.326 78.1888 106.272 78.7255 106.086C78.0245 105.844 77.4165 105.389 76.986 104.785C76.5556 104.181 76.3242 103.457 76.3241 102.715Z" fill="#E3AF7B"/>
        <path d="M95.7978 145.861C95.1511 145.86 94.531 145.571 94.0737 145.056C93.6164 144.541 93.3591 143.842 93.3584 143.114V134.873C93.3592 134.145 93.6165 133.447 94.0739 132.933C94.5313 132.418 95.1513 132.129 95.7978 132.129C96.4443 132.129 97.0643 132.418 97.5217 132.933C97.9791 133.447 98.2364 134.145 98.2372 134.873V143.114C98.2364 143.842 97.9792 144.541 97.5219 145.056C97.0646 145.571 96.4445 145.86 95.7978 145.861Z" fill="#E3AF7B"/>
        <path d="M103.573 145.861C102.926 145.86 102.306 145.571 101.849 145.056C101.391 144.541 101.134 143.842 101.133 143.114V134.873C101.134 134.145 101.391 133.447 101.849 132.933C102.306 132.418 102.926 132.129 103.573 132.129C104.219 132.129 104.839 132.418 105.297 132.933C105.754 133.447 106.011 134.145 106.012 134.873V143.114C106.011 143.842 105.754 144.541 105.297 145.056C104.839 145.571 104.219 145.86 103.573 145.861Z" fill="#E3AF7B"/>
        <path d="M111.347 145.861C110.7 145.86 110.08 145.571 109.623 145.056C109.166 144.541 108.908 143.842 108.908 143.114V134.873C108.908 134.145 109.166 133.447 109.623 132.933C110.081 132.418 110.701 132.129 111.347 132.129C111.994 132.129 112.614 132.418 113.071 132.933C113.528 133.447 113.786 134.145 113.787 134.873V143.114C113.786 143.842 113.529 144.541 113.071 145.056C112.614 145.571 111.994 145.86 111.347 145.861Z" fill="#E3AF7B"/>
        <path d="M123.333 145.861C122.687 145.86 122.067 145.571 121.609 145.056C121.152 144.541 120.895 143.842 120.894 143.114V134.873C120.895 134.145 121.152 133.447 121.61 132.933C122.067 132.418 122.687 132.129 123.333 132.129C123.98 132.129 124.6 132.418 125.057 132.933C125.515 133.447 125.772 134.145 125.773 134.873V143.114C125.772 143.842 125.515 144.541 125.058 145.056C124.6 145.571 123.98 145.86 123.333 145.861Z" fill="#E3AF7B"/>
        <path d="M131.108 145.861C130.462 145.86 129.842 145.571 129.384 145.056C128.927 144.541 128.67 143.842 128.669 143.114V134.873C128.67 134.145 128.927 133.447 129.384 132.933C129.842 132.418 130.462 132.129 131.108 132.129C131.755 132.129 132.375 132.418 132.832 132.933C133.29 133.447 133.547 134.145 133.548 134.873V143.114C133.547 143.842 133.29 144.541 132.832 145.056C132.375 145.571 131.755 145.86 131.108 145.861Z" fill="#E3AF7B"/>
        <path d="M138.882 145.861C138.235 145.86 137.615 145.571 137.158 145.056C136.7 144.541 136.443 143.842 136.442 143.114V134.873C136.443 134.145 136.7 133.447 137.158 132.933C137.615 132.418 138.235 132.129 138.882 132.129C139.528 132.129 140.148 132.418 140.606 132.933C141.063 133.447 141.32 134.145 141.321 134.873V143.114C141.32 143.842 141.063 144.541 140.606 145.056C140.149 145.571 139.529 145.86 138.882 145.861Z" fill="#E3AF7B"/>
        <path d="M150.868 145.861C150.221 145.86 149.601 145.571 149.144 145.056C148.687 144.541 148.429 143.842 148.429 143.114V134.873C148.429 134.145 148.687 133.447 149.144 132.933C149.602 132.418 150.222 132.129 150.868 132.129C151.515 132.129 152.135 132.418 152.592 132.933C153.049 133.447 153.307 134.145 153.307 134.873V143.114C153.307 143.842 153.05 144.541 152.592 145.056C152.135 145.571 151.515 145.86 150.868 145.861Z" fill="#E3AF7B"/>
        <path d="M158.643 145.861C157.996 145.86 157.376 145.571 156.918 145.056C156.461 144.541 156.204 143.842 156.203 143.114V134.873C156.204 134.145 156.461 133.447 156.919 132.933C157.376 132.418 157.996 132.129 158.643 132.129C159.289 132.129 159.909 132.418 160.366 132.933C160.824 133.447 161.081 134.145 161.082 134.873V143.114C161.081 143.842 160.824 144.541 160.367 145.056C159.909 145.571 159.289 145.86 158.643 145.861Z" fill="#E3AF7B"/>
        <path d="M166.417 145.861C165.771 145.86 165.151 145.571 164.693 145.056C164.236 144.541 163.979 143.842 163.978 143.114V134.873C163.979 134.145 164.236 133.447 164.694 132.933C165.151 132.418 165.771 132.129 166.417 132.129C167.064 132.129 167.684 132.418 168.141 132.933C168.599 133.447 168.856 134.145 168.857 134.873V143.114C168.856 143.842 168.599 144.541 168.142 145.056C167.684 145.571 167.064 145.86 166.417 145.861Z" fill="#E3AF7B"/>
        <path d="M178.403 145.861C177.756 145.86 177.136 145.571 176.679 145.056C176.221 144.541 175.964 143.842 175.963 143.114V134.873C175.964 134.145 176.221 133.447 176.679 132.933C177.136 132.418 177.756 132.129 178.403 132.129C179.049 132.129 179.669 132.418 180.127 132.933C180.584 133.447 180.841 134.145 180.842 134.873V143.114C180.841 143.842 180.584 144.541 180.127 145.056C179.67 145.571 179.05 145.86 178.403 145.861Z" fill="#E3AF7B"/>
        <path d="M186.178 145.861C185.531 145.86 184.911 145.571 184.454 145.056C183.997 144.541 183.74 143.842 183.739 143.114V134.873C183.74 134.145 183.997 133.447 184.454 132.933C184.912 132.418 185.532 132.129 186.178 132.129C186.825 132.129 187.445 132.418 187.902 132.933C188.359 133.447 188.617 134.145 188.618 134.873V143.114C188.617 143.842 188.36 144.541 187.902 145.056C187.445 145.571 186.825 145.86 186.178 145.861Z" fill="#E3AF7B"/>
        <path d="M193.953 145.861C193.306 145.86 192.686 145.571 192.229 145.056C191.772 144.541 191.514 143.842 191.514 143.114V134.873C191.514 134.145 191.772 133.447 192.229 132.933C192.687 132.418 193.307 132.129 193.953 132.129C194.6 132.129 195.22 132.418 195.677 132.933C196.134 133.447 196.392 134.145 196.392 134.873V143.114C196.392 143.842 196.134 144.541 195.677 145.056C195.22 145.571 194.6 145.86 193.953 145.861Z" fill="#E3AF7B"/>
        <path d="M110.379 178.264H75.626C75.4126 178.264 75.2012 178.213 75.0039 178.113C74.8067 178.012 74.6274 177.865 74.4764 177.679C74.3254 177.494 74.2056 177.273 74.1238 177.03C74.0421 176.787 74 176.527 74 176.264C74 176.001 74.0421 175.741 74.1238 175.498C74.2056 175.255 74.3254 175.035 74.4764 174.849C74.6274 174.663 74.8067 174.516 75.0039 174.415C75.2012 174.315 75.4126 174.264 75.626 174.264H110.379C110.809 174.265 111.221 174.476 111.525 174.851C111.829 175.226 112 175.734 112 176.264C112 176.794 111.829 177.302 111.525 177.677C111.221 178.052 110.809 178.263 110.379 178.264Z" fill="#D6D4D4"/>
        <path d="M91.9338 169.836H76.0662C75.5182 169.836 74.9927 169.625 74.6052 169.25C74.2177 168.875 74 168.366 74 167.836C74 167.305 74.2177 166.797 74.6052 166.421C74.9927 166.046 75.5182 165.836 76.0662 165.836H91.9338C92.4818 165.836 93.0073 166.046 93.3948 166.421C93.7823 166.797 94 167.305 94 167.836C94 168.366 93.7823 168.875 93.3948 169.25C93.0073 169.625 92.4818 169.836 91.9338 169.836Z" fill="#D6D4D4"/>
        <path d="M224.235 112.379L64.5312 112.379V113.027L224.235 113.027V112.379Z" fill="#CCBCB8"/>
        <path opacity="0.15" d="M167.409 204.344C167.503 204.556 167.407 204.803 167.195 204.897C166.984 204.991 166.736 204.896 166.642 204.684L161.051 192.068C160.81 191.525 160.341 191.118 159.771 190.955L150.364 188.272C149.593 188.052 148.764 188.314 148.26 188.938L145.333 192.561C145.187 192.741 144.923 192.769 144.742 192.624C144.562 192.478 144.534 192.214 144.68 192.034L147.956 187.978C148.46 187.354 149.289 187.092 150.06 187.312L160.379 190.255C160.949 190.418 161.418 190.826 161.659 191.368L167.409 204.344Z" fill="#1E2D3D"/>
        <path opacity="0.1" d="M166.024 218.207L167.796 221.849L168.574 229.193C169.639 230.343 170.574 231.607 171.359 232.964L171.146 239.405L170.805 250.283L139.469 213.507L141.289 206.093C141.289 206.093 166.755 218.55 166.024 218.207Z" fill="#1E2D3D"/>
        <path d="M155.995 166.829C156.181 167.795 156.335 168.853 156.453 170.023C157.056 176.06 157.858 188.824 157.914 189.949C158.27 197.509 158.266 202.261 158.266 202.261L166.024 218.207L167.796 221.849L170.92 251.369L136.859 211.396L138.047 206.553L140.062 198.358L142.28 189.328L142.632 181.494L143.086 171.356L143.454 163.161C143.503 161.742 144.112 160.399 145.147 159.427C146.182 158.455 147.56 157.932 148.979 157.973C151.68 158.101 154.665 159.976 155.995 166.829Z" fill="#F1D7BD"/>
        <path opacity="0.15" d="M153.942 163.722C153.902 163.853 152.934 166.931 150.226 167.908C148.405 168.565 146.275 168.103 143.894 166.534L144.355 165.833C146.501 167.247 148.379 167.68 149.936 167.12C152.248 166.29 153.131 163.504 153.139 163.476L153.942 163.722Z" fill="#1E2D3D"/>
        <path opacity="0.15" d="M158.609 203.93L165.108 217.282C165.21 217.49 165.461 217.577 165.669 217.476C165.877 217.374 165.964 217.123 165.863 216.914L159.364 203.562C159.262 203.353 159.011 203.267 158.803 203.368C158.594 203.47 158.508 203.721 158.609 203.93Z" fill="#1E2D3D"/>
        <path opacity="0.15" d="M139.277 207.11C139.185 207.603 138.504 207.669 138.32 207.202L131.236 189.227C131.151 189.011 131.257 188.768 131.472 188.683C131.688 188.597 131.932 188.703 132.017 188.919L138.669 205.797L141.331 191.533C141.374 191.306 141.593 191.155 141.821 191.198C142.048 191.241 142.198 191.46 142.156 191.687L139.277 207.11Z" fill="#1E2D3D"/>
        <path d="M225 103C231.627 103 237 97.6274 237 91C237 84.3726 231.627 79 225 79C218.373 79 213 84.3726 213 91C213 97.6274 218.373 103 225 103Z" fill="#79AB68"/>
        <path d="M223.7 97C223.389 97.0006 223.086 96.8954 222.837 96.7002L222.821 96.6881L219.57 94.0857C219.419 93.9653 219.292 93.815 219.196 93.6432C219.1 93.4714 219.038 93.2815 219.013 93.0845C218.988 92.8876 219 92.6873 219.049 92.4952C219.098 92.3031 219.182 92.1231 219.298 91.9653C219.413 91.8075 219.558 91.6751 219.722 91.5758C219.887 91.4764 220.069 91.4121 220.257 91.3863C220.446 91.3606 220.637 91.374 220.821 91.4258C221.005 91.4776 221.176 91.5668 221.327 91.6883L223.433 93.3764L228.409 86.5912C228.525 86.4339 228.669 86.3018 228.833 86.2026C228.997 86.1034 229.178 86.0389 229.366 86.013C229.554 85.987 229.746 86.0001 229.929 86.0513C230.112 86.1026 230.284 86.1911 230.434 86.3117L230.403 86.3557L230.435 86.3124C230.739 86.5564 230.937 86.9163 230.988 87.3132C231.038 87.7102 230.935 88.1116 230.702 88.4296L224.849 96.4106C224.714 96.5946 224.54 96.7434 224.34 96.8456C224.141 96.9478 223.922 97.0006 223.7 97Z" fill="white"/>
    </g>
    <defs>
        <filter id="filter0_d" x="0" y="0" width="288" height="334" filterUnits="userSpaceOnUse" color-interpolation-filters="sRGB">
            <feFlood flood-opacity="0" result="BackgroundImageFix"/>
            <feColorMatrix in="SourceAlpha" type="matrix" values="0 0 0 0 0 0 0 0 0 0 0 0 0 0 0 0 0 0 127 0"/>
            <feOffset dy="8"/>
            <feGaussianBlur stdDeviation="15"/>
            <feColorMatrix type="matrix" values="0 0 0 0 0.537255 0 0 0 0 0.584314 0 0 0 0 0.623529 0 0 0 0.3 0"/>
            <feBlend mode="normal" in2="BackgroundImageFix" result="effect1_dropShadow"/>
            <feBlend mode="normal" in="SourceGraphic" in2="effect1_dropShadow" result="shape"/>
        </filter>
    </defs>
</svg>
