<svg width="288" height="334" viewBox="0 0 288 334" fill="none" xmlns="http://www.w3.org/2000/svg">
    <defs>
        <filter id="filter0_d" x="0" y="0" width="288" height="334" filterUnits="userSpaceOnUse" color-interpolation-filters="sRGB">
            <feFlood flood-opacity="0" result="BackgroundImageFix"/>
            <feColorMatrix in="SourceAlpha" type="matrix" values="0 0 0 0 0 0 0 0 0 0 0 0 0 0 0 0 0 0 127 0"/>
            <feOffset dy="8"/>
            <feGaussianBlur stdDeviation="15"/>
            <feColorMatrix type="matrix" values="0 0 0 0 0.537255 0 0 0 0 0.584314 0 0 0 0 0.623529 0 0 0 0.3 0"/>
            <feBlend mode="normal" in2="BackgroundImageFix" result="effect1_dropShadow"/>
            <feBlend mode="normal" in="SourceGraphic" in2="effect1_dropShadow" result="shape"/>
        </filter>
    </defs>
    <g filter="url(#filter0_d)">
        <rect x="30" y="22" width="228" height="274" rx="12" fill="white"/>
        <mask id="mask0" mask-type="alpha" maskUnits="userSpaceOnUse" x="30" y="22" width="228" height="274">
            <rect x="30" y="22" width="228" height="274" rx="12" fill="white"/>
        </mask>
        <g mask="url(#mask0)">
            <path d="M100 23C91.7234 39.1332 83.2401 57.0348 92.0005 74.5556C97.6462 85.8471 114.779 96.1662 127 97.7778C137.597 99.1752 147.554 97.7698 157.778 102.222C168.288 106.799 171.423 118.008 177.778 126.556C180.312 129.963 183.109 134.121 186.445 136.778C190.945 140.361 198.439 141.682 203.889 143.222C215.132 146.399 226.512 148.553 237.667 152.222C245.795 154.896 253.43 159 262 159" stroke="#F4F5F7" stroke-width="3" stroke-linecap="round" stroke-linejoin="round"/>
            <path d="M230 150C219.057 168.846 217 187.88 217 208.944C217 223.788 216 238.67 216 253.444C216 260.51 219 266.536 219 273.778C219 280.031 216.306 290.204 222 294" stroke="#F4F5F7" stroke-width="3" stroke-linecap="round" stroke-linejoin="round"/>
            <path d="M13 218C30.5017 217.314 48.0438 212 65.5556 212C77.3293 212 87.992 215.281 98.7778 220C110.69 225.212 123.454 227.949 135.056 234.056C144.04 238.784 152.173 244.029 162.056 246.5C177.005 250.237 194.085 248 209.389 248C226.1 248 242.29 243 259 243" stroke="#F4F5F7" stroke-width="3" stroke-linecap="round" stroke-linejoin="round"/>
            <path d="M167 112C165.874 118.757 163.121 125.261 162.167 131.944C161.207 138.663 161.246 145.722 160.944 152.5C160.332 166.28 153.114 177.244 142.833 186.056C126.598 199.971 103.713 202.629 87 216" stroke="#F4F5F7" stroke-width="3" stroke-linecap="round" stroke-linejoin="round"/>
            <path d="M174 25C174.207 37.2076 176.95 46.6796 181.944 57.5C186.193 66.7062 194.77 70.2533 201.778 76.7778C206.754 81.4112 212.712 82.048 218.056 86.0556C223.107 89.8442 229.792 91.4496 235.222 95C239.387 97.723 243.395 99.6223 247.556 102C252.339 104.733 252.251 109.063 255.222 112.778C257.379 115.473 257.49 120.551 258.056 123.944C258.505 126.643 264 126.925 264 131" stroke="#F4F5F7" stroke-width="3" stroke-linecap="round" stroke-linejoin="round"/>
            <path d="M38 24C44.6972 28.1459 49.743 33.5675 55.4444 38.8889C58.39 41.6381 62.4672 43.4109 65.6111 46C68.8171 48.6403 75.8546 50.5111 80 51.7778C83.5702 52.8687 85.1942 54 89 54" stroke="#F4F5F7" stroke-width="3" stroke-linecap="round" stroke-linejoin="round"/>
        </g>
        <path fill-rule="evenodd" clip-rule="evenodd" d="M67 172.2C70.3547 172.2 79 161.522 79 152.834C79 146.298 73.6275 141 67 141C60.3726 141 55 146.298 55 152.834C55 161.522 63.6453 172.2 67 172.2ZM67.0001 158.6C70.5348 158.6 73.4001 155.735 73.4001 152.2C73.4001 148.665 70.5348 145.8 67.0001 145.8C63.4655 145.8 60.6001 148.665 60.6001 152.2C60.6001 155.735 63.4655 158.6 67.0001 158.6Z" fill="#79AB68"/>
        <path fill-rule="evenodd" clip-rule="evenodd" d="M220 110.2C223.355 110.2 232 99.5223 232 90.8345C232 84.2985 226.627 79 220 79C213.373 79 208 84.2985 208 90.8345C208 99.5223 216.645 110.2 220 110.2ZM220 96.6001C223.535 96.6001 226.4 93.7347 226.4 90.2001C226.4 86.6655 223.535 83.8001 220 83.8001C216.466 83.8001 213.6 86.6655 213.6 90.2001C213.6 93.7347 216.466 96.6001 220 96.6001Z" fill="#AB7358"/>
        <path fill-rule="evenodd" clip-rule="evenodd" d="M153 244.2C156.355 244.2 165 233.522 165 224.834C165 218.298 159.627 213 153 213C146.373 213 141 218.298 141 224.834C141 233.522 149.645 244.2 153 244.2ZM153 230.6C156.535 230.6 159.4 227.735 159.4 224.2C159.4 220.665 156.535 217.8 153 217.8C149.466 217.8 146.6 220.665 146.6 224.2C146.6 227.735 149.466 230.6 153 230.6Z" fill="#1E2D3D"/>
        <circle opacity="0.2" cx="144" cy="159" r="22" fill="#E3AF7B"/>
        <circle cx="144" cy="159" r="7" fill="#E3AF7B"/>
    </g>
</svg>
