<svg width="63" height="40" viewBox="0 0 63 40" fill="none" xmlns="http://www.w3.org/2000/svg">
<g filter="url(#filter0_d_48_650)">
<path d="M34 2.18051C34 2.08082 34.0808 2 34.1805 2H39.9733C40.073 2 40.1538 2.08082 40.1538 2.18051V33.8195C40.1538 33.9192 40.073 34 39.9733 34H34.1805C34.0808 34 34 33.9192 34 33.8195V2.18051Z" fill="#BB534B"/>
<path d="M18 8.33444C18 8.23475 18.0808 8.15393 18.1805 8.15393H23.9733C24.073 8.15393 24.1538 8.23475 24.1538 8.33444V33.8196C24.1538 33.9193 24.073 34.0001 23.9733 34.0001H18.1805C18.0808 34.0001 18 33.9193 18 33.8196V8.33444Z" fill="#FFC775"/>
<path fill-rule="evenodd" clip-rule="evenodd" d="M13.0769 33.9999C19.1945 33.9999 24.1538 29.0406 24.1538 22.923C24.1538 16.8054 19.1945 11.8461 13.0769 11.8461C6.95931 11.8461 2 16.8054 2 22.923C2 29.0406 6.95931 33.9999 13.0769 33.9999ZM13.0769 27.8461C15.7959 27.8461 18 25.6419 18 22.923C18 20.2041 15.7959 17.9999 13.0769 17.9999C10.358 17.9999 8.15385 20.2041 8.15385 22.923C8.15385 25.6419 10.358 27.8461 13.0769 27.8461Z" fill="#BB534B"/>
<path fill-rule="evenodd" clip-rule="evenodd" d="M45.0769 33.9999C51.1945 33.9999 56.1538 29.0406 56.1538 22.923C56.1538 16.8054 51.1945 11.8461 45.0769 11.8461C38.9593 11.8461 34 16.8054 34 22.923C34 29.0406 38.9593 33.9999 45.0769 33.9999ZM45.077 27.8461C47.7959 27.8461 50 25.6419 50 22.923C50 20.2041 47.7959 17.9999 45.077 17.9999C42.358 17.9999 40.1539 20.2041 40.1539 22.923C40.1539 25.6419 42.358 27.8461 45.077 27.8461Z" fill="#BB534B"/>
<path fill-rule="evenodd" clip-rule="evenodd" d="M18 22.923C18 22.923 18 22.923 18 22.923C18 16.8054 22.9593 11.8461 29.0769 11.8461C35.1945 11.8461 40.1538 16.8054 40.1538 22.923C40.1538 27.2722 37.6473 31.036 33.9999 32.8485V22.923C33.9999 20.2041 31.7958 17.9999 29.0769 17.9999C26.3579 17.9999 24.1538 20.2041 24.1538 22.923H18Z" fill="#BB534B"/>
<path fill-rule="evenodd" clip-rule="evenodd" d="M13.0774 17.9999C15.7963 17.9999 18.0005 20.2041 18.0005 22.923H24.1543C24.1543 16.8054 19.195 11.8461 13.0774 11.8461L13.0774 17.9999Z" fill="url(#paint0_linear_48_650)"/>
<path fill-rule="evenodd" clip-rule="evenodd" d="M45.0774 17.9999C42.3585 17.9999 40.1543 20.2041 40.1543 22.923H34.0005C34.0005 16.8054 38.9598 11.8461 45.0774 11.8461L45.0774 17.9999Z" fill="url(#paint1_linear_48_650)"/>
<path fill-rule="evenodd" clip-rule="evenodd" d="M45.5383 27.8248C45.3864 27.8389 45.2324 27.8461 45.0768 27.8461C42.3579 27.8461 40.1537 25.642 40.1537 22.9231L33.9999 22.9231C33.9999 29.0407 38.9592 34 45.0768 34C45.2314 34 45.3853 33.9968 45.5383 33.9906L45.5383 27.8248Z" fill="#BB534B"/>
<path fill-rule="evenodd" clip-rule="evenodd" d="M24.1538 22.923C24.1538 22.923 24.1538 22.923 24.1538 22.923C24.1538 20.2041 26.3579 17.9999 29.0769 17.9999L29.0769 17.9999L29.0769 11.8461C22.9593 11.8461 18 16.8054 18 22.923L24.1538 22.923Z" fill="url(#paint2_linear_48_650)"/>
<path fill-rule="evenodd" clip-rule="evenodd" d="M34 22.923C34 22.923 34 22.923 34 22.923C34 20.2041 31.7959 17.9999 29.077 17.9999L29.0769 17.9999L29.0769 11.8461C35.1945 11.8461 40.1538 16.8054 40.1538 22.923L34 22.923Z" fill="url(#paint3_linear_48_650)"/>
<path d="M2 2.18051C2 2.08082 2.08082 2 2.18051 2H7.97333C8.07303 2 8.15384 2.08082 8.15384 2.18051V33.8195C8.15384 33.9192 8.07303 34 7.97333 34H2.18051C2.08082 34 2 33.9192 2 33.8195V2.18051Z" fill="#BB534B"/>
<path fill-rule="evenodd" clip-rule="evenodd" d="M45.0774 27.8461C42.3585 27.8461 40.1543 25.642 40.1543 22.9231L34.0005 22.9231C34.0005 29.0407 38.9598 34 45.0774 34L45.0774 27.8461Z" fill="#BB534B"/>
</g>
<defs>
<filter id="filter0_d_48_650" x="0" y="0" width="62.1538" height="40.0001" filterUnits="userSpaceOnUse" color-interpolation-filters="sRGB">
<feFlood flood-opacity="0" result="BackgroundImageFix"/>
<feColorMatrix in="SourceAlpha" type="matrix" values="0 0 0 0 0 0 0 0 0 0 0 0 0 0 0 0 0 0 127 0" result="hardAlpha"/>
<feOffset dx="2" dy="2"/>
<feGaussianBlur stdDeviation="2"/>
<feColorMatrix type="matrix" values="0 0 0 0 0 0 0 0 0 0 0 0 0 0 0 0 0 0 0.1 0"/>
<feBlend mode="normal" in2="BackgroundImageFix" result="effect1_dropShadow_48_650"/>
<feBlend mode="normal" in="SourceGraphic" in2="effect1_dropShadow_48_650" result="shape"/>
</filter>
<linearGradient id="paint0_linear_48_650" x1="13.0774" y1="11.8461" x2="24.1543" y2="11.8461" gradientUnits="userSpaceOnUse">
<stop stop-color="#BB534B"/>
<stop offset="1" stop-color="#9F443C"/>
</linearGradient>
<linearGradient id="paint1_linear_48_650" x1="45.0774" y1="11.8461" x2="34.0005" y2="11.8461" gradientUnits="userSpaceOnUse">
<stop stop-color="#BB534B"/>
<stop offset="1" stop-color="#9F433C"/>
</linearGradient>
<linearGradient id="paint2_linear_48_650" x1="18" y1="22.923" x2="18" y2="11.8461" gradientUnits="userSpaceOnUse">
<stop stop-color="#BB534B"/>
<stop offset="1" stop-color="#BB534B"/>
</linearGradient>
<linearGradient id="paint3_linear_48_650" x1="40.1538" y1="22.923" x2="40.1538" y2="11.8461" gradientUnits="userSpaceOnUse">
<stop stop-color="#BB534B"/>
<stop offset="1" stop-color="#BB534B"/>
</linearGradient>
</defs>
</svg>
