<svg width="194" height="194" viewBox="0 0 194 194" fill="none" xmlns="http://www.w3.org/2000/svg">
<path opacity="0.08" fill-rule="evenodd" clip-rule="evenodd" d="M3.61684 50.8706C-1.20561 46.0363 -1.20561 38.1983 3.61684 33.3639L33.2819 3.62576C38.1043 -1.20858 45.9231 -1.20859 50.7455 3.62575L97 49.9943L143.254 3.62575C148.077 -1.20859 155.896 -1.20858 160.718 3.62576L190.383 33.3639C195.206 38.1983 195.206 46.0363 190.383 50.8706L144.129 97.2392L189.906 143.129C194.729 147.964 194.729 155.802 189.906 160.636L160.241 190.374C155.419 195.209 147.6 195.209 142.777 190.374L97 144.484L51.2226 190.374C46.4002 195.209 38.5815 195.209 33.759 190.374L4.09395 160.636C-0.728503 155.802 -0.728508 147.964 4.09394 143.129L49.8713 97.2392L3.61684 50.8706Z" fill="#B85954"/>
<g clip-path="url(#clip0)">
<path d="M149.773 82.6692C140.81 75.9688 126.772 69.632 111.259 65.2838C97.1338 61.3247 83.3567 59.4133 72.4625 59.9014L72.4058 58.6345C83.4298 58.1408 97.3498 60.0683 111.601 64.0627C127.259 68.4515 141.449 74.863 150.532 81.6535L149.773 82.6692Z" fill="#B85954"/>
<path d="M148.844 87.83C148.852 93.7665 147.607 99.6378 145.191 105.061C144.99 105.515 144.78 105.964 144.561 106.41C140.359 115.016 133.366 121.944 124.721 126.065C116.076 130.185 106.289 131.255 96.9582 129.1C87.6271 126.944 79.3017 121.69 73.3399 114.196C67.3781 106.701 64.1318 97.4069 64.1304 87.83C64.1304 86.8497 64.1638 85.8771 64.2305 84.912C64.2622 84.4212 64.3033 83.9334 64.3536 83.4486C65.4768 72.6527 70.7015 62.7 78.9494 55.6443C87.1973 48.5885 97.839 44.9682 108.679 45.5303C119.518 46.0924 129.728 50.7941 137.202 58.6651C144.676 66.5362 148.843 76.9759 148.844 87.83H148.844Z" fill="#D6D4D4"/>
<path opacity="0.1" d="M145.19 105.061C144.989 105.515 144.779 105.965 144.56 106.41C143.322 106.545 142.019 106.642 140.651 106.703C139.519 106.754 138.354 106.779 137.163 106.779C126.761 106.779 114.243 104.859 101.455 101.275C87.2035 97.2808 74.3101 91.6933 65.1489 85.5414C64.8369 85.3322 64.5305 85.1225 64.2295 84.9124C64.2612 84.4216 64.3022 83.9338 64.3525 83.449C64.8382 83.7952 65.3391 84.1418 65.8553 84.4888C74.9087 90.5671 87.6727 96.0951 101.798 100.054C114.474 103.608 126.874 105.511 137.156 105.511C138.332 105.511 139.478 105.486 140.594 105.436C142.22 105.363 143.752 105.238 145.19 105.061Z" fill="#0E141E"/>
<path d="M137.164 105.765C126.763 105.765 114.245 103.845 101.457 100.261C87.2055 96.2662 74.3116 90.6785 65.1503 84.5268C55.7978 78.2467 51.4122 72.0586 52.8014 67.1024C54.1905 62.1462 61.1534 59.1389 72.4075 58.6345L72.4642 59.9014C67.2087 60.1369 62.9256 60.9181 59.7341 62.2231C56.5504 63.525 54.6287 65.2818 54.0224 67.4447C53.4162 69.6076 54.1449 72.1072 56.1882 74.8742C58.2366 77.6478 61.4897 80.5412 65.8572 83.474C74.9096 89.5525 87.6741 95.0806 101.799 99.0396C114.476 102.593 126.875 104.497 137.158 104.497C138.333 104.497 139.479 104.472 140.596 104.422C145.851 104.186 150.134 103.405 153.326 102.1C156.509 100.798 158.431 99.0417 159.037 96.8788C160.126 92.995 156.836 87.9486 149.774 82.6692L150.534 81.6536C154.168 84.3703 156.858 87.0483 158.529 89.6128C160.321 92.3623 160.903 94.9221 160.258 97.221C158.869 102.177 151.906 105.184 140.652 105.689C139.52 105.74 138.355 105.765 137.164 105.765Z" fill="#B85954"/>
<path d="M107.607 37.834C107.876 37.834 108.093 37.6167 108.093 37.3487C108.093 37.0806 107.876 36.8633 107.607 36.8633C107.339 36.8633 107.122 37.0806 107.122 37.3487C107.122 37.6167 107.339 37.834 107.607 37.834Z" fill="#D6D4D4"/>
<path d="M43.2149 58.8956C43.676 58.8956 44.0499 58.5217 44.0499 58.0606C44.0499 57.5994 43.676 57.2256 43.2149 57.2256C42.7537 57.2256 42.3799 57.5994 42.3799 58.0606C42.3799 58.5217 42.7537 58.8956 43.2149 58.8956Z" fill="#89959F"/>
<path d="M41.4371 92.3918C42.3481 92.3918 43.0866 91.6533 43.0866 90.7423C43.0866 89.8313 42.3481 89.0928 41.4371 89.0928C40.5261 89.0928 39.7876 89.8313 39.7876 90.7423C39.7876 91.6533 40.5261 92.3918 41.4371 92.3918Z" fill="#89959F"/>
<path d="M140.451 41.3608C141.059 41.3608 141.551 40.8686 141.551 40.2615C141.551 39.6543 141.059 39.1621 140.451 39.1621C139.844 39.1621 139.352 39.6543 139.352 40.2615C139.352 40.8686 139.844 41.3608 140.451 41.3608Z" fill="#89959F"/>
<path d="M179.44 87.6741C180.426 87.6741 181.225 86.875 181.225 85.8892C181.225 84.9034 180.426 84.1042 179.44 84.1042C178.454 84.1042 177.655 84.9034 177.655 85.8892C177.655 86.875 178.454 87.6741 179.44 87.6741Z" fill="#89959F"/>
<path d="M165.485 58.1469C165.908 58.1469 166.25 57.804 166.25 57.3811C166.25 56.9581 165.908 56.6152 165.485 56.6152C165.062 56.6152 164.719 56.9581 164.719 57.3811C164.719 57.804 165.062 58.1469 165.485 58.1469Z" fill="#89959F"/>
<path d="M72.4984 48.7361C73.1582 48.7361 73.6931 48.2012 73.6931 47.5414C73.6931 46.8816 73.1582 46.3467 72.4984 46.3467C71.8386 46.3467 71.3037 46.8816 71.3037 47.5414C71.3037 48.2012 71.8386 48.7361 72.4984 48.7361Z" fill="#89959F"/>
<path d="M162.802 83.0353C163.225 83.0353 163.568 82.6924 163.568 82.2695C163.568 81.8465 163.225 81.5037 162.802 81.5037C162.379 81.5037 162.037 81.8465 162.037 82.2695C162.037 82.6924 162.379 83.0353 162.802 83.0353Z" fill="#89959F"/>
<path d="M13.8208 86.0404C14.3473 86.0404 14.774 85.6136 14.774 85.0872C14.774 84.5608 14.3473 84.134 13.8208 84.134C13.2944 84.134 12.8677 84.5608 12.8677 85.0872C12.8677 85.6136 13.2944 86.0404 13.8208 86.0404Z" fill="#89959F"/>
<path d="M28.3003 70.4333C28.8704 70.4333 29.3325 69.9712 29.3325 69.4011C29.3325 68.831 28.8704 68.3689 28.3003 68.3689C27.7302 68.3689 27.2681 68.831 27.2681 69.4011C27.2681 69.9712 27.7302 70.4333 28.3003 70.4333Z" fill="#89959F"/>
<path d="M94.5802 23.3739H92.5433V21.337H91.4504V23.3739H89.4126V24.4677H91.4504V26.5046H92.5433V24.4677H94.5802V23.3739Z" fill="#89959F"/>
<path d="M141.831 133.593H140.551V132.315H139.865V133.593H138.586V134.28H139.865V135.559H140.551V134.28H141.831V133.593Z" fill="#89959F"/>
<path d="M171.35 127.048H170.394V126.092H169.881V127.048H168.925V127.561H169.881V128.517H170.394V127.561H171.35V127.048Z" fill="#89959F"/>
<path opacity="0.1" d="M79.78 84.2715C81.7458 84.2715 83.3394 82.6779 83.3394 80.7122C83.3394 78.7464 81.7458 77.1528 79.78 77.1528C77.8143 77.1528 76.2207 78.7464 76.2207 80.7122C76.2207 82.6779 77.8143 84.2715 79.78 84.2715Z" fill="#0E141E"/>
<path opacity="0.1" d="M119.095 120.027C121.061 120.027 122.655 118.433 122.655 116.467C122.655 114.502 121.061 112.908 119.095 112.908C117.13 112.908 115.536 114.502 115.536 116.467C115.536 118.433 117.13 120.027 119.095 120.027Z" fill="#0E141E"/>
<path opacity="0.1" d="M107.122 89.7725C109.088 89.7725 110.682 88.1789 110.682 86.2132C110.682 84.2474 109.088 82.6538 107.122 82.6538C105.157 82.6538 103.563 84.2474 103.563 86.2132C103.563 88.1789 105.157 89.7725 107.122 89.7725Z" fill="#0E141E"/>
<path opacity="0.1" d="M81.5593 109.348C83.5251 109.348 85.1187 107.754 85.1187 105.788C85.1187 103.823 83.5251 102.229 81.5593 102.229C79.5936 102.229 78 103.823 78 105.788C78 107.754 79.5936 109.348 81.5593 109.348Z" fill="#0E141E"/>
<path opacity="0.1" d="M126.214 70.6814C128.179 70.6814 129.773 69.0879 129.773 67.1221C129.773 65.1563 128.179 63.5627 126.214 63.5627C124.248 63.5627 122.654 65.1563 122.654 67.1221C122.654 69.0879 124.248 70.6814 126.214 70.6814Z" fill="#0E141E"/>
<path opacity="0.1" d="M138.024 94.7867C139.99 94.7867 141.584 93.1931 141.584 91.2273C141.584 89.2615 139.99 87.668 138.024 87.668C136.058 87.668 134.465 89.2615 134.465 91.2273C134.465 93.1931 136.058 94.7867 138.024 94.7867Z" fill="#0E141E"/>
<path d="M126.212 45.4424C124.453 45.4424 122.766 46.1413 121.522 47.3852C120.278 48.6292 119.579 50.3164 119.579 52.0757C119.579 55.7392 126.212 67.7692 126.212 67.7692C126.212 67.7692 132.846 55.7392 132.846 52.0757C132.846 50.3164 132.147 48.6292 130.903 47.3852C129.659 46.1413 127.972 45.4424 126.212 45.4424ZM126.212 55.3115C125.604 55.3115 125.01 55.1312 124.505 54.7934C123.999 54.4556 123.605 53.9755 123.372 53.4138C123.14 52.8521 123.079 52.2341 123.197 51.6378C123.316 51.0415 123.609 50.4937 124.039 50.0638C124.469 49.6339 125.016 49.3412 125.613 49.2226C126.209 49.1039 126.827 49.1648 127.389 49.3975C127.95 49.6302 128.431 50.0242 128.768 50.5297C129.106 51.0352 129.286 51.6295 129.286 52.2375C129.286 52.6412 129.207 53.0409 129.052 53.4138C128.898 53.7868 128.672 54.1257 128.386 54.4111C128.101 54.6966 127.762 54.923 127.389 55.0775C127.016 55.232 126.616 55.3115 126.212 55.3115Z" fill="#E3AF7B"/>
<path d="M79.7608 58.1689C78.0015 58.1689 76.3143 58.8678 75.0703 60.1118C73.8263 61.3558 73.1274 63.043 73.1274 64.8023C73.1274 68.4657 79.7608 80.4957 79.7608 80.4957C79.7608 80.4957 86.3941 68.4657 86.3941 64.8023C86.3941 63.043 85.6952 61.3558 84.4512 60.1118C83.2072 58.8678 81.52 58.1689 79.7608 58.1689ZM79.7608 68.038C79.1528 68.038 78.5584 67.8577 78.0529 67.52C77.5474 67.1822 77.1534 66.7021 76.9208 66.1404C76.6881 65.5787 76.6272 64.9606 76.7458 64.3643C76.8644 63.768 77.1572 63.2203 77.5871 62.7904C78.017 62.3605 78.5648 62.0677 79.1611 61.9491C79.7574 61.8305 80.3754 61.8914 80.9371 62.1241C81.4988 62.3567 81.9789 62.7507 82.3167 63.2562C82.6545 63.7618 82.8347 64.3561 82.8347 64.964C82.8347 65.3677 82.7552 65.7675 82.6008 66.1404C82.4463 66.5134 82.2198 66.8522 81.9344 67.1377C81.649 67.4231 81.3101 67.6496 80.9371 67.804C80.5642 67.9585 80.1644 68.038 79.7608 68.038Z" fill="#B85954"/>
<path d="M138.621 68.9863C136.861 68.9863 135.174 69.6852 133.93 70.9292C132.686 72.1732 131.987 73.8604 131.987 75.6196C131.987 79.2831 138.621 91.3131 138.621 91.3131C138.621 91.3131 145.254 79.2831 145.254 75.6196C145.254 73.8604 144.555 72.1732 143.311 70.9292C142.067 69.6852 140.38 68.9863 138.621 68.9863ZM138.621 78.8554C138.013 78.8554 137.418 78.6751 136.913 78.3374C136.407 77.9996 136.013 77.5195 135.781 76.9578C135.548 76.3961 135.487 75.778 135.606 75.1817C135.724 74.5854 136.017 74.0377 136.447 73.6078C136.877 73.1779 137.425 72.8851 138.021 72.7665C138.617 72.6479 139.235 72.7088 139.797 72.9414C140.359 73.1741 140.839 73.5681 141.177 74.0736C141.514 74.5791 141.695 75.1734 141.695 75.7814C141.695 76.1851 141.615 76.5848 141.461 76.9578C141.306 77.3307 141.08 77.6696 140.794 77.9551C140.509 78.2405 140.17 78.4669 139.797 78.6214C139.424 78.7759 139.024 78.8554 138.621 78.8554Z" fill="#89959F"/>
<path d="M59.0806 92.5305C57.3213 92.5305 55.6341 93.2294 54.3901 94.4734C53.1461 95.7174 52.4473 97.4046 52.4473 99.1638C52.4473 102.827 59.0806 114.857 59.0806 114.857C59.0806 114.857 65.7139 102.827 65.7139 99.1638C65.7139 97.4046 65.015 95.7174 63.771 94.4734C62.527 93.2294 60.8398 92.5305 59.0806 92.5305ZM59.0806 102.4C58.4726 102.4 57.8783 102.219 57.3727 101.882C56.8672 101.544 56.4732 101.064 56.2406 100.502C56.0079 99.9403 55.947 99.3222 56.0656 98.7259C56.1843 98.1296 56.477 97.5819 56.9069 97.152C57.3368 96.7221 57.8846 96.4293 58.4809 96.3107C59.0772 96.1921 59.6952 96.253 60.2569 96.4856C60.8186 96.7183 61.2987 97.1123 61.6365 97.6178C61.9743 98.1233 62.1546 98.7176 62.1546 99.3256C62.1546 99.7293 62.075 100.129 61.9206 100.502C61.7661 100.875 61.5397 101.214 61.2542 101.499C60.9688 101.785 60.6299 102.011 60.2569 102.166C59.884 102.32 59.4842 102.4 59.0806 102.4Z" fill="#E3AF7B"/>
<path d="M167.077 136.999C167.988 136.237 166.757 133.267 164.328 130.365C161.899 127.464 159.192 125.73 158.281 126.493C157.37 127.256 158.601 130.226 161.03 133.127C163.459 136.028 166.167 137.762 167.077 136.999Z" fill="#1E2D3D"/>
<path d="M148.105 143.068C155.673 143.068 161.808 136.934 161.808 129.366C161.808 121.798 155.673 115.664 148.105 115.664C140.538 115.664 134.403 121.798 134.403 129.366C134.403 136.934 140.538 143.068 148.105 143.068Z" fill="#1E2D3D"/>
<path d="M153.906 140.119H149.743V147.578H153.906V140.119Z" fill="#1E2D3D"/>
<path d="M145.581 140.119H141.418V147.578H145.581V140.119Z" fill="#1E2D3D"/>
<path d="M150.437 148.966C152.353 148.966 153.906 148.383 153.906 147.665C153.906 146.946 152.353 146.364 150.437 146.364C148.521 146.364 146.968 146.946 146.968 147.665C146.968 148.383 148.521 148.966 150.437 148.966Z" fill="#1E2D3D"/>
<path d="M142.112 148.792C144.028 148.792 145.581 148.21 145.581 147.491C145.581 146.773 144.028 146.19 142.112 146.19C140.196 146.19 138.643 146.773 138.643 147.491C138.643 148.21 140.196 148.792 142.112 148.792Z" fill="#1E2D3D"/>
<path d="M143.804 112.141C145.028 107.214 150.428 104.314 155.867 105.665C161.306 107.015 164.723 112.105 163.499 117.032C162.276 121.959 158.217 121.975 152.778 120.625C147.339 119.274 142.581 117.069 143.804 112.141Z" fill="#E3AF7B"/>
<path d="M138.861 125.944C139.37 124.871 137.011 122.687 133.593 121.065C130.174 119.444 126.99 118.999 126.481 120.073C125.972 121.146 128.331 123.33 131.749 124.952C135.168 126.573 138.352 127.018 138.861 125.944Z" fill="#1E2D3D"/>
<path d="M146.057 131.043C148.58 131.043 150.626 128.998 150.626 126.475C150.626 123.952 148.58 121.906 146.057 121.906C143.534 121.906 141.489 123.952 141.489 126.475C141.489 128.998 143.534 131.043 146.057 131.043Z" fill="white"/>
<path d="M144.179 126.36C145.02 126.36 145.701 125.678 145.701 124.837C145.701 123.996 145.02 123.314 144.179 123.314C143.338 123.314 142.656 123.996 142.656 124.837C142.656 125.678 143.338 126.36 144.179 126.36Z" fill="#B85954"/>
<path d="M148.922 135.992C148.994 136.386 148.987 136.789 148.903 137.18C148.818 137.571 148.658 137.942 148.43 138.271C148.203 138.6 147.913 138.88 147.576 139.097C147.24 139.314 146.865 139.462 146.471 139.534C146.078 139.606 145.674 139.599 145.283 139.515C144.892 139.43 144.522 139.27 144.193 139.042C143.864 138.815 143.583 138.524 143.366 138.188C143.15 137.852 143.001 137.477 142.93 137.083L142.928 137.077C142.629 135.422 143.909 134.836 145.564 134.537C147.219 134.237 148.623 134.337 148.922 135.992Z" fill="white"/>
<path d="M119.887 100.257C118.477 99.0678 116.753 98.3139 114.923 98.087C113.093 97.86 111.236 98.1699 109.579 98.9788C107.922 99.7878 106.536 101.061 105.589 102.643C104.642 104.226 104.176 106.049 104.247 107.892C104.317 109.735 104.922 111.517 105.988 113.022C107.053 114.527 108.533 115.691 110.247 116.37C111.961 117.05 113.836 117.216 115.643 116.85C117.45 116.483 119.112 115.599 120.426 114.305L132.094 124.151C132.272 124.301 132.501 124.374 132.733 124.354C132.965 124.335 133.179 124.224 133.329 124.047C133.479 123.87 133.552 123.64 133.533 123.408C133.514 123.177 133.403 122.962 133.226 122.812L133.225 122.811L121.557 112.966C122.912 111.02 123.492 108.639 123.183 106.288C122.874 103.937 121.699 101.786 119.887 100.257ZM119.134 112.017C118.225 113.095 117.017 113.878 115.663 114.269C114.309 114.66 112.869 114.64 111.526 114.212C110.183 113.785 108.997 112.969 108.117 111.867C107.238 110.765 106.705 109.428 106.586 108.023C106.467 106.619 106.768 105.21 107.449 103.976C108.13 102.742 109.162 101.738 110.414 101.091C111.666 100.443 113.082 100.182 114.483 100.339C115.884 100.497 117.206 101.066 118.284 101.975C119.728 103.194 120.629 104.936 120.789 106.82C120.949 108.703 120.353 110.573 119.134 112.017Z" fill="#B85954"/>
<path opacity="0.3" d="M109.092 112.868C107.725 111.714 106.842 110.088 106.618 108.313C106.394 106.538 106.845 104.744 107.883 103.287C107.747 103.424 107.615 103.568 107.488 103.718C106.884 104.433 106.427 105.26 106.143 106.152C105.86 107.044 105.754 107.983 105.833 108.916C105.912 109.848 106.174 110.756 106.604 111.587C107.034 112.419 107.623 113.157 108.338 113.761C109.054 114.364 109.881 114.821 110.773 115.105C111.664 115.389 112.603 115.494 113.536 115.415C114.469 115.336 115.376 115.074 116.208 114.645C117.039 114.215 117.778 113.625 118.381 112.91C118.508 112.76 118.628 112.606 118.74 112.448C117.478 113.716 115.785 114.463 113.998 114.541C112.211 114.618 110.459 114.021 109.092 112.868Z" fill="#0E141E"/>
<path d="M59.9495 119.787C61.3005 116.252 61.4961 113.043 60.3866 112.619C59.277 112.195 57.2824 114.716 55.9314 118.251C54.5805 121.785 54.3848 124.994 55.4944 125.418C56.604 125.842 58.5986 123.321 59.9495 119.787Z" fill="#1E2D3D"/>
<path d="M45.2776 143.068C52.8452 143.068 58.98 136.934 58.98 129.366C58.98 121.798 52.8452 115.664 45.2776 115.664C37.71 115.664 31.5752 121.798 31.5752 129.366C31.5752 136.934 37.71 143.068 45.2776 143.068Z" fill="#1E2D3D"/>
<path d="M43.1964 140.119H39.0337V147.578H43.1964V140.119Z" fill="#1E2D3D"/>
<path d="M51.5216 140.119H47.3589V147.578H51.5216V140.119Z" fill="#1E2D3D"/>
<path d="M42.5027 148.966C44.4185 148.966 45.9716 148.383 45.9716 147.665C45.9716 146.946 44.4185 146.364 42.5027 146.364C40.5868 146.364 39.0337 146.946 39.0337 147.665C39.0337 148.383 40.5868 148.966 42.5027 148.966Z" fill="#1E2D3D"/>
<path d="M50.8279 148.792C52.7437 148.792 54.2968 148.21 54.2968 147.491C54.2968 146.773 52.7437 146.19 50.8279 146.19C48.912 146.19 47.3589 146.773 47.3589 147.491C47.3589 148.21 48.912 148.792 50.8279 148.792Z" fill="#1E2D3D"/>
<path d="M45.6221 130.58C48.2085 130.58 50.3051 128.483 50.3051 125.896C50.3051 123.31 48.2085 121.213 45.6221 121.213C43.0357 121.213 40.939 123.31 40.939 125.896C40.939 128.483 43.0357 130.58 45.6221 130.58Z" fill="white"/>
<path d="M45.6226 127.458C46.4847 127.458 47.1836 126.759 47.1836 125.897C47.1836 125.035 46.4847 124.336 45.6226 124.336C44.7604 124.336 44.0615 125.035 44.0615 125.897C44.0615 126.759 44.7604 127.458 45.6226 127.458Z" fill="#B85954"/>
<path d="M31.9838 116.624C30.8774 111.669 34.4142 106.662 39.8833 105.441C45.3525 104.219 50.6831 107.246 51.7895 112.201C52.8959 117.156 49.2713 118.984 43.8021 120.205C38.3329 121.426 33.0902 121.579 31.9838 116.624Z" fill="#E3AF7B"/>
<path d="M36.0336 125.945C36.5427 124.871 34.1838 122.687 30.7651 121.065C27.3463 119.444 24.1622 119 23.6531 120.073C23.1441 121.146 25.5029 123.331 28.9217 124.952C32.3405 126.574 35.5246 127.018 36.0336 125.945Z" fill="#1E2D3D"/>
<path d="M38.5459 134.31C38.5459 135.651 41.999 138.299 45.8307 138.299C49.6624 138.299 53.2551 134.524 53.2551 133.183C53.2551 131.841 49.6624 133.443 45.8307 133.443C41.999 133.443 38.5459 132.969 38.5459 134.31Z" fill="white"/>
<path d="M89.7283 167.885C97.2959 167.885 103.431 161.75 103.431 154.182C103.431 146.615 97.2959 140.48 89.7283 140.48C82.1606 140.48 76.0259 146.615 76.0259 154.182C76.0259 161.75 82.1606 167.885 89.7283 167.885Z" fill="#1E2D3D"/>
<path d="M87.6471 164.936H83.4844V172.394H87.6471V164.936Z" fill="#1E2D3D"/>
<path d="M95.9753 164.936H91.8125V172.394H95.9753V164.936Z" fill="#1E2D3D"/>
<path d="M86.9533 173.782C88.8692 173.782 90.4223 173.2 90.4223 172.482C90.4223 171.763 88.8692 171.181 86.9533 171.181C85.0375 171.181 83.4844 171.763 83.4844 172.482C83.4844 173.2 85.0375 173.782 86.9533 173.782Z" fill="#1E2D3D"/>
<path d="M95.2815 173.609C97.1973 173.609 98.7504 173.026 98.7504 172.308C98.7504 171.589 97.1973 171.007 95.2815 171.007C93.3656 171.007 91.8125 171.589 91.8125 172.308C91.8125 173.026 93.3656 173.609 95.2815 173.609Z" fill="#1E2D3D"/>
<path d="M76.4374 141.44C75.331 136.485 78.8678 131.478 84.337 130.257C89.8062 129.036 95.1367 132.063 96.2431 137.018C97.3495 141.973 93.7249 143.8 88.2557 145.021C82.7865 146.243 77.5438 146.395 76.4374 141.44Z" fill="#B85954"/>
<path d="M89.7846 151.808C89.7846 151.808 90.7786 147.434 88.89 147.633C87.0015 147.832 84.4171 147.931 83.7214 147.931C83.0256 147.931 79.0497 147.434 78.4533 150.019C77.8569 152.603 77.0617 155.784 78.7515 157.772C78.7515 157.772 79.3479 166.519 81.634 167.115C83.9201 167.712 89.9834 168.407 92.1701 165.525C92.8104 164.667 93.2574 163.681 93.4804 162.635C93.7035 161.588 93.6973 160.506 93.4623 159.462H92.4683L89.7846 151.808Z" fill="#89959F"/>
<path opacity="0.1" d="M79.7466 158.469C79.7466 158.469 81.4363 159.264 84.9152 158.767V160.258L79.7466 159.86V158.469Z" fill="#0E141E"/>
<path d="M92.3735 163.453L91.2483 162.858L96.2529 153.388C96.4408 153.032 96.5349 152.635 96.5263 152.232C96.5177 151.83 96.4068 151.437 96.2039 151.09C96.0009 150.743 95.7128 150.453 95.3668 150.248C95.0207 150.044 94.6281 149.93 94.2261 149.92L88.9741 149.778L89.0083 148.506L94.2604 148.647C94.8787 148.664 95.4827 148.838 96.015 149.153C96.5473 149.468 96.9905 149.914 97.3026 150.448C97.6147 150.982 97.7855 151.587 97.7987 152.205C97.8119 152.824 97.6672 153.435 97.3781 153.982L92.3735 163.453Z" fill="#89959F"/>
<path d="M80.2775 163.453L75.273 153.982C74.9839 153.435 74.8392 152.824 74.8524 152.205C74.8656 151.587 75.0363 150.982 75.3484 150.448C75.6605 149.914 76.1037 149.468 76.636 149.153C77.1684 148.838 77.7722 148.664 78.3906 148.647L83.6428 148.506L83.6769 149.778L78.4249 149.92C78.0229 149.93 77.6303 150.044 77.2842 150.248C76.9382 150.453 76.6501 150.743 76.4472 151.09C76.2443 151.437 76.1333 151.83 76.1247 152.232C76.1161 152.635 76.2102 153.032 76.3981 153.388L81.4027 162.858L80.2775 163.453Z" fill="#89959F"/>
<path d="M107.299 157.698C107.916 156.533 105.407 153.997 101.696 152.034C97.9848 150.071 94.4768 149.424 93.8605 150.589C93.2442 151.754 95.753 154.29 99.4641 156.253C103.175 158.216 106.683 158.863 107.299 157.698Z" fill="#1E2D3D"/>
</g>
<defs>
<clipPath id="clip0">
<rect width="168.359" height="152.445" fill="white" transform="translate(12.8677 21.337)"/>
</clipPath>
</defs>
</svg>
