<svg width="288" height="334" viewBox="0 0 288 334" fill="none" xmlns="http://www.w3.org/2000/svg">
    <g filter="url(#filter0_d)">
        <rect x="30" y="22" width="228" height="274" rx="12" fill="white"/>
        <path d="M155 199C155 196.791 156.791 195 159 195H224C226.209 195 228 196.791 228 199V215C228 217.209 226.209 219 224 219H159C156.791 219 155 217.209 155 215V199Z" fill="#D6D4D4"/>
        <path d="M55 185C55 182.791 56.7909 181 59 181H111C113.209 181 115 182.791 115 185V199C115 201.209 113.209 203 111 203H59C56.7909 203 55 201.209 55 199V185Z" fill="#D6D4D4"/>
        <path d="M155 226C155 224.343 156.343 223 158 223H225C226.657 223 228 224.343 228 226C228 227.657 226.657 229 225 229H158C156.343 229 155 227.657 155 226Z" fill="#D6D4D4"/>
        <path d="M55 208.5C55 207.119 56.1193 206 57.5 206H112.5C113.881 206 115 207.119 115 208.5C115 209.881 113.881 211 112.5 211H57.5C56.1193 211 55 209.881 55 208.5Z" fill="#D6D4D4"/>
        <path d="M155 236C155 234.343 156.343 233 158 233H225C226.657 233 228 234.343 228 236C228 237.657 226.657 239 225 239H158C156.343 239 155 237.657 155 236Z" fill="#D6D4D4"/>
        <path d="M55 216.5C55 215.119 56.1193 214 57.5 214H112.5C113.881 214 115 215.119 115 216.5C115 217.881 113.881 219 112.5 219H57.5C56.1193 219 55 217.881 55 216.5Z" fill="#D6D4D4"/>
        <path fill-rule="evenodd" clip-rule="evenodd" d="M115 172H55C50.0294 172 46 176.029 46 181V218C46 222.971 50.0294 227 55 227H115C119.971 227 124 222.971 124 218V181C124 176.029 119.971 172 115 172ZM55 171C49.4772 171 45 175.477 45 181V218C45 223.523 49.4772 228 55 228H115C120.523 228 125 223.523 125 218V181C125 175.477 120.523 171 115 171H55Z" fill="#CCBCB8"/>
        <path fill-rule="evenodd" clip-rule="evenodd" d="M228 184H155C149.477 184 145 188.477 145 194V240C145 245.523 149.477 250 155 250H228C233.523 250 238 245.523 238 240V194C238 188.477 233.523 184 228 184ZM155 183C148.925 183 144 187.925 144 194V240C144 246.075 148.925 251 155 251H228C234.075 251 239 246.075 239 240V194C239 187.925 234.075 183 228 183H155Z" fill="#CCBCB8"/>
        <path d="M87 121C87 114.373 92.3726 109 99 109H199C205.627 109 211 114.373 211 121V185C211 191.627 205.627 197 199 197H99C92.3726 197 87 191.627 87 185V121Z" fill="white"/>
        <path fill-rule="evenodd" clip-rule="evenodd" d="M199 110H99C92.9249 110 88 114.925 88 121V185C88 191.075 92.9249 196 99 196H199C205.075 196 210 191.075 210 185V121C210 114.925 205.075 110 199 110ZM99 109C92.3726 109 87 114.373 87 121V185C87 191.627 92.3726 197 99 197H199C205.627 197 211 191.627 211 185V121C211 114.373 205.627 109 199 109H99Z" fill="#CCBCB8"/>
        <path d="M209 123C215.627 123 221 117.627 221 111C221 104.373 215.627 99 209 99C202.373 99 197 104.373 197 111C197 117.627 202.373 123 209 123Z" fill="#79AB68"/>
        <path d="M207.7 117C207.389 117.001 207.086 116.895 206.837 116.7L206.821 116.688L203.57 114.086C203.419 113.965 203.292 113.815 203.196 113.643C203.1 113.471 203.038 113.282 203.013 113.085C202.988 112.888 203 112.687 203.049 112.495C203.098 112.303 203.182 112.123 203.298 111.965C203.413 111.808 203.558 111.675 203.722 111.576C203.887 111.476 204.069 111.412 204.257 111.386C204.446 111.361 204.637 111.374 204.821 111.426C205.005 111.478 205.176 111.567 205.327 111.688L207.433 113.376L212.409 106.591C212.525 106.434 212.669 106.302 212.833 106.203C212.997 106.103 213.178 106.039 213.366 106.013C213.554 105.987 213.746 106 213.929 106.051C214.112 106.103 214.284 106.191 214.434 106.312L214.403 106.356L214.435 106.312C214.739 106.556 214.937 106.916 214.988 107.313C215.038 107.71 214.935 108.112 214.702 108.43L208.849 116.411C208.714 116.595 208.54 116.743 208.34 116.846C208.141 116.948 207.922 117.001 207.7 117Z" fill="white"/>
        <path d="M238 193C243.523 193 248 188.523 248 183C248 177.477 243.523 173 238 173C232.477 173 228 177.477 228 183C228 188.523 232.477 193 238 193Z" fill="#AB7358"/>
        <path d="M236.525 187C236.291 187 236.064 186.933 235.877 186.809L235.866 186.801L233.428 185.145C233.314 185.069 233.219 184.973 233.147 184.864C233.075 184.755 233.029 184.634 233.01 184.508C232.991 184.383 233 184.256 233.036 184.133C233.073 184.011 233.137 183.896 233.223 183.796C233.31 183.696 233.418 183.611 233.542 183.548C233.665 183.485 233.802 183.444 233.943 183.428C234.084 183.411 234.228 183.42 234.366 183.453C234.503 183.486 234.632 183.543 234.745 183.62L236.325 184.694L240.057 180.376C240.143 180.276 240.251 180.192 240.375 180.129C240.498 180.066 240.634 180.025 240.775 180.008C240.916 179.992 241.059 180 241.197 180.033C241.334 180.065 241.463 180.122 241.576 180.198L241.553 180.226L241.576 180.199C241.804 180.354 241.953 180.583 241.991 180.836C242.028 181.088 241.951 181.344 241.777 181.546L237.387 186.625C237.285 186.742 237.155 186.837 237.005 186.902C236.856 186.967 236.691 187 236.525 187Z" fill="white"/>
        <path d="M101 127C101 124.791 102.791 123 105 123H193C195.209 123 197 124.791 197 127V147C197 149.209 195.209 151 193 151H105C102.791 151 101 149.209 101 147V127Z" fill="#E3AF7B"/>
        <path opacity="0.5" d="M101 163C101 160.791 102.791 159 105 159H193C195.209 159 197 160.791 197 163C197 165.209 195.209 167 193 167H105C102.791 167 101 165.209 101 163Z" fill="#E3AF7B"/>
        <path opacity="0.5" d="M101 179C101 176.791 102.791 175 105 175H193C195.209 175 197 176.791 197 179C197 181.209 195.209 183 193 183H105C102.791 183 101 181.209 101 179Z" fill="#E3AF7B"/>
        <g clip-path="url(#clip0)">
            <g clip-path="url(#clip1)">
                <path d="M83.2196 76.5549C84.1064 78.2026 86.0374 79.0882 87.9234 78.5828C89.8094 78.0775 91.0389 76.345 90.9831 74.4746L83.2196 76.5549Z" fill="#AB7358"/>
                <path fill-rule="evenodd" clip-rule="evenodd" d="M90.9831 74.4746C91.0389 76.345 89.8094 78.0775 87.9234 78.5828C86.0374 79.0882 84.1064 78.2026 83.2196 76.5549L90.9831 74.4746Z" fill="#AB7358"/>
                <path d="M80.0316 49.1294C74.6094 50.5822 71.3916 56.1556 72.8445 61.5778L74.9819 69.5548L73.2007 74.4955C72.6787 75.9436 74 77.3811 75.4868 76.9827L97.8941 70.9787C99.381 70.5803 99.8065 68.6747 98.6304 67.6817L94.6175 64.2935L92.4801 56.3165C91.0272 50.8943 85.4538 47.6765 80.0316 49.1294Z" fill="#AB7358"/>
                <path fill-rule="evenodd" clip-rule="evenodd" d="M97.8941 70.9787C99.381 70.5803 99.8065 68.6747 98.6304 67.6817L94.6175 64.2935L92.4801 56.3165C91.0272 50.8943 85.4538 47.6765 80.0316 49.1294C74.6094 50.5822 71.3916 56.1556 72.8445 61.5778L74.9819 69.5548L73.2007 74.4955C72.6787 75.9436 74 77.3811 75.4868 76.9827L97.8941 70.9787Z" fill="#AB7358"/>
            </g>
        </g>
        <path fill-rule="evenodd" clip-rule="evenodd" d="M70.435 49.055C70.5417 48.7313 70.1481 48.5388 69.9102 48.8022C68.019 50.8965 66.5465 53.3416 65.6534 56.0514C64.7602 58.7611 64.5339 61.4702 64.8879 64.0399C64.9324 64.3631 65.3932 64.3516 65.4999 64.0278C65.1384 61.5036 65.3535 58.8391 66.2319 56.1739C67.1103 53.5087 68.5652 51.1068 70.435 49.055Z" fill="#AB7358"/>
        <path fill-rule="evenodd" clip-rule="evenodd" d="M88.9353 44.0979C88.681 43.8709 88.9256 43.5075 89.2633 43.6166C91.9483 44.4847 94.4461 45.866 96.5744 47.7662C98.7028 49.6663 100.253 51.8992 101.232 54.3017C101.355 54.6039 100.95 54.8243 100.696 54.5973C99.7465 52.2305 98.228 50.0304 96.1347 48.1615C94.0413 46.2926 91.5804 44.9399 88.9353 44.0979Z" fill="#AB7358"/>
        <path d="M59.0359 55.528C59.5796 53.8784 60.3381 52.3268 61.275 50.8927C61.3121 50.8359 61.3691 50.7949 61.4347 50.7773C61.6855 50.7101 61.8871 50.9958 61.7459 51.2137C60.8559 52.5885 60.1343 54.0734 59.6144 55.6505C58.9971 57.5234 58.7075 59.396 58.7152 61.2198C58.7158 61.3593 58.6233 61.4825 58.4886 61.5186C58.2989 61.5694 58.1115 61.4294 58.1109 61.233C58.1055 59.3645 58.4036 57.4464 59.0359 55.528Z" fill="#E3AF7B"/>
        <path d="M104.854 49.095C105.044 49.0442 105.136 48.8292 105.038 48.6588C104.109 47.0379 102.892 45.5259 101.385 44.1806C100.089 43.0239 98.6565 42.0594 97.1281 41.2859C97.0675 41.2553 96.9977 41.2483 96.9321 41.2659C96.6812 41.3331 96.6495 41.6812 96.8807 41.7994C98.3389 42.5449 99.7063 43.4701 100.945 44.576C102.416 45.8893 103.603 47.3662 104.508 48.9496C104.578 49.0706 104.719 49.1311 104.854 49.095Z" fill="#E3AF7B"/>
    </g>
    <defs>
        <filter id="filter0_d" x="0" y="0" width="288" height="334" filterUnits="userSpaceOnUse" color-interpolation-filters="sRGB">
            <feFlood flood-opacity="0" result="BackgroundImageFix"/>
            <feColorMatrix in="SourceAlpha" type="matrix" values="0 0 0 0 0 0 0 0 0 0 0 0 0 0 0 0 0 0 127 0"/>
            <feOffset dy="8"/>
            <feGaussianBlur stdDeviation="15"/>
            <feColorMatrix type="matrix" values="0 0 0 0 0.537255 0 0 0 0 0.584314 0 0 0 0 0.623529 0 0 0 0.3 0"/>
            <feBlend mode="normal" in2="BackgroundImageFix" result="effect1_dropShadow"/>
            <feBlend mode="normal" in="SourceGraphic" in2="effect1_dropShadow" result="shape"/>
        </filter>
        <clipPath id="clip0">
            <rect width="31.7629" height="31.7629" fill="white" transform="translate(64.4448 52.3193) rotate(-15)"/>
        </clipPath>
        <clipPath id="clip1">
            <rect width="31.7629" height="31.7629" fill="white" transform="translate(64.4448 52.3193) rotate(-15)"/>
        </clipPath>
    </defs>
</svg>
