<svg width="332" height="220" viewBox="0 0 332 220" fill="none" xmlns="http://www.w3.org/2000/svg">
<path d="M227.665 58.2591H225.875C225.522 58.2591 225.236 58.5452 225.236 58.8982V82.905C225.236 83.2579 225.522 83.544 225.875 83.544H227.665C228.018 83.544 228.304 83.2579 228.304 82.905V58.8982C228.304 58.5452 228.018 58.2591 227.665 58.2591Z" fill="#1E2D3D"/>
<path d="M216.012 10.9421H135.137C129.128 10.9421 124.256 15.8137 124.256 21.8231V208.654C124.256 214.664 129.128 219.535 135.137 219.535H216.012C222.021 219.535 226.893 214.664 226.893 208.654V21.8231C226.893 15.8137 222.021 10.9421 216.012 10.9421Z" fill="#1E2D3D"/>
<path d="M212.811 16.0398H201.038V17.4561C201.038 18.3377 200.864 19.2106 200.527 20.025C200.189 20.8395 199.695 21.5794 199.071 22.2026C198.448 22.8258 197.707 23.3201 196.893 23.6571C196.078 23.9941 195.205 24.1674 194.324 24.1669H156.881C155.999 24.1674 155.126 23.9941 154.312 23.6571C153.497 23.3201 152.757 22.8258 152.133 22.2026C151.51 21.5794 151.015 20.8395 150.678 20.025C150.34 19.2106 150.166 18.3377 150.166 17.4561V16.0398H139.143C136.981 16.0398 134.908 16.8986 133.379 18.4273C131.851 19.956 130.992 22.0293 130.992 24.1912V205.629C130.992 207.791 131.851 209.864 133.379 211.393C134.908 212.922 136.981 213.781 139.143 213.781H212.811C214.973 213.781 217.047 212.922 218.575 211.393C220.104 209.864 220.963 207.791 220.963 205.629V24.2051C220.965 23.1335 220.755 22.072 220.346 21.0814C219.937 20.0909 219.337 19.1906 218.58 18.4322C217.823 17.6738 216.924 17.0721 215.934 16.6616C214.944 16.2511 213.883 16.0398 212.811 16.0398Z" fill="#F4F5F7"/>
<path d="M178.927 17.1711H166.755C166.158 17.1711 165.675 17.6546 165.675 18.2511V18.9998C165.675 19.5963 166.158 20.0798 166.755 20.0798H178.927C179.524 20.0798 180.007 19.5963 180.007 18.9998V18.2511C180.007 17.6546 179.524 17.1711 178.927 17.1711Z" fill="#D6D4D4"/>
<path d="M183.826 20.2781C184.738 20.2781 185.478 19.5385 185.478 18.6262C185.478 17.714 184.738 16.9744 183.826 16.9744C182.914 16.9744 182.174 17.714 182.174 18.6262C182.174 19.5385 182.914 20.2781 183.826 20.2781Z" fill="#D6D4D4"/>
<path d="M122.346 34.4866H122.049C121.659 34.4866 121.343 34.8027 121.343 35.1927V42.0485C121.343 42.4385 121.659 42.7547 122.049 42.7547H122.346C122.736 42.7547 123.052 42.4385 123.052 42.0485V35.1927C123.052 34.8027 122.736 34.4866 122.346 34.4866Z" fill="#1E2D3D"/>
<path d="M122.5 49.6318H121.986C121.596 49.6318 121.28 49.9479 121.28 50.3379V63.3156C121.28 63.7056 121.596 64.0218 121.986 64.0218H122.5C122.89 64.0218 123.206 63.7056 123.206 63.3156V50.3379C123.206 49.9479 122.89 49.6318 122.5 49.6318Z" fill="#1E2D3D"/>
<path d="M122.439 69.0515H122.018C121.628 69.0515 121.312 69.3677 121.312 69.7577V82.859C121.312 83.249 121.628 83.5652 122.018 83.5652H122.439C122.829 83.5652 123.145 83.249 123.145 82.859V69.7577C123.145 69.3677 122.829 69.0515 122.439 69.0515Z" fill="#1E2D3D"/>
<path d="M98.5952 107.431C98.6442 107.479 98.7072 107.509 98.7747 107.518C98.8423 107.526 98.9108 107.513 98.9702 107.48C98.8435 107.481 98.7173 107.465 98.5952 107.431Z" fill="#D6D4D4"/>
<path d="M112.77 112.971L112.4 114.987L112.114 116.528L111.595 119.349L106.56 122.874C106.56 122.874 106.106 122.485 105.357 121.873C103.294 120.174 98.9566 116.714 95.7719 114.857C94.9527 114.335 94.0663 113.926 93.1372 113.643L112.77 112.971Z" fill="#FEB9B9"/>
<path d="M109.076 114.477C109.076 114.477 114.947 115.485 115.291 112.977C115.635 110.47 112.269 109.115 109.417 108.946C106.564 108.778 89.4446 109.954 89.4446 109.954C89.4446 109.954 86.4248 113.982 97.331 114.656L109.076 114.477Z" fill="#1E2D3D"/>
<path d="M121.915 31.7402H91.2021V68.159H121.915V31.7402Z" fill="#1E2D3D"/>
<path opacity="0.1" d="M121.915 31.9055H91.2021V68.3243H121.915V31.9055Z" fill="#1E2D3D"/>
<path d="M55.2047 94.0809C54.699 94.2082 54.0527 94.6976 53.3339 95.405C50.2385 98.4695 45.8052 105.661 45.8052 105.661C40.1372 98.9095 46.4093 93.5752 49.0828 91.742C49.7328 91.2982 50.1695 91.054 50.1695 91.054L55.2047 94.0809Z" fill="#FEB9B9"/>
<path d="M112.433 43.234C112.433 43.234 113.944 53.8065 119.147 56.324C124.349 58.8414 112.433 63.5464 112.433 63.5464L96.1553 57.5001C96.1553 57.5001 105.386 54.4781 103.539 45.5828L112.433 43.234Z" fill="#FEB9B9"/>
<path d="M94.9782 106.843L94.6101 108.852L94.3109 110.399L93.7917 113.22L88.7564 116.742C88.7564 116.742 88.3025 116.356 87.5538 115.744C85.4902 114.045 81.1534 110.585 77.9637 108.728C77.145 108.205 76.2585 107.797 75.3291 107.514L94.9782 106.843Z" fill="#FEB9B9"/>
<path d="M90.6241 109.318C90.6241 109.318 95.8931 109.356 96.2101 106.841C96.5271 104.327 93.3386 102.979 90.6241 102.811C87.9096 102.642 71.4165 103.897 71.4165 103.897C71.4165 103.897 69.0767 108.645 79.4509 109.318L90.6241 109.318Z" fill="#1E2D3D"/>
<path d="M127.564 148.819C127.333 148.706 127.103 148.589 126.876 148.476L126.257 147.695L118.136 137.398V137.576C118.082 139.296 117.497 152.923 112.936 154.181C108.07 155.523 102.199 155.86 99.5225 146.797C96.8462 137.735 91.9562 117.931 86.9346 116.755L94.4046 110.63C94.4046 110.63 99.3505 116.415 101.366 121.952C101.29 121.608 97.8746 105.65 100.678 102.826H125.185C125.185 102.826 128.968 113.602 131.561 118.939C133.58 123.084 136.61 132.882 138.561 139.513C140.492 146.061 133.706 151.843 127.564 148.819Z" fill="#1E2D3D"/>
<path opacity="0.1" d="M126.867 105.834C123.083 108.073 106.475 107.161 101.072 106.797L99.5997 106.69C99.4415 106.69 99.6238 106.601 99.6238 106.601L99.7752 105.077L103.803 94.8415L125.367 82.3362C124.93 83.6535 124.786 85.669 124.82 87.9767C124.92 95.3919 126.867 105.834 126.867 105.834Z" fill="#1E2D3D"/>
<path d="M126.865 105.327C123.082 107.566 106.473 106.655 101.07 106.29L99.5982 106.187L99.354 106.166L99.6223 106.097L100.95 105.754L103.801 94.3421L125.365 81.8401C124.929 83.1575 124.784 85.1729 124.819 87.4807C124.918 94.8888 126.865 105.327 126.865 105.327Z" fill="#F4F5F7"/>
<path opacity="0.1" d="M124.805 87.4736C120.419 88.4847 110.769 91.4515 107.061 98.6169C104.588 103.387 102.508 105.434 101.056 106.29L99.584 106.187C99.5936 106.157 99.6017 106.127 99.608 106.097L100.936 105.753L103.787 94.3418L125.351 81.8401C124.919 83.1504 124.77 85.1658 124.805 87.4736Z" fill="#1E2D3D"/>
<path opacity="0.1" d="M50.1702 91.0662L55.2054 94.086C54.6997 94.2133 54.0534 94.7027 53.3346 95.4101C52.9149 94.1856 50.2818 92.4763 49.0835 91.7473C49.7332 91.3104 50.1702 91.0662 50.1702 91.0662Z" fill="#1E2D3D"/>
<path opacity="0.1" d="M98.6885 106.385C98.6334 106.414 98.5706 106.424 98.5089 106.416C98.4473 106.407 98.3899 106.379 98.3447 106.337C98.4564 106.369 98.5722 106.386 98.6885 106.385Z" fill="#1E2D3D"/>
<path d="M110.085 55.6516C110.085 55.6516 105.552 56.1536 102.364 52.7971C102.364 52.7971 88.9501 56.6593 84.4074 65.3847C79.8646 74.1101 48.9824 91.231 48.9824 91.231C48.9824 91.231 54.3547 94.2508 53.849 95.7605L74.158 84.0119C74.158 84.0119 81.3805 78.8117 83.3858 77.6356C85.391 76.4595 96.4791 69.2439 98.8282 88.8788C101.177 108.514 98.8282 106.165 98.8282 106.165C98.8282 106.165 102.185 107.341 107.052 97.9413C111.918 88.5415 127.02 86.361 127.02 86.361L127.859 76.4626C127.859 76.4626 130.855 69.9004 128.547 67.1766C127.848 66.3701 127.383 65.3876 127.202 64.3357C126.821 61.8216 127.202 57.6325 132.547 54.152C140.77 48.7797 143.959 44.4189 143.959 44.4189C143.959 44.4189 144.127 41.2273 139.092 39.7173C134.057 38.2072 113.583 29.9841 113.583 29.9841L112.895 32.8386L129.049 44.24C129.049 44.24 120.994 50.7745 114.604 50.6163C114.604 50.6163 115.791 55.4829 110.085 55.6516Z" fill="#B85954"/>
<path opacity="0.1" d="M113.191 47.8331C112.794 46.4879 112.484 45.1185 112.263 43.7335L103.368 46.0832C103.761 47.7811 103.69 49.553 103.166 51.2146C104.984 51.6999 106.905 51.6378 108.688 51.0363C110.472 50.4348 112.038 49.3206 113.191 47.8331Z" fill="#1E2D3D"/>
<path d="M105.804 51.0385C111.086 51.0385 115.368 46.7562 115.368 41.4738C115.368 36.1913 111.086 31.909 105.804 31.909C100.521 31.909 96.2388 36.1913 96.2388 41.4738C96.2388 46.7562 100.521 51.0385 105.804 51.0385Z" fill="#FEB9B9"/>
<path opacity="0.1" d="M116.208 118.504C116.208 118.504 121.746 129.414 120.067 132.767L116.208 118.504Z" fill="#1E2D3D"/>
<path d="M110.89 19.3822C113.545 19.685 116.066 20.8232 118.68 21.4457C119.334 21.6488 120.029 21.6749 120.696 21.5213C121.71 21.2083 122.536 20.1457 123.588 20.1765C124.236 20.1972 124.809 20.6375 125.342 21.0603C126.197 21.7146 127.002 22.432 127.749 23.2065C129.552 25.1634 130.669 27.798 132.313 29.9269C133.957 32.0559 136.302 34.5524 138.637 33.5761C137.048 39.7668 132.093 43.6395 126.463 44.0249C124.217 44.1791 121.916 43.712 119.743 44.3688C119.201 44.5907 118.63 44.7298 118.047 44.7813C116.795 44.7813 115.787 43.6327 115.006 42.5149C113.177 39.8873 111.729 36.9055 109.669 34.5083C108.981 33.7139 108.186 32.9606 107.223 32.8163C106.26 32.672 105.377 33.1327 104.52 33.5764C103.107 34.3091 101.662 35.0655 100.565 36.3279C99.468 37.5903 98.7767 39.4541 99.2306 41.143C99.4748 42.0579 100.032 42.8834 100.042 43.8393C100.063 45.3663 98.7147 46.4807 98.4498 47.9664C98.39 48.5905 98.3682 49.2176 98.3844 49.8443C98.2676 51.8795 96.9351 53.5447 95.5475 54.8278C95.0042 55.323 94.4066 55.8596 94.2475 56.6265C94.1408 57.1525 94.2475 57.7057 94.1787 58.2395C93.9758 59.5602 92.6585 60.2309 91.4925 60.403C90.1303 60.6047 88.7389 60.4397 87.4616 59.925C89.092 59.1541 90.0963 56.9604 89.7179 54.9965C89.1986 52.2724 86.461 50.3155 86.696 47.5437C86.8247 46.6932 87.0797 45.8667 87.4527 45.0916C88.0493 43.5937 88.4829 42.0359 88.746 40.4452C88.9523 39.2173 89.0522 37.9138 88.6667 36.7411C88.3229 35.6748 87.6041 34.8256 86.9951 33.9242C86.1698 32.6981 85.5182 31.3635 85.0589 29.9587C84.8924 29.542 84.829 29.0913 84.8739 28.6448C85.0118 28.1175 85.3055 27.644 85.7166 27.2861C87.2128 25.7135 88.812 24.0807 90.8172 23.6302C91.774 23.4713 92.747 23.4343 93.7131 23.5201C95.3932 23.5728 97.075 23.5015 98.7446 23.3067C100.12 23.1451 102.445 23.1658 103.611 22.2749C104.698 21.4424 105.31 20.397 106.648 19.8676C108.003 19.3654 109.459 19.199 110.892 19.3825L110.89 19.3822Z" fill="#1E2D3D"/>
<path d="M87.6394 220C92.6964 220 96.7959 219.306 96.7959 218.451C96.7959 217.596 92.6964 216.903 87.6394 216.903C82.5824 216.903 78.4829 217.596 78.4829 218.451C78.4829 219.306 82.5824 220 87.6394 220Z" fill="#D6D4D4"/>
<path d="M91.4286 215.917C91.8459 215.576 92.1499 215.116 92.3006 214.599C92.367 214.339 92.3427 214.064 92.2317 213.821C92.1208 213.577 91.9298 213.378 91.6904 213.257C91.1301 213.043 90.5313 213.433 90.0783 213.824C89.6253 214.216 89.1036 214.665 88.5093 214.58C88.8152 214.304 89.0441 213.953 89.1738 213.561C89.3035 213.17 89.3296 212.751 89.2494 212.347C89.2227 212.179 89.1511 212.022 89.0422 211.891C88.7338 211.559 88.1677 211.7 87.7967 211.964C86.6126 212.797 86.2823 214.405 86.2756 215.851C86.155 215.33 86.2574 214.786 86.2527 214.257C86.2481 213.729 86.1047 213.119 85.6514 212.839C85.3718 212.689 85.0577 212.615 84.7405 212.625C84.2077 212.604 83.6156 212.659 83.2512 213.049C82.7957 213.531 82.9187 214.342 83.3103 214.87C83.702 215.399 84.3008 215.738 84.8522 216.104C85.2929 216.366 85.6688 216.725 85.9521 217.152C85.9862 217.212 86.0137 217.275 86.0341 217.341H89.361C90.1112 216.961 90.8067 216.482 91.4286 215.916V215.917Z" fill="#D6D4D4"/>
<path d="M35.8547 220C40.9117 220 45.0112 219.306 45.0112 218.451C45.0112 217.596 40.9117 216.903 35.8547 216.903C30.7977 216.903 26.6982 217.596 26.6982 218.451C26.6982 219.306 30.7977 220 35.8547 220Z" fill="#D6D4D4"/>
<path d="M39.6434 215.917C40.0607 215.576 40.3648 215.116 40.5155 214.599C40.5819 214.339 40.5576 214.064 40.4466 213.821C40.3356 213.577 40.1446 213.378 39.9052 213.257C39.3449 213.043 38.7461 213.433 38.2931 213.824C37.8401 214.216 37.3184 214.665 36.7242 214.58C37.03 214.304 37.259 213.953 37.3887 213.561C37.5184 213.17 37.5444 212.751 37.4642 212.347C37.4376 212.179 37.366 212.022 37.257 211.891C36.9487 211.559 36.3825 211.7 36.0116 211.964C34.8274 212.797 34.4972 214.405 34.4904 215.851C34.3698 215.33 34.4722 214.786 34.4676 214.257C34.463 213.729 34.3196 213.119 33.8663 212.839C33.5867 212.689 33.2725 212.615 32.9554 212.625C32.4225 212.604 31.8305 212.659 31.466 213.049C31.0105 213.531 31.1336 214.342 31.5252 214.87C31.9168 215.399 32.5157 215.738 33.067 216.104C33.5077 216.366 33.8837 216.725 34.1669 217.152C34.2011 217.212 34.2286 217.275 34.249 217.341H37.5759C38.326 216.961 39.0215 216.482 39.6434 215.916V215.917Z" fill="#D6D4D4"/>
<path d="M331.489 219.083H7.40039V219.7H331.489V219.083Z" fill="#1E2D3D"/>
<path d="M289.708 10.7937C289.708 10.7937 260.654 9.04066 264.077 29.3993C264.077 29.3993 263.387 32.9982 266.658 34.6304C266.658 34.6304 266.71 33.1225 269.639 33.6365C270.682 33.8094 271.742 33.8603 272.797 33.7883C274.22 33.6947 275.573 33.1412 276.654 32.2113C276.654 32.2113 284.822 28.8366 287.997 15.4897C287.997 15.4897 290.346 12.5776 290.253 11.8286L285.35 13.923C285.35 13.923 287.027 17.4599 285.695 20.3986C285.695 20.3986 285.536 14.0494 284.594 14.1875C284.405 14.2153 282.048 15.4123 282.048 15.4123C282.048 15.4123 284.929 21.5716 282.755 26.0508C282.755 26.0508 283.58 18.4596 281.147 15.8576L277.697 17.8728C277.697 17.8728 281.065 24.2358 278.78 29.4289C278.78 29.4289 279.366 21.4649 276.969 18.3628L273.842 20.8022C273.842 20.8022 277.007 27.0718 275.078 31.379C275.078 31.379 274.826 22.1106 273.166 21.4103C273.166 21.4103 270.429 23.8257 270.012 24.8125C270.012 24.8125 272.179 29.3673 270.833 31.7688C270.833 31.7688 270.009 25.5923 269.332 25.5578C269.332 25.5578 266.606 29.65 266.323 32.4589C266.323 32.4589 266.441 28.2871 268.673 25.1714C268.673 25.1714 266.037 25.6234 264.498 27.3299C264.498 27.3299 264.922 24.4384 269.346 24.1831C269.346 24.1831 271.599 21.0776 272.199 20.8913C272.199 20.8913 267.803 20.5213 265.136 21.7057C265.136 21.7057 267.482 18.9764 273.007 20.2185L276.095 17.6961C276.095 17.6961 270.305 16.9057 267.848 17.779C267.848 17.779 270.674 15.3636 276.927 17.1234L280.288 15.1151C280.288 15.1151 275.35 14.0522 272.41 14.425C272.41 14.425 275.516 12.7515 281.275 14.5665L283.69 13.4872C283.69 13.4872 280.074 12.7765 279.014 12.6627C277.955 12.5489 277.9 12.259 277.9 12.259C280.191 11.8771 282.543 12.1387 284.694 13.0148C284.694 13.0148 289.795 11.1147 289.708 10.7937Z" fill="#E3AF7B"/>
<path d="M238.444 0.0169921C238.444 0.0169921 251.556 -0.773338 250.024 8.42602C250.024 8.42602 250.332 10.0514 248.858 10.7896C248.858 10.7896 248.834 10.0995 247.509 10.3376C247.038 10.4168 246.56 10.44 246.084 10.4066C245.44 10.364 244.828 10.1119 244.341 9.68877C244.341 9.68877 240.649 8.16361 239.214 2.13205C239.214 2.13205 238.154 0.817502 238.196 0.479229L240.411 1.42467C240.411 1.42467 239.656 3.02229 240.249 4.35071C240.249 4.35071 240.322 1.48295 240.746 1.54894C240.832 1.54894 241.899 2.10399 241.899 2.10399C241.899 2.10399 240.594 4.8885 241.578 6.91073C241.578 6.91073 241.205 3.48082 242.306 2.30412L243.865 3.2292C243.865 3.2292 242.344 6.10344 243.375 8.45008C243.375 8.45008 243.11 4.85118 244.193 3.4503L245.605 4.55454C245.605 4.55454 244.176 7.38746 245.045 9.33415C245.045 9.33415 245.163 5.14505 245.912 4.82775C245.912 4.82775 247.147 5.91812 247.337 6.36679C247.337 6.36679 246.357 8.43712 246.964 9.51022C246.964 9.51022 247.337 6.71862 247.654 6.70413C247.654 6.70413 248.886 8.5543 249.014 9.80964C248.952 8.63857 248.586 7.50389 247.951 6.51788C248.662 6.65254 249.318 6.99198 249.838 7.49446C249.838 7.49446 249.645 6.1867 247.647 6.07292C247.647 6.07292 246.612 4.66863 246.357 4.58229C246.357 4.58229 248.344 4.4167 249.548 4.95233C249.548 4.95233 248.489 3.72042 245.994 4.27948L244.614 3.1407C244.614 3.1407 247.232 2.79225 248.342 3.17647C248.342 3.17647 247.066 2.0861 244.239 2.87982L242.721 1.97232C242.721 1.97232 244.954 1.49281 246.282 1.66395C246.282 1.66395 244.878 0.908158 242.276 1.72563L241.189 1.23903C241.189 1.23903 242.823 0.918025 243.304 0.86622C243.785 0.814415 243.808 0.683361 243.808 0.683361C242.772 0.511042 241.709 0.630524 240.737 1.02842C240.737 1.02842 238.403 0.160689 238.444 0.0169921Z" fill="#8AB5A6"/>
<path d="M47.4737 55.3643C47.4737 55.3643 34.3616 54.574 35.8935 63.7734C35.8935 63.7734 35.5852 65.3987 37.0598 66.137C37.0598 66.137 37.0838 65.4469 38.4088 65.6849C38.8794 65.7641 39.3577 65.7873 39.8338 65.754C40.4774 65.7114 41.0894 65.4593 41.5763 65.0361C41.5763 65.0361 45.2684 63.511 46.7038 57.4794C46.7038 57.4794 47.763 56.1649 47.7214 55.8266L45.5061 56.772C45.5061 56.772 46.2619 58.3696 45.6683 59.6981C45.6683 59.6981 45.5958 56.8303 45.1715 56.8963C45.0852 56.8963 44.0189 57.4513 44.0189 57.4513C44.0189 57.4513 45.3232 60.2358 44.3399 62.2581C44.3399 62.2581 44.7124 58.8282 43.6118 57.6515L42.0521 58.5766C42.0521 58.5766 43.5739 61.4508 42.5421 63.7974C42.5421 63.7974 42.8079 60.1985 41.7244 58.7976L40.313 59.9019C40.313 59.9019 41.7416 62.7348 40.872 64.6815C40.872 64.6815 40.7549 60.4924 40.0059 60.1751C40.0059 60.1751 38.7706 61.2655 38.5806 61.7141C38.5806 61.7141 39.5606 63.7845 38.9534 64.8576C38.9534 64.8576 38.5806 62.066 38.2633 62.0515C38.2633 62.0515 37.0314 63.9017 36.9037 65.157C36.9654 63.9859 37.3318 62.8512 37.9666 61.8652C37.2558 61.9999 36.5997 62.3393 36.0792 62.8418C36.0792 62.8418 36.2725 61.5341 38.2704 61.4203C38.2704 61.4203 39.3056 60.016 39.5609 59.9296C39.5609 59.9296 37.5735 59.7641 36.369 60.2997C36.369 60.2997 37.4283 59.0678 39.9232 59.6268L41.3034 58.4881C41.3034 58.4881 38.6854 58.1396 37.5753 58.5238C37.5753 58.5238 38.852 57.4335 41.6781 58.2272L43.1965 57.3197C43.1965 57.3197 40.9639 56.8402 39.6355 57.0113C39.6355 57.0113 41.0398 56.2555 43.6417 57.073L44.7287 56.5864C44.7287 56.5864 43.0944 56.2654 42.6134 56.2136C42.1323 56.1618 42.1095 56.0307 42.1095 56.0307C43.1453 55.8584 44.2087 55.9779 45.1805 56.3758C45.1805 56.3758 47.5141 55.508 47.4737 55.3643Z" fill="#AB7358"/>
<path d="M4.79796 190.488C4.79796 190.488 -12.917 201.172 19.7319 217.615C19.7319 217.615 26.9227 204.26 18.9726 193.374C17.429 191.251 15.1604 189.769 12.5967 189.207C10.0329 188.645 7.35219 189.043 5.06243 190.326L4.79796 190.488Z" fill="#E3AF7B"/>
<path fill-rule="evenodd" clip-rule="evenodd" d="M4.90821 190.388C4.90813 190.388 4.90811 190.388 5.0018 190.266C5.09548 190.143 5.09558 190.143 5.09573 190.144L5.09633 190.144L5.09856 190.146L5.10711 190.152C5.11461 190.158 5.1257 190.167 5.14025 190.178C5.16936 190.201 5.21234 190.235 5.26826 190.28C5.38008 190.369 5.54366 190.502 5.75146 190.677C6.16705 191.026 6.75964 191.543 7.46911 192.212C8.88786 193.549 10.775 195.497 12.6491 197.939C16.395 202.821 20.1004 209.693 19.8857 217.622L19.5774 217.613C19.7895 209.785 16.13 202.982 12.4044 198.127C10.5427 195.701 8.66735 193.765 7.25758 192.436C6.55279 191.772 5.9646 191.259 5.55299 190.913C5.34718 190.74 5.18554 190.608 5.07556 190.52C5.02057 190.476 4.97849 190.443 4.95027 190.421C4.93616 190.41 4.92552 190.402 4.91845 190.396L4.91055 190.39L4.90865 190.389L4.90821 190.388Z" fill="#1E2D3D"/>
<path fill-rule="evenodd" clip-rule="evenodd" d="M21.6732 158.868C22.8357 161.718 23.7344 164.669 24.358 167.684L24.3586 167.687C25.6106 174.072 24.7575 180.691 21.9276 186.55C18.6644 193.405 18.3986 201.517 18.9593 207.941C19.2394 211.148 19.7247 213.926 20.1399 215.901C20.3474 216.888 20.5374 217.674 20.6752 218.213C20.7442 218.482 20.8 218.69 20.8386 218.829C20.8579 218.899 20.8728 218.952 20.8829 218.987C20.8862 218.999 20.889 219.009 20.8912 219.016L20.8942 219.027L20.897 219.036L20.8977 219.039L20.8978 219.039C20.8979 219.039 20.8979 219.039 20.602 219.126C20.3062 219.213 20.3062 219.213 20.3061 219.213L20.305 219.209L20.3019 219.199C20.2991 219.189 20.2951 219.175 20.2898 219.156C20.2793 219.12 20.2638 219.065 20.2441 218.993C20.2046 218.85 20.1477 218.639 20.0778 218.366C19.9379 217.819 19.7459 217.024 19.5363 216.027C19.1173 214.034 18.6276 211.232 18.345 207.994C17.7804 201.527 18.0382 193.285 21.3711 186.285L21.3718 186.283C24.1438 180.544 24.9796 174.061 23.7537 167.807C23.1378 164.83 22.2502 161.916 21.1021 159.101L21.6732 158.868Z" fill="#1E2D3D"/>
<path d="M25.4948 150.227C25.4948 152.537 21.305 159.233 21.305 159.233C21.305 159.233 17.1152 152.537 17.1152 150.227C17.1855 149.166 17.6565 148.172 18.4328 147.445C19.2091 146.719 20.2326 146.314 21.2959 146.314C22.3591 146.314 23.3826 146.719 24.1589 147.445C24.9352 148.172 25.4062 149.166 25.4765 150.227H25.4948Z" fill="#8AB5A6"/>
<path d="M32.4071 163.015C31.1528 164.952 24.0039 168.302 24.0039 168.302C24.0039 168.302 24.1348 160.409 25.3892 158.471C26.0247 157.618 26.9609 157.039 28.0078 156.851C29.0547 156.663 30.134 156.88 31.0268 157.458C31.9196 158.036 32.559 158.933 32.8153 159.965C33.0716 160.997 32.9257 162.089 32.4071 163.017V163.015Z" fill="#8AB5A6"/>
<path d="M32.1056 184.875C30.0447 185.923 22.1836 185.198 22.1836 185.198C22.1836 185.198 26.2791 178.449 28.3426 177.41C29.3217 176.994 30.4222 176.966 31.421 177.332C32.4198 177.698 33.2422 178.43 33.7212 179.379C34.2002 180.329 34.3001 181.425 34.0005 182.446C33.701 183.467 33.0245 184.335 32.1082 184.875H32.1056Z" fill="#8AB5A6"/>
<path d="M28.1499 201.359C26.2933 202.731 18.4243 203.351 18.4243 203.351C18.4243 203.351 21.3205 196.019 23.1771 194.634C24.0718 194.055 25.1534 193.839 26.2018 194.03C27.2502 194.22 28.1867 194.803 28.8206 195.659C29.4546 196.516 29.7384 197.582 29.6143 198.64C29.4901 199.698 28.9674 200.67 28.1525 201.356L28.1499 201.359Z" fill="#8AB5A6"/>
<path d="M15.2228 168.746C16.8777 170.354 24.5948 172.022 24.5948 172.022C24.5948 172.022 22.7042 164.357 21.0492 162.749C20.2393 162.061 19.1979 161.706 18.1361 161.757C17.0744 161.807 16.0716 162.26 15.3308 163.022C14.5901 163.784 14.1668 164.8 14.1467 165.863C14.1267 166.925 14.5113 167.956 15.2228 168.746Z" fill="#8AB5A6"/>
<path d="M10.8462 188.088C12.9071 189.136 20.7682 188.41 20.7682 188.41C20.7682 188.41 16.6727 181.662 14.6092 180.623C14.1153 180.331 13.5669 180.145 12.9979 180.074C12.429 180.003 11.8516 180.05 11.3014 180.212C10.7513 180.373 10.2402 180.646 9.79964 181.013C9.35912 181.38 8.99862 181.833 8.74042 182.345C8.48223 182.857 8.33183 183.416 8.29856 183.989C8.2653 184.561 8.34985 185.134 8.547 185.673C8.74415 186.211 9.04971 186.703 9.44474 187.119C9.83977 187.534 10.3159 187.864 10.8436 188.088H10.8462Z" fill="#8AB5A6"/>
<path d="M9.17045 207.466C11.027 208.838 18.896 209.459 18.896 209.459C18.896 209.459 15.9998 202.127 14.1432 200.741C13.7055 200.373 13.1968 200.097 12.6485 199.933C12.1003 199.768 11.5242 199.718 10.9556 199.784C10.3871 199.851 9.83831 200.034 9.34304 200.321C8.84778 200.608 8.41658 200.993 8.07604 201.453C7.7355 201.913 7.49284 202.438 7.36305 202.996C7.23325 203.553 7.21906 204.131 7.32136 204.695C7.42367 205.258 7.6403 205.794 7.95788 206.27C8.27545 206.746 8.68724 207.153 9.16784 207.463L9.17045 207.466Z" fill="#8AB5A6"/>
<path opacity="0.25" d="M25.4948 150.227C25.4948 152.537 21.305 159.233 21.305 159.233C21.305 159.233 17.1152 152.537 17.1152 150.227C17.1855 149.166 17.6565 148.172 18.4328 147.445C19.2091 146.719 20.2326 146.314 21.2959 146.314C22.3591 146.314 23.3826 146.719 24.1589 147.445C24.9352 148.172 25.4062 149.166 25.4765 150.227H25.4948Z" fill="#1E2D3D"/>
<path opacity="0.25" d="M32.4071 163.015C31.1528 164.952 24.0039 168.302 24.0039 168.302C24.0039 168.302 24.1348 160.409 25.3892 158.471C26.0247 157.618 26.9609 157.039 28.0078 156.851C29.0547 156.663 30.134 156.88 31.0268 157.458C31.9196 158.036 32.559 158.933 32.8153 159.965C33.0716 160.997 32.9257 162.089 32.4071 163.017V163.015Z" fill="#1E2D3D"/>
<path opacity="0.25" d="M32.1056 184.875C30.0447 185.923 22.1836 185.198 22.1836 185.198C22.1836 185.198 26.2791 178.449 28.3426 177.41C29.3217 176.994 30.4222 176.966 31.421 177.332C32.4198 177.698 33.2422 178.43 33.7212 179.379C34.2002 180.329 34.3001 181.425 34.0005 182.446C33.701 183.467 33.0245 184.335 32.1082 184.875H32.1056Z" fill="#1E2D3D"/>
<path opacity="0.25" d="M28.1499 201.359C26.2933 202.731 18.4243 203.351 18.4243 203.351C18.4243 203.351 21.3205 196.019 23.1771 194.634C24.0718 194.055 25.1534 193.839 26.2018 194.03C27.2502 194.22 28.1867 194.803 28.8206 195.659C29.4546 196.516 29.7384 197.582 29.6143 198.64C29.4901 199.698 28.9674 200.67 28.1525 201.356L28.1499 201.359Z" fill="#1E2D3D"/>
<path opacity="0.25" d="M15.2228 168.746C16.8777 170.354 24.5948 172.022 24.5948 172.022C24.5948 172.022 22.7042 164.357 21.0492 162.749C20.2393 162.061 19.1979 161.706 18.1361 161.757C17.0744 161.807 16.0716 162.26 15.3308 163.022C14.5901 163.784 14.1668 164.8 14.1467 165.863C14.1267 166.925 14.5113 167.956 15.2228 168.746Z" fill="#1E2D3D"/>
<path opacity="0.25" d="M10.8462 188.088C12.9071 189.136 20.7682 188.41 20.7682 188.41C20.7682 188.41 16.6727 181.662 14.6092 180.623C14.1153 180.331 13.5669 180.145 12.9979 180.074C12.429 180.003 11.8516 180.05 11.3014 180.212C10.7513 180.373 10.2402 180.646 9.79964 181.013C9.35912 181.38 8.99862 181.833 8.74042 182.345C8.48223 182.857 8.33183 183.416 8.29856 183.989C8.2653 184.561 8.34985 185.134 8.547 185.673C8.74415 186.211 9.04971 186.703 9.44474 187.119C9.83977 187.534 10.3159 187.864 10.8436 188.088H10.8462Z" fill="#1E2D3D"/>
<path opacity="0.25" d="M9.17045 207.466C11.027 208.838 18.896 209.459 18.896 209.459C18.896 209.459 15.9998 202.127 14.1432 200.741C13.7055 200.373 13.1968 200.097 12.6485 199.933C12.1003 199.768 11.5242 199.718 10.9556 199.784C10.3871 199.851 9.83831 200.034 9.34304 200.321C8.84778 200.608 8.41658 200.993 8.07604 201.453C7.7355 201.913 7.49284 202.438 7.36305 202.996C7.23325 203.553 7.21906 204.131 7.32136 204.695C7.42367 205.258 7.6403 205.794 7.95788 206.27C8.27545 206.746 8.68724 207.153 9.16784 207.463L9.17045 207.466Z" fill="#1E2D3D"/>
<path fill-rule="evenodd" clip-rule="evenodd" d="M34.5302 159.23C35.6837 162.081 36.5736 165.032 37.1887 168.046L37.1892 168.048C38.4411 174.433 37.5881 181.052 34.7581 186.912C31.495 193.766 31.2291 201.878 31.7899 208.302C32.0699 211.51 32.5552 214.287 32.9704 216.262C33.178 217.249 33.3679 218.035 33.5058 218.574C33.5747 218.843 33.6306 219.051 33.6692 219.19C33.6884 219.26 33.7034 219.313 33.7134 219.348C33.7168 219.36 33.7195 219.37 33.7218 219.378L33.7248 219.388L33.7276 219.398L33.7283 219.4L33.7284 219.4C33.7284 219.401 33.7284 219.401 33.4326 219.488C33.1368 219.575 33.1367 219.575 33.1367 219.574L33.1356 219.571L33.1324 219.56C33.1297 219.55 33.1256 219.536 33.1204 219.518C33.1098 219.481 33.0944 219.426 33.0746 219.354C33.0351 219.211 32.9782 219 32.9083 218.727C32.7685 218.18 32.5765 217.385 32.3669 216.389C31.9478 214.395 31.4582 211.593 31.1755 208.355C30.611 201.889 30.8688 193.646 34.2016 186.646L34.2024 186.644C36.9745 180.905 37.8102 174.422 36.5842 168.168C35.9767 165.192 35.0978 162.277 33.9585 159.461L34.5302 159.23Z" fill="#1E2D3D"/>
<path d="M38.3356 150.579C38.3356 152.888 34.1459 159.584 34.1459 159.584C34.1459 159.584 29.9561 152.888 29.9561 150.579C30.0263 149.518 30.4974 148.523 31.2737 147.797C32.0499 147.07 33.0734 146.666 34.1367 146.666C35.1999 146.666 36.2234 147.07 36.9997 147.797C37.776 148.523 38.247 149.518 38.3173 150.579H38.3356Z" fill="#8AB5A6"/>
<path d="M45.2455 163.373C43.9912 165.311 36.8345 168.65 36.8345 168.65C36.8345 168.65 36.9654 160.757 38.2197 158.819C38.8552 157.966 39.7914 157.387 40.8384 157.199C41.8853 157.011 42.9646 157.228 43.8574 157.806C44.7502 158.384 45.3895 159.281 45.6459 160.313C45.9022 161.345 45.7562 162.437 45.2376 163.365L45.2455 163.373Z" fill="#8AB5A6"/>
<path d="M44.9532 185.234C42.8924 186.281 35.0312 185.556 35.0312 185.556C35.0312 185.556 39.1268 178.807 41.1903 177.768C42.1689 177.355 43.2678 177.329 44.2647 177.696C45.2616 178.062 46.0821 178.794 46.5601 179.742C47.0382 180.691 47.1382 181.786 46.8399 182.805C46.5416 183.824 45.8672 184.692 44.9532 185.234Z" fill="#8AB5A6"/>
<path d="M40.9907 201.719C39.1341 203.091 31.2651 203.712 31.2651 203.712C31.2651 203.712 34.1613 196.38 36.0179 194.994C36.9126 194.416 37.9942 194.199 39.0426 194.39C40.0911 194.58 41.0275 195.163 41.6615 196.02C42.2954 196.876 42.5792 197.942 42.4551 199C42.331 200.059 41.8082 201.03 40.9933 201.716L40.9907 201.719Z" fill="#8AB5A6"/>
<path d="M28.0641 169.108C29.719 170.716 37.4361 172.384 37.4361 172.384C37.4361 172.384 35.5455 164.719 33.8905 163.111C33.0806 162.423 32.0392 162.068 30.9775 162.119C29.9157 162.169 28.9129 162.622 28.1721 163.384C27.4314 164.146 27.0081 165.162 26.9881 166.225C26.968 167.287 27.3526 168.318 28.0641 169.108Z" fill="#8AB5A6"/>
<path d="M23.685 188.449C25.7458 189.496 33.6069 188.771 33.6069 188.771C33.6069 188.771 29.5035 182.022 27.4505 180.983C26.4715 180.567 25.3709 180.539 24.3721 180.905C23.3733 181.271 22.551 182.003 22.072 182.952C21.5929 183.902 21.4931 184.999 21.7926 186.019C22.0922 187.04 22.7687 187.908 23.685 188.449Z" fill="#8AB5A6"/>
<path d="M22.0118 207.828C23.8684 209.2 31.7373 209.821 31.7373 209.821C31.7373 209.821 28.8411 202.489 26.9845 201.103C26.5468 200.735 26.0381 200.459 25.4898 200.295C24.9416 200.13 24.3655 200.08 23.797 200.146C23.2284 200.213 22.6796 200.396 22.1844 200.683C21.6891 200.97 21.2579 201.355 20.9173 201.815C20.5768 202.275 20.3341 202.8 20.2043 203.358C20.0746 203.915 20.0604 204.493 20.1627 205.057C20.265 205.62 20.4816 206.156 20.7992 206.632C21.1168 207.108 21.5285 207.515 22.0091 207.825L22.0118 207.828Z" fill="#8AB5A6"/>
<path d="M321.056 219.124H257.565C257.565 219.124 256.278 200.199 263.892 199.984C271.507 199.768 270.649 208.371 280.194 196.543C289.739 184.714 301.322 185.36 302.823 192.349C304.325 199.338 299.928 204.93 307.971 203.209C316.015 201.489 327.598 206.005 321.056 219.124Z" fill="#8AB5A6"/>
<path d="M288.407 219.124L288.194 219.115C288.691 206.7 291.282 198.723 293.367 194.218C295.632 189.326 297.814 187.345 297.836 187.326L297.978 187.486C297.956 187.505 295.8 189.466 293.553 194.325C291.479 198.811 288.903 206.755 288.407 219.124Z" fill="#D6D4D4"/>
<path d="M311.225 219.393L311.021 219.333C313.473 210.74 319.246 205.315 319.304 205.261L319.447 205.421C319.389 205.475 313.659 210.861 311.225 219.393Z" fill="#D6D4D4"/>
<path d="M267.562 219.398L267.345 219.368C268.202 213.277 266.655 208.551 265.206 205.659C263.638 202.528 261.848 200.818 261.83 200.801L261.981 200.645C261.999 200.662 263.817 202.399 265.402 205.564C266.864 208.483 268.426 213.252 267.562 219.398Z" fill="#D6D4D4"/>
<path fill-rule="evenodd" clip-rule="evenodd" d="M191.685 128.984C195.065 125.098 196.928 120.122 196.933 114.972C196.937 110.916 195.787 106.943 193.618 103.516C190.864 99.1636 186.632 95.9516 181.7 94.4698C176.767 92.9879 171.466 93.3359 166.769 95.4496C162.073 97.5634 158.297 101.301 156.135 105.976C153.973 110.65 153.571 115.948 155.003 120.895C156.434 125.843 159.603 130.107 163.926 132.906C168.25 135.704 173.438 136.848 178.538 136.128C183.638 135.408 188.306 132.871 191.685 128.984ZM169.199 126.153L190.821 104.923C190.082 103.777 189.235 102.701 188.289 101.711L169.646 120.019L163.368 111.799C162.275 112.625 161.239 113.522 160.269 114.485C160.269 114.485 167.84 124.087 169.199 126.153Z" fill="#79AB68"/>
</svg>
