<svg width="350" height="221" viewBox="0 0 350 221" fill="none" xmlns="http://www.w3.org/2000/svg">
<path d="M306.491 183.982C306.491 183.982 288.585 194.781 321.586 211.401C321.586 211.401 328.855 197.902 320.819 186.899C319.259 184.753 316.966 183.255 314.374 182.687C311.783 182.119 309.073 182.521 306.759 183.818L306.491 183.982Z" fill="#E3AF7B"/>
<path fill-rule="evenodd" clip-rule="evenodd" d="M306.603 183.876C306.602 183.876 306.602 183.876 306.697 183.752C306.792 183.629 306.792 183.629 306.792 183.629L306.793 183.629L306.795 183.631L306.804 183.638C306.811 183.644 306.822 183.652 306.837 183.664C306.867 183.687 306.91 183.721 306.966 183.766C307.08 183.857 307.245 183.991 307.455 184.168C307.875 184.521 308.474 185.043 309.191 185.719C310.625 187.071 312.533 189.04 314.427 191.509C318.213 196.443 321.959 203.389 321.742 211.403L321.43 211.395C321.644 203.483 317.945 196.606 314.18 191.698C312.298 189.246 310.402 187.289 308.977 185.946C308.265 185.274 307.67 184.756 307.254 184.406C307.046 184.232 306.883 184.099 306.772 184.01C306.716 183.965 306.674 183.932 306.645 183.909C306.631 183.898 306.62 183.89 306.613 183.884L306.605 183.878L306.603 183.877L306.603 183.876Z" fill="#1E2D3D"/>
<path fill-rule="evenodd" clip-rule="evenodd" d="M323.547 152.018C324.722 154.899 325.63 157.882 326.261 160.929L326.261 160.932C327.527 167.386 326.665 174.076 323.804 179.998C320.506 186.927 320.237 195.126 320.804 201.619C321.087 204.862 321.578 207.669 321.997 209.665C322.207 210.663 322.399 211.458 322.538 212.002C322.608 212.275 322.664 212.484 322.703 212.625C322.723 212.696 322.738 212.75 322.748 212.785C322.752 212.797 322.754 212.807 322.757 212.815L322.76 212.825L322.763 212.835L322.763 212.837L322.763 212.838C322.763 212.838 322.763 212.838 322.464 212.926C322.165 213.014 322.165 213.014 322.165 213.013L322.164 213.01L322.161 212.999C322.158 212.989 322.154 212.975 322.149 212.956C322.138 212.919 322.122 212.864 322.103 212.791C322.063 212.646 322.005 212.433 321.934 212.157C321.793 211.604 321.599 210.801 321.387 209.793C320.964 207.779 320.469 204.946 320.183 201.674C319.612 195.137 319.873 186.806 323.242 179.73L323.242 179.728C326.044 173.928 326.889 167.375 325.65 161.053C325.027 158.044 324.13 155.098 322.97 152.253L323.547 152.018Z" fill="#1E2D3D"/>
<path d="M327.412 143.279C327.412 145.614 323.177 152.382 323.177 152.382C323.177 152.382 318.942 145.614 318.942 143.279C319.013 142.207 319.49 141.202 320.274 140.467C321.059 139.733 322.093 139.324 323.168 139.324C324.243 139.324 325.277 139.733 326.062 140.467C326.847 141.202 327.323 142.207 327.394 143.279H327.412Z" fill="#8AB5A6"/>
<path d="M334.397 156.207C333.129 158.166 325.903 161.551 325.903 161.551C325.903 161.551 326.036 153.574 327.304 151.615C327.946 150.753 328.892 150.167 329.95 149.977C331.009 149.787 332.1 150.006 333.002 150.591C333.904 151.175 334.551 152.081 334.81 153.125C335.069 154.168 334.921 155.271 334.397 156.21V156.207Z" fill="#8AB5A6"/>
<path d="M334.092 178.299C332.009 179.358 324.063 178.625 324.063 178.625C324.063 178.625 328.203 171.804 330.289 170.753C331.279 170.333 332.391 170.305 333.401 170.674C334.41 171.044 335.241 171.784 335.725 172.744C336.21 173.704 336.311 174.812 336.008 175.844C335.705 176.875 335.021 177.753 334.095 178.299H334.092Z" fill="#8AB5A6"/>
<path d="M330.097 194.961C328.22 196.348 320.267 196.975 320.267 196.975C320.267 196.975 323.194 189.564 325.071 188.164C325.975 187.579 327.068 187.36 328.128 187.553C329.188 187.745 330.134 188.334 330.775 189.2C331.416 190.066 331.703 191.143 331.577 192.213C331.452 193.282 330.923 194.264 330.1 194.958L330.097 194.961Z" fill="#8AB5A6"/>
<path d="M317.027 162.001C318.7 163.626 326.5 165.312 326.5 165.312C326.5 165.312 324.589 157.565 322.916 155.94C322.097 155.244 321.045 154.885 319.972 154.936C318.898 154.988 317.885 155.445 317.136 156.215C316.387 156.986 315.96 158.012 315.939 159.087C315.919 160.161 316.308 161.203 317.027 162.001Z" fill="#8AB5A6"/>
<path d="M312.607 181.551C314.69 182.61 322.636 181.877 322.636 181.877C322.636 181.877 318.496 175.056 316.41 174.005C315.911 173.71 315.357 173.522 314.782 173.45C314.207 173.379 313.623 173.426 313.067 173.589C312.511 173.753 311.994 174.028 311.549 174.399C311.104 174.77 310.739 175.228 310.478 175.746C310.217 176.263 310.065 176.829 310.032 177.407C309.998 177.986 310.083 178.565 310.283 179.109C310.482 179.653 310.791 180.151 311.19 180.571C311.589 180.991 312.071 181.324 312.604 181.551H312.607Z" fill="#8AB5A6"/>
<path d="M310.911 201.141C312.787 202.528 320.741 203.155 320.741 203.155C320.741 203.155 317.814 195.744 315.937 194.344C315.495 193.971 314.981 193.693 314.426 193.527C313.872 193.36 313.29 193.309 312.715 193.376C312.141 193.444 311.586 193.628 311.085 193.918C310.585 194.208 310.149 194.598 309.805 195.063C309.46 195.528 309.215 196.059 309.084 196.622C308.953 197.186 308.938 197.77 309.042 198.34C309.145 198.909 309.364 199.451 309.685 199.932C310.006 200.414 310.422 200.824 310.908 201.138L310.911 201.141Z" fill="#8AB5A6"/>
<path opacity="0.25" d="M327.412 143.279C327.412 145.614 323.177 152.382 323.177 152.382C323.177 152.382 318.942 145.614 318.942 143.279C319.013 142.207 319.49 141.202 320.274 140.467C321.059 139.733 322.093 139.324 323.168 139.324C324.243 139.324 325.277 139.733 326.062 140.467C326.847 141.202 327.323 142.207 327.394 143.279H327.412Z" fill="#1E2D3D"/>
<path opacity="0.25" d="M334.397 156.207C333.129 158.166 325.903 161.551 325.903 161.551C325.903 161.551 326.036 153.574 327.304 151.615C327.946 150.753 328.892 150.167 329.95 149.977C331.009 149.787 332.1 150.006 333.002 150.591C333.904 151.175 334.551 152.081 334.81 153.125C335.069 154.168 334.921 155.271 334.397 156.21V156.207Z" fill="#1E2D3D"/>
<path opacity="0.25" d="M334.092 178.299C332.009 179.358 324.063 178.625 324.063 178.625C324.063 178.625 328.203 171.804 330.289 170.753C331.279 170.333 332.391 170.305 333.401 170.674C334.41 171.044 335.241 171.784 335.725 172.744C336.21 173.704 336.311 174.812 336.008 175.844C335.705 176.875 335.021 177.753 334.095 178.299H334.092Z" fill="#1E2D3D"/>
<path opacity="0.25" d="M330.097 194.961C328.22 196.348 320.267 196.975 320.267 196.975C320.267 196.975 323.194 189.564 325.071 188.164C325.975 187.579 327.068 187.36 328.128 187.553C329.188 187.745 330.134 188.334 330.775 189.2C331.416 190.066 331.703 191.143 331.577 192.213C331.452 193.282 330.923 194.264 330.1 194.958L330.097 194.961Z" fill="#1E2D3D"/>
<path opacity="0.25" d="M317.027 162.001C318.7 163.626 326.5 165.312 326.5 165.312C326.5 165.312 324.589 157.565 322.916 155.94C322.097 155.244 321.045 154.885 319.972 154.936C318.898 154.988 317.885 155.445 317.136 156.215C316.387 156.986 315.96 158.012 315.939 159.087C315.919 160.161 316.308 161.203 317.027 162.001Z" fill="#1E2D3D"/>
<path opacity="0.25" d="M312.607 181.551C314.69 182.61 322.636 181.877 322.636 181.877C322.636 181.877 318.496 175.056 316.41 174.005C315.911 173.71 315.357 173.522 314.782 173.45C314.207 173.379 313.623 173.426 313.067 173.589C312.511 173.753 311.994 174.028 311.549 174.399C311.104 174.77 310.739 175.228 310.478 175.746C310.217 176.263 310.065 176.829 310.032 177.407C309.998 177.986 310.083 178.565 310.283 179.109C310.482 179.653 310.791 180.151 311.19 180.571C311.589 180.991 312.071 181.324 312.604 181.551H312.607Z" fill="#1E2D3D"/>
<path opacity="0.25" d="M310.911 201.141C312.787 202.528 320.741 203.155 320.741 203.155C320.741 203.155 317.814 195.744 315.937 194.344C315.495 193.971 314.981 193.693 314.426 193.527C313.872 193.36 313.29 193.309 312.715 193.376C312.141 193.444 311.586 193.628 311.085 193.918C310.585 194.208 310.149 194.598 309.805 195.063C309.46 195.528 309.215 196.059 309.084 196.622C308.953 197.186 308.938 197.77 309.042 198.34C309.145 198.909 309.364 199.451 309.685 199.932C310.006 200.414 310.422 200.824 310.908 201.138L310.911 201.141Z" fill="#1E2D3D"/>
<path fill-rule="evenodd" clip-rule="evenodd" d="M336.546 152.383C337.712 155.265 338.612 158.248 339.234 161.294L339.234 161.296C340.5 167.75 339.637 174.441 336.777 180.363C333.479 187.291 333.21 195.491 333.777 201.984C334.06 205.226 334.55 208.033 334.97 210.03C335.18 211.027 335.372 211.822 335.511 212.367C335.581 212.639 335.637 212.849 335.676 212.99C335.696 213.06 335.711 213.114 335.721 213.15C335.724 213.161 335.727 213.171 335.729 213.179L335.732 213.19L335.735 213.199L335.736 213.202L335.736 213.202C335.736 213.202 335.736 213.202 335.437 213.29C335.138 213.378 335.138 213.378 335.138 213.378L335.137 213.374L335.134 213.363C335.131 213.353 335.127 213.339 335.121 213.321C335.111 213.283 335.095 213.228 335.075 213.156C335.035 213.011 334.978 212.797 334.907 212.521C334.766 211.969 334.572 211.165 334.36 210.158C333.936 208.143 333.441 205.311 333.156 202.038C332.585 195.501 332.846 187.17 336.214 180.094L336.215 180.093C339.017 174.292 339.862 167.739 338.623 161.417C338.009 158.409 337.12 155.463 335.969 152.617L336.546 152.383Z" fill="#1E2D3D"/>
<path d="M340.389 143.641C340.389 145.975 336.154 152.743 336.154 152.743C336.154 152.743 331.919 145.975 331.919 143.641C331.99 142.568 332.466 141.563 333.251 140.829C334.035 140.094 335.07 139.686 336.145 139.686C337.219 139.686 338.254 140.094 339.039 140.829C339.823 141.563 340.299 142.568 340.37 143.641H340.389Z" fill="#8AB5A6"/>
<path d="M347.378 156.567C346.11 158.526 338.876 161.901 338.876 161.901C338.876 161.901 339.008 153.923 340.276 151.965C340.919 151.102 341.865 150.517 342.923 150.327C343.981 150.136 345.072 150.356 345.975 150.94C346.877 151.525 347.523 152.431 347.782 153.474C348.041 154.518 347.894 155.621 347.37 156.559L347.378 156.567Z" fill="#8AB5A6"/>
<path d="M347.081 178.66C344.998 179.719 337.052 178.986 337.052 178.986C337.052 178.986 341.191 172.165 343.277 171.114C344.266 170.697 345.377 170.671 346.385 171.041C347.392 171.412 348.222 172.151 348.705 173.11C349.188 174.069 349.289 175.175 348.988 176.206C348.686 177.236 348.005 178.113 347.081 178.66Z" fill="#8AB5A6"/>
<path d="M343.074 195.328C341.197 196.715 333.243 197.342 333.243 197.342C333.243 197.342 336.171 189.931 338.047 188.531C338.952 187.946 340.045 187.727 341.105 187.92C342.164 188.112 343.111 188.701 343.752 189.567C344.392 190.433 344.679 191.51 344.554 192.58C344.428 193.65 343.9 194.631 343.076 195.325L343.074 195.328Z" fill="#8AB5A6"/>
<path d="M330.007 162.364C331.68 163.989 339.48 165.676 339.48 165.676C339.48 165.676 337.569 157.928 335.897 156.303C335.078 155.607 334.025 155.249 332.952 155.3C331.879 155.351 330.865 155.808 330.117 156.579C329.368 157.349 328.94 158.376 328.92 159.45C328.899 160.524 329.288 161.566 330.007 162.364Z" fill="#8AB5A6"/>
<path d="M325.581 181.914C327.664 182.973 335.61 182.24 335.61 182.24C335.61 182.24 331.463 175.419 329.387 174.368C328.398 173.948 327.285 173.92 326.276 174.29C325.266 174.659 324.435 175.399 323.951 176.359C323.467 177.319 323.366 178.427 323.668 179.459C323.971 180.49 324.655 181.368 325.581 181.914Z" fill="#8AB5A6"/>
<path d="M323.891 201.506C325.768 202.893 333.722 203.52 333.722 203.52C333.722 203.52 330.794 196.109 328.918 194.709C328.475 194.336 327.961 194.058 327.407 193.892C326.853 193.725 326.27 193.674 325.696 193.742C325.121 193.809 324.566 193.994 324.066 194.284C323.565 194.574 323.129 194.963 322.785 195.428C322.441 195.893 322.196 196.424 322.064 196.988C321.933 197.551 321.919 198.135 322.022 198.705C322.126 199.274 322.345 199.816 322.666 200.297C322.987 200.779 323.403 201.189 323.889 201.504L323.891 201.506Z" fill="#8AB5A6"/>
<path d="M338.742 213.194H3.26589C3.15523 213.194 3.0491 213.161 2.97085 213.102C2.89259 213.044 2.84863 212.965 2.84863 212.882C2.84863 212.799 2.89259 212.72 2.97085 212.662C3.0491 212.603 3.15523 212.57 3.26589 212.57H338.742C338.853 212.57 338.959 212.603 339.037 212.662C339.115 212.72 339.159 212.799 339.159 212.882C339.159 212.965 339.115 213.044 339.037 213.102C338.959 213.161 338.853 213.194 338.742 213.194Z" fill="#89959F"/>
<path d="M21.8571 191.004C21.8571 191.004 35.859 199.473 10.0533 212.507C10.0533 212.507 4.3698 201.921 10.6536 193.291C11.8736 191.609 13.6667 190.433 15.693 189.988C17.7194 189.543 19.8383 189.858 21.6481 190.875L21.8571 191.004Z" fill="#E3AF7B"/>
<path fill-rule="evenodd" clip-rule="evenodd" d="M21.7119 191.02C21.712 191.019 21.712 191.019 21.6177 190.895C21.5234 190.771 21.5233 190.771 21.5231 190.771L21.5226 190.772L21.5208 190.773L21.514 190.779C21.508 190.783 21.4991 190.79 21.4875 190.799C21.4642 190.817 21.4299 190.844 21.3853 190.879C21.2962 190.95 21.1659 191.056 21.0003 191.194C20.6693 191.47 20.1974 191.879 19.6325 192.408C18.5029 193.466 17.0004 195.007 15.5082 196.939C12.5261 200.8 9.5732 206.239 9.74437 212.517L10.0559 212.508C9.88756 206.333 12.7934 200.964 15.7549 197.129C17.2346 195.214 18.7251 193.685 19.8456 192.636C20.4057 192.111 20.8732 191.706 21.2002 191.433C21.3637 191.296 21.492 191.193 21.5793 191.123C21.623 191.089 21.6564 191.062 21.6787 191.045C21.6899 191.036 21.6983 191.03 21.7039 191.026L21.7101 191.021L21.7116 191.02L21.7119 191.02Z" fill="#1E2D3D"/>
<path d="M295.706 81.8631C295.706 81.8631 279.426 66.5416 277.073 64.2501C276.254 63.4599 275.48 62.6697 274.819 62.0033C273.547 60.7318 271.918 59.8782 270.149 59.5564C264.049 58.4001 257.809 54.6494 257.809 54.6494C257.775 54.6046 257.74 54.5651 257.709 54.5177C257.18 53.7783 256.792 52.948 256.563 52.0682C256.529 51.9391 256.495 51.8048 256.466 51.6678C256.564 51.5414 256.66 51.4123 256.753 51.2806C256.859 51.2434 256.963 51.1967 257.061 51.141C257.833 50.7012 258.267 49.8873 258.56 49.0866C258.823 48.378 259.034 47.5958 259.661 47.1348C259.885 47.0104 260.087 46.8492 260.258 46.6581C260.386 46.4069 260.434 46.1234 260.398 45.8442C260.398 44.0452 260.111 42.6651 260.53 40.9109C261.199 38.1031 261.813 34.5894 259.692 32.506C258.597 31.4484 257.203 30.754 255.699 30.5174C254.337 30.3014 252.322 32.1557 250.942 32.0977C247.426 31.9634 244.463 28.7922 241.12 29.8168C239.666 30.2583 238.397 31.1674 237.512 32.4033C235.863 34.7527 236.021 37.7923 236.258 40.5948C236.255 40.8082 236.318 41.0173 236.44 41.1927C236.564 41.3376 236.761 41.4139 236.882 41.5588C237.012 41.7511 237.061 41.9865 237.019 42.2147C236.981 42.6681 236.871 43.1127 236.693 43.5316C236.647 43.6015 236.619 43.6811 236.61 43.764C236.602 43.8468 236.613 43.9306 236.643 44.0084C236.709 44.0953 236.801 44.1582 236.906 44.1875C237.047 44.2352 237.193 44.2696 237.341 44.2902C237.317 44.522 237.296 44.7538 237.288 44.9882C237.288 45.1199 237.288 45.2516 237.288 45.3859C237.294 47.0975 237.727 48.7807 238.546 50.2834C239.366 51.7862 240.546 53.0612 241.982 53.9936C242.011 54.1832 242.042 54.3781 242.071 54.5809C242.161 55.2052 242.242 55.8979 242.303 56.6512C242.303 56.7882 242.324 56.9146 242.335 57.0647L242.263 56.9199L230.938 62.4722C230.101 62.6657 229.32 63.0486 228.654 63.5916L228.43 63.7022V63.7681C228.337 63.8453 228.242 63.9279 228.146 64.0157L218.318 52.9163L195.403 72.8077L208.004 86.3751L222.164 85.1951C221.466 89.9888 220.989 93.6631 220.989 93.6631C220.989 93.6631 218.4 104.76 230.943 102.637C230.861 109.635 227.864 121.314 227.864 121.314C228.212 121.77 228.623 122.175 229.083 122.518L229.012 122.995L228.222 128.36C228.222 128.36 223.518 141.393 222.796 153.016C222.074 164.64 221.168 171.156 221.168 171.156L219.541 194.406L217.252 205.036C213.482 209.159 209.092 212.669 204.24 215.44C204.026 215.554 203.837 215.709 203.683 215.897C203.53 216.085 203.416 216.301 203.347 216.534C203.278 216.766 203.257 217.01 203.283 217.251C203.31 217.492 203.385 217.725 203.503 217.937C204.43 219.533 207.282 221.19 215.922 218.535C229.671 214.321 228.404 214.484 228.404 214.484C228.404 214.484 228.607 208.842 228.022 205.497C228.003 205.397 227.985 205.299 227.967 205.202C231.259 201.491 229.668 195.456 229.668 195.456C229.668 195.456 236.179 182.777 233.092 174.498C233.092 174.498 232.368 167.453 236.169 164.107C236.221 164.06 236.277 164.007 236.332 163.952L236.382 163.899L236.506 163.768L236.561 163.707L236.706 163.539L236.738 163.502C236.795 163.431 236.856 163.354 236.917 163.275L236.964 163.212L237.117 163.041L237.175 162.956L237.317 162.748L237.364 162.68L237.557 162.388L237.594 162.33L237.754 162.066L237.815 161.966L237.962 161.719L238.018 161.624L238.22 161.271L238.423 160.907L238.481 160.799L238.637 160.512L238.697 160.396L238.884 160.041L238.908 159.996L239.124 159.575L239.177 159.472L239.345 159.137L239.408 159.011L239.585 158.653L239.63 158.563L239.851 158.102L239.888 158.026L240.072 157.633L240.135 157.499L240.306 157.133L240.362 157.014L240.588 156.522L240.807 156.035L240.868 155.9L241.039 155.513L241.097 155.379L241.331 154.876V154.854L241.56 154.328L241.61 154.214L241.789 153.798L241.85 153.659L242.037 153.214L242.074 153.129L242.3 152.602L242.337 152.516L242.524 152.068L242.585 151.923L242.756 151.504L242.806 151.383L243.025 150.856L243.043 150.811L243.241 150.324L243.301 150.174L243.462 149.774L243.52 149.629L243.71 149.149L243.728 149.099L243.933 148.573L243.994 148.42L244.141 148.043L244.205 147.877L244.36 147.477L244.405 147.358L244.597 146.861L244.65 146.724L244.789 146.36L244.861 146.176L244.984 145.854L245.05 145.681L245.224 145.22L245.274 145.085L245.401 144.748L245.472 144.561L245.577 144.279L245.648 144.087L245.767 143.768L245.843 143.563L245.962 143.242L246.038 143.036L246.12 142.815L246.196 142.604L246.262 142.422L246.438 141.943L246.467 141.861L246.549 141.635L246.604 141.485L246.689 141.256L246.728 141.148C247.484 139.064 247.948 137.723 247.948 137.723C247.948 137.723 251.372 149.7 250.845 153.398C250.318 157.096 254.1 170.835 254.1 170.835C254.1 170.835 251.93 184.573 253.197 187.918C254.464 191.263 251.387 203.769 251.387 203.769C251.387 203.769 251.622 203.898 252.02 204.096L251.996 204.436C251.798 207.185 251.369 212.469 250.845 214.513C250.121 217.331 250.484 220.326 256.271 219.973C262.057 219.62 262.239 216.099 262.239 216.099C262.239 216.099 260.33 209.94 260.095 206.308C260.095 206.19 260.095 206.074 260.079 205.961L260.243 205.9L260.29 205.882C260.356 205.853 260.419 205.824 260.48 205.792C260.538 205.76 260.59 205.729 260.646 205.695L260.693 205.663C260.739 205.631 260.784 205.598 260.827 205.563L260.859 205.536C260.912 205.493 260.962 205.447 261.009 205.4L261.043 205.365C261.08 205.325 261.116 205.284 261.151 205.241L261.188 205.194C261.23 205.139 261.273 205.081 261.312 205.018C263.301 201.857 263.482 195.154 263.482 195.154C263.482 195.154 267.462 172.61 266.016 169.604C264.57 166.599 265.292 159.567 265.292 159.567C265.292 159.567 263.664 148.999 265.474 143.892C266.827 140.068 267.676 126.861 267.636 120.542C267.636 120.411 267.636 120.282 267.636 120.155C267.636 120.11 267.636 120.066 267.636 120.021C268.985 118.346 270.007 115.406 269.28 110.254C269.238 109.962 269.206 109.667 269.174 109.367C271.229 107.831 273.257 106.027 273.257 106.027L273.958 105.305L274.181 105.073C274.376 105.155 274.582 105.229 274.795 105.295C275.585 105.653 276.149 105.853 276.149 105.853C276.149 105.853 286.461 97.398 294.239 93.347C302.017 89.2961 295.706 81.8631 295.706 81.8631ZM283.405 89.2592C283.405 89.2592 272.551 96.139 270.568 99.6527C270.453 99.8494 270.365 100.06 270.304 100.28L270.041 100.39L269.709 100.517C271.371 91.0345 275.82 81.6867 275.82 81.6867C275.82 81.6867 279.244 84.6814 281.614 85.9009C283.985 87.1205 283.405 89.2618 283.405 89.2618V89.2592Z" fill="#D6D4D4"/>
<path d="M217.031 217.441C208.697 220.075 205.945 218.432 205.052 216.849C204.825 216.425 204.772 215.929 204.905 215.467C205.038 215.005 205.346 214.614 205.763 214.375C210.5 211.591 214.767 208.076 218.406 203.961C219.333 202.907 219.821 202.262 219.821 202.262C219.821 202.262 226.276 201.04 227.846 202.262C228.239 202.567 228.512 203.421 228.699 204.527C229.263 207.841 229.068 213.43 229.068 213.43C229.068 213.43 230.29 213.253 217.031 217.441Z" fill="#0E141E"/>
<path d="M261.695 214.994C261.695 214.994 261.521 218.484 255.937 218.831C250.353 219.179 250.005 216.213 250.703 213.424C251.209 211.401 251.622 206.167 251.812 203.441C251.883 202.406 251.923 201.735 251.923 201.735C251.923 201.735 260.646 200.863 259.774 203.315C259.603 203.964 259.553 204.639 259.627 205.306C259.853 208.896 261.695 214.994 261.695 214.994Z" fill="#0E141E"/>
<path opacity="0.1" d="M228.692 204.524L228.537 204.704C225.22 208.367 218.243 204.704 218.243 204.704L218.399 203.961C219.326 202.907 219.813 202.262 219.813 202.262C219.813 202.262 226.269 201.04 227.839 202.262C228.242 202.565 228.515 203.418 228.692 204.524Z" fill="#1E2D3D"/>
<path opacity="0.1" d="M259.772 203.308C259.6 203.957 259.55 204.632 259.624 205.3C257.343 206.09 253.303 204.22 251.81 203.456C251.881 202.421 251.92 201.749 251.92 201.749C251.92 201.749 260.649 200.867 259.772 203.308Z" fill="#1E2D3D"/>
<path d="M265.359 168.941C266.755 171.907 262.917 194.226 262.917 194.226C262.917 194.226 262.743 200.856 260.823 203.996C258.903 207.135 251.228 202.774 251.228 202.774C251.228 202.774 254.194 190.394 252.971 187.07C251.749 183.746 253.843 170.152 253.843 170.152C253.843 170.152 250.179 156.543 250.704 152.879C251.228 149.215 247.912 137.339 247.912 137.339C247.912 137.339 240.234 160.196 236.57 163.51C232.906 166.823 233.604 173.803 233.604 173.803C236.57 182.002 230.288 194.566 230.288 194.566C230.288 194.566 231.868 200.672 228.544 204.336C225.22 207.999 218.251 204.336 218.251 204.336L220.527 193.542L222.107 170.511C222.107 170.511 222.979 164.055 223.687 152.539C224.396 141.024 228.921 128.112 228.921 128.112L229.68 122.797L230.317 118.34C230.317 118.34 265.735 117.118 266.607 116.944C266.826 116.9 266.936 118.232 266.947 120.332C266.987 126.593 266.157 139.673 264.861 143.463C263.117 148.523 264.687 159.003 264.687 159.003C264.687 159.003 263.963 165.975 265.359 168.941Z" fill="#1E2D3D"/>
<path opacity="0.05" d="M245.993 137.357C245.993 137.357 238.315 160.215 234.651 163.528C230.988 166.842 231.686 173.821 231.686 173.821C234.651 182.021 228.37 194.585 228.37 194.585C228.37 194.585 229.95 200.69 226.626 204.354C225.785 205.26 224.638 205.823 223.407 205.934C225.251 206.127 227.197 205.847 228.543 204.354C231.859 200.69 230.287 194.585 230.287 194.585C230.287 194.585 236.569 182.024 233.603 173.821C233.603 173.821 232.905 166.842 236.569 163.528C239.385 160.981 244.566 146.905 246.818 140.515C246.354 138.651 245.993 137.357 245.993 137.357Z" fill="#1E2D3D"/>
<path opacity="0.05" d="M264.658 158.993C264.658 158.993 263.078 148.526 264.832 143.453C266.149 139.663 266.955 126.582 266.918 120.322C266.918 118.214 266.797 116.897 266.578 116.934C266.47 116.955 265.82 116.995 264.769 117.045C264.916 117.403 264.99 118.604 265.001 120.324C265.04 126.585 264.211 139.665 262.915 143.455C261.171 148.515 262.741 158.996 262.741 158.996C262.741 158.996 262.043 165.975 263.439 168.941C264.835 171.907 260.997 194.227 260.997 194.227C260.997 194.227 260.823 200.856 258.903 203.996C258.726 204.275 258.492 204.514 258.216 204.695C257.94 204.877 257.628 204.998 257.302 205.05C258.795 205.271 260.154 205.087 260.821 203.996C262.741 200.856 262.915 194.227 262.915 194.227C262.915 194.227 266.752 171.894 265.356 168.941C263.96 165.989 264.658 158.993 264.658 158.993Z" fill="#1E2D3D"/>
<path d="M260.124 57.1021L258.901 69.1392C258.901 69.1392 239.534 73.3271 241.628 66.521C242.618 63.2997 242.682 59.8414 242.452 57.0942C242.392 56.3515 242.316 55.6614 242.229 55.0424C242.087 53.9733 241.886 52.9129 241.628 51.8659C241.628 51.8659 256.641 40.5242 255.936 48.2021C255.774 49.6532 255.867 51.1214 256.212 52.5402C256.432 53.4088 256.807 54.2306 257.318 54.966C258.554 56.7097 260.124 57.1021 260.124 57.1021Z" fill="#E3B5A5"/>
<path opacity="0.1" d="M256.217 52.5414C256.077 52.7311 255.929 52.9181 255.779 53.0972C254.152 55.026 251.873 56.29 249.376 56.6494C246.878 57.0087 244.335 56.4382 242.23 55.0463C242.089 53.9772 241.888 52.9168 241.63 51.8698C241.63 51.8698 256.643 40.5281 255.937 48.206C255.777 49.6564 255.871 51.1237 256.217 52.5414Z" fill="#1E2D3D"/>
<path d="M258.205 45.9318C258.205 48.6618 257.12 51.2799 255.19 53.2103C253.26 55.1407 250.642 56.2252 247.912 56.2252C245.182 56.2252 242.563 55.1407 240.633 53.2103C238.703 51.2799 237.618 48.6618 237.618 45.9318C237.618 45.8001 237.618 45.6684 237.618 45.5367C237.724 42.8444 238.881 40.3008 240.841 38.452C242.801 36.6033 245.407 35.5967 248.101 35.6484C250.795 35.7001 253.361 36.806 255.249 38.7287C257.136 40.6513 258.195 43.2374 258.197 45.9318H258.205Z" fill="#E3B5A5"/>
<path opacity="0.1" d="M266.921 120.332C266.038 121.516 264.725 122.304 263.265 122.526L255.247 125.331H255.229L252.798 126.182L251.778 123.674L250.53 120.598V126.182C250.53 126.182 235.211 127.236 229.653 122.787L230.291 118.33C230.291 118.33 265.709 117.108 266.581 116.934C266.8 116.9 266.91 118.23 266.921 120.332Z" fill="#1E2D3D"/>
<path opacity="0.1" d="M260.124 57.1003L258.901 69.1373C258.901 69.1373 239.534 73.3253 241.628 66.5192C242.618 63.2979 242.682 59.8396 242.452 57.0924C242.787 57.793 245.25 62.7501 248.434 63.6113C248.83 63.7223 249.243 63.7616 249.654 63.7272C250.331 63.647 250.977 63.3969 251.532 63.0003C254.397 61.0959 256.799 56.0836 257.326 54.9668C258.554 56.7078 260.124 57.1003 260.124 57.1003Z" fill="#1E2D3D"/>
<path d="M292.576 93.3903C285.075 97.4044 275.129 105.77 275.129 105.77C275.129 105.77 267.801 103.152 269.721 99.6644C271.642 96.177 282.101 89.371 282.101 89.371C282.101 89.371 282.628 87.277 280.357 86.0549C278.087 84.8327 274.773 81.8669 274.773 81.8669C274.773 81.8669 266.922 98.7899 268.491 110.132C270.061 121.473 263.258 121.984 263.258 121.984L255.24 124.789H255.222L252.791 125.64L251.771 123.133L250.523 120.056V125.64C250.523 125.64 232.725 126.862 228.54 121.105C228.54 121.105 232.378 105.751 231.332 99.8198C230.286 93.8882 229.064 64.0537 229.064 64.0537L242.41 57.3372C242.41 57.3372 245.021 63.0344 248.445 63.9641C248.841 64.0751 249.254 64.1144 249.664 64.08C250.341 63.9998 250.987 63.7497 251.542 63.3531C254.774 61.2064 257.429 55.0957 257.429 55.0957C257.429 55.0957 263.447 58.8095 269.332 59.9553C271.047 60.2787 272.62 61.1252 273.836 62.3785C274.473 63.0449 275.221 63.8114 276.011 64.6042C278.279 66.872 293.983 82.0513 293.983 82.0513C293.983 82.0513 300.07 89.3762 292.576 93.3903Z" fill="#B85954"/>
<path d="M275.313 102.817L273.021 105.243L272.347 105.96C272.347 105.96 266.242 111.544 264.669 111.367C263.097 111.191 260.481 100.55 263.616 101.248C265.522 101.672 267.753 101.003 269.207 100.41C269.741 100.196 270.262 99.9519 270.767 99.6777L275.313 102.817Z" fill="#E3B5A5"/>
<path opacity="0.1" d="M258.202 45.9318C258.206 48.3632 257.345 50.7168 255.774 52.5719C255.505 52.5978 255.234 52.55 254.99 52.4335C254.747 52.317 254.54 52.1363 254.391 51.9108C254.101 51.4025 254.222 50.765 254.03 50.2172C253.838 49.6693 253.401 49.2927 253.124 48.8054C252.423 47.578 252.718 45.7184 251.436 45.06C250.846 44.7597 250.132 44.8598 249.473 44.9704C248.18 45.1838 246.879 45.6078 245.604 45.7843C244.15 45.9897 242.841 45.0442 241.406 45.0231C240.126 45.002 238.84 45.7527 237.626 45.5367C237.732 42.8444 238.888 40.3008 240.848 38.452C242.808 36.6033 245.415 35.5967 248.109 35.6484C250.803 35.7001 253.369 36.806 255.257 38.7287C257.144 40.6513 258.203 43.2374 258.205 45.9318H258.202Z" fill="#1E2D3D"/>
<path d="M249.474 44.2761C250.132 44.1681 250.846 44.0654 251.436 44.3683C252.719 45.0241 252.424 46.8837 253.124 48.1111C253.401 48.5984 253.848 48.9961 254.033 49.5229C254.217 50.0497 254.104 50.7081 254.394 51.2165C254.813 51.9514 255.948 52.0593 256.693 51.6221C257.439 51.1849 257.855 50.3815 258.137 49.5861C258.384 48.8855 258.592 48.1111 259.19 47.6528C259.407 47.529 259.602 47.3697 259.767 47.1813C259.89 46.9318 259.938 46.6516 259.904 46.3753C259.904 44.5948 259.627 43.2146 260.03 41.4894C260.676 38.708 261.266 35.2259 259.222 33.1636C258.175 32.1208 256.829 31.4318 255.371 31.1934C254.054 30.9774 252.115 32.8159 250.783 32.7737C247.393 32.6394 244.532 29.4998 241.3 30.5138C239.887 30.9577 238.662 31.8594 237.818 33.0766C236.238 35.405 236.38 38.413 236.609 41.1918C236.606 41.4027 236.668 41.6097 236.786 41.7844C236.904 41.9266 237.097 42.003 237.213 42.1479C237.337 42.3393 237.384 42.571 237.344 42.7958C237.309 43.2485 237.203 43.6928 237.031 44.1128C236.987 44.183 236.961 44.2622 236.952 44.3444C236.944 44.4265 236.955 44.5095 236.983 44.5869C237.048 44.6749 237.141 44.7381 237.247 44.766C238.564 45.2401 239.986 44.3261 241.395 44.3498C242.804 44.3736 244.142 45.3165 245.596 45.111C246.879 44.9135 248.18 44.4894 249.474 44.2761Z" fill="#AB7358"/>
<path opacity="0.05" d="M255.252 124.81H255.233L252.712 125.748L251.78 123.153L247.829 112.138L248.448 63.9665C248.844 64.0775 249.257 64.1168 249.668 64.0824C250.345 64.0022 250.991 63.7521 251.546 63.3555L250.798 110.766L255.252 124.81Z" fill="#1E2D3D"/>
<path d="M250.353 66.353C250.643 66.353 250.877 66.1183 250.877 65.8288C250.877 65.5394 250.643 65.3047 250.353 65.3047C250.064 65.3047 249.829 65.5394 249.829 65.8288C249.829 66.1183 250.064 66.353 250.353 66.353Z" fill="#F4F5F7"/>
<path d="M249.306 84.146C249.596 84.146 249.831 83.9113 249.831 83.6218C249.831 83.3323 249.596 83.0977 249.306 83.0977C249.017 83.0977 248.782 83.3323 248.782 83.6218C248.782 83.9113 249.017 84.146 249.306 84.146Z" fill="#F4F5F7"/>
<path d="M248.435 102.642C248.725 102.642 248.959 102.407 248.959 102.118C248.959 101.828 248.725 101.594 248.435 101.594C248.146 101.594 247.911 101.828 247.911 102.118C247.911 102.407 248.146 102.642 248.435 102.642Z" fill="#F4F5F7"/>
<path d="M249.482 111.882C249.772 111.882 250.006 111.648 250.006 111.358C250.006 111.069 249.772 110.834 249.482 110.834C249.193 110.834 248.958 111.069 248.958 111.358C248.958 111.648 249.193 111.882 249.482 111.882Z" fill="#F4F5F7"/>
<path opacity="0.05" d="M267.454 85.7142H256.286V74.549L261.87 72.9766L267.454 74.549V85.7142Z" fill="#1E2D3D"/>
<path d="M249.83 74.5503C250.119 74.5503 250.354 74.3156 250.354 74.0261C250.354 73.7366 250.119 73.502 249.83 73.502C249.54 73.502 249.306 73.7366 249.306 74.0261C249.306 74.3156 249.54 74.5503 249.83 74.5503Z" fill="#F4F5F7"/>
<path d="M262.22 75.0717C262.51 75.0717 262.745 74.8371 262.745 74.5476C262.745 74.2581 262.51 74.0234 262.22 74.0234C261.931 74.0234 261.696 74.2581 261.696 74.5476C261.696 74.8371 261.931 75.0717 262.22 75.0717Z" fill="#F4F5F7"/>
<path d="M248.787 93.7378C249.076 93.7378 249.311 93.5031 249.311 93.2136C249.311 92.9241 249.076 92.6895 248.787 92.6895C248.497 92.6895 248.263 92.9241 248.263 93.2136C248.263 93.5031 248.497 93.7378 248.787 93.7378Z" fill="#F4F5F7"/>
<path d="M231.51 62.8594C231.51 62.8594 226.624 63.5574 225.054 72.4548C223.484 81.3522 221.914 93.7395 221.914 93.7395C221.914 93.7395 219.296 105.255 232.376 102.458L233.074 98.4437C233.074 98.4437 231.757 103.066 232.115 93.8212C232.474 84.5761 232.553 78.5444 232.553 78.5444L231.51 62.8594Z" fill="#B85954"/>
<path opacity="0.05" d="M231.51 62.8594C231.51 62.8594 226.624 63.5574 225.054 72.4548C223.484 81.3522 221.914 93.7395 221.914 93.7395C221.914 93.7395 219.296 105.255 232.376 102.458L233.074 98.4437C233.074 98.4437 231.067 102.892 231.417 93.6447C231.768 84.397 232.553 78.5523 232.553 78.5523L231.51 62.8594Z" fill="#1E2D3D"/>
<path opacity="0.1" d="M275.312 102.817L273.02 105.243C269.762 103.926 269.13 100.473 269.13 100.473L269.214 100.41C269.748 100.196 270.268 99.9519 270.773 99.6777L275.312 102.817Z" fill="#1E2D3D"/>
<path d="M272.079 98.3672L269.474 100.298C269.474 100.298 270.335 104.997 275.218 105.521L277.312 101.857L272.079 98.3672Z" fill="#B85954"/>
<path d="M197.239 73.0774L219.333 53.373L229.444 65.1388L246.797 64.2433L252.057 75.1214L235.537 96.6985L227.798 84.9433L209.392 86.5184L197.239 73.0774Z" fill="#F4F5F7"/>
<path opacity="0.5" d="M250.226 75.1458L244.413 82.6972L238.21 90.7571L235.344 94.4841L228.714 84.1696L221.761 84.7807L210.44 85.7737L202.006 76.4469L199.106 73.2415L210.872 62.7479L219.712 54.8672L224.266 60.1666L229.138 65.8375L234.006 65.5873L245.321 65.0025L249.738 74.137L250.226 75.1458Z" fill="#D6D4D4"/>
<path d="M213.68 67.2086L202.006 76.451L199.106 73.2455L210.872 62.752L213.68 67.2086Z" fill="#D6D4D4"/>
<path d="M227 74.0184L226.081 68.2264L219.938 61.0174L224.269 60.1719L229.141 65.8427L234.009 65.5925L235.795 72.4907L227.121 74.7744L227 74.0184Z" fill="#D6D4D4"/>
<path d="M250.223 75.1475L244.41 82.6989L241.392 78.1475L249.736 74.1387L250.223 75.1475Z" fill="#D6D4D4"/>
<path d="M238.211 90.7634L235.346 94.4904L228.716 84.176L221.763 84.787L220.501 76.0661L226.999 74.0195L227.779 79.9775L232.175 80.6597L238.211 90.7634Z" fill="#D6D4D4"/>
<path d="M225.761 76.3842C225.73 76.3903 225.698 76.3879 225.669 76.3773C225.639 76.3666 225.613 76.348 225.593 76.3236C224.784 75.3324 223.795 74.5038 222.677 73.8819C222.637 73.8596 222.607 73.822 222.594 73.7776C222.581 73.7331 222.586 73.6854 222.609 73.6449C222.631 73.6044 222.669 73.5744 222.713 73.5615C222.757 73.5487 222.805 73.554 222.846 73.5764C224.002 74.2198 225.025 75.077 225.862 76.1023C225.881 76.1257 225.894 76.1537 225.899 76.1836C225.904 76.2135 225.901 76.2442 225.891 76.2727C225.881 76.3012 225.863 76.3264 225.84 76.346C225.817 76.3656 225.789 76.3787 225.759 76.3842H225.761Z" fill="#B85954"/>
<path d="M223.686 76.8682C223.653 76.8751 223.618 76.8719 223.587 76.8592C223.555 76.8465 223.528 76.8247 223.508 76.7967C223.489 76.7686 223.478 76.7354 223.478 76.7013C223.477 76.6672 223.486 76.6336 223.505 76.6048L225.764 72.8726C225.789 72.8331 225.827 72.8048 225.872 72.7939C225.917 72.7831 225.965 72.7905 226.004 72.8146C226.044 72.8387 226.072 72.8775 226.083 72.9225C226.094 72.9674 226.086 73.0148 226.062 73.0543L223.802 76.7866C223.79 76.8076 223.773 76.8257 223.753 76.8398C223.733 76.8538 223.71 76.8635 223.686 76.8682Z" fill="#B85954"/>
<path opacity="0.1" d="M210.442 85.5451L229.096 65.8012L245.284 65.0137L228.756 84.1044L210.442 85.5451Z" fill="#F4F5F7"/>
<path d="M226.626 95.1262C226.626 95.1262 230.988 84.4245 233.082 85.536C235.176 86.6476 241.281 93.3193 237.096 96.2377C232.911 99.1561 229.942 100.547 229.942 100.547L226.626 100.131V95.1262Z" fill="#E3B5A5"/>
<path d="M224.271 95.2213C224.271 95.2213 228.271 92.0816 231.503 101.59L228.456 102.027L224.966 99.9334L224.271 95.2213Z" fill="#B85954"/>
<path opacity="0.05" d="M224.271 95.2213C224.271 95.2213 228.271 92.0816 231.503 101.59L228.456 102.027L224.966 99.9334L224.271 95.2213Z" fill="#1E2D3D"/>
<path d="M170.367 50.5228H169.199V18.5215C169.199 13.6093 167.247 8.89829 163.774 5.42483C160.3 1.95138 155.589 7.91828e-06 150.677 0L82.878 0C77.9658 -1.34609e-05 73.2548 1.95134 69.7813 5.42478C66.3078 8.89822 64.3565 13.6092 64.3564 18.5214V194.083C64.3564 198.995 66.3078 203.706 69.7812 207.18C73.2547 210.653 77.9657 212.605 82.8779 212.605H150.677C153.109 212.605 155.518 212.126 157.765 211.195C160.012 210.264 162.054 208.9 163.774 207.18C165.494 205.46 166.858 203.418 167.789 201.171C168.719 198.924 169.199 196.515 169.199 194.083V73.3019H170.367L170.367 50.5228Z" fill="#1E2D3D"/>
<path d="M165.255 18.6485V193.952C165.256 195.767 164.9 197.564 164.207 199.242C163.514 200.919 162.498 202.443 161.216 203.728C159.934 205.012 158.411 206.031 156.735 206.727C155.059 207.423 153.262 207.783 151.447 207.784H83.298C79.632 207.787 76.1152 206.333 73.5212 203.743C70.9272 201.152 69.4684 197.637 69.4658 193.971V18.6485C69.4645 16.8334 69.8208 15.0357 70.5143 13.3582C71.2077 11.6807 72.2248 10.1562 73.5074 8.87178C74.79 7.58735 76.3131 6.56813 77.9896 5.87231C79.6661 5.17648 81.4633 4.81769 83.2785 4.81641H91.562C91.155 5.81419 90.9997 6.89676 91.1097 7.96872C91.2197 9.04068 91.5916 10.0691 92.1928 10.9635C92.7939 11.8578 93.6058 12.5906 94.5568 13.0972C95.5079 13.6038 96.569 13.8687 97.6466 13.8686H136.489C137.566 13.8687 138.627 13.6038 139.579 13.0972C140.53 12.5906 141.341 11.8578 141.943 10.9635C142.544 10.0691 142.916 9.04068 143.026 7.96872C143.136 6.89676 142.98 5.81419 142.573 4.81641H151.423C155.088 4.81313 158.604 6.26597 161.198 8.85535C163.792 11.4447 165.251 14.9585 165.255 18.6237V18.6485L165.255 18.6485Z" fill="#F4F5F7"/>
<path d="M165.255 44.5842V38.6131H156.217V5.67032C154.682 5.10345 153.059 4.81431 151.423 4.81642H150.246V38.6131H118.898V13.8687H112.927V38.6131H86.6537V4.81645H83.298C82.4202 4.81508 81.5444 4.89806 80.6825 5.06425V38.6131H69.4658V44.5842H80.6825V58.3956L69.466 64.8712V71.7679L80.6825 65.2922V106.385H69.4658V112.357H80.6825V171.769H69.4658V177.74H80.6825V207.536C81.5444 207.702 82.4202 207.785 83.298 207.784H86.6537V177.74H112.927V207.784H118.898V177.74H150.246V207.784H151.423C153.059 207.786 154.682 207.497 156.217 206.93V177.74H165.255V171.769H156.217V145.795H165.174V139.824H156.217V112.357H165.255V106.385H156.217V69.9615H165.255V63.9904H156.217V44.5842L165.255 44.5842ZM104.606 44.5842L104.606 44.5843L86.6538 54.9501L86.6537 54.9502V44.5842H104.606ZM86.6537 61.8439L86.6538 61.8438L112.927 46.6742V106.385H86.6537V61.8439ZM86.6537 171.769V112.357H112.927V171.769H86.6537ZM150.246 171.769H118.898V145.795H150.246V171.769ZM150.246 139.824H118.898V112.357H150.246V139.824ZM150.246 106.385H118.898V69.9615H150.246V106.385ZM150.246 63.9904H118.898V44.5842H150.246V63.9904Z" fill="#D6D4D4"/>
<path d="M113.861 81.973C113.861 88.5144 108.558 93.8172 102.017 93.8172C95.4756 93.8172 90.1729 88.5144 90.1729 81.973C90.1729 75.4317 95.4756 70.1289 102.017 70.1289C108.558 70.1289 113.861 75.4317 113.861 81.973Z" fill="#1E2D3D"/>
<path d="M102.018 91.9206C107.526 91.9206 111.992 87.4612 111.992 81.9603C111.992 76.4594 107.526 72 102.018 72C96.5095 72 92.0439 76.4594 92.0439 81.9603C92.0439 87.4612 96.5095 91.9206 102.018 91.9206Z" fill="#F4F5F7"/>
<path d="M102.049 91.9502C103.998 91.9534 105.905 91.3836 107.531 90.3118C107.164 88.3064 105.765 88.1914 105.765 88.1914H98.0534C98.0534 88.1914 96.7345 88.2994 96.3213 90.145C97.998 91.3228 99.9987 91.9534 102.049 91.9502Z" fill="#B85954"/>
<path d="M101.942 86.1554C104.384 86.1554 106.364 84.1785 106.364 81.7398C106.364 79.3011 104.384 77.3242 101.942 77.3242C99.5001 77.3242 97.5205 79.3011 97.5205 81.7398C97.5205 84.1785 99.5001 86.1554 101.942 86.1554Z" fill="#AB7358"/>
<path d="M100.685 85.6309H103.181C103.26 85.6309 103.334 85.6618 103.39 85.717C103.445 85.7722 103.476 85.847 103.476 85.925V88.0955C103.476 88.5039 103.313 88.8956 103.024 89.1845C102.735 89.4733 102.343 89.6355 101.934 89.6355C101.525 89.6355 101.133 89.4733 100.843 89.1845C100.554 88.8956 100.392 88.5039 100.392 88.0955V85.925C100.392 85.8471 100.423 85.7725 100.478 85.7173C100.533 85.6622 100.607 85.6311 100.685 85.6309Z" fill="#E3B5A5"/>
<path d="M101.942 87.1144C104.384 87.1144 106.364 85.1374 106.364 82.6988C106.364 80.2601 104.384 78.2832 101.942 78.2832C99.5001 78.2832 97.5205 80.2601 97.5205 82.6988C97.5205 85.1374 99.5001 87.1144 101.942 87.1144Z" fill="#E3B5A5"/>
<path d="M99.2612 80.8806C99.313 80.6901 99.3781 80.4802 99.5495 80.381C99.6849 80.302 99.8529 80.3143 100.009 80.3222C101.232 80.3889 102.443 80.1106 103.632 79.82C104.311 79.654 105.039 79.4521 105.478 78.9051C105.918 78.3581 105.345 76.6389 104.675 76.4361C104.236 76.3017 103.726 76.552 103.309 76.3553C103.124 76.2675 102.987 76.1033 102.827 75.9751C102.499 75.7117 102.078 75.6055 101.67 75.5054C101.194 75.3877 100.678 75.2727 100.226 75.4615C99.874 75.6072 99.6172 75.9154 99.284 76.098C98.6501 76.4492 97.8772 76.2859 97.151 76.2842C96.9057 76.2842 96.6129 76.3333 96.5153 76.5581C96.4494 76.7109 96.5021 76.8847 96.5092 77.0507C96.5303 77.5775 96.095 77.9875 95.7302 78.3677C95.3653 78.7479 95.251 79.0699 95.251 79.7629C95.251 80.1236 95.2714 80.2572 95.5912 80.8806C95.9111 81.504 95.7549 81.9751 95.5912 82.4064C95.4276 82.8377 95.251 83.943 95.7302 84.5137C96.3505 85.2525 97.528 85.6736 98.1532 84.9527C98.4556 84.6015 98.1993 83.9869 98.5049 82.8454C98.7516 81.9235 99.0853 81.5292 99.2612 80.8806Z" fill="#AB7358"/>
<path fill-rule="evenodd" clip-rule="evenodd" d="M126.251 54.4796C126.251 54.4796 135.207 43.46 135.207 38.5133C135.207 36.1379 134.264 33.8597 132.584 32.18C130.904 30.5003 128.626 29.5566 126.251 29.5566C123.875 29.5566 121.597 30.5003 119.917 32.18C118.238 33.8597 117.294 36.1379 117.294 38.5133C117.294 43.46 126.251 54.4796 126.251 54.4796ZM130.343 40.5771C130.885 39.767 131.174 38.8146 131.174 37.8402V37.8357C131.173 37.1891 131.046 36.5489 130.798 35.9516C130.55 35.3543 130.187 34.8117 129.73 34.3546C129.272 33.8976 128.729 33.5352 128.132 33.288C127.534 33.0408 126.894 32.9138 126.247 32.9141C125.273 32.9141 124.321 33.203 123.511 33.7443C122.701 34.2856 122.069 35.0549 121.696 35.9551C121.323 36.8552 121.226 37.8457 121.416 38.8013C121.606 39.7569 122.075 40.6346 122.764 41.3236C123.453 42.0125 124.331 42.4817 125.286 42.6718C126.242 42.8618 127.233 42.7643 128.133 42.3914C129.033 42.0186 129.802 41.3872 130.343 40.5771Z" fill="#79AB68"/>
<path fill-rule="evenodd" clip-rule="evenodd" d="M144.161 182.562C144.161 182.562 153.117 171.542 153.117 166.595C153.117 164.22 152.174 161.942 150.494 160.262C148.814 158.582 146.536 157.639 144.161 157.639C141.785 157.639 139.507 158.582 137.827 160.262C136.148 161.942 135.204 164.22 135.204 166.595C135.204 171.542 144.161 182.562 144.161 182.562ZM148.261 168.663C148.803 167.853 149.092 166.9 149.092 165.926V165.922C149.091 165.275 148.964 164.635 148.716 164.038C148.468 163.44 148.105 162.898 147.648 162.441C147.19 161.984 146.647 161.621 146.05 161.374C145.452 161.127 144.812 161 144.165 161C143.191 161 142.239 161.289 141.429 161.83C140.618 162.372 139.987 163.141 139.614 164.041C139.241 164.941 139.144 165.932 139.334 166.887C139.524 167.843 139.993 168.721 140.682 169.41C141.371 170.098 142.249 170.568 143.204 170.758C144.16 170.948 145.15 170.85 146.051 170.477C146.951 170.105 147.72 169.473 148.261 168.663Z" fill="#79AB68"/>
<path fill-rule="evenodd" clip-rule="evenodd" d="M89.528 153.001C89.528 153.001 98.4847 141.981 98.4847 137.035C98.4847 134.659 97.541 132.381 95.8613 130.701C94.1816 129.022 91.9035 128.078 89.528 128.078C87.1525 128.078 84.8744 129.022 83.1946 130.701C81.5149 132.381 80.5713 134.659 80.5713 137.035C80.5713 141.981 89.528 153.001 89.528 153.001ZM93.6208 139.102C94.1621 138.292 94.451 137.34 94.451 136.366V136.361C94.4507 135.714 94.323 135.074 94.0753 134.477C93.8276 133.88 93.4647 133.337 93.0072 132.88C92.5498 132.423 92.0068 132.061 91.4093 131.813C90.8118 131.566 90.1714 131.439 89.5248 131.439C88.5505 131.439 87.5981 131.728 86.788 132.27C85.9779 132.811 85.3465 133.58 84.9736 134.48C84.6008 135.381 84.5032 136.371 84.6933 137.327C84.8834 138.282 85.3525 139.16 86.0415 139.849C86.7304 140.538 87.6082 141.007 88.5638 141.197C89.5194 141.387 90.5098 141.29 91.41 140.917C92.3101 140.544 93.0795 139.913 93.6208 139.102Z" fill="#79AB68"/>
<path fill-rule="evenodd" clip-rule="evenodd" d="M9.23881 167.977C8.3704 170.106 7.69905 172.31 7.2332 174.562L7.23255 174.565C6.29594 179.342 6.9341 184.294 9.05119 188.677C11.4742 193.767 11.6734 199.796 11.2559 204.579C11.0475 206.966 10.6864 209.033 10.3774 210.502C10.223 211.237 10.0816 211.822 9.97915 212.222C9.92791 212.423 9.88638 212.577 9.85778 212.68C9.84348 212.732 9.83241 212.772 9.82498 212.798L9.81661 212.827L9.81456 212.834L9.81409 212.835L9.81399 212.836C9.81398 212.836 9.81398 212.836 9.87325 212.853L10.113 212.924C10.412 213.012 10.412 213.012 10.4121 213.011L10.4129 213.009L10.4153 213L10.4244 212.969C10.4324 212.941 10.4439 212.9 10.4587 212.846C10.4883 212.739 10.5308 212.581 10.5831 212.377C10.6876 211.969 10.831 211.375 10.9875 210.631C11.3003 209.142 11.6659 207.05 11.8769 204.633C12.2983 199.807 12.1072 193.646 9.61365 188.408L9.61289 188.407C7.55441 184.145 6.93372 179.331 7.84398 174.687C8.30209 172.473 8.9622 170.305 9.81603 168.212L9.23881 167.977Z" fill="#1E2D3D"/>
<path d="M6.46581 161.567C6.46581 163.289 9.58886 168.28 9.58886 168.28C9.58886 168.28 12.7119 163.289 12.7119 161.567C12.6595 160.776 12.3084 160.035 11.7298 159.493C11.1511 158.952 10.3882 158.65 9.59569 158.65C8.80314 158.65 8.04024 158.952 7.4616 159.493C6.88296 160.035 6.53187 160.776 6.47948 161.567H6.46581Z" fill="#8AB5A6"/>
<path d="M1.31543 171.097C2.25039 172.541 7.5791 175.038 7.5791 175.038C7.5791 175.038 7.4815 169.155 6.54654 167.71C6.07282 167.074 5.37501 166.643 4.59463 166.502C3.81425 166.362 3.00973 166.524 2.34426 166.955C1.67879 167.386 1.20219 168.054 1.01113 168.824C0.820074 169.593 0.928861 170.407 1.31543 171.099V171.097Z" fill="#8AB5A6"/>
<path d="M1.53879 187.393C3.07494 188.174 8.93457 187.634 8.93457 187.634C8.93457 187.634 5.88178 182.603 4.34368 181.829C3.61389 181.519 2.79355 181.498 2.04904 181.771C1.30452 182.043 0.691577 182.589 0.334517 183.297C-0.0225449 184.005 -0.096983 184.822 0.126292 185.583C0.349567 186.343 0.853839 186.991 1.53684 187.393H1.53879Z" fill="#8AB5A6"/>
<path d="M4.48597 199.679C5.86987 200.702 11.7354 201.165 11.7354 201.165C11.7354 201.165 9.57654 195.699 8.19264 194.667C7.52575 194.235 6.71953 194.074 5.93804 194.216C5.15655 194.358 4.45852 194.793 3.98598 195.431C3.51344 196.07 3.3019 196.864 3.39443 197.653C3.48695 198.442 3.87657 199.166 4.48401 199.677L4.48597 199.679Z" fill="#8AB5A6"/>
<path d="M14.1202 175.371C12.8866 176.57 7.13436 177.813 7.13436 177.813C7.13436 177.813 8.54363 172.1 9.77724 170.902C10.381 170.388 11.1572 170.124 11.9486 170.162C12.7401 170.2 13.4876 170.537 14.0397 171.105C14.5918 171.673 14.9073 172.43 14.9223 173.222C14.9372 174.015 14.6505 174.783 14.1202 175.371Z" fill="#8AB5A6"/>
<path d="M17.3819 189.789C15.8457 190.569 9.98608 190.029 9.98608 190.029C9.98608 190.029 13.0389 184.999 14.577 184.224C14.9451 184.007 15.3539 183.868 15.778 183.815C16.2021 183.762 16.6325 183.797 17.0426 183.917C17.4526 184.038 17.8336 184.241 18.162 184.515C18.4903 184.788 18.7591 185.126 18.9515 185.508C19.144 185.889 19.2561 186.306 19.2809 186.733C19.3057 187.159 19.2426 187.587 19.0957 187.988C18.9487 188.389 18.721 188.756 18.4265 189.066C18.1321 189.376 17.7772 189.622 17.3838 189.789H17.3819Z" fill="#8AB5A6"/>
<path d="M18.6349 204.232C17.251 205.254 11.3855 205.717 11.3855 205.717C11.3855 205.717 13.5443 200.252 14.9282 199.219C15.2545 198.944 15.6337 198.739 16.0423 198.616C16.451 198.494 16.8805 198.456 17.3042 198.506C17.728 198.555 18.1371 198.691 18.5062 198.905C18.8754 199.119 19.1968 199.406 19.4507 199.749C19.7045 200.092 19.8854 200.484 19.9821 200.899C20.0789 201.315 20.0895 201.746 20.0132 202.166C19.9369 202.585 19.7755 202.985 19.5387 203.34C19.302 203.695 18.9951 203.998 18.6368 204.23L18.6349 204.232Z" fill="#8AB5A6"/>
<path opacity="0.25" d="M6.46581 161.567C6.46581 163.289 9.58886 168.28 9.58886 168.28C9.58886 168.28 12.7119 163.289 12.7119 161.567C12.6595 160.776 12.3084 160.035 11.7298 159.493C11.1511 158.952 10.3882 158.65 9.59569 158.65C8.80314 158.65 8.04024 158.952 7.4616 159.493C6.88296 160.035 6.53187 160.776 6.47948 161.567H6.46581Z" fill="#1E2D3D"/>
<path opacity="0.25" d="M1.31543 171.097C2.25039 172.541 7.5791 175.038 7.5791 175.038C7.5791 175.038 7.4815 169.155 6.54654 167.71C6.07282 167.074 5.37501 166.643 4.59463 166.502C3.81425 166.362 3.00973 166.524 2.34426 166.955C1.67879 167.386 1.20219 168.054 1.01113 168.824C0.820074 169.593 0.928861 170.407 1.31543 171.099V171.097Z" fill="#1E2D3D"/>
<path opacity="0.25" d="M1.53879 187.393C3.07494 188.174 8.93457 187.634 8.93457 187.634C8.93457 187.634 5.88178 182.603 4.34368 181.829C3.61389 181.519 2.79355 181.498 2.04904 181.771C1.30452 182.043 0.691577 182.589 0.334517 183.297C-0.0225449 184.005 -0.096983 184.822 0.126292 185.583C0.349567 186.343 0.853839 186.991 1.53684 187.393H1.53879Z" fill="#1E2D3D"/>
<path opacity="0.25" d="M4.48597 199.679C5.86987 200.702 11.7354 201.165 11.7354 201.165C11.7354 201.165 9.57654 195.699 8.19264 194.667C7.52575 194.235 6.71953 194.074 5.93804 194.216C5.15655 194.358 4.45852 194.793 3.98598 195.431C3.51344 196.07 3.3019 196.864 3.39443 197.653C3.48695 198.442 3.87657 199.166 4.48401 199.677L4.48597 199.679Z" fill="#1E2D3D"/>
<path opacity="0.25" d="M14.1202 175.371C12.8866 176.57 7.13436 177.813 7.13436 177.813C7.13436 177.813 8.54363 172.1 9.77724 170.902C10.381 170.388 11.1572 170.124 11.9486 170.162C12.7401 170.2 13.4876 170.537 14.0397 171.105C14.5918 171.673 14.9073 172.43 14.9223 173.222C14.9372 174.015 14.6505 174.783 14.1202 175.371Z" fill="#1E2D3D"/>
<path opacity="0.25" d="M17.3819 189.789C15.8457 190.569 9.98608 190.029 9.98608 190.029C9.98608 190.029 13.0389 184.999 14.577 184.224C14.9451 184.007 15.3539 183.868 15.778 183.815C16.2021 183.762 16.6325 183.797 17.0426 183.917C17.4526 184.038 17.8336 184.241 18.162 184.515C18.4903 184.788 18.7591 185.126 18.9515 185.508C19.144 185.889 19.2561 186.306 19.2809 186.733C19.3057 187.159 19.2426 187.587 19.0957 187.988C18.9487 188.389 18.721 188.756 18.4265 189.066C18.1321 189.376 17.7772 189.622 17.3838 189.789H17.3819Z" fill="#1E2D3D"/>
<path opacity="0.25" d="M18.6349 204.232C17.251 205.254 11.3855 205.717 11.3855 205.717C11.3855 205.717 13.5443 200.252 14.9282 199.219C15.2545 198.944 15.6337 198.739 16.0423 198.616C16.451 198.494 16.8805 198.456 17.3042 198.506C17.728 198.555 18.1371 198.691 18.5062 198.905C18.8754 199.119 19.1968 199.406 19.4507 199.749C19.7045 200.092 19.8854 200.484 19.9821 200.899C20.0789 201.315 20.0895 201.746 20.0132 202.166C19.9369 202.585 19.7755 202.985 19.5387 203.34C19.302 203.695 18.9951 203.998 18.6368 204.23L18.6349 204.232Z" fill="#1E2D3D"/>
</svg>
