<svg width="243" height="177" viewBox="0 0 243 177" fill="none" xmlns="http://www.w3.org/2000/svg">
    <path opacity="0.5" fill-rule="evenodd" clip-rule="evenodd" d="M131.116 0.032318C149.882 -0.482835 168.156 5.19489 183.335 14.6178C198.504 24.0341 206.565 38.4794 215.623 52.4909C227.075 70.2068 243.486 86.6752 242.989 106.9C242.404 130.715 236.047 158.575 212.696 171.65C189.384 184.702 159.003 169.802 131.116 169.536C103.691 169.274 74.7227 181.623 50.853 170.105C26.3152 158.265 15.3831 133.224 7.85109 110.056C0.579478 87.6895 -5.99273 61.3694 9.25039 42.14C24.1087 23.3961 56.6942 25.9157 81.2844 17.4192C98.3354 11.5277 112.728 0.537095 131.116 0.032318Z" fill="#FCF8F7"/>
    <path d="M193.011 65.0868H192.024C191.83 65.0868 191.672 65.2445 191.672 65.4391V78.6744C191.672 78.869 191.83 79.0267 192.024 79.0267H193.011C193.206 79.0267 193.363 78.869 193.363 78.6744V65.4391C193.363 65.2445 193.206 65.0868 193.011 65.0868Z" fill="#352B28"/>
    <path d="M186.586 39H141.999C138.686 39 136 41.6858 136 44.9988V148.001C136 151.314 138.686 154 141.999 154H186.586C189.899 154 192.585 151.314 192.585 148.001V44.9988C192.585 41.6858 189.899 39 186.586 39Z" fill="#352B28"/>
    <path d="M184.685 42.0602H178.194V42.841C178.194 43.327 178.098 43.8083 177.912 44.2573C177.726 44.7063 177.453 45.1142 177.109 45.4578C176.766 45.8014 176.357 46.0739 175.908 46.2597C175.459 46.4455 174.978 46.541 174.492 46.5408H153.849C153.363 46.541 152.882 46.4455 152.433 46.2597C151.984 46.0739 151.576 45.8014 151.232 45.4578C150.888 45.1142 150.615 44.7063 150.429 44.2573C150.243 43.8083 150.147 43.327 150.147 42.841V42.0602H144.07C142.878 42.0602 141.735 42.5336 140.892 43.3764C140.05 44.2192 139.576 45.3623 139.576 46.5541V146.583C139.576 147.775 140.05 148.918 140.892 149.761C141.735 150.604 142.878 151.077 144.07 151.077H184.685C185.876 151.077 187.019 150.604 187.862 149.761C188.705 148.918 189.178 147.775 189.178 146.583V46.5618C189.179 45.971 189.064 45.3858 188.839 44.8397C188.613 44.2936 188.282 43.7973 187.865 43.3791C187.448 42.961 186.952 42.6293 186.406 42.403C185.86 42.1767 185.275 42.0602 184.685 42.0602Z" fill="#D6D4D4"/>
    <path d="M166.141 42.4335H159.43C159.101 42.4335 158.834 42.7001 158.834 43.0289V43.4417C158.834 43.7705 159.101 44.0371 159.43 44.0371H166.141C166.469 44.0371 166.736 43.7705 166.736 43.4417V43.0289C166.736 42.7001 166.469 42.4335 166.141 42.4335Z" fill="#D6D4D4"/>
    <path d="M168.84 44.1464C169.343 44.1464 169.751 43.7387 169.751 43.2357C169.751 42.7328 169.343 42.3251 168.84 42.3251C168.337 42.3251 167.929 42.7328 167.929 43.2357C167.929 43.7387 168.337 44.1464 168.84 44.1464Z" fill="#D6D4D4"/>
    <path d="M113.734 143.718C113.734 143.718 121.716 141.03 120.064 131.506L109.924 128.873L107.57 136.688L113.734 143.718Z" fill="#95AB9D"/>
    <path opacity="0.1" d="M107.57 136.687L113.732 143.717C113.732 143.717 121.715 141.029 120.062 131.505L107.57 136.687Z" fill="#352B28"/>
    <path d="M74.0288 66.3258C74.0288 66.3258 75.1059 68.0783 76.5783 67.2028C78.0508 66.3274 76.6383 63.9086 76.6383 63.9086C76.6383 63.9086 73.818 63.5225 74.0288 66.3258Z" fill="#FFC775"/>
    <path opacity="0.1" d="M76.5784 67.2029C76.4047 67.3153 76.2099 67.391 76.0059 67.4254C75.8019 67.4598 75.593 67.4521 75.3921 67.4029C74.852 67.266 74.4366 66.8506 74.2135 66.5782C74.147 66.4984 74.0853 66.4147 74.0289 66.3274C73.9535 65.3273 74.2643 64.7319 74.6951 64.3811C75.2875 63.8995 76.1076 63.8795 76.4614 63.8949C76.5707 63.8949 76.6338 63.9103 76.6338 63.9103L76.663 63.9595C76.7045 64.038 76.7953 64.2118 76.8923 64.4442C77.2215 65.2058 77.6139 66.5859 76.5784 67.2029Z" fill="#352B28"/>
    <path d="M114.519 131.057L120.058 131.504L130.367 131.589L122.244 141.59C122.244 141.59 119.667 141.73 119.136 142.093C118.605 142.456 111.152 142.262 111.152 142.262L109.949 137.136L114.519 131.057Z" fill="#E3B5A5"/>
    <path opacity="0.05" d="M114.519 131.057L120.058 131.504L130.367 131.589L122.244 141.59C122.244 141.59 119.667 141.73 119.136 142.093C118.605 142.456 111.152 142.262 111.152 142.262L109.949 137.136L114.519 131.057Z" fill="#352B28"/>
    <path d="M108.917 104.168L110.204 106.353L110.484 110.163C110.484 110.163 111.381 113.411 112.054 114.363C112.726 115.315 113.006 117.837 113.006 117.837C113.006 117.837 113.286 120.19 113.622 120.693C113.957 121.196 114.406 124.847 114.406 124.847C114.406 124.847 117.376 130.785 120.064 131.512C120.064 131.512 106.732 135.882 113.734 143.724C113.734 143.724 108.749 144.955 107.572 143.557C106.395 142.158 103.314 121.43 103.314 121.43L104.267 103.951L108.917 104.168Z" fill="#95AB9D"/>
    <path opacity="0.05" d="M108.917 104.168L110.204 106.353L110.484 110.163C110.484 110.163 111.381 113.411 112.054 114.363C112.726 115.315 113.006 117.837 113.006 117.837C113.006 117.837 113.286 120.19 113.622 120.693C113.957 121.196 114.406 124.847 114.406 124.847C114.406 124.847 117.376 130.785 120.064 131.512C120.064 131.512 106.732 135.882 113.734 143.724C113.734 143.724 108.749 144.955 107.572 143.557C106.395 142.158 103.314 121.43 103.314 121.43L104.267 103.951L108.917 104.168Z" fill="#352B28"/>
    <path d="M92.7414 82.8746C92.3673 84.8154 92.4783 86.8185 93.0646 88.706L90.9905 94.6435C90.9905 94.6435 75.1935 85.8488 76.5383 83.7193C77.2999 82.5115 77.3968 79.3158 77.3353 76.7771C77.2906 74.8477 77.1537 73.2998 77.1537 73.2998C77.1537 73.2998 96.5403 75.2062 93.96 79.6312C93.3761 80.637 92.9643 81.7332 92.7414 82.8746Z" fill="#E3B5A5"/>
    <path opacity="0.1" d="M93.9597 79.6312C93.3757 80.637 92.9639 81.7332 92.7411 82.8746C89.864 83.795 86.757 83.6905 83.9484 82.5789C81.1397 81.4672 78.8027 79.4171 77.3349 76.7771C77.2903 74.8477 77.1533 73.2998 77.1533 73.2998C77.1533 73.2998 96.5353 75.2061 93.9597 79.6312Z" fill="#352B28"/>
    <path d="M101.803 70.1085C101.804 72.1623 101.321 74.1875 100.392 76.0194C99.4632 77.8513 98.1153 79.4382 96.4579 80.6512C94.8005 81.8641 92.8802 82.6688 90.8532 82.9999C88.8262 83.331 86.7497 83.1791 84.7924 82.5566C82.8352 81.934 81.0525 80.8585 79.5892 79.4173C78.1258 77.9761 77.0233 76.2099 76.371 74.2624C75.7188 72.3148 75.5353 70.2409 75.8355 68.2091C76.1357 66.1773 76.9111 64.245 78.0986 62.5693C78.2833 62.3097 78.4776 62.0564 78.6818 61.8092C79.8449 60.3955 81.2922 59.2423 82.9299 58.4242C83.8184 57.9797 84.7555 57.64 85.7225 57.4118C87.4684 56.9982 89.2808 56.9483 91.0469 57.2651C92.813 57.582 94.4949 58.2588 95.9882 59.2536C97.4815 60.2484 98.754 61.5398 99.7268 63.0475C100.7 64.5552 101.352 66.247 101.643 68.0175C101.751 68.7092 101.805 69.4083 101.803 70.1085Z" fill="#E3B5A5"/>
    <path d="M106.955 123.776C106.759 124.819 107.004 126.726 107.375 128.666C107.39 128.751 107.407 128.835 107.424 128.92C107.441 129.004 107.466 129.135 107.487 129.241C107.658 130.075 107.844 130.902 108.026 131.652C108.207 132.403 108.37 133.046 108.509 133.576C108.718 134.368 108.861 134.867 108.861 134.867C108.861 134.867 108.88 135.356 108.904 136.134C108.918 136.584 108.934 137.131 108.949 137.736C108.949 137.912 108.96 138.09 108.964 138.275C108.972 138.596 108.98 138.93 108.987 139.272C108.987 139.382 108.987 139.493 108.995 139.606C108.995 139.973 109.009 140.349 109.015 140.723C109.023 141.236 109.029 141.75 109.032 142.249C109.032 142.44 109.032 142.627 109.032 142.812C109.032 143.289 109.032 143.746 109.032 144.166C109.015 145.358 108.555 145.387 108.357 145.539C107.982 145.827 107.982 145.827 107.982 145.827C107.706 145.827 107.982 145.827 106.965 145.827C105.948 145.827 105.773 145.606 104.931 145.318C104.463 145.159 104.931 145.318 104.062 144.901C103.999 144.865 103.936 144.828 103.871 144.792C103.699 144.692 103.524 144.598 103.345 144.509C102.978 144.324 102.601 144.157 102.216 144.011C100.439 143.334 99.8446 142.775 97.8101 143.284C96.9836 143.502 95.267 144.011 95.267 144.011L94.4246 144.166L93.7412 144.301C92.6811 144.624 91.6441 144.76 91.1071 144.951C90.2393 145.258 82.7047 146.826 82.7047 146.826C82.0164 147.014 81.3132 147.143 80.603 147.211C79.3097 147.575 77.9932 147.85 76.6626 148.036C73.6388 148.422 70.5677 148.175 67.6447 147.309C67.5575 147.315 67.47 147.312 67.3832 147.302C67.437 147.302 67.4893 147.289 67.537 147.28L67.3493 147.225L67.0924 147.145C66.6616 147.009 66.2343 146.861 65.8107 146.7L65.5538 146.602C65.1435 146.444 64.7419 146.274 64.349 146.092L64.0921 145.975C63.6818 145.785 63.2802 145.583 62.8873 145.371C62.7458 145.297 62.6058 145.217 62.4673 145.141C62.0488 144.908 61.6385 144.662 61.2364 144.406C61.1687 143.826 61.1333 143.438 61.1333 143.438L60.5332 140.45L60.5025 140.296L60.0717 138.142L60.0409 137.988L59.1039 133.302L59.0731 133.148L58.6423 130.994L58.6115 130.84L57.6622 126.156L57.6314 126.003L57.2006 123.849L57.1698 123.695L56.2282 119.002L56.1974 118.848L55.7666 116.702L55.7358 116.548L55.5651 115.702L55.3081 114.42C55.3081 114.42 54.488 113.247 53.5649 111.861L53.4618 111.707C53.1987 111.318 52.9279 110.913 52.6648 110.516C52.5771 110.386 52.4924 110.256 52.4078 110.129C52.2796 109.935 52.1555 109.746 52.0355 109.561L51.9524 109.433L51.9355 109.407C50.6092 107.355 51.4969 106.462 51.4969 106.462C51.4969 106.462 52.0539 105.708 52.7725 104.711C52.8079 104.66 52.8448 104.61 52.8832 104.557C53.191 104.127 53.5295 103.656 53.8618 103.185L54.1188 102.819C54.2157 102.682 54.3111 102.545 54.4034 102.409C54.4403 102.359 54.4757 102.306 54.5096 102.256C55.2189 101.231 55.8035 100.337 55.9236 100.02C56.1113 99.52 57.3083 98.0413 58.5007 96.7443C59.4408 95.7196 60.3763 94.8087 60.7964 94.5902C61.7488 94.0871 62.1411 92.4608 62.1411 92.4608C62.1411 92.4608 64.2136 91.7346 64.4936 91.1745C64.7737 90.6144 68.6956 88.0973 68.6956 88.0973C68.6956 88.0973 70.2819 87.0756 70.9235 86.4602C71.0144 86.3797 71.0936 86.287 71.1589 86.1848C71.382 85.7847 72.8391 85.4555 73.4315 85.337C73.5853 85.3062 73.6807 85.2893 73.6807 85.2893C73.9199 84.8547 74.2222 84.4581 74.5777 84.1122C74.8193 83.8984 75.1209 83.1614 75.3748 82.4475C75.6502 81.6689 75.864 80.9196 75.864 80.9196C76.3133 79.4072 77.2088 79.8549 77.2088 79.8549C77.2076 80.0615 77.2272 80.2677 77.2673 80.4703C77.6411 82.3167 79.6721 83.086 80.7384 83.9491C81.9154 84.9 83.7633 87.3664 85.2204 87.8695C86.4266 88.2865 87.8252 89.859 88.2684 90.3836L88.3022 90.4236C88.3761 90.5098 88.413 90.559 88.413 90.559C88.413 90.559 89.2392 90.516 89.7424 90.5067H89.9255C90.0278 90.4965 90.125 90.4569 90.2055 90.3929C90.7055 90.0528 91.4502 89.0558 91.7749 88.8266C92.1657 88.545 92.5596 84.0076 92.5596 84.0076L92.5796 83.9984C93.9751 83.3445 95.4722 89.8897 95.4722 89.8897C95.4722 89.8897 98.1047 90.6744 98.3294 91.2345C98.3725 91.3453 98.5709 91.5422 98.8694 91.7807C100.229 92.8194 101.675 93.7383 103.193 94.5271C103.227 94.5441 103.259 94.561 103.293 94.5748C103.323 94.5913 103.355 94.6062 103.387 94.6195C103.444 94.6472 103.499 94.6718 103.551 94.6948C103.635 94.7318 103.711 94.7625 103.782 94.7872L103.875 94.8195C104.095 94.8928 104.303 95.0003 104.49 95.138C104.545 95.178 104.601 95.2195 104.655 95.2641C104.864 95.4385 105.057 95.6322 105.23 95.8427C105.256 95.8734 105.281 95.9057 105.305 95.9365C105.422 96.0827 105.527 96.2273 105.613 96.3612C105.755 96.5677 105.884 96.7824 105.999 97.0043C105.999 97.0043 108.295 100.926 109.024 101.372C109.754 101.819 110.201 106.359 110.201 106.359L107.74 115.485C107.74 115.485 107.624 117.793 107.409 120.147C107.289 121.467 107.136 122.81 106.955 123.776Z" fill="#95AB9D"/>
    <path d="M88.4133 90.836C88.4133 90.836 86.7624 91.7315 85.473 91.8161C85.3043 91.824 85.1351 91.8142 84.9684 91.7869C83.6175 91.5822 81.6357 90.4714 81.6357 90.4714L83.9606 87.9219L86.7886 89.3236L87.8287 90.2913L88.4133 90.836Z" fill="#352B28"/>
    <path opacity="0.1" d="M101.636 68.0174C101.577 68.1001 101.511 68.1769 101.437 68.2466C100.628 69.0159 99.191 68.6974 98.0878 68.5189C97.1292 68.3622 96.1927 68.0916 95.2983 67.7127C94.5197 67.3804 93.5858 66.9742 92.8857 67.4511C92.6165 67.6327 92.4318 67.9235 92.1518 68.0835C91.8718 68.2435 91.5148 68.2543 91.184 68.2589C90.107 68.2589 89.03 68.2712 87.9791 68.0281C86.4112 67.6619 84.7895 66.7403 83.2986 67.3481C82.1323 67.8219 81.5 69.0913 81.1846 70.3114C81.0307 70.91 80.9168 71.5423 80.5691 72.0501C80.2214 72.5578 79.549 72.9178 78.9766 72.6794C78.1319 72.327 78.0073 70.893 76.9887 70.8207C75.8702 70.7422 75.884 71.8977 76.2102 72.7332C76.6933 73.9641 77.3257 75.195 77.3534 76.4782C76.1512 74.325 75.5832 71.8755 75.715 69.413C75.8467 66.9504 76.673 64.5755 78.0981 62.563C78.3461 62.4094 78.5402 62.1825 78.6535 61.9137C78.6649 61.8773 78.6742 61.8403 78.6812 61.8029C78.7658 61.3736 78.5274 60.9228 78.5135 60.4735C78.4597 59.3765 79.6475 58.6118 80.7368 58.4733C81.4615 58.381 82.2031 58.4518 82.9293 58.4287C83.2951 58.4206 83.6589 58.3721 84.0141 58.2841C84.6267 58.1005 85.2004 57.8058 85.7065 57.4147C87.4525 57.0011 89.2649 56.9512 91.0309 57.268C92.797 57.5849 94.479 58.2618 95.9723 59.2566C97.4655 60.2513 98.7381 61.5428 99.7109 63.0505C100.684 64.5582 101.336 66.2499 101.627 68.0204L101.636 68.0174Z" fill="#352B28"/>
    <path d="M101.899 67.1111C101.823 67.4154 101.663 67.6925 101.438 67.9112C100.628 68.6805 99.1913 68.3605 98.0881 68.182C97.1295 68.0287 96.1928 67.76 95.2986 67.3819C94.5201 67.0511 93.5861 66.6449 92.8861 67.1219C92.6168 67.3034 92.4322 67.5942 92.1522 67.7542C91.8721 67.9143 91.5152 67.925 91.1844 67.9281C90.1073 67.9358 89.0303 67.942 87.9794 67.6989C86.4116 67.3311 84.7899 66.411 83.2989 67.0173C82.1327 67.4911 81.5003 68.762 81.1849 69.9822C81.031 70.5807 80.9172 71.2131 80.5694 71.7193C80.2217 72.2255 79.5493 72.5886 78.977 72.3501C78.1323 71.9978 78.0076 70.5638 76.9891 70.4914C75.8705 70.413 75.8843 71.5685 76.2105 72.4039C76.7829 73.861 77.5614 75.3104 77.306 76.8552C77.0522 76.8552 76.6321 76.8459 76.3829 76.8398C76.5767 76.509 76.2074 76.1151 75.8397 76.0028C75.472 75.8905 75.0427 75.892 74.7627 75.6243C74.4827 75.3566 74.4811 74.9427 74.5104 74.5719C74.5742 73.7793 74.7681 73.0027 75.0843 72.2732C75.2858 71.8116 75.5458 71.3115 75.392 70.8284C75.2996 70.6094 75.1884 70.3989 75.0596 70.1991C74.7396 69.5837 74.815 68.8144 75.0889 68.1789C75.2058 67.9081 75.2904 67.6527 75.3874 67.4096C75.5098 67.064 75.6869 66.7404 75.912 66.451C76.2644 66.0125 76.609 65.3525 76.2198 64.9447C76.1213 64.8416 76.3182 64.7709 76.2551 64.637C76.244 64.6142 76.2362 64.5898 76.2321 64.5647C76.214 64.4026 76.2532 64.2393 76.3428 64.1031C76.361 64.0677 76.381 64.0333 76.4029 64C76.4205 63.9649 76.4406 63.9309 76.4629 63.8985C76.8036 63.3296 77.2564 62.836 77.7938 62.4476C78.1276 62.206 78.5185 61.9737 78.6508 61.5829C78.8046 61.1213 78.5338 60.6305 78.5108 60.1427C78.4569 59.0457 79.6447 58.281 80.7341 58.1425C81.8234 58.004 82.9528 58.2333 84.0144 57.9517C85.5207 57.5548 86.5793 56.2254 87.9471 55.4792C88.6954 55.0791 89.5252 54.8553 90.3732 54.8249C91.2212 54.7945 92.0649 54.9583 92.8399 55.3038C94.437 56.0331 95.6417 57.5071 97.3096 58.061C97.9004 58.2579 98.5405 58.3364 99.0729 58.6626C99.6883 59.0411 100.062 59.7027 100.382 60.355C100.87 61.3444 100.968 62.3383 101.305 63.3861C101.573 64.217 101.944 65.3032 101.975 66.2603C101.992 66.546 101.967 66.8328 101.899 67.1111Z" fill="#352B28"/>
    <g opacity="0.1">
        <path opacity="0.1" d="M76.4197 65.1823C76.4443 65.0838 76.4467 64.9811 76.4268 64.8815C76.4068 64.782 76.365 64.6882 76.3043 64.6068C76.3443 64.7268 76.1704 64.7961 76.2658 64.8961C76.3418 64.976 76.395 65.0748 76.4197 65.1823Z" fill="#352B28"/>
        <path opacity="0.1" d="M76.2989 64.2544C76.2808 64.3081 76.2699 64.364 76.2666 64.4206C76.2958 64.3713 76.3358 64.3206 76.2989 64.2544Z" fill="#352B28"/>
        <path opacity="0.1" d="M101.48 67.5348C100.669 68.3041 99.2337 67.9856 98.1274 67.8056C97.1694 67.6513 96.2337 67.3811 95.341 67.0009C94.5609 66.6686 93.6285 66.2624 92.9269 66.7393C92.6592 66.9209 92.4745 67.2117 92.193 67.3717C91.9114 67.5317 91.556 67.5425 91.2252 67.5456C90.1481 67.5456 89.0711 67.5594 88.0187 67.3148C86.4524 66.9486 84.8307 66.03 83.3398 66.6347C82.1735 67.1101 81.5411 68.3795 81.2257 69.5996C81.0718 70.1981 80.9595 70.8305 80.6103 71.3383C80.261 71.846 79.5886 72.206 79.0178 71.9691C78.1731 71.6152 78.0485 70.1828 77.0299 70.1104C76.2344 70.0535 76.0129 70.6228 76.0667 71.2552C76.1129 70.772 76.3744 70.3997 77.0299 70.4459C78.0485 70.5182 78.1731 71.9522 79.0178 72.3045C79.5886 72.543 80.2625 72.1845 80.6103 71.6737C80.958 71.1629 81.0718 70.5336 81.2257 69.9366C81.5411 68.7165 82.1735 67.4456 83.3398 66.9717C84.8307 66.3654 86.4524 67.2794 88.0187 67.6517C89.065 67.8964 90.1512 67.8887 91.2252 67.881C91.556 67.881 91.9052 67.8718 92.193 67.7087C92.4807 67.5456 92.6546 67.2578 92.9269 67.0747C93.6285 66.5993 94.5609 67.0055 95.341 67.3363C96.2339 67.7163 97.1695 67.9871 98.1274 68.1426C99.2337 68.321 100.669 68.6426 101.48 67.8702C101.92 67.4502 102.052 66.8424 102.023 66.1777C101.999 66.7055 101.845 67.184 101.48 67.5348Z" fill="#352B28"/>
        <path opacity="0.1" d="M78.5647 59.8633C78.5562 59.9399 78.5531 60.017 78.5555 60.0941C78.5708 60.4141 78.6924 60.7341 78.7309 61.0465C78.7878 60.6634 78.6108 60.2633 78.5647 59.8633Z" fill="#352B28"/>
        <path opacity="0.1" d="M75.4372 70.7799C75.4499 70.8259 75.4596 70.8726 75.4664 70.9199C75.4914 70.7612 75.4814 70.5989 75.4372 70.4444C75.3455 70.2247 75.2342 70.0135 75.1048 69.8136C74.9893 69.586 74.9207 69.3374 74.9033 69.0828C74.872 69.4504 74.9417 69.8196 75.1048 70.1506C75.2345 70.3498 75.3458 70.5604 75.4372 70.7799Z" fill="#352B28"/>
        <path opacity="0.1" d="M77.3472 76.4692L76.4471 76.4554C76.4681 76.5097 76.4765 76.5681 76.4717 76.6262C76.4669 76.6843 76.4491 76.7406 76.4194 76.7908C76.6733 76.7908 77.0949 76.8 77.3426 76.8062C77.3857 76.5428 77.4006 76.2757 77.3872 76.0092C77.3837 76.1632 77.3704 76.3169 77.3472 76.4692Z" fill="#352B28"/>
        <path opacity="0.1" d="M75.8746 75.6183C75.5069 75.5075 75.0791 75.506 74.8053 75.2367C74.6441 75.0604 74.5532 74.831 74.5499 74.592C74.5268 74.9459 74.5499 75.3275 74.8053 75.5737C75.0791 75.8429 75.5069 75.8445 75.8746 75.9553C75.9942 75.9901 76.1055 76.049 76.2016 76.1283C76.2976 76.2077 76.3764 76.3059 76.4331 76.4168C76.5885 76.0983 76.2316 75.7245 75.8746 75.6183Z" fill="#352B28"/>
    </g>
    <path opacity="0.1" d="M103.867 144.794C103.694 144.694 103.519 144.6 103.341 144.511C102.973 144.325 102.596 144.159 102.211 144.012C100.434 143.335 98.5308 143.089 96.6014 143.13C95.8321 143.424 95.332 143.635 95.332 143.635L94.3535 143.93L94.1904 143.98C94.1796 143.872 94.1673 143.764 94.1565 143.655C94.1457 143.546 94.1334 143.441 94.1211 143.333C93.7765 140.07 93.5057 136.717 93.5057 136.717V133.822V133.485L93.4872 124.953L93.3334 122.141L93.261 120.896L93.2472 120.659L93.2195 120.173L93.2041 119.883C93.1702 119.792 93.1414 119.698 93.1179 119.603C93.1072 119.565 93.0964 119.522 93.0872 119.477C93.0487 119.323 93.0072 119.125 92.9641 118.909C92.6825 117.494 92.3302 115.108 92.3086 114.623C92.2809 113.977 91.7209 110.112 91.7209 110.112C91.664 107.984 89.8745 103.977 89.4237 103.222C88.9729 102.466 88.4698 97.9273 88.639 97.6827C88.7267 97.5519 88.7837 96.778 88.8191 96.064C88.8191 95.9825 88.8268 95.9025 88.8298 95.824C88.8529 95.2655 88.8637 94.7993 88.8637 94.7993L90.6238 94.4516L91.0962 94.3593L91.1331 94.3516L91.1485 94.3823C91.1993 94.4762 91.3578 94.7762 91.5439 95.1701C91.5655 95.2117 91.5855 95.2563 91.607 95.3009C91.6163 95.3224 91.627 95.344 91.6378 95.3655C91.9825 96.1194 92.381 97.1118 92.364 97.6827C92.3363 98.692 93.4857 101.129 93.4857 101.129C93.5965 101.689 96.0336 107.262 96.0336 107.262C96.0336 107.262 98.0231 112.724 97.9107 113.621C97.7984 114.518 98.8631 120.456 98.8631 120.456L99.9556 126.563C100.486 127.766 101.186 130.538 101.186 130.538L101.453 132.111L101.503 132.411L102.213 136.607L102.56 138.662C102.56 138.662 102.707 139.755 102.928 140.97C102.947 141.079 102.968 141.19 102.99 141.301C103.126 142.101 103.32 142.89 103.57 143.663C103.694 144.033 103.793 144.411 103.867 144.794Z" fill="#352B28"/>
    <path d="M104.059 144.902C103.996 144.865 103.933 144.828 103.868 144.793C103.696 144.693 103.52 144.599 103.342 144.51C102.974 144.324 102.597 144.158 102.212 144.011C100.435 143.334 98.532 143.088 96.6026 143.13C95.8332 143.423 95.3332 143.634 95.3332 143.634L94.3546 143.93C94.3423 143.822 94.3316 143.714 94.3192 143.605C94.3069 143.496 94.2977 143.408 94.2885 143.31C93.9438 140.054 93.673 136.717 93.673 136.717V133.793V133.456L93.6546 124.946L93.5007 122.26L93.4699 121.703L93.4484 121.326L93.4207 120.827L93.393 120.321L93.373 119.956V119.876C93.373 119.869 93.373 119.859 93.3622 119.85C93.333 119.767 93.2976 119.641 93.2591 119.481L93.2407 119.404C93.233 119.369 93.2238 119.33 93.2161 119.292C92.9268 117.979 92.5021 115.15 92.4791 114.619C92.4514 113.973 91.8913 110.108 91.8913 110.108C91.8344 107.98 90.045 103.973 89.5942 103.218C89.1433 102.462 88.6418 97.9234 88.8095 97.6788C88.9064 97.5249 88.9633 96.591 89.0003 95.8201C89.0003 95.7586 89.0003 95.6986 89.0003 95.6416C89.0203 95.1662 89.028 94.7954 89.028 94.7954L90.665 94.4723L91.0805 94.3907L91.1451 94.3784L91.2989 94.3477C91.2989 94.3477 91.5005 94.72 91.7421 95.2324L91.7728 95.297C92.1252 96.0571 92.5421 97.091 92.5298 97.6788C92.5021 98.6881 93.6515 101.125 93.6515 101.125C93.7623 101.685 96.1994 107.258 96.1994 107.258C96.1994 107.258 98.1889 112.72 98.0765 113.617C97.9642 114.514 99.029 120.452 99.029 120.452L100.121 126.559C100.652 127.762 101.352 130.534 101.352 130.534L101.6 131.999L101.651 132.296L102.209 135.607L102.725 138.658C102.725 138.658 102.879 139.746 103.091 140.966C103.111 141.077 103.131 141.188 103.152 141.3C103.289 142.104 103.483 142.897 103.732 143.673C103.869 144.075 103.978 144.485 104.059 144.902Z" fill="#352B28"/>
    <path d="M102.669 65.8794C102.669 65.8794 102.081 66.6364 101.551 66.6364C101.02 66.6364 98.9533 66.5518 97.8763 66.2163C96.7993 65.8809 91.5188 65.6271 91.5188 65.6271C91.5188 65.6271 84.0411 65.6547 83.7887 65.4024C83.5364 65.1501 79.139 63.8053 78.6913 63.89C78.5975 63.9084 78.3682 63.9484 78.062 63.9992L77.7112 64.0561C77.1804 64.1407 76.5172 64.2392 75.911 64.3115C75.1617 64.3992 74.5032 64.4439 74.2939 64.3669V63.7222C74.2939 63.7222 75.1617 62.4606 75.2171 62.099C75.2725 61.7374 76.0018 56.4954 77.9066 54.6198C78.6935 53.1155 79.967 51.9223 81.5193 51.2348C84.0965 50.1132 86.6737 49.1623 86.6737 49.1623L87.1245 49.0977L88.5785 48.8823C88.6227 48.8383 88.6705 48.7981 88.7216 48.7623C89.1247 48.4546 90.3463 47.7853 91.9388 49.2239L92.2204 49.6731C92.2204 49.6731 97.1209 50.8209 99.3888 54.826C101.657 58.831 101.771 62.7529 101.938 64.5454C101.938 64.5454 101.826 65.0501 102.051 65.2455C102.132 65.3173 102.209 65.3933 102.283 65.4732C102.303 65.4932 102.323 65.5132 102.341 65.5347C102.406 65.5994 102.466 65.6671 102.515 65.7224C102.521 65.7268 102.526 65.732 102.531 65.7378C102.543 65.7524 102.555 65.7663 102.569 65.7794L102.669 65.8794Z" fill="#FFC775"/>
    <path opacity="0.05" d="M102.67 65.88C102.67 65.88 102.082 66.637 101.551 66.637C101.021 66.637 98.9542 66.5524 97.8772 66.217C96.8002 65.8816 91.5196 65.6277 91.5196 65.6277C91.5196 65.6277 84.042 65.6554 83.7896 65.4031C83.5373 65.1507 79.1399 63.806 78.6922 63.8906C78.5983 63.9091 78.3691 63.9491 78.0629 63.9999L77.9829 63.5075L77.9629 63.3859C77.9629 63.3859 86.4499 61.5658 92.1074 62.5197C97.7649 63.4736 101.939 64.5353 101.939 64.5353C101.939 64.5353 101.827 65.04 102.051 65.2354C102.133 65.3072 102.21 65.3832 102.284 65.4631C102.304 65.4831 102.324 65.5031 102.342 65.5246C102.407 65.5892 102.467 65.6569 102.516 65.7123C102.522 65.7167 102.527 65.7218 102.532 65.7277C102.544 65.7423 102.556 65.7561 102.57 65.7693L102.67 65.88Z" fill="#352B28"/>
    <path opacity="0.1" d="M101.899 67.1103C100.851 67.1919 98.9204 66.9365 98.0757 66.8119C97.8356 66.7765 97.6002 66.7334 97.3633 66.6811C96.457 66.4841 93.6706 65.9318 91.9781 66.1872C89.9333 66.4949 84.1635 65.9348 84.1635 65.9348C84.1635 65.9348 80.6062 65.2071 79.1768 64.6193C78.6521 64.4024 77.7751 64.3347 76.9027 64.4424C76.6802 64.4701 76.4594 64.5097 76.2411 64.5609C75.0502 64.8424 74.0455 65.484 74.2194 66.578C74.1528 66.4982 74.0912 66.4144 74.0347 66.3272C73.9593 65.3271 74.2701 64.7316 74.701 64.3808L74.8025 64.3393C75.3288 64.1897 75.8644 64.0751 76.4057 63.9962C76.4904 63.9823 76.5781 63.97 76.6673 63.9593C78.1982 63.7531 80.4123 63.7069 82.2802 64.647C82.2802 64.647 84.0158 65.4609 85.1928 65.4609C86.3698 65.4609 95.9477 65.5456 98.1895 66.1887C98.6358 66.3176 99.0909 66.4138 99.5512 66.4764C100.368 66.5818 101.199 66.5035 101.982 66.2472C101.998 66.5374 101.97 66.8285 101.899 67.1103Z" fill="#352B28"/>
    <path opacity="0.1" d="M102.669 65.8802C102.669 65.8802 102.081 66.6372 101.551 66.6372C101.02 66.6372 98.9533 66.5526 97.8763 66.2171C96.7993 65.8817 91.5188 65.6279 91.5188 65.6279C91.5188 65.6279 84.0411 65.6555 83.7887 65.4032C83.5364 65.1509 79.139 63.8061 78.6913 63.8908C78.5975 63.9092 78.3682 63.9492 78.062 64L77.7112 64.0569C77.1019 64.0538 76.4954 64.1399 75.911 64.3123C75.1617 64.4 74.5032 64.4447 74.2939 64.3677V64.24C74.4553 64.1464 74.6235 64.0651 74.7971 63.9969C75.8353 63.7062 76.9045 63.5399 77.982 63.5015C79.3252 63.4522 80.8961 63.6092 82.2763 64.3046C82.2763 64.3046 84.0118 65.1186 85.1889 65.1186C86.3659 65.1186 95.9438 65.2017 98.1856 65.8463C98.6321 65.9741 99.0871 66.0697 99.5473 66.1325C100.557 66.2597 101.582 66.1125 102.515 65.7063C102.521 65.7106 102.526 65.7158 102.531 65.7217C102.543 65.7363 102.556 65.7501 102.569 65.7632L102.669 65.8802Z" fill="#352B28"/>
    <path d="M74.2409 66.5519C74.2409 66.5519 72.3638 65.1225 74.801 64.1701C74.801 64.1701 79.0584 62.8546 82.2802 64.4779C82.2802 64.4779 84.0158 65.2887 85.1928 65.2887C86.3699 65.2887 95.9478 65.3733 98.1895 66.018C98.636 66.1459 99.0911 66.2415 99.5512 66.3042C100.744 66.4488 101.952 66.2192 103.008 65.6472C103.162 65.5626 103.301 65.5195 103.342 65.5687C103.482 65.738 103.372 66.7181 102.139 66.9135C101.178 67.0673 98.9927 66.7765 98.0741 66.6427C97.8357 66.6073 97.5987 66.5627 97.3633 66.5119C96.4571 66.315 93.6706 65.7626 91.9704 66.018C89.9272 66.3257 84.1558 65.7657 84.1558 65.7657C84.1558 65.7657 80.6001 65.0379 79.1707 64.4486C77.7413 63.8593 73.7086 64.3671 74.2409 66.5519Z" fill="#FFC775"/>
    <path opacity="0.1" d="M90.0661 51.5342C89.9123 51.3126 87.9351 49.7294 87.1289 49.0893L88.5829 48.8739C88.6271 48.8299 88.675 48.7898 88.726 48.7539C89.783 49.8632 90.0661 51.5342 90.0661 51.5342Z" fill="#352B28"/>
    <path opacity="0.1" d="M83.6525 60.0255L83.0078 60.9779L85.4727 60.8948L85.5281 59.8301L83.6525 60.0255Z" fill="#352B28"/>
    <path opacity="0.1" d="M98.6934 61.1748L98.9734 62.0426L100.543 62.2949L99.8704 61.2579L98.6934 61.1748Z" fill="#352B28"/>
    <path opacity="0.1" d="M71.748 90.3066C71.9158 90.5867 77.4332 97.8459 78.8903 97.6443C80.3474 97.4427 71.748 90.3066 71.748 90.3066Z" fill="#352B28"/>
    <path opacity="0.1" d="M90.2344 96.9414C90.2344 96.9414 91.5791 98.2308 91.3822 98.7339C91.1852 99.237 90.2344 96.9414 90.2344 96.9414Z" fill="#352B28"/>
    <path opacity="0.1" d="M75.5583 105.793C75.5583 105.793 74.3812 111.31 74.9982 111.486C75.6152 111.661 75.5583 105.793 75.5583 105.793Z" fill="#352B28"/>
    <path opacity="0.1" d="M90.6826 127.22C90.878 127.78 92.5028 131.422 92.8674 131.617C93.2321 131.812 90.6826 127.22 90.6826 127.22Z" fill="#352B28"/>
    <path opacity="0.1" d="M109.562 112.263C109.505 112.458 108.105 113.607 108.412 114.027C108.72 114.448 109.562 112.263 109.562 112.263Z" fill="#352B28"/>
    <path opacity="0.1" d="M98.692 122.486C98.6643 122.628 98.3842 125.564 98.9166 126.128C99.449 126.693 98.692 122.486 98.692 122.486Z" fill="#352B28"/>
    <path opacity="0.1" d="M113.045 137.737C112.638 137.963 112.218 138.181 111.791 138.391C111.329 138.615 110.868 138.829 110.397 139.031C110.209 139.112 110.021 139.192 109.835 139.269C109.552 139.386 109.272 139.498 108.995 139.606C108.153 139.935 107.343 140.221 106.621 140.463C106.341 140.557 106.073 140.643 105.824 140.723C104.568 141.122 103.735 141.339 103.735 141.339C103.544 141.298 103.349 141.282 103.154 141.291C103.101 141.291 103.045 141.291 102.988 141.291C102.728 141.31 102.468 141.343 102.211 141.389C100.493 141.697 98.0647 142.56 96.6015 143.125C95.8322 143.419 95.3321 143.63 95.3321 143.63L94.3536 143.925L94.1905 143.974C93.1304 144.297 91.6394 144.756 91.1025 144.947C90.2347 145.254 82.7001 146.822 82.7001 146.822C82.0117 147.01 81.3086 147.139 80.5983 147.207C78.8481 147.367 77.0889 147.408 75.3332 147.327C73.5699 147.441 70.7173 147.053 69.0571 146.791L68.7925 146.75C68.1509 146.645 67.7432 146.57 67.7432 146.57L67.9586 146.273L72.3759 140.178L72.4021 140.141L76.5179 134.466L76.6718 134.259L77.0456 133.744C77.0456 133.744 77.2703 133.436 78.135 133.416C78.2365 133.416 78.3473 133.416 78.4689 133.416C79.1952 133.475 79.9118 133.621 80.6029 133.852L80.8029 133.912C83.7833 134.766 88.3899 134.552 88.3899 134.552C88.3899 134.552 91.2563 134.09 93.5088 133.813L93.6766 133.792C94.4126 133.688 95.1538 133.623 95.8968 133.599C97.2692 133.627 100.239 132.899 100.239 132.899C100.877 132.762 101.147 132.647 101.507 132.39C101.554 132.356 101.605 132.319 101.66 132.279C101.814 132.164 101.991 132.022 102.219 131.847C102.634 131.528 103.218 131.096 104.135 130.49C104.215 130.437 104.299 130.385 104.39 130.336C104.481 130.287 104.596 130.22 104.707 130.165C105.595 129.745 106.531 129.434 107.495 129.242C108.294 129.07 109.105 128.958 109.921 128.908H110.043C112.351 128.785 114.708 129.18 116.087 130.477C116.328 130.705 116.538 130.964 116.711 131.247C116.795 131.381 116.87 131.521 116.936 131.665C117.062 131.941 117.155 132.23 117.214 132.527C117.226 132.582 117.235 132.638 117.242 132.693C117.242 132.71 117.242 132.725 117.242 132.742C117.242 132.787 117.251 132.832 117.254 132.876C117.377 134.718 115.466 136.383 113.045 137.737Z" fill="#352B28"/>
    <path d="M67.7432 146.239C67.7432 146.239 72.7283 147.162 75.3332 146.995C75.3332 146.995 80.1229 147.247 82.7001 146.491C82.7001 146.491 90.2393 144.922 91.1024 144.614C91.9656 144.307 95.3321 143.297 95.3321 143.297C95.3321 143.297 101.887 140.552 103.734 141C103.734 141 118.244 137.247 117.207 132.178C116.17 127.108 107.012 128.257 104.128 130.161C101.245 132.064 101.667 132.262 100.236 132.57C100.236 132.57 97.2661 133.298 95.8937 133.27C94.5213 133.242 88.3868 134.222 88.3868 134.222C88.3868 134.222 83.5694 134.447 80.6014 133.522C77.6334 132.598 77.0441 133.41 77.0441 133.41L67.7432 146.239Z" fill="#E3B5A5"/>
    <path opacity="0.1" d="M78.5534 133.08C78.5542 133.086 78.5542 133.093 78.5534 133.099C78.5427 133.213 78.513 133.325 78.4657 133.43C77.8749 134.879 74.5207 138.789 74.5207 138.789C74.3678 139.253 74.1832 139.706 73.9683 140.146C73.5061 141.085 72.9738 141.987 72.3759 142.846C71.4895 144.131 70.5218 145.357 69.4786 146.519H69.4709C69.3382 146.617 69.2 146.708 69.0571 146.791C68.6955 147.006 68.1524 147.273 67.64 147.305C67.5527 147.31 67.4652 147.307 67.3784 147.297C67.4323 147.297 67.4846 147.285 67.5323 147.276L67.3446 147.22L67.0876 147.14C66.6568 147.005 66.2296 146.857 65.806 146.696L65.549 146.597C65.1387 146.439 64.7371 146.269 64.3443 146.088L64.0873 145.971C63.677 145.78 63.2754 145.579 62.8826 145.366C62.741 145.292 62.601 145.212 62.4625 145.137C62.044 144.903 61.6337 144.658 61.2316 144.401C60.8049 144.13 60.3875 143.846 59.9792 143.551C59.6715 142.98 59.4176 142.474 59.2791 142.201C59.0268 141.695 59.0053 140.97 59.036 140.446C59.036 140.392 59.036 140.341 59.0453 140.292C59.0714 139.963 59.1114 139.736 59.1114 139.736C58.8834 139.432 58.6778 139.111 58.496 138.776C58.3916 138.61 58.3322 138.42 58.3237 138.224C58.3306 138.145 58.3233 138.066 58.3021 137.99C58.1836 137.504 57.6744 136.668 57.2035 136.144C56.8527 135.758 56.8312 134.314 56.8651 133.291C56.8851 132.676 56.9235 132.223 56.9235 132.223C56.8546 132.179 56.803 132.112 56.7774 132.034C56.6536 131.697 56.57 131.347 56.5281 130.991C56.5281 130.94 56.5142 130.889 56.5066 130.837C56.4081 130.131 56.3635 129.421 56.3635 129.421C55.2249 128.592 54.6833 127.298 54.431 126.144L54.3986 125.99C54.2601 125.281 54.2012 124.559 54.2232 123.836C54.2232 123.767 54.2232 123.715 54.2232 123.682C54.2232 123.65 54.2232 123.644 54.2232 123.644C54.2232 123.644 54.374 120.31 54.7956 119.008C54.8125 118.953 54.831 118.902 54.8495 118.854C54.8805 118.773 54.9208 118.695 54.9695 118.622C55.1233 118.417 55.2326 118.031 55.3234 117.574C55.3864 117.257 55.4388 116.905 55.4772 116.554C55.5126 116.262 55.5403 115.971 55.5618 115.702C55.6219 114.982 55.6403 114.42 55.6403 114.42L55.3557 113.017C55.2772 112.634 55.2172 112.247 55.1757 111.861C55.1757 111.81 55.1633 111.76 55.1572 111.707C55.0852 110.994 55.0724 110.276 55.1187 109.561C55.1187 109.509 55.1187 109.458 55.128 109.407C55.2481 107.778 55.674 106.186 56.3835 104.714L56.4604 104.561C56.563 104.355 56.6707 104.154 56.7835 103.956C56.8651 103.81 56.9512 103.665 57.0405 103.522C57.277 103.139 57.5338 102.768 57.8098 102.413C57.8498 102.36 57.8913 102.31 57.9329 102.259C58.413 101.664 58.9465 101.113 59.5269 100.615C61.0809 99.28 62.5072 98.6999 63.8027 98.6553C69.4679 98.4553 72.6451 108.475 73.159 110.23C73.2082 110.4 73.2329 110.492 73.2329 110.492C73.2329 110.492 75.5285 112.789 74.8561 113.797C74.7257 114.019 74.6464 114.267 74.6238 114.523C74.4391 115.879 74.9684 118.111 74.9684 118.111C74.9684 118.111 75.1561 118.727 75.7039 120.201L75.8654 120.631C76.2086 121.555 76.2886 123.104 76.0916 124.492C75.9024 125.821 75.4577 126.997 74.7453 127.298C73.2883 127.914 73.6806 128.529 74.016 129.035C74.2153 129.398 74.3817 129.778 74.513 130.171C74.7238 130.739 74.9192 131.336 74.993 131.568C75.0146 131.632 75.0254 131.668 75.0254 131.668C75.2294 131.589 75.4415 131.532 75.6577 131.499C75.9331 131.46 76.2055 131.488 76.2578 131.723C76.2855 131.849 76.444 131.999 76.6671 132.148C77.3287 132.603 78.5534 133.08 78.5534 133.08Z" fill="#352B28"/>
    <path d="M78.2178 133.081C78.2084 133.198 78.1787 133.312 78.1301 133.419C77.5423 134.87 74.1851 138.789 74.1851 138.789C74.0315 139.253 73.847 139.706 73.6327 140.146C73.2614 140.904 72.8415 141.637 72.3757 142.341C71.4112 143.796 70.3426 145.18 69.1784 146.48L69.143 146.519C69.143 146.519 69.0076 146.622 68.7922 146.754C68.4073 147 67.9832 147.178 67.5382 147.28L67.3505 147.225L67.0936 147.145C66.6628 147.01 66.2356 146.861 65.8119 146.7L65.555 146.602C65.1447 146.444 64.7431 146.274 64.3502 146.093L64.0933 145.976C63.683 145.785 63.2814 145.583 62.8885 145.371C62.747 145.297 62.607 145.217 62.4685 145.142C62.05 144.908 61.6397 144.663 61.2376 144.406C60.8109 144.134 60.3934 143.851 59.9852 143.555C59.7964 143.42 59.6098 143.281 59.4251 143.138C59.2174 142.745 59.0512 142.412 58.9481 142.206C58.6958 141.7 58.6743 140.975 58.705 140.45C58.705 140.397 58.705 140.346 58.7143 140.297C58.7404 139.967 58.7804 139.741 58.7804 139.741C58.7804 139.741 58.6558 139.573 58.505 139.346C58.4204 139.22 58.3296 139.073 58.2481 138.929C58.0942 138.658 57.9742 138.384 57.9973 138.229C58.0004 138.202 58.0004 138.175 57.9973 138.149C57.995 138.097 57.9872 138.045 57.9742 137.995C57.8557 137.509 57.3449 136.673 56.8741 136.149C56.5233 135.762 56.5017 134.319 56.5341 133.296C56.5341 133.244 56.5341 133.193 56.5341 133.142C56.5556 132.611 56.5879 132.228 56.5879 132.228C56.414 132.153 56.2802 131.594 56.194 130.997L56.1709 130.843C56.0725 130.137 56.0279 129.428 56.0279 129.428C54.8893 128.599 54.3477 127.305 54.0969 126.151C53.9222 125.342 53.8549 124.515 53.8969 123.689C53.8969 123.664 53.8969 123.65 53.8969 123.65C53.8969 123.65 54.0292 120.299 54.4508 118.996C54.4677 118.941 54.4862 118.89 54.5046 118.842C54.5415 118.762 54.5875 118.687 54.6416 118.618C54.8754 118.291 55.0308 117.507 55.1324 116.703L55.1508 116.55C55.2785 115.473 55.3139 114.416 55.3139 114.416L55.0278 113.012C54.9498 112.628 54.8898 112.243 54.8477 111.857C54.84 111.806 54.8354 111.754 54.8293 111.703C54.7573 110.99 54.7445 110.272 54.7908 109.557C54.7908 109.504 54.7908 109.453 54.8016 109.403C54.921 107.773 55.3469 106.181 56.0571 104.71C56.0817 104.658 56.1063 104.607 56.134 104.556C56.3318 104.156 56.5517 103.768 56.7925 103.393C56.8756 103.262 56.9603 103.133 57.0495 103.005C57.1895 102.802 57.3357 102.602 57.488 102.408L57.6111 102.254C58.0871 101.661 58.616 101.113 59.1912 100.616C60.8837 99.1648 62.4223 98.6047 63.8071 98.6555C69.2615 98.8509 72.3234 108.51 72.8265 110.231C72.8757 110.4 72.9003 110.492 72.9003 110.492C72.9003 110.492 75.1975 112.789 74.5251 113.797C74.3947 114.019 74.3154 114.267 74.2928 114.523C74.1066 115.879 74.6374 118.111 74.6374 118.111C74.6374 118.111 74.8251 118.727 75.3729 120.201C75.4221 120.338 75.476 120.481 75.5268 120.632C75.8699 121.555 75.9499 123.104 75.7529 124.492C75.5637 125.823 75.1206 126.997 74.4066 127.298C72.9511 127.914 73.3419 128.529 73.6789 129.035C73.8782 129.398 74.0445 129.778 74.1758 130.171C74.442 130.896 74.6867 131.668 74.6867 131.668C74.7874 131.629 74.8901 131.596 74.9944 131.568C75.2084 131.498 75.4351 131.474 75.6591 131.499C75.7211 131.504 75.7799 131.528 75.8272 131.568C75.8745 131.609 75.9077 131.663 75.9222 131.723C75.9637 131.908 76.2822 132.137 76.6684 132.354C77.1699 132.627 77.6873 132.87 78.2178 133.081Z" fill="#95AB9D"/>
    <path opacity="0.1" d="M57.9668 118.285C58.4992 118.258 64.2136 116.045 65.3906 116.801C66.5677 117.556 73.853 122.458 73.853 122.458C73.853 122.458 69.2879 116.493 65.3106 115.093C61.3333 113.693 57.9668 118.285 57.9668 118.285Z" fill="#352B28"/>
    <path opacity="0.1" d="M66.1816 127.304C66.1816 127.304 71.8961 128.452 72.7638 129.236L66.1816 127.304Z" fill="#352B28"/>
    <path opacity="0.1" d="M65.0814 135.851C64.9983 135.935 62.9273 140.583 63.0935 140.583C63.2596 140.583 65.026 137.814 65.026 137.814L65.0814 135.851Z" fill="#352B28"/>
    <path opacity="0.1" d="M68.9752 130.272C68.9752 130.272 67.295 130.862 67.4904 130.917C67.6858 130.973 68.9183 130.525 68.9752 130.272Z" fill="#352B28"/>
    <path opacity="0.1" d="M67.2949 137.305C67.5749 137.892 68.4704 139.657 68.6674 139.377C68.8643 139.097 67.2949 137.305 67.2949 137.305Z" fill="#352B28"/>
    <path opacity="0.1" d="M88.2706 90.7183L88.0306 91.0599C88.0306 91.0599 86.1243 89.7167 85.3411 89.0443C84.558 88.3719 82.7085 91.4523 81.2515 92.2923C79.7944 93.1324 77.3311 93.3571 77.3311 93.3571C77.3311 93.3571 75.4263 91.4523 75.4847 90.8953C75.5432 90.3383 74.5893 90.1675 74.5323 89.7752C74.4754 89.3828 74.14 88.2627 73.6922 87.7026C73.4553 87.4072 73.4214 86.4825 73.443 85.6778C73.5968 85.647 73.6922 85.6301 73.6922 85.6301C73.9314 85.1956 74.2337 84.7989 74.5893 84.4531C75.0939 84.0053 75.8771 81.2604 75.8771 81.2604C76.3248 79.748 77.2203 80.1957 77.2203 80.1957C77.2203 82.4929 79.5744 83.333 80.7499 84.2854C81.9254 85.2378 83.7748 87.7026 85.2319 88.2073C86.4274 88.615 87.826 90.1921 88.2706 90.7183Z" fill="#352B28"/>
    <path d="M88.2695 90.3809L88.0295 90.724C88.0295 90.724 86.1155 89.3839 85.3323 88.7069C84.5492 88.0299 82.6997 91.1148 81.2427 91.9549C79.7856 92.795 77.3223 93.0212 77.3223 93.0212C77.3223 93.0212 75.4175 91.1148 75.4759 90.5594C75.5344 90.004 74.5805 89.8316 74.5235 89.4378C74.4666 89.0439 74.1312 87.9253 73.6834 87.3652C73.4465 87.0698 73.4127 86.1451 73.4342 85.3404L73.6834 85.2943C73.9226 84.8597 74.2249 84.463 74.5805 84.1172C75.0851 83.6679 75.8683 80.9246 75.8683 80.9246C76.316 79.4121 77.2115 79.8583 77.2115 79.8583C77.2115 82.1555 79.5656 82.9971 80.7411 83.9495C81.9166 84.9019 83.766 87.3652 85.2231 87.8699C86.4263 88.2838 87.8249 89.8547 88.2695 90.3809Z" fill="#95AB9D"/>
    <path opacity="0.1" d="M88.4137 90.8361C88.4137 90.8361 86.7628 91.7316 85.4734 91.8162C85.3046 91.8241 85.1355 91.8143 84.9688 91.787C84.9688 91.787 86.392 90.7238 87.7136 90.5068L88.4137 90.8361Z" fill="#352B28"/>
    <path opacity="0.1" d="M91.7754 95.4007C91.7754 95.4007 89.6936 94.5898 89.0059 95.8099C89.0289 95.2499 89.0382 94.7852 89.0382 94.7852L91.3076 94.3359C91.3076 94.3359 91.5261 94.7406 91.7815 95.2853C91.7754 95.3576 91.7754 95.4007 91.7754 95.4007Z" fill="#352B28"/>
    <path d="M84.9688 91.7876C84.9688 91.7876 87.4628 90.2906 88.6614 90.4167C89.9185 90.5475 92.3541 90.6398 92.3541 90.6398C92.3541 90.6398 91.514 92.5446 91.6263 92.937C91.7387 93.3293 91.7664 95.2341 91.7664 95.2341C91.7664 95.2341 89.2461 94.254 88.8261 96.0742C88.8261 96.0742 87.4536 94.0294 86.5289 93.4124C85.9153 92.9691 85.3868 92.4187 84.9688 91.7876Z" fill="#352B28"/>
    <path opacity="0.1" d="M99.0566 93.5259C98.3288 93.5259 95.7516 91.8995 95.1916 90.8363C94.6315 89.7732 93.8468 90.9471 93.1191 91.341C92.6575 91.5933 90.8281 91.0656 89.8418 90.6825C90.3418 90.3425 91.4497 89.3854 91.7743 89.1562C92.1651 88.8746 92.559 84.3372 92.559 84.3372C93.9591 83.6095 95.4716 90.2194 95.4716 90.2194C95.4716 90.2194 98.1057 91.0041 98.3288 91.5641C98.3719 91.6749 98.5704 91.8718 98.8689 92.1103C99.1766 92.8858 99.3458 93.5259 99.0566 93.5259Z" fill="#352B28"/>
    <path d="M99.0577 93.1892C98.33 93.1892 95.7528 91.5644 95.1927 90.5012C94.6327 89.4381 93.848 90.612 93.1202 91.0044C92.6586 91.2567 91.1923 90.769 90.2061 90.3889C90.7061 90.0504 91.4508 89.0534 91.7754 88.8226C92.1663 88.5426 92.5601 84.0052 92.5601 84.0052C93.9603 83.2774 95.4727 89.8873 95.4727 89.8873C95.4727 89.8873 98.1069 90.672 98.33 91.2321C98.373 91.3429 98.5715 91.5398 98.87 91.7783C99.1777 92.5491 99.347 93.1892 99.0577 93.1892Z" fill="#95AB9D"/>
    <path d="M109.011 142.266L133.369 121.956C133.612 121.751 133.921 121.642 134.239 121.649L143.327 121.887C143.327 121.887 143.956 122.349 143.033 123.358L120.055 142.214C119.807 142.417 119.498 142.533 119.178 142.543L109.242 142.872C109.17 142.875 109.1 142.855 109.041 142.815C108.981 142.775 108.936 142.718 108.91 142.652C108.885 142.585 108.881 142.512 108.899 142.443C108.917 142.374 108.956 142.312 109.011 142.266Z" fill="#D7584E"/>
    <path d="M120.793 139.768C120.793 139.768 126.114 147.387 132.025 140.3C137.936 133.213 136.227 129.49 134.434 129.293C132.642 129.096 122.556 136.855 120.793 139.768Z" fill="#E3B5A5"/>
    <path d="M146.014 107H181.995C182.343 106.998 182.684 106.907 182.986 106.737C183.288 106.566 183.54 106.321 183.717 106.025C183.895 105.73 183.992 105.394 184 105.05C184.007 104.706 183.924 104.367 183.759 104.064L165.778 71.0471C165.605 70.7305 165.349 70.4661 165.037 70.2817C164.725 70.0973 164.368 70 164.004 70C163.641 70 163.284 70.0973 162.972 70.2817C162.659 70.4661 162.403 70.7305 162.231 71.0471L144.241 104.064C144.075 104.367 143.993 104.708 144.001 105.052C144.008 105.397 144.106 105.733 144.285 106.029C144.464 106.325 144.717 106.57 145.02 106.74C145.323 106.91 145.665 107 146.014 107ZM166.294 100.967H161.715V96.4441H166.294V100.967ZM166.294 93.4275H161.715V84.3798H166.294V93.4275Z" fill="#D7584E"/>
</svg>
