<svg width="259" height="198" viewBox="0 0 259 198" fill="none" xmlns="http://www.w3.org/2000/svg">
    <path opacity="0.1" fill-rule="evenodd" clip-rule="evenodd" d="M250.092 54.249C254.756 49.5656 254.755 41.992 250.089 37.3101L221.407 8.52903C216.717 3.82331 209.097 3.82332 204.407 8.52903L106.683 106.589L54.1213 53.8465C49.4317 49.1408 41.8113 49.1408 37.1217 53.8465L8.5032 82.5633C3.81229 87.2704 3.83994 94.8934 8.56489 99.5662L63.9809 154.371L98.4168 189.361C103.098 194.118 110.762 194.141 115.472 189.412L250.092 54.249Z" fill="#8AB5A6"/>
    <g clip-path="url(#clip0)">
        <path d="M109.925 66.6354C105.645 66.6354 102.175 63.1656 102.175 58.8854V45.1267C102.175 40.8465 105.645 37.3767 109.925 37.3767H195.868C200.148 37.3767 203.618 40.8465 203.618 45.1267V58.8854C203.618 63.1656 200.148 66.6354 195.868 66.6354H109.925Z" fill="white" stroke="#81665E" stroke-width="0.5"/>
        <rect x="140.154" y="45.6292" width="50.9712" height="4.25124" rx="2.12562" fill="#D6D4D4"/>
        <rect x="140.154" y="54.1326" width="42.476" height="4.25124" rx="2.12562" fill="#D6D4D4"/>
        <g clip-path="url(#clip1)">
            <path d="M117.993 56.446C118.374 57.1583 119.204 57.5411 120.014 57.3226C120.824 57.1042 121.352 56.3552 121.329 55.5467L117.993 56.446Z" fill="#8AB5A6"/>
            <path fill-rule="evenodd" clip-rule="evenodd" d="M121.329 55.5467C121.352 56.3552 120.824 57.1042 120.014 57.3226C119.204 57.5411 118.374 57.1583 117.993 56.446L121.329 55.5467Z" fill="#8AB5A6"/>
            <path d="M116.624 44.59C114.294 45.218 112.912 47.6274 113.536 49.9714L114.454 53.4198L113.689 55.5557C113.465 56.1817 114.032 56.8031 114.671 56.6309L124.298 54.0354C124.936 53.8631 125.119 53.0394 124.614 52.6101L122.89 51.1454L121.972 47.6969C121.347 45.3529 118.953 43.9619 116.624 44.59Z" fill="#8AB5A6"/>
            <path fill-rule="evenodd" clip-rule="evenodd" d="M124.298 54.0354C124.936 53.8631 125.119 53.0394 124.614 52.6101L122.89 51.1454L121.972 47.6969C121.347 45.3529 118.953 43.9619 116.624 44.59C114.294 45.218 112.912 47.6274 113.536 49.9714L114.454 53.4198L113.689 55.5557C113.465 56.1817 114.032 56.8031 114.671 56.6309L124.298 54.0354Z" fill="#8AB5A6"/>
        </g>
        <path fill-rule="evenodd" clip-rule="evenodd" d="M112.502 44.5575C112.548 44.4175 112.379 44.3346 112.277 44.4486C111.466 45.3548 110.834 46.4125 110.449 47.5841C110.065 48.7558 109.967 49.9267 110.117 51.0372C110.136 51.1768 110.333 51.1716 110.379 51.0316C110.226 49.9408 110.319 48.7891 110.697 47.6367C111.075 46.4843 111.7 45.4454 112.502 44.5575Z" fill="#8AB5A6"/>
        <path fill-rule="evenodd" clip-rule="evenodd" d="M120.447 42.4176C120.338 42.3195 120.444 42.1621 120.589 42.2091C121.743 42.5833 122.816 43.1796 123.73 44.0008C124.644 44.8219 125.31 45.7873 125.729 46.8265C125.782 46.9572 125.608 47.0529 125.498 46.9548C125.092 45.931 124.44 44.9797 123.541 44.1721C122.642 43.3645 121.584 42.7805 120.447 42.4176Z" fill="#8AB5A6"/>
        <path d="M107.604 47.3559C107.837 46.6428 108.163 45.972 108.566 45.3521C108.582 45.3275 108.606 45.3098 108.634 45.3022C108.742 45.2732 108.829 45.3966 108.768 45.4909C108.386 46.0852 108.076 46.7271 107.852 47.4089C107.587 48.2185 107.463 49.028 107.466 49.8165C107.466 49.8768 107.426 49.93 107.369 49.9456C107.287 49.9676 107.207 49.9071 107.206 49.8222C107.204 49.0144 107.332 48.1852 107.604 47.3559Z" fill="#8AB5A6"/>
        <path d="M127.288 44.5749C127.369 44.553 127.409 44.46 127.367 44.3864C126.968 43.6857 126.445 43.032 125.797 42.4505C125.241 41.9504 124.625 41.5335 123.969 41.1991C123.943 41.1858 123.913 41.1828 123.884 41.1904C123.777 41.2195 123.763 41.37 123.862 41.4211C124.489 41.7434 125.076 42.1433 125.609 42.6214C126.241 43.1891 126.751 43.8276 127.139 44.5121C127.169 44.5644 127.23 44.5905 127.288 44.5749Z" fill="#8AB5A6"/>
        <path d="M96.2334 168.537C91.9532 168.537 88.4834 165.067 88.4834 160.787V147.028C88.4834 142.748 91.9532 139.278 96.2334 139.278H182.176C186.456 139.278 189.926 142.748 189.926 147.028V160.787C189.926 165.067 186.456 168.537 182.176 168.537H96.2334Z" fill="white" stroke="#81665E" stroke-width="0.5"/>
        <rect x="126.462" y="156.034" width="42.476" height="4.25124" rx="2.12562" fill="#D6D4D4"/>
        <g clip-path="url(#clip2)">
            <path d="M104.301 158.347C104.682 159.06 105.512 159.442 106.322 159.224C107.132 159.005 107.661 158.256 107.637 157.448L104.301 158.347Z" fill="#E3AF7B"/>
            <path fill-rule="evenodd" clip-rule="evenodd" d="M107.637 157.448C107.661 158.256 107.132 159.005 106.322 159.224C105.512 159.442 104.682 159.06 104.301 158.347L107.637 157.448Z" fill="#E3AF7B"/>
            <path d="M102.932 146.491C100.602 147.119 99.2198 149.529 99.844 151.873L100.762 155.321L99.997 157.457C99.7728 158.083 100.34 158.704 100.979 158.532L110.606 155.937C111.244 155.764 111.427 154.941 110.922 154.511L109.198 153.047L108.28 149.598C107.656 147.254 105.261 145.863 102.932 146.491Z" fill="#E3AF7B"/>
            <path fill-rule="evenodd" clip-rule="evenodd" d="M110.606 155.937C111.244 155.764 111.427 154.941 110.922 154.511L109.198 153.047L108.28 149.598C107.656 147.254 105.261 145.863 102.932 146.491C100.602 147.119 99.2198 149.529 99.844 151.873L100.762 155.321L99.997 157.457C99.7728 158.083 100.34 158.704 100.979 158.532L110.606 155.937Z" fill="#E3AF7B"/>
        </g>
        <path fill-rule="evenodd" clip-rule="evenodd" d="M98.8101 146.459C98.856 146.319 98.6875 146.236 98.5854 146.35C97.7739 147.256 97.1416 148.314 96.7574 149.485C96.3732 150.657 96.2747 151.828 96.4249 152.938C96.4437 153.078 96.6412 153.073 96.6871 152.933C96.5337 151.842 96.6273 150.69 97.0052 149.538C97.3831 148.386 98.0079 147.347 98.8101 146.459Z" fill="#E3AF7B"/>
        <path fill-rule="evenodd" clip-rule="evenodd" d="M106.756 144.319C106.646 144.221 106.752 144.063 106.897 144.11C108.051 144.485 109.124 145.081 110.038 145.902C110.952 146.723 111.618 147.689 112.037 148.728C112.09 148.858 111.916 148.954 111.806 148.856C111.4 147.832 110.748 146.881 109.849 146.073C108.95 145.266 107.892 144.682 106.756 144.319Z" fill="#E3AF7B"/>
        <path d="M93.9118 149.257C94.1454 148.544 94.4712 147.873 94.8737 147.253C94.8897 147.229 94.9142 147.211 94.9423 147.203C95.0501 147.174 95.1367 147.298 95.0761 147.392C94.6937 147.986 94.3837 148.628 94.1603 149.31C93.8951 150.12 93.7707 150.929 93.774 151.718C93.7743 151.778 93.7345 151.831 93.6767 151.847C93.5952 151.869 93.5147 151.808 93.5144 151.723C93.5121 150.916 93.6402 150.086 93.9118 149.257Z" fill="#E3AF7B"/>
        <path d="M113.596 146.476C113.678 146.454 113.717 146.361 113.675 146.288C113.276 145.587 112.753 144.933 112.106 144.352C111.549 143.852 110.933 143.435 110.277 143.1C110.251 143.087 110.221 143.084 110.193 143.092C110.085 143.121 110.071 143.271 110.171 143.322C110.797 143.645 111.384 144.045 111.917 144.523C112.549 145.09 113.059 145.729 113.448 146.413C113.477 146.466 113.538 146.492 113.596 146.476Z" fill="#E3AF7B"/>
        <rect x="126.462" y="147.53" width="50.9711" height="4.25124" rx="2.12562" fill="#D6D4D4"/>
        <path d="M137.31 117.612C133.029 117.612 129.56 114.142 129.56 109.862V96.1029C129.56 91.8227 133.029 88.3529 137.31 88.3529H223.252C227.532 88.3529 231.002 91.8227 231.002 96.1029V109.862C231.002 114.142 227.532 117.612 223.252 117.612H137.31Z" fill="white" stroke="#81665E" stroke-width="0.5"/>
        <rect x="167.537" y="96.6047" width="50.9712" height="4.25124" rx="2.12562" fill="#D6D4D4"/>
        <rect x="167.537" y="105.109" width="42.476" height="4.25124" rx="2.12562" fill="#D6D4D4"/>
        <g clip-path="url(#clip3)">
            <path d="M142.976 107.422C142.595 108.134 141.765 108.517 140.955 108.299C140.144 108.08 139.616 107.331 139.64 106.523L142.976 107.422Z" fill="#89959F"/>
            <path fill-rule="evenodd" clip-rule="evenodd" d="M139.64 106.523C139.616 107.331 140.144 108.08 140.955 108.299C141.765 108.517 142.595 108.134 142.976 107.422L139.64 106.523Z" fill="#89959F"/>
            <path d="M144.345 95.5661C146.675 96.1942 148.057 98.6036 147.433 100.948L146.515 104.396L147.28 106.532C147.504 107.158 146.936 107.779 146.298 107.607L136.671 105.012C136.032 104.839 135.85 104.016 136.355 103.586L138.079 102.122L138.997 98.6731C139.621 96.3291 142.016 94.9381 144.345 95.5661Z" fill="#89959F"/>
            <path fill-rule="evenodd" clip-rule="evenodd" d="M136.671 105.012C136.032 104.839 135.85 104.016 136.355 103.586L138.079 102.122L138.997 98.6731C139.621 96.3291 142.016 94.9381 144.345 95.5661C146.675 96.1942 148.057 98.6036 147.433 100.948L146.515 104.396L147.28 106.532C147.504 107.158 146.936 107.779 146.298 107.607L136.671 105.012Z" fill="#89959F"/>
        </g>
        <path fill-rule="evenodd" clip-rule="evenodd" d="M148.467 95.5337C148.421 95.3937 148.589 95.3108 148.691 95.4248C149.503 96.331 150.135 97.3887 150.519 98.5603C150.904 99.732 151.002 100.903 150.852 102.013C150.833 102.153 150.636 102.148 150.59 102.008C150.743 100.917 150.65 99.7653 150.272 98.6129C149.894 97.4605 149.269 96.4216 148.467 95.5337Z" fill="#89959F"/>
        <path fill-rule="evenodd" clip-rule="evenodd" d="M140.521 93.3938C140.631 93.2957 140.525 93.1383 140.38 93.1853C139.226 93.5595 138.153 94.1558 137.239 94.977C136.324 95.7981 135.659 96.7635 135.24 97.8027C135.187 97.9334 135.361 98.0291 135.47 97.931C135.877 96.9072 136.529 95.9559 137.428 95.1483C138.327 94.3407 139.384 93.7567 140.521 93.3938Z" fill="#89959F"/>
        <path d="M153.365 98.3321C153.131 97.619 152.806 96.9482 152.403 96.3283C152.387 96.3037 152.363 96.286 152.335 96.2784C152.227 96.2494 152.14 96.3728 152.201 96.4671C152.583 97.0614 152.893 97.7033 153.117 98.3851C153.382 99.1947 153.506 100.004 153.503 100.793C153.503 100.853 153.542 100.906 153.6 100.922C153.682 100.944 153.762 100.883 153.762 100.798C153.765 99.9906 153.637 99.1614 153.365 98.3321Z" fill="#89959F"/>
        <path d="M133.681 95.5511C133.599 95.5292 133.56 95.4362 133.602 95.3626C134.001 94.6619 134.524 94.0082 135.171 93.4267C135.728 92.9266 136.343 92.5096 137 92.1753C137.026 92.162 137.056 92.159 137.084 92.1666C137.192 92.1957 137.206 92.3462 137.106 92.3973C136.48 92.7196 135.892 93.1195 135.36 93.5976C134.728 94.1653 134.218 94.8038 133.829 95.4883C133.8 95.5406 133.739 95.5667 133.681 95.5511Z" fill="#89959F"/>
        <path d="M72.5464 149.661C72.5464 149.661 70.6247 156.627 70.6247 157.588C70.6247 158.549 67.5019 158.309 67.5019 158.309L65.0998 154.465C65.0998 154.465 67.0215 150.622 67.5019 148.7C67.9824 146.778 72.5464 149.661 72.5464 149.661Z" fill="#81665E"/>
        <path d="M68.9434 156.146C68.9434 156.146 66.0608 156.867 66.0608 154.705C66.0608 152.543 64.8598 153.504 64.8598 153.504C64.8598 153.504 61.9772 155.186 63.1783 156.867C64.3793 158.549 66.5412 160.47 67.2619 162.152C67.9825 163.833 70.1444 168.397 72.5465 167.436C74.9487 166.476 73.2672 164.314 73.2672 164.314C73.2672 164.314 71.3455 161.431 71.8259 159.029C72.3063 156.627 72.5465 155.426 71.8259 155.426C71.1053 155.426 69.9042 154.705 69.9042 155.666C69.9042 156.627 68.9434 156.146 68.9434 156.146Z" fill="#0E141E"/>
        <path d="M69.0629 66.9079C64.0216 66.9079 59.9348 62.8211 59.9348 57.7798C59.9348 52.7385 64.0216 48.6517 69.0629 48.6517C74.1041 48.6517 78.1909 52.7385 78.1909 57.7798C78.1909 62.8211 74.1041 66.9079 69.0629 66.9079Z" fill="#0E141E"/>
        <path d="M70.0237 58.2602C65.5131 58.2602 61.8565 54.6036 61.8565 50.093C61.8565 45.5824 65.5131 41.9258 70.0237 41.9258C74.5343 41.9258 78.1909 45.5824 78.1909 50.093C78.1909 54.6036 74.5343 58.2602 70.0237 58.2602Z" fill="#0E141E"/>
        <path d="M74.3477 98.3757L79.152 97.8953L81.1133 93.0978L80.8334 88.7672H74.3477V98.3757Z" fill="#E3AF7B"/>
        <g style="mix-blend-mode:multiply">
            <path d="M74.3477 98.3757L79.152 97.8953L81.1133 93.0978L80.8334 88.7672H74.3477V98.3757Z" fill="#E3AF7B"/>
        </g>
        <path d="M73.9876 63.9053C73.9876 63.9053 74.2278 69.9106 75.1887 70.6312C76.1495 71.3519 73.7474 74.2344 73.7474 74.2344L69.904 73.2736L67.0214 70.6312L68.2225 70.391C68.2225 70.391 68.2225 67.028 67.5019 66.0672C66.7812 65.1063 73.9876 63.9053 73.9876 63.9053Z" fill="#81665E"/>
        <path opacity="0.1" d="M73.9876 63.9053C73.9876 63.9053 74.2278 69.9106 75.1887 70.6312C76.1495 71.3519 73.7474 74.2344 73.7474 74.2344L69.904 73.2736L67.0214 70.6312L68.2225 70.391C68.2225 70.391 68.2225 67.028 67.5019 66.0672C66.7812 65.1063 73.9876 63.9053 73.9876 63.9053Z" fill="#0E141E"/>
        <path d="M80.7134 87.4461C80.7134 87.4461 78.3113 93.6916 78.7917 98.9763C79.2721 104.261 67.9821 99.6969 67.9821 99.6969L64.6192 97.535C64.6192 97.535 63.6583 91.0493 64.6192 89.608C65.58 88.1667 67.5017 83.1222 67.5017 83.1222L72.5462 82.4016L80.7134 87.4461Z" fill="#81665E"/>
        <path d="M40.3237 115.02C40.3237 115.02 36.2275 110.493 35.5424 110.057C34.8572 109.622 36.4439 107.504 36.4439 107.504L40.2732 107.533C40.2732 107.533 42.1427 110.645 43.2952 111.859C44.4478 113.072 40.3237 115.02 40.3237 115.02Z" fill="#81665E"/>
        <path d="M37.3324 109.511C37.3324 109.511 38.1251 107.129 39.6666 108.109C41.2082 109.089 41.0674 107.797 41.0674 107.797C41.0674 107.797 41.175 104.98 39.4316 105.074C37.6882 105.168 35.3381 105.839 33.8125 105.59C32.2869 105.342 28.0526 104.815 27.649 106.963C27.2454 109.112 29.549 108.893 29.549 108.893C29.549 108.893 32.4754 108.829 33.9705 110.26C35.4656 111.692 36.2131 112.407 36.5398 111.893C36.8664 111.379 37.9246 110.85 37.2395 110.414C36.5544 109.979 37.3324 109.511 37.3324 109.511Z" fill="#0E141E"/>
        <path d="M76.6301 68.2289C76.6301 68.2289 79.5127 66.5475 80.2333 61.7432C80.954 56.939 85.9984 40.1241 85.9984 40.1241C85.9984 40.1241 89.3614 28.5939 90.5625 32.4373C91.7635 36.2807 89.1212 40.6045 89.1212 40.6045L85.7582 56.2183C85.7582 56.2183 82.8757 76.3962 81.4344 77.357C79.9931 78.3179 76.6301 68.2289 76.6301 68.2289Z" fill="#81665E"/>
        <path d="M64.9324 69.1621C64.9324 69.1621 61.5954 69.1258 58.5936 65.3062C55.5918 61.4866 42.8932 49.3651 42.8932 49.3651C42.8932 49.3651 34.2691 41.0057 35.1255 44.9403C35.9818 48.8748 40.4164 51.3267 40.4164 51.3267L51.0596 63.2356C51.0596 63.2356 63.5419 79.3492 65.2697 79.4717C66.9976 79.5943 64.9324 69.1621 64.9324 69.1621Z" fill="#81665E"/>
        <path d="M69.9039 67.7486C66.5872 67.7486 63.8986 65.06 63.8986 61.7433C63.8986 58.4267 66.5872 55.738 69.9039 55.738C73.2205 55.738 75.9092 58.4267 75.9092 61.7433C75.9092 65.06 73.2205 67.7486 69.9039 67.7486Z" fill="#81665E"/>
        <path d="M64.1922 93.7549C64.1922 93.7549 72.5463 99.6968 75.669 98.736C78.7918 97.7751 79.2722 97.0545 79.2722 97.0545C79.2722 97.0545 82.1548 116.752 79.9929 124.439C79.9929 124.439 79.7526 132.126 77.5907 135.008L72.5463 151.583C72.5463 151.583 67.0214 151.343 67.0214 149.421C67.0214 149.421 67.742 145.337 67.742 142.455C67.742 139.572 71.5854 132.366 71.5854 132.366L68.9431 112.188C68.9431 112.188 58.8542 132.366 54.7706 130.924C50.687 129.483 39.1568 114.35 39.1568 114.35L42.7599 110.987C42.7599 110.987 52.8489 116.992 54.0499 120.115C54.0499 120.115 62.0837 95.4997 64.1922 93.7549Z" fill="#B85954"/>
        <path d="M70.6247 71.3518C70.6247 71.3518 67.5019 68.9497 67.0215 68.9497H63.8987C63.8987 68.9497 61.4966 74.7148 62.4574 77.1169C62.4574 77.1169 63.6585 83.3624 63.8987 83.8428C64.1389 84.3233 63.8987 85.7645 63.4183 87.2058C62.9379 88.6471 61.4966 91.7699 62.2172 92.4905C62.9379 93.2111 63.6585 95.1328 64.1389 95.1328C64.6194 95.1328 68.4628 91.5296 69.1834 89.1275C69.904 86.7254 69.904 86.0048 71.5855 86.9656C73.267 87.9265 80.7136 87.446 80.2332 91.2894C80.0165 93.227 79.6958 95.1515 79.2723 97.0545C79.2723 97.0545 82.1549 98.0154 82.6353 93.4513C83.1157 88.8873 83.5961 88.6471 82.1549 86.9656C80.7136 85.2841 82.6353 78.318 82.6353 78.318C82.6353 78.318 80.2332 74.2344 79.7527 72.0724C79.2723 69.9105 77.3506 67.7486 77.3506 67.7486C77.3506 67.7486 76.1496 67.028 75.4289 67.5084C74.7083 67.9888 74.3228 67.7486 74.3228 67.7486C74.3228 67.7486 75.6691 71.1116 74.2279 71.1116C72.7866 71.1116 70.6247 71.3518 70.6247 71.3518Z" fill="#E3AF7B"/>
        <path opacity="0.1" d="M74.2276 97.4148C74.0286 97.4148 73.8672 97.0921 73.8672 96.6941C73.8672 96.2961 74.0286 95.9735 74.2276 95.9735C74.4266 95.9735 74.5879 96.2961 74.5879 96.6941C74.5879 97.0921 74.4266 97.4148 74.2276 97.4148Z" fill="#0E141E"/>
        <path d="M69.3034 60.9026C65.3234 60.9026 62.097 58.8592 62.097 56.3386C62.097 53.8179 65.3234 51.7745 69.3034 51.7745C73.2834 51.7745 76.5098 53.8179 76.5098 56.3386C76.5098 58.8592 73.2834 60.9026 69.3034 60.9026Z" fill="#0E141E"/>
    </g>
    <defs>
        <clipPath id="clip0">
            <rect width="203.46" height="147.731" fill="white" transform="translate(27.6997 25.6477)"/>
        </clipPath>
        <clipPath id="clip1">
            <rect width="13.6516" height="13.7254" fill="white" transform="matrix(0.965521 -0.260326 0.25732 0.966326 109.928 45.9691)"/>
        </clipPath>
        <clipPath id="clip2">
            <rect width="13.6516" height="13.7254" fill="white" transform="matrix(0.965521 -0.260326 0.25732 0.966326 96.2363 147.87)"/>
        </clipPath>
        <clipPath id="clip3">
            <rect width="13.6516" height="13.7254" fill="white" transform="matrix(-0.965521 -0.260326 -0.25732 0.966326 151.041 96.9453)"/>
        </clipPath>
    </defs>
</svg>
