<svg width="243" height="177" viewBox="0 0 243 177" fill="none" xmlns="http://www.w3.org/2000/svg">
    <path opacity="0.5" fill-rule="evenodd" clip-rule="evenodd" d="M131.116 0.032318C149.882 -0.482835 168.156 5.19489 183.335 14.6178C198.504 24.0341 206.565 38.4794 215.623 52.4909C227.075 70.2068 243.486 86.6752 242.989 106.9C242.404 130.715 236.047 158.575 212.696 171.65C189.384 184.702 159.003 169.802 131.116 169.536C103.691 169.274 74.7227 181.623 50.853 170.105C26.3152 158.265 15.3831 133.224 7.85109 110.056C0.579478 87.6895 -5.99273 61.3694 9.25039 42.14C24.1087 23.3961 56.6942 25.9157 81.2844 17.4192C98.3354 11.5277 112.728 0.537095 131.116 0.032318Z" fill="#FCF8F7"/>
    <path opacity="0.1" d="M63.5 134C83.6584 134 100 131.538 100 128.5C100 125.462 83.6584 123 63.5 123C43.3416 123 27 125.462 27 128.5C27 131.538 43.3416 134 63.5 134Z" fill="#95AB9D"/>
    <path opacity="0.1" d="M70.5 161C78.5081 161 85 159.657 85 158C85 156.343 78.5081 155 70.5 155C62.4919 155 56 156.343 56 158C56 159.657 62.4919 161 70.5 161Z" fill="#95AB9D"/>
    <path opacity="0.1" d="M168 150C175.732 150 182 148.657 182 147C182 145.343 175.732 144 168 144C160.268 144 154 145.343 154 147C154 148.657 160.268 150 168 150Z" fill="#95AB9D"/>
    <path opacity="0.1" d="M119.5 147C132.479 147 143 145.209 143 143C143 140.791 132.479 139 119.5 139C106.521 139 96 140.791 96 143C96 145.209 106.521 147 119.5 147Z" fill="#95AB9D"/>
    <path opacity="0.1" d="M179.5 130C199.658 130 216 127.314 216 124C216 120.686 199.658 118 179.5 118C159.342 118 143 120.686 143 124C143 127.314 159.342 130 179.5 130Z" fill="#95AB9D"/>
    <path d="M36.5272 110.429C35.4127 112.517 34.8922 114.852 35.0186 117.196C35.1449 119.54 35.9136 121.811 37.2466 123.776C37.6839 124.408 38.0862 124.863 38.4076 124.983C39.9491 125.566 43.0365 127 43.0365 127L50.4707 124.187C50.4707 124.187 51.6777 118.039 52.8191 112.76C53.5975 109.159 54.3496 105.965 54.6579 105.405C55.4276 104.026 54.6579 89.0105 54.6579 89.0105C54.6579 89.0105 47.2237 88.5305 45.1793 94.0493L44.285 95.7338L36.5272 110.429Z" fill="#857E7B"/>
    <path opacity="0.1" d="M46.5136 112.546C50.9697 117.633 52.8496 113.233 52.8496 113.233C53.6171 109.561 54.3588 106.303 54.6627 105.732C55.4216 104.325 54.6627 89.0108 54.6627 89.0108C54.6627 89.0108 47.3328 88.5211 45.3171 94.1499L44.4353 95.8679C43.8705 100.371 43.3121 108.884 46.5136 112.546Z" fill="white"/>
    <path d="M47 126L72.4579 123.082L77 93.4275L73.5653 85.7253C72.1142 82.4452 70.1048 79.4375 67.6251 76.8339C65.8961 75.0257 63.8064 73.287 61.6086 72.4134C61.3082 72.2933 61.0016 72.1893 60.69 72.1019C60.3318 71.9939 59.9529 71.9714 59.5843 72.0361C59.2156 72.1009 58.8676 72.251 58.5685 72.4744C55.4287 74.6826 54.3064 84.0708 53.9436 88.5902C53.7944 90.4473 53.5415 92.2948 53.1863 94.1242L47 126Z" fill="#857E7B"/>
    <path opacity="0.1" d="M64.5568 93.0754L59.0918 106C61.9555 103.987 66.1985 93.0228 66.1985 93.0228L70 105.523L66.9702 92.3482C67.4137 89.4872 67.5427 86.5893 67.3549 83.7024C67.1145 80.3945 63.8857 75.0859 62.1326 72.4127C61.8231 72.2928 61.5071 72.189 61.186 72.1017C60.8169 71.9939 60.4265 71.9714 60.0467 72.0361C59.6668 72.1007 59.3082 72.2506 59 72.4737C60.3772 75.1322 63.8202 81.7794 64.8694 83.7549C66.2007 86.2432 64.5568 93.0754 64.5568 93.0754Z" fill="white"/>
    <path d="M69 127H82.8099C83.3779 127 83.9401 126.888 84.4622 126.67C84.9842 126.451 85.4553 126.132 85.8467 125.731C86.2382 125.33 86.5418 124.856 86.7391 124.337C86.9365 123.818 87.0234 123.265 86.9946 122.713C86.6892 116.944 85.915 106.658 84.074 100.129C83.0792 96.606 81.9233 94.7567 80.8628 93.8455C80.3655 93.3779 79.7234 93.0837 79.0366 93.0087C78.5156 92.9648 77.9942 93.0882 77.5519 93.3599C74.9876 95.7547 71.9927 108.357 71.9927 108.357L69 127Z" fill="#857E7B"/>
    <path opacity="0.1" d="M81.4833 116.353C82.0546 117.919 82.2806 119.727 81.4833 121.488L78.3896 123C78.3896 123 70.0746 119.514 71.0852 112.369C71.0852 112.369 71.3581 110.892 74.2214 111.006C75.8318 111.083 77.3825 111.633 78.6758 112.585C79.9691 113.537 80.9465 114.849 81.4833 116.353Z" fill="white"/>
    <path opacity="0.1" d="M77.7127 97.3653C77.6218 94.9374 78.924 94.0954 80 93.8277C79.5266 93.3653 78.9155 93.0742 78.2618 93C77.5128 93.6345 76.9819 94.4931 76.7456 95.4524L74 109C74 109 77.8661 101.434 77.7127 97.3653Z" fill="white"/>
    <path d="M64.9436 108L71.8095 117.449L73 125.248L68.5874 127.44L62.2262 128.854C61.6136 128.991 60.9837 129.032 60.3586 128.976L43 127.44L45.3618 121.931L53.5182 110.41L64.9436 108Z" fill="#857E7B"/>
    <path opacity="0.1" d="M62.5565 105.004C62.5565 105.004 67.4142 105.324 65.5904 113.341C63.7665 121.357 45 122 45 122C45 122 48.9878 115.213 55.1219 110.35C55.8108 109.805 56.4754 109.237 57.1091 108.63C58.5201 107.275 61.2184 104.893 62.5565 105.004Z" fill="white"/>
    <path opacity="0.1" d="M66 111C66 111 72.5789 116.908 71.9588 126L66 111Z" fill="#352B28"/>
    <path opacity="0.1" d="M77 93C77 93 70.7062 101.666 70 115L77 93Z" fill="#352B28"/>
    <path opacity="0.1" d="M54.2996 89C54.2996 89 57.8404 103.825 49 115L54.2996 89Z" fill="#352B28"/>
    <g style="mix-blend-mode:multiply">
        <path d="M101.014 144H136.995C137.343 143.998 137.684 143.91 137.986 143.744C138.288 143.577 138.54 143.339 138.717 143.051C138.895 142.764 138.992 142.437 139 142.103C139.007 141.768 138.924 141.438 138.759 141.143L120.778 109.019C120.605 108.711 120.349 108.453 120.037 108.274C119.725 108.095 119.368 108 119.004 108C118.641 108 118.284 108.095 117.972 108.274C117.659 108.453 117.403 108.711 117.231 109.019L99.2406 141.143C99.0754 141.439 98.9927 141.77 99.0005 142.105C99.0083 142.44 99.1063 142.767 99.2849 143.055C99.4635 143.343 99.7167 143.581 100.02 143.747C100.323 143.912 100.665 144 101.014 144ZM121.294 138.13H116.715V133.729H121.294V138.13ZM121.294 130.794H116.715V121.991H121.294V130.794Z" fill="#352B28"/>
    </g>
    <path opacity="0.1" d="M101.014 144H136.995C137.343 143.998 137.684 143.91 137.986 143.744C138.288 143.577 138.54 143.339 138.717 143.051C138.895 142.764 138.992 142.437 139 142.103C139.007 141.768 138.924 141.438 138.759 141.143L120.778 109.019C120.605 108.711 120.349 108.453 120.037 108.274C119.725 108.095 119.368 108 119.004 108C118.641 108 118.284 108.095 117.972 108.274C117.659 108.453 117.403 108.711 117.231 109.019L99.2406 141.143C99.0754 141.439 98.9927 141.77 99.0005 142.105C99.0083 142.44 99.1063 142.767 99.2849 143.055C99.4635 143.343 99.7167 143.581 100.02 143.747C100.323 143.912 100.665 144 101.014 144ZM121.294 138.13H116.715V133.729H121.294V138.13ZM121.294 130.794H116.715V121.991H121.294V130.794Z" fill="#352B28"/>
    <path d="M101.014 145H136.995C137.343 144.998 137.684 144.91 137.986 144.744C138.288 144.577 138.54 144.339 138.717 144.051C138.895 143.764 138.992 143.437 139 143.103C139.007 142.768 138.924 142.438 138.759 142.143L120.778 110.019C120.605 109.711 120.349 109.453 120.037 109.274C119.725 109.095 119.368 109 119.004 109C118.641 109 118.284 109.095 117.972 109.274C117.659 109.453 117.403 109.711 117.231 110.019L99.2406 142.143C99.0754 142.439 98.9927 142.77 99.0005 143.105C99.0083 143.44 99.1063 143.767 99.2849 144.055C99.4635 144.343 99.7167 144.581 100.02 144.747C100.323 144.912 100.665 145 101.014 145ZM121.294 139.13H116.715V134.729H121.294V139.13ZM121.294 131.794H116.715V122.991H121.294V131.794Z" fill="#352B28"/>
    <path d="M76.6029 45.0325C76.5789 45.4887 76.8053 45.9056 76.938 46.3422C77.1577 47.1853 77.1358 48.0735 76.8749 48.9048C76.6312 49.7779 76.222 50.7012 76.5332 51.5546C76.605 51.7554 76.7139 51.9388 76.7792 52.1396C77.049 52.9691 76.5485 53.8422 76 54.521L78.1525 56.0337C78.4668 56.2949 78.8406 56.4741 79.2407 56.5554C79.6433 56.6034 80.1112 56.3873 80.194 55.99C80.2222 55.8547 80.194 55.7128 80.2201 55.5753C80.2466 55.3975 80.3151 55.2286 80.42 55.0828C80.5249 54.9369 80.663 54.8184 80.8229 54.7371C81.1462 54.5781 81.5068 54.5109 81.8654 54.5428C83.1865 54.6149 84.3096 55.4858 85.5109 56.0446C86.303 56.3886 87.1238 56.6617 87.9638 56.8609C88.4404 56.9854 88.9693 57.0989 89.4002 56.8609C89.8311 56.623 90.0292 56.0708 89.9965 55.5709C89.9296 55.0738 89.7749 54.5926 89.5395 54.1499C89.302 53.7078 89.1589 53.2209 89.1194 52.7202C89.1194 51.9868 89.5199 51.3189 89.6548 50.5986C89.8442 49.5749 89.459 48.5337 88.9889 47.6038C88.5187 46.674 87.9485 45.779 87.72 44.7662C87.6746 44.4592 87.5951 44.1583 87.4828 43.8691C87.3739 43.6495 87.2264 43.4513 87.0475 43.2841C86.24 42.4831 85.0887 42.1032 83.9613 42.0203C82.8339 41.9374 81.6957 42.1229 80.577 42.3172C80.1502 42.3783 79.7298 42.4784 79.3212 42.6162C78.7373 42.8489 78.1828 43.1501 77.6693 43.5133C77.16 43.8669 76.6355 44.3842 76.6029 45.0325Z" fill="#81665E"/>
    <g opacity="0.1">
        <path opacity="0.1" d="M88.6705 52.0232C88.6705 52.0868 88.6705 52.1505 88.6833 52.2121C88.7495 51.5902 89.0781 51.0066 89.1954 50.3847C89.2407 50.1355 89.2544 49.8817 89.236 49.6292C89.236 49.7395 89.2146 49.8414 89.1954 49.9602C89.061 50.6606 88.662 51.3101 88.6705 52.0232Z" fill="#352B28"/>
        <path opacity="0.1" d="M76.8775 47.1052C76.9027 46.6758 76.8543 46.2452 76.7346 45.8318C76.6083 45.5097 76.5049 45.1792 76.4252 44.8428C76.4252 44.8873 76.4082 44.9298 76.406 44.9744C76.3825 45.4179 76.6044 45.8233 76.7346 46.2478C76.817 46.5268 76.865 46.8147 76.8775 47.1052Z" fill="#352B28"/>
        <path opacity="0.1" d="M89.5171 55.1129C89.5022 55.3025 89.4426 55.4861 89.3433 55.6486C89.244 55.8112 89.1076 55.9483 88.9453 56.0488C88.5185 56.2802 88.0043 56.1698 87.5371 56.0488C86.7133 55.8554 85.9086 55.589 85.1325 55.2529C83.9547 54.7117 82.8538 53.8649 81.5587 53.7949C81.2071 53.7638 80.8536 53.8292 80.5367 53.9838C80.3799 54.0628 80.2445 54.1781 80.1417 54.3199C80.0388 54.4616 79.9716 54.6258 79.9457 54.7988C79.9307 54.9325 79.9457 55.0704 79.9201 55.202C79.8369 55.5883 79.3803 55.7984 78.9855 55.7517C78.5933 55.6727 78.2268 55.4985 77.9187 55.2445L76.022 53.9201C75.9515 54.0156 75.8811 54.109 75.8086 54.196L77.9187 55.6689C78.2268 55.9229 78.5933 56.0972 78.9855 56.1762C79.3803 56.2229 79.839 56.0127 79.9201 55.6265C79.9478 55.4949 79.9201 55.3569 79.9457 55.2232C79.9716 55.0503 80.0388 54.8861 80.1417 54.7443C80.2445 54.6025 80.3799 54.4873 80.5367 54.4082C80.8536 54.2536 81.2071 54.1883 81.5587 54.2194C82.8538 54.2894 83.9547 55.1362 85.1325 55.6774C85.9086 56.0135 86.7133 56.2799 87.5371 56.4733C88.0043 56.5943 88.5228 56.7046 88.9453 56.4733C89.3677 56.242 89.5619 55.705 89.5299 55.219C89.5277 55.1829 89.5213 55.1489 89.5171 55.1129Z" fill="#352B28"/>
        <path opacity="0.1" d="M76.5788 51.8827C76.6051 51.968 76.6243 52.0553 76.6364 52.1437C76.6694 51.9138 76.6497 51.6795 76.5788 51.4582C76.5148 51.2629 76.4081 51.0847 76.3377 50.8894C76.2863 50.7477 76.2534 50.6001 76.2395 50.4501C76.208 50.7417 76.2415 51.0366 76.3377 51.3139C76.4081 51.5091 76.5148 51.6895 76.5788 51.8827Z" fill="#352B28"/>
    </g>
    <path d="M78.9202 132.582C78.9064 132.645 78.8738 132.702 78.8276 132.743C78.7787 132.771 78.7238 132.784 78.6687 132.781C77.9524 132.799 77.2361 132.781 76.5219 132.837C75.8458 132.902 75.1678 133.061 74.4937 132.976C74.2781 132.984 74.0654 132.918 73.8852 132.786C73.705 132.654 73.5661 132.463 73.4877 132.239C73.4452 132.141 73.4076 132.041 73.3751 131.939C73.1894 131.411 73.0958 130.849 73.0994 130.282C73.0994 130.132 73.0994 129.987 73.0994 129.835C73.0906 129.671 73.0711 129.507 73.0411 129.347C72.98 129.162 72.9873 128.959 73.0612 128.78C73.3469 128.2 74.037 128.084 74.5682 128.039C75.7988 127.936 77.0363 128.037 78.2401 128.339C78.3347 128.854 78.4413 129.364 78.554 129.875C78.6372 130.25 78.7257 130.623 78.8196 130.994C78.8826 131.224 78.9337 131.458 78.9725 131.695C79.0223 131.991 79.0043 132.296 78.9202 132.582Z" fill="#352B28"/>
    <path opacity="0.06" d="M78.922 132.678C78.9073 132.727 78.8725 132.771 78.8231 132.802C78.7709 132.824 78.7122 132.834 78.6534 132.832C77.8884 132.845 77.1235 132.832 76.3607 132.875C75.6387 132.924 74.9145 133.047 74.1947 132.981C73.9644 132.988 73.7373 132.937 73.5448 132.835C73.3523 132.734 73.204 132.587 73.1203 132.415C73.0749 132.34 73.0347 132.263 73 132.185H73.275C74.1797 132.185 75.0865 132.159 75.9911 132.159C76.264 132.159 76.539 132.149 76.8098 132.123C77.0805 132.097 77.3018 132.061 77.5489 132.037C77.9188 132.009 78.2904 131.997 78.662 132.001H78.9671C79.023 132.226 79.0075 132.459 78.922 132.678Z" fill="#352B28"/>
    <path d="M94.7455 128.096C94.5177 128.35 94.2266 128.546 93.8991 128.664C92.4434 129.25 90.7608 128.986 89.2581 128.51C88.922 128.391 88.5769 128.296 88.2257 128.227C87.9053 128.184 87.5822 128.163 87.2586 128.163C87.0276 128.163 86.7966 128.145 86.5656 128.132C85.9808 128.096 85.3982 128.042 84.8175 127.987C84.4127 127.959 84.0108 127.901 83.6154 127.814C83.5029 127.786 83.395 127.744 83.2944 127.689C83.2086 127.653 83.1353 127.594 83.0832 127.52C83.0311 127.446 83.0022 127.359 83 127.269C83.0164 127.022 83.2862 126.879 83.5234 126.772C85.6272 125.904 87.9129 125.527 90.1823 125.225C90.4131 125.188 90.6379 125.122 90.8508 125.03C91.1064 124.932 91.1329 125.092 91.2597 125.272C91.3196 125.355 91.3881 125.432 91.4641 125.502C91.7106 125.714 92.0001 125.876 92.3146 125.978C92.8667 126.173 93.4575 126.226 94.0095 126.411C94.1765 126.466 94.3363 126.539 94.4859 126.629C94.6179 126.698 94.7317 126.794 94.8186 126.912C94.9055 127.029 94.9632 127.163 94.9873 127.305C95.0114 127.446 95.0012 127.591 94.9575 127.728C94.9138 127.866 94.8378 127.992 94.7353 128.096H94.7455Z" fill="#352B28"/>
    <path opacity="0.06" d="M94.7221 128.238C94.4792 128.452 94.1688 128.617 93.8196 128.717C92.2675 129.211 90.4733 128.988 88.871 128.587C88.5126 128.486 88.1446 128.406 87.7701 128.348C87.4285 128.312 87.084 128.294 86.739 128.294C86.4927 128.294 86.2463 128.279 86 128.267C86.2006 128.124 86.4055 127.984 86.6148 127.849C86.7664 127.742 86.9412 127.655 87.1314 127.593C87.3683 127.534 87.6208 127.521 87.8661 127.555C89.113 127.685 90.2335 128.345 91.4914 128.287C92.0774 128.236 92.6443 128.098 93.1591 127.881C93.5777 127.752 93.9509 127.551 94.2491 127.295C94.339 127.206 94.4077 127.106 94.4518 127C94.5926 127.058 94.7139 127.139 94.8066 127.238C94.8993 127.337 94.9608 127.45 94.9864 127.57C95.0121 127.689 95.0012 127.811 94.9547 127.927C94.9081 128.043 94.8271 128.149 94.7178 128.238H94.7221Z" fill="#352B28"/>
    <path d="M94.2032 91.9018C93.9791 92.3446 93.6921 92.825 93.2079 92.9623C92.504 93.1616 91.827 92.5372 91.5199 91.8819C91.1013 90.92 91.0224 89.847 91.2957 88.8354C91.4235 88.324 91.6185 87.8325 91.7284 87.3188C91.8077 86.8866 91.8556 86.4493 91.8719 86.0104C91.9381 85.3556 91.9223 84.6953 91.8248 84.0443C91.4639 82.1425 89.8072 80.7233 89.2558 78.8547C88.9778 77.9226 88.9913 76.9308 89.007 75.9588C89.0017 75.7131 89.0273 75.4677 89.0832 75.2282C89.0999 75.1629 89.1224 75.0992 89.1504 75.0378C89.5203 74.2275 90.6165 74.1168 91.3787 73.6452C91.8001 73.3862 92.7573 72.5515 93.1115 73.3131C93.188 73.4827 93.2451 73.6602 93.2819 73.8422C93.4276 74.5197 93.3693 75.3145 93.4052 75.9544C93.5419 78.3721 94.1517 80.7853 93.8692 83.1897C93.8019 83.5996 93.7689 84.0143 93.7706 84.4296C93.8311 85.4701 94.4902 86.3712 94.7928 87.3675C95.2591 88.8664 94.8847 90.4981 94.2032 91.9018Z" fill="#E3B5A5"/>
    <path opacity="0.1" d="M94 74.1459C93.8017 74.0655 93.5843 74.0655 93.386 74.1459L91.5788 74.7421C90.9454 74.9307 90.3282 75.181 89.7341 75.4903C89.4748 75.6324 89.2289 75.8032 89 76C89.0199 75.9121 89.0467 75.8263 89.0801 75.7436C89.5206 74.6526 90.8259 74.5036 91.7336 73.8687C92.2354 73.5199 93.3753 72.3961 93.7971 73.4215C93.8889 73.6537 93.957 73.8967 94 74.1459Z" fill="#352B28"/>
    <path d="M93.885 73.6417C93.7988 73.5893 93.7015 73.5578 93.601 73.5498C93.5004 73.5417 93.3993 73.5573 93.3058 73.5952L91.8747 74.0177C91.3732 74.1513 90.8844 74.3288 90.414 74.5479C90.1643 74.6693 89.9307 74.8211 89.7185 75C89.0505 73.8402 88.8729 72.465 88.7503 71.1341C88.6827 70.3589 88.6319 69.5815 88.6024 68.8104C88.5692 68.2555 88.5805 67.6989 88.6362 67.1458C88.7165 66.512 88.9004 65.8931 89.0146 65.2635C89.0826 64.895 89.1263 64.5224 89.1456 64.1481C89.2005 63.3304 89.1629 62.5091 89.0336 61.6998C88.9107 60.8395 88.7141 59.9914 88.4459 59.1648C88.3106 58.7866 88.1479 58.4212 87.9999 58.0494L87.9491 57.9184C87.6819 57.237 87.4636 56.5374 87.2959 55.8249C87.2283 55.5334 87.2241 55.2271 87 55.0285C87.2104 55.0032 87.4224 54.9947 87.6342 55.0032C87.6765 55.0032 87.7187 55.0032 87.761 55.0032C88.6294 55.0577 89.4661 55.3501 90.1793 55.8482C91.0979 56.5105 91.7961 57.4334 92.1833 58.4972C92.6294 59.6866 92.7034 60.9794 92.7604 62.249C92.8746 64.7446 92.9451 67.2415 92.9718 69.7399C92.9718 70.2194 92.993 70.7307 93.2678 71.1257C93.3449 71.223 93.4155 71.3254 93.4792 71.432C93.5785 71.6433 93.5637 71.8777 93.6441 72.0911C93.7031 72.2192 93.7701 72.3433 93.8449 72.4629C93.9395 72.6438 93.9923 72.8437 93.9992 73.0477C94.0062 73.2518 93.9671 73.4547 93.885 73.6417Z" fill="#352B28"/>
    <path d="M87.9167 56.6992C87.8762 56.8443 87.8356 56.9895 87.791 57.1261C87.6881 57.4768 87.5627 57.8198 87.4159 58.1528C87.1862 58.6998 86.8609 59.1965 86.457 59.617C86.3236 59.7649 86.16 59.8788 85.9785 59.95C85.825 59.9914 85.6663 60.0072 85.5081 59.997C84.9675 59.997 84.4268 59.9884 83.8862 59.9714C83.4653 59.9763 83.0451 59.9326 82.6332 59.8412C82.1799 59.711 81.7488 59.5064 81.356 59.235C79.8415 58.2488 78.5966 56.7461 78.0634 54.9659C77.9965 54.7397 77.9499 54.4686 78.0979 54.2914C78.2435 54.1663 78.427 54.1004 78.6149 54.1057H78.6392C79.0751 54.046 79.4951 53.8943 79.8739 53.6596C80.1193 53.5274 80.3172 53.3146 80.4375 53.0534C80.5197 52.7439 80.5133 52.4157 80.4193 52.11L79.9692 49.9584C79.9223 49.6138 79.7994 49.2856 79.6103 49C79.7421 49.0491 79.8739 49.0939 80.0158 49.1323C81.2688 49.4888 82.6393 49.2732 83.8679 49.7407C84.3383 49.9221 84.8087 50.2487 84.9506 50.7567C85.1878 51.6105 84.3951 52.4963 84.6221 53.3501C84.7742 53.9307 85.3358 54.2658 85.8386 54.5369L86.1772 54.7183L87.1159 55.22L87.2456 55.2883L87.2659 55.2989C87.5619 55.4569 87.8741 55.6533 87.9775 55.9884C88.0216 56.2266 88.0005 56.4731 87.9167 56.6992Z" fill="#E3B5A5"/>
    <path opacity="0.1" d="M90.9759 61.6393C90.9399 62.1705 90.8076 62.6911 90.5852 63.1769C90.1589 64.0172 89.9304 64.9402 89.9163 65.8782C89.7528 68.6833 88.6636 72.0224 90.2242 74.3787C90.2624 74.4369 90.3007 74.4951 90.3367 74.5553C90.086 74.6747 89.8514 74.8241 89.6382 75C88.9672 73.8592 88.7889 72.5066 88.6657 71.1975C88.5978 70.4349 88.5468 69.6703 88.5171 68.9118C88.4838 68.366 88.4952 67.8185 88.5511 67.2745C88.6318 66.6511 88.8165 66.0423 88.9311 65.4231C88.9994 65.0606 89.0434 64.6941 89.0628 64.326C89.1179 63.5216 89.0801 62.7138 88.9503 61.9177C88.8268 61.0716 88.6293 60.2374 88.36 59.4243C88.2241 59.0524 88.0606 58.6929 87.912 58.3272L87.861 58.1984C87.6204 58.7308 87.2797 59.2143 86.8567 59.6238C86.7171 59.7677 86.5457 59.8786 86.3556 59.9479C86.1949 59.9882 86.0287 60.0036 85.863 59.9936C85.2968 59.9936 84.7306 59.9853 84.1644 59.9687C83.7236 59.9735 83.2836 59.931 82.8523 59.8419C82.3775 59.7152 81.9261 59.5161 81.5146 59.2518C79.9285 58.2919 78.6248 56.829 78.0664 55.0961C77.9963 54.8758 77.9475 54.6119 78.1025 54.4395C78.255 54.3177 78.4472 54.2536 78.6439 54.2587H78.6694L80.5804 56.5714C80.7995 56.8162 80.9851 57.0879 81.1324 57.3797C81.1609 57.4776 81.2204 57.5641 81.3023 57.6269C81.3687 57.6566 81.4417 57.6695 81.5146 57.6643C83.3088 57.6643 85.6995 57.6643 87.4937 57.6643C87.4996 57.3532 87.4077 57.0479 87.2304 56.7896C87.1752 56.802 87.1009 56.8062 87.2156 56.7729C87.1118 56.0984 86.8891 55.4467 86.5573 54.8467C86.5375 54.8055 86.5155 54.7653 86.4915 54.7262C86.3489 54.5207 86.2427 54.2931 86.1773 54.053C86.4038 53.9823 86.6472 53.9823 86.8737 54.053C87.1349 54.1631 87.2708 54.4395 87.3854 54.6951C87.4831 54.9028 87.5808 55.1252 87.6678 55.3434C87.6678 55.3662 87.689 55.3911 87.6975 55.414C87.8827 55.8439 88.2496 56.1953 88.05 56.7625C88.0627 56.9329 88.1052 57.149 88.2496 57.2051C88.2723 57.2153 88.2968 57.2209 88.3218 57.2217C88.4713 57.1682 88.6336 57.1594 88.7883 57.1964C88.9429 57.2334 89.0828 57.3145 89.1902 57.4295C89.3991 57.6637 89.545 57.945 89.6148 58.2482C89.6839 58.5513 89.7849 58.8466 89.9163 59.1292C90.1902 59.6404 89.772 59.869 90.2667 60.1827C90.498 60.3073 90.6971 60.4821 90.8485 60.6939C90.9884 60.9889 91.0328 61.3188 90.9759 61.6393Z" fill="#352B28"/>
    <path opacity="0.1" d="M78.6609 128.356C78.7631 128.896 78.8783 129.432 79 129.967L78.987 130C77.9936 129.53 76.9764 129.039 75.8918 128.936C74.8854 128.842 73.7921 129.136 73.1074 129.925C73.0979 129.753 73.0768 129.582 73.0444 129.413C72.9784 129.219 72.9863 129.006 73.0661 128.819C73.3747 128.21 74.1203 128.088 74.6941 128.041C76.0235 127.933 77.3604 128.039 78.6609 128.356Z" fill="#352B28"/>
    <path opacity="0.1" d="M91 125.491C90.1393 126.034 89.3304 126.654 88.5836 127.342C88.3667 127.572 88.1081 127.759 87.8212 127.894C87.525 127.988 87.212 128.02 86.9025 127.988C85.6884 127.939 84.4781 127.82 83.2779 127.632C83.1969 127.597 83.1278 127.54 83.0785 127.467C83.0293 127.394 83.0021 127.309 83 127.222C83.0154 126.979 83.2702 126.84 83.4941 126.735C85.4801 125.885 87.6379 125.516 89.7802 125.22C89.9981 125.184 90.2103 125.12 90.4113 125.029C90.6526 124.933 90.6777 125.09 90.7973 125.266C90.8569 125.348 90.9248 125.423 91 125.491Z" fill="#352B28"/>
    <path d="M76.0393 54.7499C76.3492 55.0285 76.7033 55.2539 77.0174 55.524C77.8607 56.2449 78.392 57.2528 78.9148 58.2353C78.6047 58.3483 78.2694 58.3712 77.9471 58.3012C77.7814 59.2446 77.8094 60.2123 78.0293 61.1443C77.6075 61.4363 77.2799 61.8466 77.087 62.3246C76.9371 62.8096 76.8341 63.3081 76.7792 63.8131C76.4757 66.0261 76.1707 68.2391 75.8643 70.4521C75.8581 70.6687 75.7844 70.8778 75.6535 71.0496C75.595 71.0973 75.5413 71.1507 75.4933 71.2091C75.4287 71.3522 75.4033 71.51 75.4195 71.6663C75.4068 71.8216 75.3056 72.0066 75.1517 71.9853C75.077 71.9673 75.0107 71.9237 74.9641 71.862C74.8102 71.6975 74.6692 71.5212 74.5425 71.3346C73.2987 73.7418 72.7 76.3361 72.0422 78.9688C71.5721 80.8443 71.102 82.7412 71.0788 84.6763C71.0852 85.5918 71.1422 86.5062 71.2496 87.4153L71.4351 89.2823C71.5848 90.7837 71.7344 92.2871 71.8968 93.7884C72.0022 94.7411 72.1076 95.7023 72.447 96.5997C72.953 97.9628 72.3922 99.5002 72.6072 100.942C72.7759 102.071 73.1111 103.239 72.7738 104.327C72.6388 104.763 72.4027 105.161 72.2256 105.582C71.7914 106.628 71.7471 107.792 71.7091 108.925C71.6409 109.918 71.6776 110.916 71.8188 111.902C72.0001 112.921 72.4069 113.918 72.3268 114.947C72.2151 116.412 71.1442 117.665 71.0135 119.128C70.9102 120.295 71.4182 121.422 71.9642 122.458C72.3669 123.221 71.8061 124.208 71.5932 125.048C71.1716 126.694 71.8736 128.417 72.7337 129.877C72.7556 129.928 72.7945 129.968 72.8433 129.992C72.9424 130.028 73.0309 129.931 73.0963 129.848C73.7435 129.01 74.8903 128.693 75.9423 128.784C76.9943 128.876 77.9788 129.314 78.9443 129.748L80.3125 126.675C80.5444 126.154 80.7805 125.59 80.6645 125.031C80.5823 124.631 80.3272 124.293 80.1459 123.927C79.7243 123.064 79.7032 122.058 79.699 121.091L79.6737 115.626C80.7404 114.273 81.3918 112.665 81.8029 110.986C82.4336 113.348 82.477 115.832 81.9294 118.216C81.8281 118.576 81.7576 118.945 81.7186 119.317C81.6364 120.833 82.8148 122.116 83.1289 123.6C83.1594 123.714 83.168 123.832 83.1542 123.949C83.1189 124.092 83.0597 124.229 82.9793 124.353C82.4143 125.386 82.4754 126.639 82.5576 127.817C84.036 128.076 85.5297 128.238 87.029 128.3C87.367 128.334 87.7084 128.298 88.0325 128.195C88.3459 128.044 88.6284 127.835 88.8652 127.579C89.8224 126.671 90.8733 125.869 92 125.186C91.3708 124.133 90.4902 123.256 89.4386 122.635C89.778 122.131 90.5517 122.171 91.0028 121.767C91.2294 121.541 91.3773 121.247 91.4245 120.929C91.5931 120.095 91.3844 119.228 91.1757 118.409C90.771 116.797 90.3641 115.179 89.7 113.656C89.3997 113.031 89.135 112.388 88.9074 111.732C88.355 109.899 88.7408 107.904 88.3234 106.031C88.1885 105.431 87.9713 104.812 88.1231 104.215C88.355 103.294 89.388 102.747 89.6157 101.825C90.4315 98.539 90.577 95.1345 91.0408 91.781C91.1445 91.1404 91.2002 90.4928 91.2073 89.8437C91.2073 89.1654 91.0872 88.4934 91.0387 87.8172C90.849 85.1101 91.707 82.4095 91.4877 79.7045C91.3473 78.0376 90.8029 76.431 89.9024 75.0262C88.3529 72.6126 88.9237 70.5 89.5 67.5C89.6921 66.5 89.6437 65.6875 89.9024 64.5C90.0794 63.6875 90.1085 63.2241 90.1437 62.6802C90.1437 62.3557 90.0442 61.8103 89.9024 61.5C89.754 61.2824 89.7755 61.1456 89.5988 60.828C89.2404 60.1838 89.7719 60.0231 89.5 59.5C89.3692 59.2109 89.3761 58.8007 89.3079 58.4905C89.2389 58.1807 89.0939 57.8933 88.8863 57.6547C88.7797 57.537 88.6408 57.454 88.4872 57.4161C88.3337 57.3782 88.1725 57.3873 88.024 57.4421C87.8238 57.4421 87.769 57.1741 87.7521 56.9721C87.6952 56.2321 87.3916 55.5367 87.0944 54.8563C86.9805 54.5947 86.8456 54.3119 86.5863 54.1992C86.3605 54.1279 86.1185 54.1279 85.8927 54.1992C85.958 54.4458 86.0642 54.6794 86.2068 54.8903C86.5722 55.5369 86.8153 56.2465 86.9236 56.9828C87.1344 56.9828 87 56.5 86.9236 56.9828C87.1124 57.2481 87.2094 57.5686 87.1998 57.895C85.4205 57.895 83.0467 57.895 81.2653 57.895C81.193 57.9008 81.1204 57.8876 81.0545 57.8568C80.9733 57.792 80.9137 57.7037 80.8838 57.6037C80.7388 57.305 80.5544 57.0274 80.3357 56.7786L78.2486 54.1821C78.2023 54.1143 78.1409 54.0582 78.0694 54.0184C77.9832 53.9939 77.892 53.9939 77.8059 54.0184C77.1292 54.1184 76.6295 54.4033 76.0393 54.7499Z" fill="#95AB9D"/>
    <path opacity="0.1" d="M83.5072 90.0002C83.8123 89.9953 84.113 90.0872 84.3778 90.2664C84.5093 90.3578 84.6183 90.4881 84.6942 90.6444C84.77 90.8007 84.8101 90.9777 84.8105 91.1579C84.7908 91.5572 84.5316 91.8741 84.3439 92.2143C84.2277 92.4215 84.1351 92.646 84.0685 92.8819C84.048 92.9355 84.043 92.9956 84.0542 93.053C84.0757 93.1333 84.149 93.1734 84.2116 93.2093C84.439 93.3309 84.6333 93.525 84.7726 93.7698C84.9118 94.0146 84.9906 94.3004 85 94.5952C84.9839 95.4192 84.3027 96.0868 84.3403 96.9191C84.3573 97.0925 84.3824 97.2646 84.4154 97.4346C84.4972 98.1441 84.4137 98.8665 84.174 99.524C83.9577 100.187 83.6627 100.811 83.4303 101.468C82.8027 103.253 82.6669 105.23 82.7151 107.172C82.7527 108.49 82.3576 109.745 82 111C82.2021 108.472 82.2558 105.931 82.1609 103.394C82.1359 102.706 82.0626 102.055 82.0894 101.364C82.1323 100.268 82.6508 99.2705 82.7831 98.1952C82.8582 97.5804 82.8081 96.9551 82.8206 96.3339C82.8456 95.0663 83.1371 93.8156 83.1567 92.5438C83.1818 91.6459 83.112 90.7206 83.5072 90.0002Z" fill="#352B28"/>
    <path d="M74.307 55.5702C73.8854 55.7827 73.4909 56.0461 73.1323 56.3548C72.7575 56.7313 72.444 57.1654 72.2035 57.641C71.9107 58.1802 71.6481 58.7356 71.4169 59.3045C71.1179 60.0419 70.8698 60.8587 71.0755 61.6283C71.2621 62.3249 71.7901 62.8673 72.1548 63.4868C72.5195 64.1063 72.7336 64.833 73.0135 65.5126C73.3867 66.4194 73.8977 67.264 74.2667 68.1729C74.6356 69.0818 74.8582 70.1022 74.625 71.0475C74.5572 71.3262 74.1098 71.5427 74.1098 71.8278C74.1098 72.2994 74.784 72.8118 75.2314 72.949C75.7467 73.1098 76.3086 72.8697 76.7305 72.5202C77.5045 71.9007 77.9752 70.9725 78.3229 70.0379C78.8827 68.5373 79.1817 66.9446 79.451 65.3625C79.646 64.2007 79.8284 63.0366 79.9323 61.8662C80.0277 60.8115 80.0574 59.7225 79.7817 58.7107C79.5245 57.782 79.0242 56.9407 78.3335 56.2755C77.7822 55.7396 76.879 55.0193 76.0775 55C75.4435 54.9979 74.8498 55.268 74.307 55.5702Z" fill="#352B28"/>
    <path d="M79.9994 80.7202C79.9772 80.8666 79.9248 81.0061 79.8459 81.1292C79.7671 81.2522 79.6636 81.356 79.5426 81.4332C79.3009 81.5867 79.0375 81.6994 78.7621 81.7671C78.2132 81.9341 77.6314 82.0883 77.0763 81.9406C76.64 81.7921 76.2372 81.5525 75.8923 81.2362L69.6896 76.2736C69.1914 75.9044 68.7332 75.4794 68.3233 75.0062C68.088 74.7006 67.8718 74.3795 67.676 74.0449C67.4168 73.6618 67.2138 73.2404 67.0738 72.7946C67.0238 72.5984 66.999 72.3961 67 72.193C66.9984 72.001 67.0435 71.8116 67.1311 71.6428C67.2807 71.3816 67.6002 71.3281 67.8624 71.2553C68.7425 71.0175 69.6559 70.945 70.5602 71.0412C70.6397 71.0372 70.7182 71.0603 70.7839 71.1071C70.8497 71.1538 70.8992 71.2216 70.9248 71.3003C71.0621 71.5636 71.1809 71.8376 71.3038 72.1117C71.4924 72.5789 71.7383 73.0186 72.0351 73.4198C72.3211 73.7447 72.6255 74.0514 72.9466 74.3382C73.6021 74.9805 74.1388 75.7512 74.8373 76.3421C75.6465 77.025 76.6297 77.434 77.5515 77.9371C78.4733 78.4402 79.3828 79.0932 79.8458 80.0673C79.9532 80.2661 80.0063 80.492 79.9994 80.7202Z" fill="#E3B5A5"/>
    <path opacity="0.1" d="M88 46.499C88.0003 47.9014 87.4648 49.251 86.503 50.2717C85.5413 51.2924 84.2259 51.9072 82.826 51.9903C81.426 52.0734 80.0471 51.6186 78.9714 50.7188C77.8956 49.8191 77.2042 48.5423 77.0385 47.1497C76.8729 45.7571 77.2454 44.3538 78.0801 43.2268C78.9147 42.0997 80.1484 41.3341 81.5288 41.0865C82.9092 40.8388 84.332 41.1278 85.5064 41.8944C86.6808 42.661 87.518 43.8473 87.8467 45.2106C87.9487 45.6325 88.0001 46.065 88 46.499Z" fill="#352B28"/>
    <path d="M88 46.499C88.0003 47.9014 87.4648 49.251 86.503 50.2717C85.5413 51.2924 84.2259 51.9072 82.826 51.9903C81.426 52.0734 80.0471 51.6186 78.9714 50.7188C77.8956 49.8191 77.2042 48.5423 77.0385 47.1497C76.8729 45.7571 77.2454 44.3538 78.0801 43.2268C78.9147 42.0997 80.1484 41.3341 81.5288 41.0865C82.9092 40.8388 84.332 41.1278 85.5064 41.8944C86.6808 42.661 87.518 43.8473 87.8467 45.2106C87.9487 45.6325 88.0001 46.065 88 46.499Z" fill="#E3B5A5"/>
    <path opacity="0.1" d="M71 71.9149C70.783 72.0445 70.4612 72.0019 70.1928 71.9451C69.1342 71.7249 67.9653 71.5669 67 71.9895C66.9985 71.8302 67.0404 71.6732 67.1219 71.5331C67.2609 71.3165 67.5579 71.2721 67.8016 71.2118C68.6195 71.0145 69.4684 70.9544 70.3089 71.0342C70.3827 71.0309 70.4557 71.0501 70.5168 71.0888C70.578 71.1276 70.6239 71.1838 70.6478 71.249C70.7754 71.4603 70.8858 71.6876 71 71.9149Z" fill="#352B28"/>
    <path d="M69.5627 65.2346C69.2944 66.0362 69.0742 66.8598 68.5485 67.5392C68.3748 67.7178 68.244 67.9281 68.1647 68.1564C68.1587 68.3249 68.1286 68.492 68.0752 68.6534C68.0011 68.7896 67.8441 68.8798 67.7808 69.0201C67.687 69.2205 67.8092 69.479 67.6848 69.6674C67.6266 69.743 67.5569 69.8105 67.4776 69.8678C67.181 70.1203 67.1069 70.5231 67.1003 70.8958C67.0938 71.2686 67.133 71.6493 67 72C68.1516 71.3687 69.6172 71.5571 70.9258 71.8257C71.2901 71.8998 71.7416 71.9559 71.9771 71.6874C72.2127 71.4188 72.0774 71.0662 72.1101 70.7435C72.1538 70.3227 72.4678 69.974 72.6619 69.5912C72.88 69.1604 72.9542 68.6794 73.1221 68.2305C73.4689 67.2867 74.2126 66.5171 74.6903 65.6254C74.8671 65.3187 74.9726 64.9815 75 64.6354C74.9835 64.1867 74.856 63.7474 74.627 63.3509C74.1731 62.4273 73.6331 61.5416 73.0131 60.7036C72.7361 60.3289 72.2584 59.6355 71.8288 60.2347C71.4798 60.7176 71.2617 61.3329 71.0044 61.8619C70.4498 62.9582 69.9683 64.0845 69.5627 65.2346Z" fill="#352B28"/>
    <path d="M88.5 57.5C87.8622 57.5435 86.7226 56.9354 86.1279 56.7028C85.5333 56.4702 84.9986 56.109 84.5629 55.6457C84.4896 55.5795 84.4365 55.4942 84.41 55.3995C84.3978 55.2765 84.4327 55.1534 84.5077 55.0545C84.7626 54.6653 85.2023 54.4087 85.4063 53.99C85.6102 53.5714 85.5401 53.0897 85.5592 52.631C85.5932 51.8085 85.9203 50.9944 85.948 50.1844C85.9578 49.9771 85.9421 49.7694 85.9012 49.5659C85.8035 49.2637 85.7435 48.9507 85.7228 48.634C85.7504 48.0176 86.3112 47.5379 86.4047 46.93C86.5258 46.1558 85.8779 45.4826 85.2257 45.0366C84.7284 44.6951 84.1886 44.4186 83.6198 44.2141C83.2703 44.0901 82.9086 44.0034 82.5406 43.9553C81.8546 43.8635 81.1563 43.9408 80.5077 44.1804C80.2392 44.2807 79.985 44.4151 79.7515 44.5801C79.6123 44.6673 79.4965 44.7863 79.4137 44.9272C79.3456 45.0859 79.3151 45.2579 79.3245 45.43C79.3117 46.2904 79.4095 47.2056 78.9952 47.9545C78.7828 48.3563 78.4217 48.6824 78.2454 49.1073C78.1732 49.2841 78.1281 49.4706 78.1115 49.6606C78.0903 49.8576 78.0796 50.0557 78.0797 50.2538C78.0669 51.3625 78.0797 52.5322 78.649 53.4936C78.8499 53.7842 79.0322 54.0871 79.1949 54.4003C79.2738 54.5587 79.3104 54.7345 79.3011 54.911C79.2918 55.0874 79.2369 55.2585 79.1418 55.408C79.0268 55.5443 78.8813 55.6523 78.7169 55.7235C78.2952 55.9239 77.8362 56.036 77.3687 56.0526C76.9012 56.0693 74.9352 56.2225 74.5 56.0526C75.009 55.575 75.6595 54.8984 75.803 54.2188C75.9465 53.5391 75.5908 52.9424 75.3177 52.3029C75.1643 52.0446 75.0646 51.7584 75.0246 51.4614C75.0459 51.1938 75.118 50.9326 75.237 50.6914C75.5282 49.9009 76.0586 48.756 75.8518 47.9398C75.7223 47.4391 75.4971 46.9552 75.4567 46.4398C75.423 46.0508 75.5 45.5 75.8518 45.125C76.3631 44.5801 76.9303 43.943 77.3925 43.4162C77.8548 42.8895 78.455 42.4994 79.1269 42.2892C79.2353 42.2534 79.3394 42.2197 79.4583 42.1903C79.9737 42.077 80.5002 42.0212 81.0282 42.0241C82.2071 41.9862 83.4031 41.9526 84.5396 42.2576C85.2068 42.4306 85.8275 42.7466 86.3579 43.1833C86.7345 43.4967 87.3961 43.7974 87.5985 44.2414C87.7091 44.4972 87.7924 44.7637 87.8471 45.0366C87.8959 45.2617 87.932 45.4889 87.9681 45.7161C88.2252 47.3339 88.1211 49.0758 87.8471 50.6914C87.7387 51.3225 87.5497 51.9536 87.4647 52.5974C87.2586 54.0805 89 55.5 88.5 57.5Z" fill="#81665E"/>
    <path d="M80.5 59C80.7761 59 81 58.7761 81 58.5C81 58.2239 80.7761 58 80.5 58C80.2239 58 80 58.2239 80 58.5C80 58.7761 80.2239 59 80.5 59Z" fill="white"/>
    <path d="M87.5 59C87.7761 59 88 58.7761 88 58.5C88 58.2239 87.7761 58 87.5 58C87.2239 58 87 58.2239 87 58.5C87 58.7761 87.2239 59 87.5 59Z" fill="white"/>
    <path opacity="0.1" d="M81 39L80 37.296C80.0634 37.2278 80.1328 37.1644 80.2075 37.1064C80.3519 37.026 80.521 36.9896 80.69 37.0025L81 39Z" fill="#352B28"/>
    <path opacity="0.1" d="M83 36.328L82.3629 38L82 36.1658C82.1548 36.0477 82.3224 35.9915 82.4909 36.001C82.6696 36.0589 82.8417 36.1694 83 36.328Z" fill="#352B28"/>
    <g opacity="0.1">
        <path opacity="0.1" d="M79.5404 54.9201C79.4249 55.0577 79.2788 55.1667 79.1137 55.2385C78.357 55.5986 77.494 55.6703 76.6877 55.4401C76.594 55.5535 76.4928 55.6605 76.3848 55.7606C76.8219 55.932 77.2899 56.0118 77.7595 55.995C78.229 55.9782 78.69 55.8651 79.1137 55.6629C79.2788 55.5911 79.4249 55.4821 79.5404 55.3446C79.6138 55.2386 79.6639 55.1184 79.6874 54.9919C79.711 54.8654 79.7074 54.7353 79.6769 54.6102C79.6556 54.7225 79.6089 54.8284 79.5404 54.9201Z" fill="#352B28"/>
        <path opacity="0.1" d="M77.2252 47.8118C77.2949 48.0899 77.3357 48.3744 77.3469 48.6607C77.3715 48.2326 77.3304 47.8032 77.2252 47.3873C77.0951 46.8822 76.8689 46.394 76.8284 45.8741C76.8284 45.8083 76.8284 45.7425 76.8177 45.6746C76.8075 45.8826 76.811 46.091 76.8284 46.2985C76.8689 46.8185 77.0951 47.3067 77.2252 47.8118Z" fill="#352B28"/>
        <path opacity="0.1" d="M88.2691 50.5879C88.3597 50.0266 88.3982 49.4583 88.3843 48.89C88.3768 49.3167 88.3383 49.7423 88.2691 50.1634C88.1603 50.8001 87.9704 51.4369 87.8851 52.0863C87.8411 52.4347 87.8247 52.7859 87.836 53.1369C87.8418 52.9275 87.8582 52.7185 87.8851 52.5108C87.9704 51.8613 88.1603 51.231 88.2691 50.5879Z" fill="#352B28"/>
        <path opacity="0.1" d="M77.1827 51.4986C77.071 51.2896 76.9809 51.0699 76.9139 50.8428C76.8958 50.9193 76.8872 50.9977 76.8883 51.0762C76.9285 51.3759 77.0286 51.6646 77.1827 51.9252C77.3394 52.281 77.4297 52.6621 77.4494 53.05C77.488 52.519 77.3965 51.9866 77.1827 51.4986Z" fill="#352B28"/>
        <path opacity="0.1" d="M86.3298 49.438C86.3485 49.5349 86.3621 49.6328 86.3704 49.7311C86.3704 49.6993 86.3704 49.6695 86.3704 49.6377C86.3802 49.4284 86.3645 49.2187 86.3234 49.0133C86.2764 48.7903 86.1996 48.5694 86.1633 48.3442C86.1527 48.3946 86.1462 48.4457 86.144 48.4972C86.167 48.8172 86.2294 49.1332 86.3298 49.438Z" fill="#352B28"/>
        <path opacity="0.1" d="M84.9856 55.1468C84.9528 55.1127 84.9222 55.0765 84.8939 55.0386C84.8414 55.1236 84.8196 55.2239 84.832 55.323C84.8587 55.4185 84.912 55.5046 84.9856 55.5713C85.4232 56.0388 85.9603 56.4031 86.5575 56.6378C87.1548 56.8724 87.7972 56.9714 88.4378 56.9275C88.4016 56.7874 88.3653 56.6495 88.3312 56.503C87.708 56.5315 87.0861 56.425 86.5085 56.1908C85.9308 55.9567 85.4112 55.6004 84.9856 55.1468Z" fill="#352B28"/>
        <path opacity="0.1" d="M86.8308 46.3835C86.8298 46.3757 86.8298 46.3679 86.8308 46.3602C86.9524 45.5791 86.3016 44.9 85.6466 44.45C85.1471 44.1054 84.605 43.8265 84.0336 43.6202C83.6827 43.4951 83.3193 43.4076 82.9497 43.3591C82.2607 43.2665 81.5593 43.3445 80.9079 43.5862C80.6382 43.6874 80.3829 43.823 80.1483 43.9895C80.0086 44.0774 79.8922 44.1975 79.8091 44.3397C79.7407 44.4997 79.71 44.6732 79.7194 44.8469C79.7194 44.9933 79.7194 45.1398 79.7194 45.2884V45.2714C79.71 45.0977 79.7407 44.9242 79.8091 44.7641C79.8922 44.622 80.0086 44.5018 80.1483 44.4139C80.3829 44.2474 80.6382 44.1119 80.9079 44.0107C81.5593 43.769 82.2607 43.691 82.9497 43.7836C83.3193 43.8321 83.6827 43.9196 84.0336 44.0447C84.605 44.251 85.1471 44.5299 85.6466 44.8745C86.1907 45.2395 86.7262 45.7659 86.8308 46.3835Z" fill="#352B28"/>
        <path opacity="0.1" d="M79.3932 47.4C79.1799 47.8053 78.8171 48.1343 78.6401 48.563C78.5676 48.7414 78.5223 48.9295 78.5056 49.1212C78.4843 49.32 78.4736 49.5198 78.4736 49.7197C78.4736 49.9001 78.4736 50.0826 78.4736 50.2652C78.4736 50.2248 78.4736 50.1845 78.4736 50.1442C78.4736 49.9443 78.4843 49.7445 78.5056 49.5457C78.5223 49.354 78.5676 49.1659 78.6401 48.9875C78.8171 48.563 79.1713 48.2298 79.3932 47.8244C79.7367 47.1877 79.7303 46.4555 79.7239 45.7275C79.7523 46.3035 79.6387 46.8776 79.3932 47.4Z" fill="#352B28"/>
    </g>
    <path opacity="0.1" d="M88 44.705C87.9707 44.7443 87.9364 44.7801 87.8978 44.8116C87.8227 44.87 87.7388 44.9174 87.6488 44.9524C87.0294 45.2058 87.055 44.3791 86.7314 44.0956C86.524 43.951 86.2693 43.8798 86.012 43.8944C85.3891 43.8649 84.7654 43.8388 84.1411 43.816C83.1002 43.7798 82.0615 43.7617 81.0228 43.7838C80.5248 43.7919 80.0281 43.8113 79.5329 43.8421C78.9582 43.8783 78.3409 43.9487 77.8514 44.2062C77.6838 44.2933 77.5322 44.4054 77.4023 44.538C77.2852 44.6587 77.1618 44.8116 77 44.8397C77.1167 44.1817 77.4235 43.5669 77.8866 43.0633C78.3497 42.5597 78.9511 42.1867 79.6244 41.9857C80.7144 41.2186 82.076 40.8792 83.4247 41.0385C84.7733 41.1978 86.0046 41.8434 86.8613 42.8405C87.2385 43.1402 87.5397 43.5162 87.7425 43.9407C87.8564 44.1862 87.9428 44.4424 88 44.705Z" fill="#352B28"/>
    <path d="M87.5634 44.9463C86.9613 45.2321 86.9862 44.2997 86.6717 43.9798C86.47 43.8167 86.2225 43.7364 85.9724 43.7529C83.8758 43.6017 81.7731 43.582 79.6745 43.694C78.9276 43.7484 78.1083 43.8709 77.6056 44.4789C77.4773 44.6332 77.3428 44.8328 77.1504 44.826C77.0863 44.3723 77.0408 43.9004 77.0097 43.4353C76.991 43.2611 76.9994 43.0847 77.0346 42.9135C77.0863 42.7184 77.2042 42.5528 77.2642 42.3623C77.3233 42.1199 77.3443 41.8682 77.3263 41.6181C77.3354 40.6926 77.5622 39.7853 77.9848 38.984C78.4074 38.1827 79.0115 37.5147 79.7387 37.0445C79.9212 36.9467 80.0904 36.8214 80.2414 36.6725C80.2939 36.604 80.3513 36.5402 80.4131 36.4819C80.5326 36.4012 80.6726 36.3646 80.8124 36.3775C80.9118 36.3775 81.0193 36.3775 81.1062 36.3775C81.3738 36.3452 81.6354 36.2687 81.8821 36.1507C82.1099 36.0434 82.3564 35.9923 82.6041 36.0009C82.8672 36.0536 83.1203 36.154 83.3531 36.2981C83.465 36.3573 83.5822 36.4036 83.7028 36.4365C83.891 36.4842 84.0855 36.4819 84.2738 36.5227C84.5787 36.6079 84.8683 36.749 85.1303 36.9402C85.443 37.1251 85.7323 37.3538 85.991 37.6208C86.2723 37.9733 86.4975 38.3751 86.6572 38.8095C86.9312 39.4097 87.1395 40.0433 87.2779 40.6971C87.4455 41.6363 87.3627 42.6526 87.7599 43.5057C88.002 44.0411 88.2234 44.6355 87.5634 44.9463Z" fill="#FFC775"/>
    <path opacity="0.1" d="M77 44C77 44 81.4192 39.9976 88 43.3167C88 43.3167 80.5707 41.6338 77 44Z" fill="#352B28"/>
    <path d="M28.3915 64.4725C27.7849 63.484 26.8728 62.5789 27.0148 61.4577C28.684 61.6481 30.2672 61.2437 31.7966 60.5397C33.3261 59.8358 34.7458 58.9221 36.1784 58.0256C36.742 57.6726 37.3034 57.3259 37.8627 57.005C38.7489 56.5 39.6287 55.9352 40.53 55.4409C41.8207 54.7348 43.1371 54.1571 44.587 54.0458C44.8496 54.0254 45.1131 54.019 45.3764 54.0266C47.1618 54.0608 49.0118 54.5379 50.582 53.742L50.6788 53.6906C51.5694 53.2049 52.2169 52.379 52.9805 51.7093C53.5295 51.237 54.1273 50.8239 54.7638 50.4768C55.9232 49.8349 57.1794 49.3214 58.3647 48.7159C58.668 48.5604 58.9561 48.377 59.2251 48.1681L59.4273 48.0076L59.4725 47.9691C59.5219 47.9285 59.5714 47.8878 59.6187 47.845L59.7112 47.7637L59.8059 47.6781L59.879 47.6096L59.9973 47.4984L60.0102 47.4834L60.1974 47.2994L60.2727 47.2245L60.4039 47.0897L60.4813 47.0127C60.6125 46.8779 60.7438 46.7409 60.8771 46.6083C61.0105 46.4756 61.1912 46.2959 61.3525 46.1482L61.5074 46.0113L61.5526 45.9728L61.6773 45.8701L61.7354 45.8209L61.858 45.7267L61.9182 45.6797C61.9785 45.6347 62.0409 45.5919 62.1032 45.5491C62.1606 45.5096 62.2211 45.4745 62.2839 45.4443L61.8817 44.475L63.039 44L79 82.525L77.8406 83L68.7114 60.9613L68.6468 61.0255C66.532 63.1012 63.9416 64.6345 61.0987 65.4931H61.0815C59.4918 65.9703 57.7129 66.3083 56.3749 67.1942C55.9005 67.5009 55.4882 67.8936 55.1595 68.3517C54.8455 68.7968 54.6261 69.3039 54.2991 69.7318C54.2367 69.811 54.1679 69.888 54.0991 69.9608C53.7079 70.3465 53.275 70.6881 52.8084 70.9793L52.6041 71.1183C51.2181 72.0883 49.7743 72.9736 48.2804 73.7694C47.4183 74.2157 46.5195 74.588 45.5937 74.882C44.9204 75.096 44.2256 75.2522 43.5523 75.464C43.0994 75.6004 42.6596 75.7766 42.238 75.9904C41.0979 76.5831 40.2224 77.5117 39.3943 78.5024C38.6694 79.3711 37.981 80.2912 37.1851 81.0828C36.6861 81.575 35.9267 82.0414 35.3244 81.7526L35.2018 81.682C35.2212 81.6499 35.2362 81.6178 35.2534 81.5835C35.7288 80.5929 35.1437 79.369 34.3564 78.5751C34.2747 78.4917 34.1908 78.4104 34.1048 78.3334C34.0187 78.2563 33.8638 78.1194 33.7412 78.0124C33.0679 77.4368 32.3516 76.9019 31.8848 76.1594C31.5286 75.5358 31.2867 74.854 31.1707 74.146C30.9556 73.1382 30.8114 72.1005 30.2608 71.2424C29.8994 70.6754 29.3616 70.1919 28.9701 69.6484C28.7226 69.3268 28.56 68.9487 28.4969 68.5486C28.4087 67.8532 28.7335 67.1728 28.8561 66.4795C28.8926 66.2906 28.9077 66.0983 28.9013 65.9061C28.8564 65.3929 28.6809 64.8996 28.3915 64.4725Z" fill="url(#paint0_linear)"/>
    <path d="M77.19 82.6578L78.3203 82.1943L62.7527 44.6236L61.6224 45.087L77.19 82.6578Z" fill="#857E7B"/>
    <path d="M31.1731 71.5404C31.7084 72.3886 31.8513 73.4109 32.0582 74.4052C32.1729 75.1041 32.409 75.7773 32.7556 76.3938C33.212 77.1261 33.9094 77.6544 34.5642 78.2214C34.6836 78.3266 34.8031 78.4361 34.9182 78.5392C35.0014 78.6144 35.0846 78.696 35.1635 78.7755C35.9313 79.5593 36.5007 80.7684 36.0379 81.7455C36.0237 81.7788 36.0073 81.8111 35.9889 81.8422C36.0263 81.8678 36.0655 81.8907 36.1062 81.9109C36.6948 82.1986 37.4349 81.7391 37.9212 81.2516C38.6975 80.4699 39.3693 79.5636 40.0752 78.7067C40.8814 77.7274 41.7367 76.8104 42.8478 76.2263C43.258 76.0148 43.6863 75.8408 44.1275 75.7066C44.7823 75.4918 45.4605 75.3394 46.1174 75.1332C47.0196 74.8426 47.8958 74.4755 48.7364 74.0358C50.1951 73.2496 51.6053 72.3754 52.9593 71.4179L53.1597 71.2805C53.6144 70.9936 54.0364 70.6573 54.4181 70.2776C54.4863 70.2046 54.5524 70.1294 54.6143 70.05C54.9427 69.6204 55.1581 69.1287 55.4674 68.6884C55.7881 68.2362 56.1904 67.8486 56.6532 67.5459C57.9585 66.6719 59.6903 66.3368 61.2408 65.8665H61.2578C64.0286 65.0178 66.5535 63.5049 68.6159 61.4576C68.7868 61.3138 68.9146 61.1249 68.9848 60.9121C69.0509 60.6093 68.8888 60.3087 68.7332 60.0424C68.5519 59.7288 68.3749 59.4153 68.2 59.0974C67.4134 57.656 66.7113 56.1695 66.0971 54.6456C65.9627 54.3106 65.8326 53.9777 65.7068 53.6405C65.384 52.7815 65.0897 51.9103 64.8238 51.0269C64.7364 50.7349 64.6511 50.4407 64.57 50.1465C64.5551 50.0906 64.538 50.0305 64.5231 49.9661C64.169 48.5336 63.6956 45.1813 62.2368 46.1842C61.8029 46.4966 61.3994 46.8496 61.0318 47.2387C60.7481 47.5286 60.4708 47.8271 60.1787 48.1149C59.9407 48.3506 59.6893 48.5721 59.4258 48.7785C59.1584 48.9846 58.8728 49.1658 58.5727 49.3197C57.4146 49.9167 56.1904 50.417 55.0622 51.057C54.4409 51.3989 53.8575 51.8063 53.3218 52.2725C52.5775 52.934 51.9462 53.75 51.0782 54.2289L50.9843 54.2805C49.453 55.0643 47.6508 54.594 45.9084 54.5597C45.6523 54.5532 45.396 54.5596 45.1406 54.579C43.7265 54.6864 42.4341 55.2576 41.1843 55.9556C40.3056 56.4452 39.4482 56.9993 38.5845 57.4997C38.0385 57.8154 37.4925 58.1568 36.9422 58.5069C35.5474 59.3917 34.1334 60.3194 32.6767 60.9894C31.1838 61.6724 29.6418 62.0804 28.0145 61.8936C27.8759 62.9995 28.7631 63.8929 29.356 64.8679C29.6408 65.287 29.8134 65.773 29.8572 66.2789C29.865 66.4681 29.8514 66.6576 29.8167 66.8437C29.6972 67.5287 29.3901 68.1988 29.4669 68.8881C29.5274 69.2812 29.6851 69.6527 29.9254 69.9683C30.2965 70.5031 30.8191 70.982 31.1731 71.5404Z" fill="#D7584E"/>
    <path d="M74.0591 76C74.0591 76 75.9786 77.498 77.9244 78.2959C79.8702 79.0939 78.5817 81.9565 78.5817 81.9565C78.5817 81.9565 76.5198 82.38 75.0758 80.584C73.6318 78.7881 74.0591 76 74.0591 76Z" fill="#E3B5A5"/>
    <path d="M161.782 108.029C161.782 108.029 158.053 113.088 154.959 113.129C151.865 113.17 150.049 115.26 151.518 116.565C152.987 117.871 168.995 115.82 168.995 115.82C168.995 115.82 169.146 109.603 167.759 108.695C166.372 107.787 161.782 108.029 161.782 108.029Z" fill="#352B28"/>
    <path d="M201.66 114.132C201.66 114.132 202.263 117.841 200.401 120.371C198.539 122.9 203.765 123.876 203.765 123.876C203.765 123.876 207.561 124.831 207.838 121.441C208.114 118.051 208.024 115.459 207.668 115.183C207.311 114.907 207.014 113 207.014 113L201.66 114.132Z" fill="#352B28"/>
    <path d="M145 121.795C145 121.795 144.869 109.119 157.425 103.967L160.34 98.4258L161.739 95.0223C162.245 93.7896 163.042 92.6972 164.061 91.8378C165.081 90.9783 166.293 90.3773 167.594 90.0857L169.856 89.5784L170.555 86.6352C170.928 85.062 171.753 83.6321 172.93 82.5221C174.106 81.4121 175.583 80.6706 177.176 80.389C178.551 80.1339 179.947 80.0038 181.346 80C181.965 80.0093 182.571 80.1784 183.105 80.4908C183.639 80.8031 184.083 81.2482 184.394 81.7828C184.394 81.7828 196.29 81.6515 196.817 88.1214C196.817 88.1214 198.008 94.0613 199.726 95.118C199.726 95.118 202.634 94.4583 205.541 98.6835L208.713 109.51C208.713 109.51 217.039 117.299 214.528 124.42C214.528 124.42 211.092 129.305 193.646 126.004C193.646 126.004 175.01 131.676 165.091 123.897C165.089 123.907 148.569 127.075 145 121.795Z" fill="#857E7B"/>
    <path opacity="0.1" fill-rule="evenodd" clip-rule="evenodd" d="M157.713 107.929C157.575 110.038 157.453 112.475 157.505 113.878C157.562 115.421 157.029 117.22 156.513 118.588C156.252 119.281 155.987 119.883 155.788 120.311C155.688 120.525 155.605 120.696 155.546 120.815C155.517 120.874 155.493 120.92 155.477 120.951L155.459 120.987L155.454 120.997L155.452 120.999L155.452 121C155.452 121 155.452 121 155.226 120.778C155 120.557 155 120.557 155 120.557L155.001 120.555L155.005 120.547L155.022 120.514C155.037 120.486 155.058 120.443 155.086 120.386C155.142 120.274 155.223 120.109 155.319 119.902C155.512 119.488 155.767 118.907 156.019 118.239C156.531 116.883 156.999 115.242 156.95 113.916C156.896 112.452 157.022 109.962 157.159 107.861C157.228 106.806 157.3 105.841 157.355 105.14C157.382 104.789 157.406 104.504 157.422 104.307C157.43 104.209 157.437 104.132 157.441 104.08L157.448 104C157.448 104 157.448 104 157.724 104.044L158 104.089L157.993 104.167C157.989 104.219 157.983 104.295 157.974 104.393C157.958 104.589 157.935 104.872 157.908 105.221C157.853 105.919 157.781 106.88 157.713 107.929Z" fill="#352B28"/>
    <path opacity="0.1" fill-rule="evenodd" clip-rule="evenodd" d="M166.208 102.812C166.226 102.783 166.249 102.748 166.275 102.708C166.357 102.582 166.476 102.402 166.627 102.186C166.929 101.754 167.353 101.185 167.842 100.629C168.333 100.071 168.879 99.5401 169.424 99.1747C169.979 98.8023 170.464 98.6467 170.86 98.7147L171 98.0277C170.291 97.906 169.585 98.2007 168.975 98.6104C168.354 99.0272 167.76 99.6106 167.25 100.19C166.738 100.772 166.298 101.363 165.987 101.809C165.831 102.032 165.707 102.219 165.621 102.35C165.578 102.416 165.545 102.468 165.523 102.504L165.497 102.546L165.49 102.557L165.488 102.56L165.488 102.56C165.488 102.561 165.487 102.561 165.819 102.732L165.488 102.56L165.428 102.657L165.441 102.768C165.503 103.33 165.395 104.038 165.179 104.805C164.965 105.566 164.652 106.36 164.328 107.083C164.004 107.805 163.671 108.451 163.42 108.917C163.294 109.15 163.188 109.337 163.114 109.466C163.078 109.53 163.049 109.58 163.029 109.613L163.007 109.651L163.001 109.66L163 109.663L163.333 109.832C163.666 110 163.666 110 163.666 110L163.667 109.999L163.669 109.996L163.675 109.986L163.699 109.945C163.72 109.91 163.75 109.858 163.788 109.791C163.864 109.658 163.972 109.466 164.101 109.228C164.358 108.752 164.699 108.09 165.031 107.349C165.363 106.609 165.69 105.783 165.916 104.98C166.128 104.226 166.258 103.469 166.208 102.812Z" fill="#352B28"/>
    <path opacity="0.1" fill-rule="evenodd" clip-rule="evenodd" d="M177.281 97C177.281 97 177.281 97.0001 177.141 96.601L177 96.2018L177.005 96.1999L177.022 96.1935L177.087 96.168C177.145 96.1453 177.23 96.1116 177.339 96.0678C177.557 95.98 177.869 95.8517 178.245 95.6901C178.998 95.3665 180.005 94.9105 181.023 94.3796C182.044 93.8472 183.063 93.2466 183.848 92.6356C184.241 92.3301 184.565 92.0302 184.799 91.7437C185.037 91.4538 185.161 91.2045 185.198 91L186 91.1557C185.927 91.5649 185.705 91.9484 185.42 92.296C185.132 92.6472 184.757 92.9897 184.336 93.317C183.495 93.9718 182.427 94.5985 181.388 95.1401C180.346 95.6832 179.32 96.1477 178.556 96.4762C178.173 96.6406 177.856 96.7712 177.633 96.8609C177.522 96.9057 177.434 96.9403 177.374 96.9638L177.306 96.9906L177.288 96.9976L177.281 97Z" fill="#352B28"/>
    <path opacity="0.1" fill-rule="evenodd" clip-rule="evenodd" d="M187.464 98H191.856L191.967 98.1466L191.673 98.3732C191.967 98.1466 191.967 98.1465 191.967 98.1466L191.972 98.1526L191.984 98.1691L192.031 98.2325C192.073 98.288 192.133 98.3695 192.209 98.4741C192.361 98.6833 192.578 98.9853 192.835 99.3574C193.35 100.101 194.031 101.128 194.691 102.257C195.35 103.384 195.995 104.624 196.435 105.791C196.868 106.943 197.126 108.088 196.938 109L196.213 108.848C196.356 108.157 196.167 107.183 195.743 106.056C195.325 104.944 194.703 103.746 194.054 102.636C193.406 101.528 192.737 100.518 192.229 99.7846C191.975 99.418 191.762 99.121 191.613 98.916C191.564 98.8495 191.523 98.7927 191.488 98.7463H188.082C188.069 98.765 188.057 98.7825 188.045 98.7986C187.967 98.9061 187.862 99.0116 187.747 99.1127C187.515 99.3161 187.197 99.5405 186.831 99.7727C186.096 100.239 185.123 100.767 184.16 101.261C183.195 101.756 182.231 102.221 181.509 102.562C181.147 102.733 180.846 102.873 180.635 102.97C180.53 103.018 180.447 103.056 180.39 103.082L180.325 103.112L180.303 103.122C180.303 103.122 180.302 103.122 180.151 102.781L180 102.441L180.021 102.431L180.085 102.402C180.141 102.377 180.223 102.339 180.328 102.291C180.537 102.195 180.836 102.056 181.195 101.886C181.913 101.547 182.869 101.086 183.825 100.596C184.782 100.105 185.731 99.5889 186.437 99.141C186.791 98.9161 187.072 98.7156 187.261 98.5499C187.356 98.4665 187.416 98.4015 187.45 98.3552C187.456 98.347 187.461 98.3403 187.464 98.3349V98Z" fill="#352B28"/>
    <path opacity="0.1" fill-rule="evenodd" clip-rule="evenodd" d="M189 107.056C189 107.056 189 107.056 188.975 107.405L188.949 107.754L188.945 107.753L188.93 107.752L188.871 107.749C188.818 107.746 188.74 107.741 188.639 107.737C188.438 107.727 188.147 107.716 187.789 107.708C187.073 107.693 186.093 107.693 185.034 107.754C183.973 107.815 182.842 107.937 181.82 108.163C180.792 108.39 179.912 108.716 179.324 109.163C177.975 110.189 176.109 110.946 174.605 111.444C173.848 111.694 173.174 111.881 172.689 112.007C172.447 112.069 172.251 112.116 172.115 112.148C172.102 112.151 172.089 112.154 172.076 112.157C172.063 112.183 172.048 112.213 172.032 112.246C171.955 112.401 171.844 112.623 171.707 112.892C171.435 113.43 171.06 114.159 170.652 114.919C170.245 115.678 169.803 116.472 169.396 117.14C168.998 117.794 168.61 118.367 168.31 118.652C168.082 118.869 167.799 119.242 167.497 119.701C167.199 120.155 166.895 120.673 166.621 121.163C166.347 121.653 166.106 122.113 165.932 122.45C165.846 122.619 165.776 122.757 165.729 122.853C165.705 122.9 165.686 122.938 165.674 122.963L165.66 122.991L165.656 122.998L165.656 123L165.328 122.851C165 122.702 165 122.702 165 122.702L165.005 122.692L165.02 122.662C165.033 122.636 165.052 122.598 165.076 122.549C165.125 122.451 165.195 122.311 165.283 122.14C165.459 121.797 165.705 121.33 165.983 120.831C166.261 120.333 166.575 119.8 166.885 119.327C167.192 118.86 167.511 118.429 167.802 118.153C168.023 117.944 168.366 117.451 168.771 116.785C169.169 116.133 169.604 115.351 170.009 114.597C170.413 113.843 170.785 113.12 171.057 112.584C171.192 112.317 171.303 112.097 171.379 111.943C171.417 111.867 171.447 111.807 171.467 111.766L171.497 111.704L171.574 111.549L171.747 111.512L171.75 111.512L171.759 111.51L171.797 111.501C171.831 111.494 171.881 111.483 171.946 111.467C172.076 111.437 172.266 111.392 172.502 111.331C172.975 111.209 173.633 111.026 174.37 110.782C175.854 110.291 177.625 109.565 178.876 108.614C179.588 108.072 180.592 107.717 181.659 107.481C182.733 107.243 183.908 107.118 184.991 107.056C186.075 106.993 187.076 106.993 187.805 107.009C188.17 107.016 188.468 107.028 188.675 107.038C188.778 107.043 188.859 107.047 188.914 107.051L188.977 107.054L188.994 107.055L188.998 107.056L189 107.056Z" fill="#352B28"/>
    <path opacity="0.1" fill-rule="evenodd" clip-rule="evenodd" d="M188 114.22C188 114.22 188 114.22 188.405 114.11L188.81 114L188.81 114.001L188.812 114.007L188.819 114.029C188.826 114.05 188.836 114.08 188.85 114.119C188.876 114.197 188.916 114.311 188.968 114.453C189.071 114.737 189.221 115.133 189.409 115.578C189.788 116.475 190.307 117.544 190.888 118.309C191.222 118.748 191.58 119.444 191.925 120.211C192.273 120.987 192.619 121.865 192.926 122.689C193.233 123.514 193.501 124.287 193.693 124.854C193.789 125.138 193.865 125.37 193.918 125.532C193.945 125.613 193.965 125.676 193.979 125.719L193.995 125.768L194 125.785C194 125.785 194 125.785 193.595 125.893L193.189 126L193.184 125.984L193.168 125.936C193.155 125.894 193.135 125.832 193.109 125.752C193.057 125.593 192.981 125.363 192.886 125.082C192.696 124.519 192.43 123.753 192.126 122.937C191.822 122.121 191.482 121.259 191.143 120.503C190.8 119.739 190.471 119.112 190.194 118.748C189.554 117.905 189.005 116.765 188.621 115.855C188.427 115.396 188.272 114.988 188.166 114.695C188.113 114.549 188.071 114.431 188.043 114.349C188.029 114.308 188.019 114.276 188.011 114.254L188.003 114.229L188.001 114.222L188 114.22Z" fill="#352B28"/>
    <path opacity="0.1" fill-rule="evenodd" clip-rule="evenodd" d="M201 122.257C201 122.257 201 122.256 201.398 122.128L201.796 122L201.798 122.003L201.801 122.011L201.817 122.047C201.831 122.078 201.852 122.125 201.879 122.185C201.933 122.304 202.013 122.476 202.114 122.682C202.316 123.095 202.602 123.643 202.938 124.191C203.276 124.742 203.656 125.277 204.042 125.672C204.235 125.869 204.42 126.02 204.591 126.122C204.762 126.223 204.898 126.261 205 126.264L204.975 127C204.657 126.992 204.365 126.88 204.111 126.73C203.856 126.579 203.616 126.375 203.394 126.148C202.95 125.695 202.537 125.106 202.188 124.537C201.837 123.964 201.54 123.395 201.332 122.97C201.228 122.757 201.145 122.58 201.088 122.455C201.06 122.393 201.038 122.344 201.023 122.31L201.006 122.271L201.002 122.26L201 122.257Z" fill="#352B28"/>
    <path opacity="0.1" fill-rule="evenodd" clip-rule="evenodd" d="M190 102.693C190 102.693 190 102.693 190.098 102.346C190.196 102 190.196 102 190.197 102L190.198 102L190.201 102.001L190.212 102.004L190.252 102.015C190.287 102.025 190.338 102.039 190.402 102.059C190.531 102.097 190.716 102.155 190.943 102.233C191.396 102.39 192.019 102.628 192.703 102.956C194.059 103.608 195.697 104.637 196.674 106.125C197.548 107.455 199.353 108.759 200.99 109.745C201.801 110.234 202.555 110.635 203.106 110.915C203.382 111.055 203.606 111.164 203.762 111.238C203.839 111.275 203.9 111.303 203.94 111.322L203.986 111.343L203.997 111.349L204 111.35L203.842 111.675C203.684 112 203.684 112 203.684 112L203.679 111.998L203.666 111.992L203.617 111.969C203.574 111.949 203.511 111.92 203.431 111.882C203.271 111.806 203.041 111.694 202.759 111.551C202.195 111.265 201.425 110.854 200.595 110.354C198.952 109.364 197.016 107.988 196.044 106.508C195.175 105.186 193.682 104.23 192.37 103.599C191.719 103.286 191.123 103.059 190.691 102.91C190.475 102.835 190.301 102.78 190.181 102.745C190.121 102.727 190.075 102.713 190.044 102.705L190.01 102.695L190.002 102.693L190 102.693Z" fill="#352B28"/>
    <path opacity="0.1" fill-rule="evenodd" clip-rule="evenodd" d="M192 88.0002C192 88.0001 192 88 192.344 88L192.687 88L192.687 88.0041L192.687 88.0178L192.688 88.0732C192.688 88.122 192.689 88.1941 192.69 88.2862C192.693 88.4704 192.699 88.7343 192.711 89.0512C192.735 89.6861 192.783 90.5287 192.879 91.368C192.975 92.2138 193.117 93.0282 193.319 93.6209C193.42 93.9179 193.528 94.1326 193.636 94.2675C193.738 94.3962 193.825 94.4345 193.903 94.4345C194.711 94.4345 195.994 94.6252 197.056 94.8108C197.591 94.9042 198.077 94.9977 198.429 95.0677C198.605 95.1027 198.748 95.132 198.846 95.1524L198.96 95.1762L199 95.1846L198.881 96L198.842 95.9918L198.73 95.9684C198.632 95.9482 198.491 95.9193 198.317 95.8846C197.968 95.8152 197.487 95.7226 196.957 95.6301C195.89 95.4437 194.654 95.2625 193.903 95.2625C193.591 95.2625 193.336 95.0868 193.14 94.8409C192.949 94.6013 192.801 94.281 192.684 93.9359C192.447 93.2446 192.297 92.3469 192.198 91.4805C192.099 90.6077 192.049 89.7382 192.025 89.089C192.012 88.7639 192.006 88.4927 192.003 88.3024C192.002 88.2072 192.001 88.1322 192 88.0807L192 88.0215L192 88.0059L192 88.0002Z" fill="#352B28"/>
    <path opacity="0.1" fill-rule="evenodd" clip-rule="evenodd" d="M184.08 81L184.54 81.0158C185 81.0316 185 81.0317 185 81.0318L185 81.0401L184.998 81.0642L184.993 81.1574C184.989 81.2389 184.982 81.3585 184.972 81.5115C184.953 81.8174 184.922 82.2571 184.876 82.7933C184.786 83.8654 184.637 85.3255 184.404 86.8756C184.171 88.4241 183.854 90.0706 183.425 91.5126C183 92.9388 182.45 94.2229 181.719 95L181 94.5118C181.599 93.8759 182.111 92.736 182.533 91.321C182.949 89.9218 183.261 88.3099 183.491 86.7767C183.721 85.245 183.868 83.7999 183.958 82.7372C184.003 82.2061 184.034 81.771 184.053 81.4691C184.063 81.3181 184.07 81.2004 184.074 81.1207L184.079 81.0301L184.08 81.0073L184.08 81Z" fill="#352B28"/>
    <g opacity="0.05">
        <path opacity="0.05" d="M208.336 109.212L205.192 98.5261C202.31 94.3558 199.428 95.0068 199.428 95.0068C197.725 93.9638 196.546 88.0994 196.546 88.0994C196.022 81.7134 184.231 81.8446 184.231 81.8446C183.922 81.3161 183.481 80.8762 182.95 80.5678C182.419 80.2594 181.817 80.0931 181.203 80.085C180.646 80.085 180.077 80.1026 179.508 80.1489C179.829 80.1809 180.138 80.2263 180.433 80.2849L181.349 81.8494C181.349 81.8494 193.139 81.7182 193.663 88.1042C193.663 88.1042 194.843 93.9686 196.546 95.0116C196.546 95.0116 199.428 94.359 202.31 98.5309L205.454 109.217C205.454 109.217 213.707 116.905 211.218 123.934C211.218 123.934 209.537 126.313 202.546 126.601C211.972 126.945 214.099 123.934 214.099 123.934C216.589 116.9 208.336 109.212 208.336 109.212Z" fill="#352B28"/>
        <path opacity="0.05" d="M162.221 123.416C159.448 123.912 156.644 124.218 153.828 124.329C157.11 124.454 160.525 124.101 162.724 123.8C162.554 123.67 162.387 123.546 162.221 123.416Z" fill="#352B28"/>
        <path opacity="0.05" d="M190.518 125.501C186.485 126.627 182.333 127.279 178.148 127.447C184.187 127.664 189.907 126.412 192.264 125.81C191.695 125.716 191.118 125.609 190.518 125.501Z" fill="#352B28"/>
    </g>
    <path d="M63 152.574C63 152.574 67.8384 152.428 69.2958 151.405C70.7531 150.383 76.7358 149.162 77.0985 150.801C77.4612 152.44 84.368 158.954 78.9056 158.998C73.4433 159.043 66.217 158.161 64.7618 157.287C63.3066 156.413 63 152.574 63 152.574Z" fill="#857E7B"/>
    <path opacity="0.2" d="M79.0059 158.463C73.5432 158.504 66.3143 157.681 64.859 156.875C63.7514 156.253 63.3088 154.026 63.1619 153H63C63 153 63.3066 156.587 64.7619 157.401C66.2172 158.215 73.446 159.038 78.9066 158.999C80.4849 158.987 81.029 158.471 80.9988 157.706C80.7807 158.167 80.1783 158.455 79.0059 158.463Z" fill="#352B28"/>
    <path d="M180 141.442C180 141.442 174.395 140.334 172.902 138.856C171.409 137.377 164.684 134.795 163.936 136.64C163.188 138.486 153.85 144.766 160.2 145.879C166.55 146.992 175.143 147.349 177.012 146.618C178.881 145.887 180 141.442 180 141.442Z" fill="#857E7B"/>
    <path opacity="0.2" d="M160.199 145.061C166.552 146.247 175.143 146.637 177.012 145.851C178.433 145.248 179.422 142.349 179.813 141L180 141.043C180 141.043 178.879 145.795 177.012 146.588C175.145 147.38 166.552 146.984 160.199 145.795C158.366 145.452 157.842 144.646 158.039 143.628C158.196 144.299 158.836 144.811 160.199 145.061Z" fill="#352B28"/>
    <defs>
        <linearGradient id="paint0_linear" x1="-155983" y1="14016.9" x2="-168557" y2="14016.9" gradientUnits="userSpaceOnUse">
            <stop stop-color="#808080" stop-opacity="0.25"/>
            <stop offset="0.54" stop-color="#808080" stop-opacity="0.12"/>
            <stop offset="1" stop-color="#808080" stop-opacity="0.1"/>
        </linearGradient>
    </defs>
</svg>
