<svg width="196" height="140" viewBox="0 0 196 140" fill="none" xmlns="http://www.w3.org/2000/svg">
<path d="M154.353 139.915V125.529C154.353 125.529 159.96 135.728 154.353 139.915Z" fill="#8AB5A6"/>
<path d="M154.7 139.912L144.102 130.184C144.102 130.184 155.407 132.951 154.7 139.912Z" fill="#8AB5A6"/>
<path d="M45.519 139.913V125.527C45.519 125.527 39.9127 135.726 45.519 139.913Z" fill="#8AB5A6"/>
<path d="M45.1259 139.912L55.7232 130.184C55.7232 130.184 44.4188 132.951 45.1259 139.912Z" fill="#8AB5A6"/>
<path d="M133.827 33.2198H133.059V12.1783C133.059 10.579 132.744 8.99539 132.132 7.51786C131.52 6.04032 130.623 4.6978 129.492 3.56694C128.361 2.43608 127.018 1.53904 125.541 0.927019C124.063 0.315003 122.48 1.30578e-06 120.88 0H76.3011C74.7018 -3.39494e-06 73.1182 0.314994 71.6407 0.927006C70.1631 1.53902 68.8206 2.43606 67.6898 3.56691C66.5589 4.69777 65.6618 6.04029 65.0498 7.51782C64.4378 8.99536 64.1228 10.579 64.1228 12.1782V127.614C64.1228 130.844 65.4059 133.941 67.6897 136.225C69.9736 138.509 73.0712 139.792 76.3011 139.792H120.88C124.11 139.792 127.208 138.509 129.492 136.225C131.776 133.941 133.059 130.844 133.059 127.614V48.1975H133.827V33.2198Z" fill="#1E2D3D"/>
<path d="M121.371 3.16797H115.552C115.82 3.82405 115.922 4.53588 115.85 5.24073C115.777 5.94559 115.533 6.62185 115.137 7.20994C114.742 7.79803 114.208 8.2799 113.583 8.6131C112.958 8.9463 112.26 9.1206 111.552 9.12065H86.0126C85.3041 9.1206 84.6064 8.9463 83.9811 8.6131C83.3558 8.2799 82.822 7.79803 82.4268 7.20994C82.0315 6.62185 81.787 5.94559 81.7147 5.24073C81.6424 4.53587 81.7445 3.82405 82.0121 3.16797H76.5771C74.1651 3.16797 71.8518 4.12614 70.1463 5.83171C68.4407 7.53727 67.4825 9.85051 67.4825 12.2626V127.529C67.4825 128.723 67.7177 129.906 68.1748 131.009C68.6318 132.112 69.3017 133.115 70.1463 133.96C70.9908 134.804 71.9933 135.474 73.0968 135.931C74.2002 136.388 75.3828 136.623 76.5771 136.623H121.371C122.565 136.623 123.748 136.388 124.852 135.931C125.955 135.474 126.957 134.804 127.802 133.96C128.647 133.115 129.316 132.112 129.773 131.009C130.231 129.906 130.466 128.723 130.466 127.529V12.2626C130.466 11.0682 130.231 9.88562 129.773 8.78221C129.316 7.6788 128.647 6.67622 127.802 5.83171C126.957 4.9872 125.955 4.3173 124.852 3.86025C123.748 3.40321 122.565 3.16797 121.371 3.16797Z" fill="white"/>
<path d="M120.249 134.644H77.6993C72.8102 134.644 68.8326 131.094 68.8326 126.73V121.001C68.8326 117.523 72.0003 114.693 75.8939 114.693H122.055C125.948 114.693 129.116 117.523 129.116 121.001V126.73C129.116 131.094 125.138 134.644 120.249 134.644Z" fill="#E5E5E5"/>
<path d="M82.1726 38.35H72.6814C72.5114 38.3498 72.3483 38.2822 72.2281 38.162C72.1079 38.0418 72.0403 37.8788 72.0401 37.7087V28.2175C72.0403 28.0474 72.1079 27.8845 72.2281 27.7642C72.3483 27.644 72.5114 27.5764 72.6814 27.5762H82.1726C82.3427 27.5764 82.5057 27.644 82.6259 27.7642C82.7461 27.8845 82.8137 28.0474 82.8139 28.2175V37.7087C82.8137 37.8788 82.7461 38.0418 82.6259 38.162C82.5057 38.2822 82.3427 38.3498 82.1726 38.35Z" fill="#8AB5A6"/>
<path d="M96.5374 38.35H87.0461C86.8761 38.3498 86.7131 38.2822 86.5929 38.162C86.4727 38.0418 86.405 37.8788 86.4048 37.7087V28.2175C86.405 28.0474 86.4727 27.8844 86.5929 27.7642C86.7131 27.644 86.8761 27.5764 87.0461 27.5762H96.5374C96.7074 27.5764 96.8704 27.644 96.9907 27.7642C97.1109 27.8844 97.1785 28.0474 97.1787 28.2175V37.7087C97.1785 37.8788 97.1109 38.0418 96.9907 38.162C96.8704 38.2822 96.7074 38.3498 96.5374 38.35Z" fill="#E5E5E5"/>
<path d="M110.903 38.35H101.412C101.242 38.3498 101.079 38.2822 100.958 38.162C100.838 38.0418 100.771 37.8788 100.77 37.7087V28.2175C100.771 28.0474 100.838 27.8844 100.958 27.7642C101.079 27.644 101.242 27.5764 101.412 27.5762H110.903C111.073 27.5764 111.236 27.644 111.356 27.7642C111.476 27.8844 111.544 28.0474 111.544 28.2175V37.7087C111.544 37.8788 111.476 38.0418 111.356 38.162C111.236 38.2822 111.073 38.3498 110.903 38.35Z" fill="#E5E5E5"/>
<path d="M125.268 38.35H115.777C115.607 38.3498 115.443 38.2822 115.323 38.162C115.203 38.0418 115.135 37.8788 115.135 37.7087V28.2175C115.135 28.0474 115.203 27.8845 115.323 27.7642C115.443 27.644 115.607 27.5764 115.777 27.5762H125.268C125.438 27.5764 125.601 27.644 125.721 27.7642C125.841 27.8845 125.909 28.0474 125.909 28.2175V37.7087C125.909 37.8788 125.841 38.0418 125.721 38.162C125.601 38.2822 125.438 38.3498 125.268 38.35Z" fill="#E5E5E5"/>
<path d="M82.1384 55.9213H72.6472C72.4772 55.9211 72.3142 55.8535 72.1939 55.7333C72.0737 55.6131 72.0061 55.45 72.0059 55.28V45.7888C72.0061 45.6187 72.0737 45.4557 72.1939 45.3355C72.3142 45.2153 72.4772 45.1477 72.6472 45.1475H82.1384C82.3085 45.1477 82.4715 45.2153 82.5917 45.3355C82.7119 45.4557 82.7796 45.6187 82.7798 45.7888V55.28C82.7796 55.45 82.7119 55.6131 82.5917 55.7333C82.4715 55.8535 82.3085 55.9211 82.1384 55.9213Z" fill="#E5E5E5"/>
<path d="M96.5032 55.9213H87.012C86.8419 55.9211 86.6789 55.8535 86.5587 55.7333C86.4385 55.6131 86.3709 55.45 86.3707 55.28V45.7888C86.3709 45.6187 86.4385 45.4557 86.5587 45.3355C86.6789 45.2153 86.8419 45.1477 87.012 45.1475H96.5032C96.6733 45.1477 96.8363 45.2153 96.9565 45.3355C97.0767 45.4557 97.1443 45.6187 97.1445 45.7888V55.28C97.1443 55.4501 97.0767 55.6131 96.9565 55.7333C96.8363 55.8535 96.6733 55.9211 96.5032 55.9213Z" fill="#E5E5E5"/>
<path d="M110.869 55.9213H101.378C101.208 55.9211 101.045 55.8535 100.924 55.7333C100.804 55.6131 100.736 55.45 100.736 55.28V45.7888C100.736 45.6187 100.804 45.4557 100.924 45.3355C101.045 45.2153 101.208 45.1477 101.378 45.1475H110.869C111.039 45.1477 111.202 45.2153 111.322 45.3355C111.442 45.4557 111.51 45.6187 111.51 45.7888V55.28C111.51 55.45 111.442 55.6131 111.322 55.7333C111.202 55.8535 111.039 55.9211 110.869 55.9213Z" fill="#8AB5A6"/>
<path d="M125.234 55.9213H115.742C115.572 55.9211 115.409 55.8535 115.289 55.7333C115.169 55.6131 115.101 55.4501 115.101 55.28V45.7888C115.101 45.6187 115.169 45.4557 115.289 45.3355C115.409 45.2153 115.572 45.1477 115.742 45.1475H125.234C125.404 45.1477 125.567 45.2153 125.687 45.3355C125.807 45.4557 125.875 45.6187 125.875 45.7888V55.28C125.875 55.45 125.807 55.6131 125.687 55.7333C125.567 55.8535 125.404 55.9211 125.234 55.9213Z" fill="#8AB5A6"/>
<path d="M82.1043 73.4936H72.613C72.443 73.4934 72.28 73.4258 72.1598 73.3055C72.0395 73.1853 71.9719 73.0223 71.9717 72.8523V63.361C71.9719 63.191 72.0395 63.028 72.1598 62.9078C72.28 62.7876 72.443 62.7199 72.613 62.7197H82.1043C82.2743 62.7199 82.4373 62.7876 82.5575 62.9078C82.6778 63.028 82.7454 63.191 82.7456 63.361V72.8523C82.7454 73.0223 82.6778 73.1853 82.5575 73.3055C82.4373 73.4258 82.2743 73.4934 82.1043 73.4936Z" fill="#E5E5E5"/>
<path d="M96.4698 73.4936H86.9786C86.8086 73.4934 86.6456 73.4258 86.5253 73.3055C86.4051 73.1853 86.3375 73.0223 86.3373 72.8523V63.361C86.3375 63.191 86.4051 63.028 86.5253 62.9078C86.6456 62.7876 86.8086 62.7199 86.9786 62.7197H96.4698C96.6399 62.7199 96.8029 62.7876 96.9231 62.9078C97.0433 63.028 97.111 63.191 97.1112 63.361V72.8523C97.111 73.0223 97.0433 73.1853 96.9231 73.3055C96.8029 73.4258 96.6399 73.4934 96.4698 73.4936Z" fill="#E5E5E5"/>
<path d="M110.835 73.4936H101.343C101.173 73.4934 101.01 73.4258 100.89 73.3055C100.77 73.1853 100.702 73.0223 100.702 72.8523V63.361C100.702 63.191 100.77 63.028 100.89 62.9078C101.01 62.7876 101.173 62.7199 101.343 62.7197H110.835C111.005 62.7199 111.168 62.7876 111.288 62.9078C111.408 63.028 111.476 63.191 111.476 63.361V72.8523C111.476 73.0223 111.408 73.1853 111.288 73.3055C111.168 73.4258 111.005 73.4934 110.835 73.4936Z" fill="#E5E5E5"/>
<path d="M125.2 73.4936H115.709C115.539 73.4934 115.376 73.4258 115.256 73.3055C115.135 73.1853 115.068 73.0223 115.068 72.8523V63.361C115.068 63.191 115.135 63.028 115.256 62.9078C115.376 62.7876 115.539 62.7199 115.709 62.7197H125.2C125.37 62.7199 125.533 62.7876 125.653 62.9078C125.774 63.028 125.841 63.191 125.841 63.361V72.8523C125.841 73.0223 125.774 73.1853 125.653 73.3055C125.533 73.4258 125.37 73.4934 125.2 73.4936Z" fill="#E5E5E5"/>
<path d="M82.0709 91.0649H72.5796C72.4096 91.0647 72.2466 90.997 72.1263 90.8768C72.0061 90.7566 71.9385 90.5936 71.9383 90.4236V80.9323C71.9385 80.7623 72.0061 80.5993 72.1263 80.4791C72.2466 80.3588 72.4096 80.2912 72.5796 80.291H82.0709C82.2409 80.2912 82.4039 80.3588 82.5241 80.4791C82.6443 80.5993 82.712 80.7623 82.7122 80.9323V90.4236C82.712 90.5936 82.6443 90.7566 82.5241 90.8768C82.4039 90.997 82.2409 91.0647 82.0709 91.0649Z" fill="#E5E5E5"/>
<path d="M96.4357 91.0649H86.9444C86.7744 91.0647 86.6114 90.997 86.4911 90.8768C86.3709 90.7566 86.3033 90.5936 86.3031 90.4236V80.9323C86.3033 80.7623 86.3709 80.5993 86.4911 80.4791C86.6114 80.3588 86.7744 80.2912 86.9444 80.291H96.4357C96.6057 80.2912 96.7687 80.3588 96.8889 80.4791C97.0091 80.5993 97.0768 80.7623 97.077 80.9323V90.4236C97.0768 90.5936 97.0091 90.7566 96.8889 90.8768C96.7687 90.997 96.6057 91.0647 96.4357 91.0649Z" fill="#E5E5E5"/>
<path d="M110.8 91.0649H101.309C101.139 91.0647 100.976 90.997 100.856 90.8768C100.736 90.7566 100.668 90.5936 100.668 90.4236V80.9323C100.668 80.7623 100.736 80.5993 100.856 80.4791C100.976 80.3588 101.139 80.2912 101.309 80.291H110.8C110.97 80.2912 111.133 80.3588 111.254 80.4791C111.374 80.5993 111.442 80.7623 111.442 80.9323V90.4236C111.442 90.5936 111.374 90.7566 111.254 90.8768C111.133 90.997 110.97 91.0647 110.8 91.0649Z" fill="#E5E5E5"/>
<path d="M125.166 91.0649H115.675C115.505 91.0647 115.342 90.997 115.222 90.8768C115.101 90.7566 115.034 90.5936 115.033 90.4236V80.9323C115.034 80.7623 115.101 80.5993 115.222 80.4791C115.342 80.3588 115.505 80.2912 115.675 80.291H125.166C125.336 80.2912 125.499 80.3588 125.619 80.4791C125.739 80.5993 125.807 80.7623 125.807 80.9323V90.4236C125.807 90.5936 125.739 90.7566 125.619 90.8768C125.499 90.997 125.336 91.0647 125.166 91.0649Z" fill="#E5E5E5"/>
<path d="M82.1726 130.313H72.6814C72.5114 130.313 72.3483 130.245 72.2281 130.125C72.1079 130.005 72.0403 129.842 72.0401 129.672V120.18C72.0403 120.01 72.1079 119.847 72.2281 119.727C72.3483 119.607 72.5114 119.539 72.6814 119.539H82.1726C82.3427 119.539 82.5057 119.607 82.6259 119.727C82.7461 119.847 82.8137 120.01 82.8139 120.18V129.672C82.8137 129.842 82.7461 130.005 82.6259 130.125C82.5057 130.245 82.3427 130.313 82.1726 130.313Z" fill="white"/>
<path d="M96.5374 130.313H87.0461C86.8761 130.313 86.7131 130.245 86.5929 130.125C86.4727 130.005 86.405 129.842 86.4048 129.672V120.18C86.405 120.01 86.4727 119.847 86.5929 119.727C86.7131 119.607 86.8761 119.539 87.0461 119.539H96.5374C96.7074 119.539 96.8704 119.607 96.9907 119.727C97.1109 119.847 97.1785 120.01 97.1787 120.18V129.672C97.1785 129.842 97.1109 130.005 96.9907 130.125C96.8704 130.245 96.7074 130.313 96.5374 130.313Z" fill="white"/>
<path d="M110.903 130.313H101.412C101.242 130.313 101.079 130.245 100.958 130.125C100.838 130.005 100.771 129.842 100.77 129.672V120.18C100.771 120.01 100.838 119.847 100.958 119.727C101.079 119.607 101.242 119.539 101.412 119.539H110.903C111.073 119.539 111.236 119.607 111.356 119.727C111.476 119.847 111.544 120.01 111.544 120.18V129.672C111.544 129.842 111.476 130.005 111.356 130.125C111.236 130.245 111.073 130.313 110.903 130.313Z" fill="white"/>
<path d="M125.268 130.313H115.777C115.607 130.313 115.443 130.245 115.323 130.125C115.203 130.005 115.135 129.842 115.135 129.672V120.18C115.135 120.01 115.203 119.847 115.323 119.727C115.443 119.607 115.607 119.539 115.777 119.539H125.268C125.438 119.539 125.601 119.607 125.721 119.727C125.841 119.847 125.909 120.01 125.909 120.18V129.672C125.909 129.842 125.841 130.005 125.721 130.125C125.601 130.245 125.438 130.313 125.268 130.313Z" fill="white"/>
<path d="M94.323 110.303C95.0313 110.303 95.6056 109.729 95.6056 109.021C95.6056 108.313 95.0313 107.738 94.323 107.738C93.6146 107.738 93.0404 108.313 93.0404 109.021C93.0404 109.729 93.6146 110.303 94.323 110.303Z" fill="#E5E5E5"/>
<path d="M98.9403 110.303C99.6487 110.303 100.223 109.729 100.223 109.021C100.223 108.313 99.6487 107.738 98.9403 107.738C98.232 107.738 97.6577 108.313 97.6577 109.021C97.6577 109.729 98.232 110.303 98.9403 110.303Z" fill="#E5E5E5"/>
<path d="M103.558 110.303C104.266 110.303 104.84 109.729 104.84 109.021C104.84 108.313 104.266 107.738 103.558 107.738C102.849 107.738 102.275 108.313 102.275 109.021C102.275 109.729 102.849 110.303 103.558 110.303Z" fill="#E5E5E5"/>
<path d="M181.403 140H16.5455C16.4927 140 16.4421 139.979 16.4048 139.942C16.3675 139.905 16.3466 139.854 16.3466 139.801C16.3466 139.749 16.3675 139.698 16.4048 139.661C16.4421 139.623 16.4927 139.603 16.5455 139.603H181.403C181.456 139.603 181.507 139.623 181.544 139.661C181.581 139.698 181.602 139.749 181.602 139.801C181.602 139.854 181.581 139.905 181.544 139.942C181.507 139.979 181.456 140 181.403 140Z" fill="#CBCBCB"/>
<path fill-rule="evenodd" clip-rule="evenodd" d="M99.4721 47.0045L102.527 43.9492L106.092 47.5141L109.657 43.9492L112.712 47.0045L109.148 50.5694L112.681 54.1031L109.626 57.1584L106.092 53.6247L102.559 57.1584L99.5033 54.1031L103.037 50.5694L99.4721 47.0045Z" fill="#B85954"/>
<path fill-rule="evenodd" clip-rule="evenodd" d="M113.79 47.0045L116.846 43.9492L120.41 47.5141L123.975 43.9492L127.031 47.0045L123.466 50.5694L126.999 54.1031L123.944 57.1584L120.41 53.6247L116.877 57.1584L113.821 54.1031L117.355 50.5694L113.79 47.0045Z" fill="#B85954"/>
<path fill-rule="evenodd" clip-rule="evenodd" d="M70.8357 29.5045L73.8911 26.4492L77.4559 30.0141L81.0208 26.4492L84.0761 29.5045L80.5113 33.0694L84.0449 36.6031L80.9896 39.6584L77.4559 36.1247L73.9222 39.6584L70.8669 36.6031L74.4006 33.0694L70.8357 29.5045Z" fill="#B85954"/>
<path d="M21.2233 139.601C23.2551 139.601 24.9022 138.978 24.9022 138.209C24.9022 137.441 23.2551 136.817 21.2233 136.817C19.1914 136.817 17.5443 137.441 17.5443 138.209C17.5443 138.978 19.1914 139.601 21.2233 139.601Z" fill="#1E2D3D"/>
<path d="M30.1721 139.402C32.204 139.402 33.8511 138.779 33.8511 138.01C33.8511 137.241 32.204 136.618 30.1721 136.618C28.1403 136.618 26.4931 137.241 26.4931 138.01C26.4931 138.779 28.1403 139.402 30.1721 139.402Z" fill="#1E2D3D"/>
<path d="M41.9937 115.907C45.5102 113.88 47.8449 111.342 47.2085 110.238C46.5721 109.134 43.2056 109.882 39.6892 111.91C36.1727 113.937 33.838 116.475 34.4744 117.579C35.1107 118.683 38.4773 117.934 41.9937 115.907Z" fill="#1E2D3D"/>
<path d="M38.6935 120.879C39.9938 112.866 34.5522 105.316 26.5392 104.016C18.5262 102.715 10.9762 108.157 9.6759 116.17C8.37557 124.183 13.8173 131.733 21.8303 133.033C29.8432 134.334 37.3932 128.892 38.6935 120.879Z" fill="#1E2D3D"/>
<path d="M21.9193 130.056H17.5443V138.01H21.9193V130.056Z" fill="#1E2D3D"/>
<path d="M30.8681 130.056H26.4931V138.01H30.8681V130.056Z" fill="#1E2D3D"/>
<path d="M24.6039 119.914C27.4046 119.914 29.675 117.643 29.675 114.843C29.675 112.042 27.4046 109.771 24.6039 109.771C21.8033 109.771 19.5329 112.042 19.5329 114.843C19.5329 117.643 21.8033 119.914 24.6039 119.914Z" fill="white"/>
<path d="M24.6039 116.533C25.5375 116.533 26.2943 115.776 26.2943 114.843C26.2943 113.909 25.5375 113.152 24.6039 113.152C23.6704 113.152 22.9136 113.909 22.9136 114.843C22.9136 115.776 23.6704 116.533 24.6039 116.533Z" fill="#1E2D3D"/>
<path d="M10.0059 104.762C8.81906 99.4447 12.6129 94.0717 18.4797 92.7611C24.3464 91.4506 30.0645 94.6988 31.2513 100.016C32.4382 105.334 28.55 107.295 22.6833 108.605C16.8165 109.916 11.1927 110.079 10.0059 104.762Z" fill="#E3AF7B"/>
<path d="M14.2693 114.854C14.8153 113.703 12.285 111.359 8.61766 109.62C4.95033 107.88 1.53473 107.404 0.988689 108.555C0.442651 109.706 2.97295 112.05 6.64028 113.789C10.3076 115.528 13.7232 116.005 14.2693 114.854Z" fill="#1E2D3D"/>
<path d="M16.9477 123.857C16.9477 125.272 20.6358 128.067 24.7283 128.067C28.8208 128.067 32.6579 124.082 32.6579 122.667C32.6579 121.251 28.8207 122.941 24.7283 122.941C20.6358 122.941 16.9477 122.441 16.9477 123.857Z" fill="white"/>
<path d="M181.09 139.403C183.177 139.403 184.869 138.78 184.869 138.011C184.869 137.242 183.177 136.619 181.09 136.619C179.004 136.619 177.312 137.242 177.312 138.011C177.312 138.78 179.004 139.403 181.09 139.403Z" fill="#1E2D3D"/>
<path d="M172.142 139.204C174.228 139.204 175.92 138.581 175.92 137.812C175.92 137.043 174.228 136.42 172.142 136.42C170.055 136.42 168.363 137.043 168.363 137.812C168.363 138.581 170.055 139.204 172.142 139.204Z" fill="#1E2D3D"/>
<path d="M167.847 117.381C168.483 116.277 166.148 113.739 162.632 111.712C159.115 109.685 155.749 108.936 155.113 110.04C154.476 111.144 156.811 113.682 160.327 115.71C163.844 117.737 167.21 118.485 167.847 117.381Z" fill="#1E2D3D"/>
<path d="M178.107 133.039C186.235 133.039 192.823 126.451 192.823 118.323C192.823 110.196 186.235 103.607 178.107 103.607C169.98 103.607 163.391 110.196 163.391 118.323C163.391 126.451 169.98 133.039 178.107 133.039Z" fill="#1E2D3D"/>
<path d="M184.869 129.857H180.295V137.812H184.869V129.857Z" fill="#1E2D3D"/>
<path d="M175.92 129.857H171.346V137.812H175.92V129.857Z" fill="#1E2D3D"/>
<path d="M174.727 119.715C177.472 119.715 179.698 117.445 179.698 114.644C179.698 111.844 177.472 109.573 174.727 109.573C171.981 109.573 169.755 111.844 169.755 114.644C169.755 117.445 171.981 119.715 174.727 119.715Z" fill="white"/>
<path d="M173.484 115.103C174.14 114.447 174.144 113.388 173.493 112.736C172.842 112.085 171.783 112.088 171.126 112.744C170.47 113.399 170.466 114.459 171.117 115.11C171.768 115.762 172.828 115.759 173.484 115.103Z" fill="#1E2D3D"/>
<path d="M179.73 108.407C173.863 107.096 169.975 105.135 171.162 99.8179C172.349 94.5005 178.067 91.2523 183.933 92.5629C189.8 93.8734 193.594 99.2464 192.407 104.564C191.22 109.881 185.597 109.718 179.73 108.407Z" fill="#E3AF7B"/>
<path d="M193.508 129.531C194.739 129.204 194.893 125.758 193.851 121.836C192.809 117.913 190.966 114.998 189.734 115.325C188.503 115.652 188.349 119.097 189.391 123.02C190.433 126.943 192.276 129.858 193.508 129.531Z" fill="#1E2D3D"/>
<path d="M174.776 122.743C172.082 122.743 169.556 121.053 169.556 122.468C169.556 123.884 172.082 127.869 174.776 127.869C177.47 127.869 179.897 125.074 179.897 123.658C179.897 122.243 177.47 122.743 174.776 122.743Z" fill="white"/>
</svg>
