<svg width="32" height="32" viewBox="0 0 32 32" fill="none" xmlns="http://www.w3.org/2000/svg">
    <path fill-rule="evenodd" clip-rule="evenodd" d="M13.7408 2.7033C14.0584 3.55412 14.8784 4.16 15.84 4.16C17.0154 4.16 18.1542 4.31646 19.2368 4.6097C20.334 6.58953 19.6457 9.09135 17.6775 10.2277C15.9234 11.2404 13.7383 10.8305 12.4583 9.35587C12.1687 9.0222 11.6847 8.88411 11.302 9.10502C10.9194 9.32593 10.7842 9.81987 11.0556 10.1686C12.7938 12.4023 15.957 13.0686 18.4775 11.6133C20.7273 10.3144 21.7694 7.72685 21.2096 5.32121C24.8537 6.9823 27.5936 10.282 28.4875 14.2786C28.6413 14.2532 28.7991 14.24 28.96 14.24C30.5506 14.24 31.84 15.5294 31.84 17.12C31.84 18.7106 30.5506 20 28.96 20C28.7991 20 28.6413 19.9868 28.4875 19.9614C27.1922 25.7523 22.0215 30.08 15.84 30.08C9.66608 30.08 4.50047 25.7629 3.19724 19.9827C3.09306 19.9941 2.98721 20 2.88 20C1.28942 20 0 18.7106 0 17.12C0 15.5294 1.28942 14.24 2.88 14.24C2.98721 14.24 3.09306 14.2459 3.19724 14.2573C4.02896 10.5684 6.43383 7.47537 9.66996 5.72015C9.66608 5.71887 9.66221 5.71757 9.65835 5.71623C8.07488 5.47563 6.80909 4.26794 6.48228 2.71447C6.39133 2.2821 6.75817 1.92 7.2 1.92C7.64183 1.92 7.98625 2.28937 8.14077 2.7033C8.45838 3.55412 9.27843 4.16 10.24 4.16H12.7207C12.4149 3.73495 12.1939 3.24486 12.0823 2.71447C11.9913 2.2821 12.3582 1.92 12.8 1.92C13.2418 1.92 13.5863 2.28937 13.7408 2.7033ZM10.1348 21.2778C10.0742 20.8402 10.4382 20.48 10.88 20.48C11.3218 20.48 11.672 20.8416 11.756 21.2754C12.1271 23.1924 13.8145 24.64 15.84 24.64C17.8655 24.64 19.5529 23.1924 19.924 21.2754C20.008 20.8416 20.3582 20.48 20.8 20.48C21.2418 20.48 21.6058 20.8402 21.5452 21.2778C21.1567 24.0814 18.7504 26.24 15.84 26.24C12.9296 26.24 10.5233 24.0814 10.1348 21.2778ZM6.48228 17.1255C6.39133 17.5579 6.75817 17.92 7.2 17.92C7.64183 17.92 7.98625 17.5506 8.14077 17.1367C8.45838 16.2859 9.27843 15.68 10.24 15.68C11.2016 15.68 12.0216 16.2859 12.3392 17.1367C12.4937 17.5506 12.8382 17.92 13.28 17.92C13.7218 17.92 14.0887 17.5579 13.9977 17.1255C13.6318 15.386 12.0884 14.08 10.24 14.08C8.3916 14.08 6.84823 15.386 6.48228 17.1255ZM18.56 17.92C18.1182 17.92 17.7513 17.5579 17.8423 17.1255C18.2082 15.386 19.7516 14.08 21.6 14.08C23.4484 14.08 24.9918 15.386 25.3577 17.1255C25.4487 17.5579 25.0818 17.92 24.64 17.92C24.1982 17.92 23.8537 17.5506 23.6992 17.1367C23.3816 16.2859 22.5616 15.68 21.6 15.68C20.6384 15.68 19.8184 16.2859 19.5008 17.1367C19.3463 17.5506 19.0018 17.92 18.56 17.92Z" fill="#1E2D3D"/>
</svg>
