<svg width="32" height="32" viewBox="0 0 32 32" fill="none" xmlns="http://www.w3.org/2000/svg">
    <g clip-path="url(#clip0_8909:59849)">
        <path fill-rule="evenodd" clip-rule="evenodd" d="M4.47999 13.2801C4.03816 13.2801 3.67999 13.6382 3.67999 14.0801C3.67999 14.5219 4.03816 14.8801 4.47999 14.8801H6.06896L7.66181 30.2776C7.76305 31.2563 8.58772 32.0001 9.57162 32.0001H22.2831C23.2608 32.0001 24.0823 31.2655 24.1912 30.2939L25.9186 14.8801H27.52C27.9618 14.8801 28.32 14.5219 28.32 14.0801C28.32 13.6382 27.9618 13.2801 27.52 13.2801H4.47999ZM16 17.6801C16.4418 17.6801 16.8 18.0382 16.8 18.4801V28.0801C16.8 28.5219 16.4418 28.8801 16 28.8801C15.5582 28.8801 15.2 28.5219 15.2 28.0801V18.4801C15.2 18.0382 15.5582 17.6801 16 17.6801ZM12.4769 18.4903C12.4384 18.0502 12.0504 17.7246 11.6103 17.7631C11.1701 17.8016 10.8445 18.1896 10.883 18.6298L11.7197 28.1933C11.7582 28.6334 12.1463 28.959 12.5864 28.9205C13.0266 28.882 13.3522 28.494 13.3136 28.0538L12.4769 18.4903ZM20.4628 17.7631C20.0227 17.7246 19.6347 18.0502 19.5962 18.4903L18.7595 28.0538C18.721 28.494 19.0466 28.882 19.4867 28.9205C19.9268 28.959 20.3149 28.6334 20.3534 28.1933L21.1901 18.6298C21.2286 18.1896 20.903 17.8016 20.4628 17.7631Z" fill="#1E2D3D"/>
        <path fill-rule="evenodd" clip-rule="evenodd" d="M11.7705 1.71088C13.1717 1.29868 14.7724 1.18004 15.8218 1.19224L15.9761 1.19404L16.1303 1.19224C17.1798 1.18004 18.7805 1.29868 20.1816 1.71088C20.8811 1.91668 21.5799 2.2096 22.1386 2.63386C22.7066 3.06515 23.1704 3.66665 23.2757 4.46679C23.5532 6.57603 23.5408 7.57852 22.866 8.57465L22.8593 8.58461L22.8522 8.59436C22.5048 9.07542 21.8553 9.79637 20.9899 10.4075C20.1253 11.018 18.9878 11.5587 17.6829 11.5746C17.6219 11.5753 17.5615 11.576 17.5017 11.5765C17.0525 11.6408 16.5274 11.6809 15.9173 11.6801C15.3198 11.6793 14.806 11.6393 14.3665 11.5759C14.3337 11.5755 14.3007 11.575 14.2675 11.5746C12.9638 11.5558 11.8271 11.0157 10.9627 10.4059C10.0974 9.79562 9.44769 9.0759 9.09991 8.59436L9.09287 8.58461L9.08612 8.57465C8.41133 7.57852 8.39896 6.57603 8.67649 4.46679C8.78177 3.66665 9.24557 3.06515 9.81356 2.63386C10.3723 2.2096 11.071 1.91668 11.7705 1.71088ZM20.3187 3.44769V8.91336C20.891 8.46615 21.321 7.97949 21.5481 7.66738C21.8443 7.22643 21.9673 6.78831 21.6893 4.67552C21.6552 4.41619 21.5062 4.16268 21.171 3.90814C20.9467 3.73778 20.6585 3.58348 20.3187 3.44769ZM10.7812 3.90814C10.9838 3.75429 11.2384 3.61353 11.5362 3.48768V8.8344C11.0121 8.40971 10.6178 7.9612 10.4041 7.66738C10.1079 7.22642 9.98482 6.78831 10.2628 4.67552C10.2969 4.41619 10.4459 4.16268 10.7812 3.90814Z" fill="#1E2D3D"/>
    </g>
    <defs>
        <clipPath id="clip0_8909:59849">
            <rect width="32" height="32" fill="white"/>
        </clipPath>
    </defs>
</svg>
