<svg width="32" height="32" viewBox="0 0 32 32" fill="none" xmlns="http://www.w3.org/2000/svg">
    <path fill-rule="evenodd" clip-rule="evenodd" d="M32 16C32 24.8366 24.8366 32 16 32C11.8696 32 8.10466 30.4349 5.26604 27.8653L15.1725 17.9588C15.1569 17.9944 15.1428 18.0305 15.13 18.0672C14.9866 18.4775 15.0016 18.9936 15.0675 19.5704C15.3622 22.1484 14.8162 23.1319 14.3284 23.5708C14.1112 23.7663 13.8925 23.8583 13.4418 23.8965C13.1046 23.9251 12.7186 23.9196 12.191 23.9121C11.9006 23.908 11.5673 23.9033 11.1755 23.9033C10.5592 23.9033 10.013 24.0175 9.54625 24.2691C9.07343 24.5239 8.73346 24.892 8.49225 25.3157C8.03671 26.1158 7.91795 27.1545 7.84259 28.0963C7.80735 28.5367 8.13581 28.9223 8.57623 28.9576C9.01665 28.9928 9.40225 28.6644 9.43749 28.2239C9.5158 27.2453 9.62753 26.5555 9.8827 26.1073C9.99685 25.9068 10.1323 25.7708 10.3053 25.6776C10.4845 25.581 10.7547 25.5033 11.1755 25.5033C11.4854 25.5033 11.7799 25.5072 12.0571 25.511C12.6485 25.519 13.1612 25.526 13.5769 25.4908C14.2595 25.433 14.8475 25.2561 15.3986 24.7602C16.4475 23.8164 16.9771 22.188 16.6572 19.3887C16.6267 19.1222 16.6168 18.93 16.6199 18.7919C16.6204 18.7672 16.6214 18.7451 16.6226 18.7252C16.6561 18.721 16.6966 18.7163 16.7463 18.7109L16.7857 18.7066C16.9035 18.694 17.0561 18.6776 17.2201 18.6505C17.6009 18.5876 18.0588 18.4656 18.5642 18.1768C19.0369 17.9068 19.3619 17.5279 19.5346 17.0766C19.7016 16.6405 19.7049 16.1941 19.6433 15.8037C19.5438 15.174 19.2572 14.5756 18.9928 14.1386L27.8653 5.26604C30.4349 8.10466 32 11.8696 32 16ZM22.3685 18.2681C22.1476 17.8854 21.6583 17.7543 21.2757 17.9753C20.8931 18.1962 20.762 18.6854 20.9829 19.0681C21.8242 20.5253 21.3249 22.3886 19.8677 23.2299C19.4851 23.4508 19.354 23.9401 19.5749 24.3227C19.7958 24.7053 20.2851 24.8364 20.6677 24.6155C22.8902 23.3324 23.6517 20.4905 22.3685 18.2681ZM24.8387 16.1654C25.2213 15.9445 25.7106 16.0756 25.9315 16.4583C28.2768 20.5205 26.885 25.715 22.8227 28.0603C22.4401 28.2813 21.9508 28.1502 21.7299 27.7675C21.509 27.3849 21.6401 26.8956 22.0227 26.6747C25.3197 24.7712 26.4494 20.5553 24.5458 17.2582C24.3249 16.8756 24.456 16.3863 24.8387 16.1654Z" fill="#1E2D3D"/>
    <path d="M18.0916 12.777L16.6607 10.631C16.6183 7.44129 15.7453 5.41072 14.5314 4.13149C13.296 2.82952 11.8132 2.41916 10.8516 2.25196C10.4163 2.17627 10.002 2.46779 9.92636 2.90308C9.85067 3.33838 10.1422 3.75261 10.5775 3.82831C11.383 3.96838 12.4741 4.28781 13.3708 5.23281C14.2583 6.16814 15.0623 7.83077 15.0623 10.8757V11.118L16.9379 13.9308L4.13467 26.734C1.56513 23.8953 0 20.1304 0 16C0 7.16344 7.16344 0 16 0C20.1304 0 23.8953 1.56513 26.734 4.13467L18.0916 12.777Z" fill="#1E2D3D"/>
    <path d="M17.8144 15.317C17.9315 15.5587 18.0253 15.8153 18.0629 16.0533C18.0953 16.259 18.0785 16.4051 18.0404 16.5046C18.0081 16.5889 17.9432 16.6889 17.7705 16.7876C17.4691 16.9597 17.2028 17.0317 16.9593 17.0719C16.8425 17.0912 16.7346 17.1028 16.6131 17.1159L16.5736 17.1202C16.45 17.1336 16.2838 17.1518 16.1247 17.1901C16.0421 17.2099 15.9484 17.238 15.851 17.2804L17.8144 15.317Z" fill="#1E2D3D"/>
</svg>
