<svg width="32" height="32" viewBox="0 0 32 32" fill="none" xmlns="http://www.w3.org/2000/svg">
    <path fill-rule="evenodd" clip-rule="evenodd" d="M9.60002 3.52C9.60002 2.37125 10.5313 1.44 11.68 1.44H20.32C21.4688 1.44 22.4 2.37125 22.4 3.52V8H20.8V3.52C20.8 3.2549 20.5851 3.04 20.32 3.04H11.68C11.4149 3.04 11.2 3.2549 11.2 3.52V8H9.60002V3.52Z" fill="#1E2D3D"/>
    <path fill-rule="evenodd" clip-rule="evenodd" d="M2.56001 9.6C1.49963 9.6 0.640015 10.4596 0.640015 11.52V28.48C0.640015 29.5404 1.49963 30.4 2.56001 30.4H29.44C30.5004 30.4 31.36 29.5404 31.36 28.48V11.52C31.36 10.4596 30.5004 9.6 29.44 9.6H2.56001ZM14.24 15.04C14.24 14.8633 14.3833 14.72 14.56 14.72H17.6C17.7767 14.72 17.92 14.8633 17.92 15.04V18.24H20.96C21.1367 18.24 21.28 18.3833 21.28 18.56V21.44C21.28 21.6167 21.1367 21.76 20.96 21.76H17.92V24.96C17.92 25.1367 17.7767 25.28 17.6 25.28H14.56C14.3833 25.28 14.24 25.1367 14.24 24.96V21.76H11.04C10.8633 21.76 10.72 21.6167 10.72 21.44V18.56C10.72 18.3833 10.8633 18.24 11.04 18.24H14.24V15.04Z" fill="#1E2D3D"/>
</svg>
