<svg width="32" height="32" viewBox="0 0 32 32" fill="none" xmlns="http://www.w3.org/2000/svg">
    <path d="M26.4 12.96C26.4 13.7553 25.7553 14.4 24.96 14.4C24.1647 14.4 23.52 13.7553 23.52 12.96C23.52 12.1647 24.1647 11.52 24.96 11.52C25.7553 11.52 26.4 12.1647 26.4 12.96Z" fill="#1E2D3D"/>
    <path fill-rule="evenodd" clip-rule="evenodd" d="M32 16C32 24.8366 24.8366 32 16 32C11.8696 32 8.10466 30.4349 5.26604 27.8653L8.2517 24.8797C9.15744 26.7286 11.045 28 13.2267 28C13.9715 28 14.6821 27.8518 15.331 27.583C15.7577 27.4063 16.2423 27.4063 16.669 27.583C17.3179 27.8518 18.0285 28 18.7733 28C21.8367 28 24.32 25.4934 24.32 22.4012C24.32 20.4799 23.3612 18.7846 21.9002 17.7762C21.5857 17.5591 21.3512 17.2409 21.2375 16.8761C20.8695 15.6961 20.125 14.6846 19.146 13.9854L27.8653 5.26604C30.4349 8.10466 32 11.8696 32 16ZM24.96 16C26.6389 16 28 14.6389 28 12.96C28 11.2811 26.6389 9.92 24.96 9.92C23.2811 9.92 21.92 11.2811 21.92 12.96C21.92 14.6389 23.2811 16 24.96 16Z" fill="#1E2D3D"/>
    <path d="M13.92 8.32C13.92 9.11529 13.2753 9.76 12.48 9.76C11.6847 9.76 11.04 9.11529 11.04 8.32C11.04 7.52471 11.6847 6.88 12.48 6.88C13.2753 6.88 13.92 7.52471 13.92 8.32Z" fill="#1E2D3D"/>
    <path d="M8.48 12.96C8.48 13.7553 7.83529 14.4 7.04 14.4C6.24471 14.4 5.6 13.7553 5.6 12.96C5.6 12.1647 6.24471 11.52 7.04 11.52C7.83529 11.52 8.48 12.1647 8.48 12.96Z" fill="#1E2D3D"/>
    <path fill-rule="evenodd" clip-rule="evenodd" d="M17.642 13.2267L19.5086 11.36C17.8349 11.3539 16.48 9.99516 16.48 8.32C16.48 6.64105 17.8411 5.28 19.52 5.28C21.1952 5.28 22.5539 6.63492 22.56 8.30865L26.734 4.13467C23.8953 1.56513 20.1304 0 16 0C7.16344 0 0 7.16344 0 16C0 20.1304 1.56513 23.8953 4.13467 26.734L7.72795 23.1407C7.69632 22.8987 7.68 22.6519 7.68 22.4012C7.68 20.5264 8.59292 18.8668 9.99451 17.8507C10.2993 17.6297 10.524 17.3124 10.631 16.9515C11.3153 14.6427 13.4358 12.96 15.9457 12.96C16.5373 12.96 17.1073 13.0535 17.642 13.2267ZM15.52 8.32C15.52 9.99895 14.1589 11.36 12.48 11.36C10.8011 11.36 9.44 9.99895 9.44 8.32C9.44 6.64105 10.8011 5.28 12.48 5.28C14.1589 5.28 15.52 6.64105 15.52 8.32ZM10.08 12.96C10.08 14.6389 8.71895 16 7.04 16C5.36105 16 4 14.6389 4 12.96C4 11.2811 5.36105 9.92 7.04 9.92C8.71895 9.92 10.08 11.2811 10.08 12.96Z" fill="#1E2D3D"/>
    <path d="M9.36526 21.5034C9.61621 20.3984 10.3208 19.4669 11.2752 18.9201C11.6818 18.6871 11.9662 18.2821 12.0511 17.8212C12.3931 15.9651 14.0085 14.56 15.9457 14.56C16.0629 14.56 16.1788 14.5651 16.2934 14.5752L9.36526 21.5034Z" fill="#1E2D3D"/>
    <path d="M9.46685 23.6645L17.9952 15.1361C18.9292 15.707 19.6111 16.6561 19.8311 17.773C19.923 18.2396 20.2197 18.6459 20.6381 18.8719C21.8894 19.5475 22.7349 20.8759 22.7349 22.4012C22.7349 24.6097 20.9612 26.4 18.7733 26.4C18.0491 26.4 17.3748 26.2053 16.7937 25.866C16.3033 25.5797 15.6967 25.5797 15.2063 25.866C14.6252 26.2053 13.9509 26.4 13.2267 26.4C11.4761 26.4 9.99074 25.2539 9.46685 23.6645Z" fill="#1E2D3D"/>
    <path d="M20.96 8.32C20.96 9.11529 20.3153 9.76 19.52 9.76C18.7247 9.76 18.08 9.11529 18.08 8.32C18.08 7.52471 18.7247 6.88 19.52 6.88C20.3153 6.88 20.96 7.52471 20.96 8.32Z" fill="#1E2D3D"/>
</svg>
