<svg width="32" height="32" viewBox="0 0 32 32" fill="none" xmlns="http://www.w3.org/2000/svg">
    <g clip-path="url(#clip0_8909:59845)">
        <path d="M8.55844 31.8511C8.55844 28.1513 11.5577 25.152 15.2576 25.152H16.5825C20.2823 25.152 23.2816 28.1513 23.2816 31.8511C23.2816 31.9334 23.215 32 23.1328 32H8.70731C8.62509 32 8.55844 31.9334 8.55844 31.8511Z" fill="#1E2D3D"/>
        <path d="M20.2 19.2853C20.2 21.6491 18.2838 23.5653 15.92 23.5653C13.5563 23.5653 11.64 21.6491 11.64 19.2853C11.64 16.9216 13.5563 15.0053 15.92 15.0053C18.2838 15.0053 20.2 16.9216 20.2 19.2853Z" fill="#1E2D3D"/>
        <path d="M28.48 13.76C28.6567 13.76 28.8 13.9033 28.8 14.08V19.84H27.2V14.08C27.2 13.9033 27.3433 13.76 27.52 13.76H28.48Z" fill="#1E2D3D"/>
        <path d="M3.52 13.76C3.34327 13.76 3.2 13.9033 3.2 14.08L3.2 19.84H4.8L4.8 14.08C4.8 13.9033 4.65673 13.76 4.48 13.76H3.52Z" fill="#1E2D3D"/>
        <path d="M7.04 19.5115C7.04 19.2494 7.33787 19.0984 7.54924 19.2534L9.08811 20.382C9.26247 20.5098 9.26247 20.7702 9.08811 20.898L7.54924 22.0266C7.33787 22.1816 7.04 22.0306 7.04 21.7685V19.5115Z" fill="#1E2D3D"/>
        <path d="M24.96 19.5115C24.96 19.2494 24.6621 19.0984 24.4508 19.2534L22.9119 20.382C22.7375 20.5098 22.7375 20.7702 22.9119 20.898L24.4508 22.0266C24.6621 22.1816 24.96 22.0306 24.96 21.7685V19.5115Z" fill="#1E2D3D"/>
        <path d="M28.8 21.44H24.96V19.84H28.8V21.44Z" fill="#1E2D3D"/>
        <path d="M3.2 21.44H7.04V19.84H3.2L3.2 21.44Z" fill="#1E2D3D"/>
        <path d="M3.84259 7.32042C3.60753 7.55549 3.22642 7.55549 2.99135 7.32042C2.75629 7.08536 2.75629 6.70424 2.99135 6.46918C3.22642 6.23411 3.60753 6.23411 3.84259 6.46918C4.07766 6.70424 4.07766 7.08536 3.84259 7.32042Z" fill="#1E2D3D"/>
        <path d="M4.85183 9.18089C5.0869 9.41595 5.46801 9.41595 5.70308 9.18089C5.93814 8.94582 5.93814 8.56471 5.70308 8.32964C5.46801 8.09458 5.0869 8.09458 4.85183 8.32964C4.61677 8.56471 4.61677 8.94582 4.85183 9.18089Z" fill="#1E2D3D"/>
        <path fill-rule="evenodd" clip-rule="evenodd" d="M12.16 6.08C12.16 9.43789 9.43789 12.16 6.08 12.16C2.72211 12.16 0 9.43789 0 6.08C0 2.72211 2.72211 0 6.08 0C9.43789 0 12.16 2.72211 12.16 6.08ZM3.1793 3.82502L4.52066 2.48367C4.54915 2.45517 4.59534 2.45517 4.62384 2.48367L4.8302 2.69003C4.85869 2.71852 4.85869 2.76472 4.8302 2.79321L4.18974 3.43367L4.60247 3.84639L5.24292 3.20593C5.27142 3.17744 5.31761 3.17744 5.3461 3.20593L5.55247 3.4123C5.58096 3.44079 5.58096 3.48698 5.55247 3.51548L4.91201 4.15593L5.32474 4.56866L5.96519 3.9282C5.99368 3.89971 6.03988 3.89971 6.06837 3.9282L6.27473 4.13456C6.30323 4.16306 6.30323 4.20925 6.27473 4.23774L5.63428 4.8782L5.67562 4.91954L4.5641 5.8289L3.1793 4.44411C3.00835 4.27315 3.00835 3.99598 3.1793 3.82502ZM6.9958 6.23972L9.63275 3.02271C9.6819 2.96276 9.70942 2.88801 9.7109 2.81051C9.71463 2.61478 9.55499 2.45514 9.35926 2.45887C9.28176 2.46035 9.20701 2.48788 9.14706 2.53702L4.74203 6.14779L4.20646 6.29129C4.18024 6.25706 4.15147 6.22415 4.12015 6.19283C3.7355 5.80818 3.11186 5.80818 2.72721 6.19283C2.34256 6.57748 2.34256 7.20112 2.72721 7.58577C3.11186 7.97042 3.7355 7.97042 4.12015 7.58577C4.39891 7.30701 4.47565 6.90273 4.35037 6.55486L4.90229 6.40698L5.75909 7.26378L5.60946 7.8222C5.26214 7.69815 4.85909 7.77518 4.58098 8.05329C4.19633 8.43794 4.19633 9.06159 4.58098 9.44624C4.96563 9.83089 5.58928 9.83089 5.97393 9.44624C6.35858 9.06159 6.35858 8.43794 5.97393 8.05329C5.94193 8.0213 5.90828 7.99197 5.87326 7.96529L6.01501 7.43626L6.08548 7.35029L6.08755 7.35235L6.99771 6.24163L6.9958 6.23972ZM7.71927 8.98407L6.34677 7.61157L7.25693 6.50085L7.28517 6.5291L7.92563 5.88864C7.95412 5.86015 8.00032 5.86015 8.02881 5.88864L8.23517 6.095C8.26367 6.12349 8.26367 6.16969 8.23517 6.19818L7.59472 6.83864L8.00744 7.25136L8.6479 6.61091C8.67639 6.58242 8.72259 6.58242 8.75108 6.61091L8.95744 6.81727C8.98593 6.84576 8.98593 6.89196 8.95744 6.92045L8.31699 7.56091L8.72971 7.97363L9.37016 7.33317C9.39866 7.30468 9.44485 7.30468 9.47334 7.33317L9.67971 7.53954C9.7082 7.56803 9.7082 7.61422 9.67971 7.64272L8.33835 8.98407C8.1674 9.15503 7.89022 9.15503 7.71927 8.98407Z" fill="#1E2D3D"/>
        <path fill-rule="evenodd" clip-rule="evenodd" d="M32 6.08C32 9.43789 29.2779 12.16 25.92 12.16C22.5621 12.16 19.84 9.43789 19.84 6.08C19.84 2.72211 22.5621 0 25.92 0C29.2779 0 32 2.72211 32 6.08ZM29.1088 6.5299C29.1575 6.39318 29.1383 6.24226 29.0224 6.14208C28.9498 6.07902 28.8478 6.08731 28.7821 6.15749L28.7803 6.15936C28.0266 6.96097 26.8994 7.25485 26.1571 7.30675C25.4148 7.35866 24.2576 7.22452 23.3997 6.53561L23.3977 6.534C23.3228 6.47366 23.2206 6.47965 23.1575 6.5522C23.0103 6.72052 23.0338 6.95708 23.2444 7.1066C23.2689 7.12562 23.2955 7.14415 23.3236 7.1622C23.4109 7.21812 23.5136 7.27945 23.6309 7.34211L23.3635 7.82403C23.3048 7.92973 23.343 8.06296 23.4487 8.12162C23.5544 8.18027 23.6876 8.14213 23.7463 8.03643L24.027 7.5306C24.2318 7.61675 24.4636 7.69746 24.7198 7.76141L24.5744 8.34336C24.5451 8.46064 24.6164 8.57946 24.7337 8.60876C24.851 8.63806 24.9698 8.56674 24.9991 8.44946L25.1494 7.84761C25.3463 7.8776 25.5543 7.89644 25.7728 7.90025L25.7834 8.52763C25.7855 8.6485 25.8851 8.74482 26.006 8.74276C26.1268 8.74071 26.2232 8.64106 26.2211 8.5202L26.2104 7.88768C26.4163 7.8723 26.6125 7.84431 26.7987 7.80655L26.9731 8.41589C27.0064 8.5321 27.1276 8.59935 27.2438 8.56608C27.36 8.53281 27.4272 8.41164 27.394 8.29542L27.2234 7.69948C27.4696 7.625 27.6944 7.53479 27.8973 7.43744L28.2112 7.96047C28.2734 8.06412 28.4079 8.0977 28.5115 8.03549C28.6152 7.97328 28.6488 7.83883 28.5865 7.73518L28.2832 7.22989C28.5252 7.0851 28.7227 6.93788 28.8737 6.81203C28.9066 6.78644 28.9374 6.76125 28.9661 6.73662C29.0151 6.69453 29.055 6.64338 29.0835 6.58804C29.0943 6.56869 29.1028 6.5493 29.1088 6.5299ZM22.3427 4.63614C22.2744 4.42138 22.1892 4.15335 22.4433 4.08389C22.7083 4.01147 24.5039 3.5709 25.3685 3.35967C25.8775 3.25104 26.8409 3.11307 27.6866 3.43209C28.5526 3.75873 29.0752 4.30296 29.4896 4.95296C29.5622 5.06676 29.6221 5.21006 29.4896 5.29696C29.3713 5.3746 29.2658 5.3005 29.2053 5.258C29.1981 5.25292 29.1915 5.2483 29.1856 5.24444C29.1244 5.20427 28.6337 4.90044 28.0914 4.73569C27.5156 4.56075 26.8588 4.44599 26.1412 4.66326C25.5672 4.83708 24.1359 5.33921 23.492 5.56854C23.2651 5.65304 22.7745 5.73512 22.6273 5.38749L22.6171 5.36347C22.4784 5.03576 22.4412 4.94793 22.3513 4.66326C22.3485 4.65433 22.3456 4.64529 22.3427 4.63614Z" fill="#1E2D3D"/>
    </g>
    <defs>
        <clipPath id="clip0_8909:59845">
            <rect width="32" height="32" fill="white"/>
        </clipPath>
    </defs>
</svg>
