<svg width="32" height="32" viewBox="0 0 32 32" fill="none" xmlns="http://www.w3.org/2000/svg">
    <g clip-path="url(#clip0_8909:59843)">
        <path d="M0 12.64H8.78026C8.99271 12.64 9.19132 12.7454 9.31036 12.9214L12.4622 17.5807C12.606 17.7932 12.4538 18.08 12.1972 18.08H0V12.64Z" fill="#1E2D3D"/>
        <path d="M24.16 30.4V16.48C24.16 16.3033 24.3033 16.16 24.48 16.16H25.44C25.6167 16.16 25.76 16.3033 25.76 16.48V30.4H24.16Z" fill="#1E2D3D"/>
        <path d="M4.85204 30.4H0V32H6.08075C5.58658 31.5417 5.16976 31.0011 4.85204 30.4Z" fill="#1E2D3D"/>
        <path d="M14.2393 32H32V30.4H15.468C15.1502 31.0011 14.7334 31.5417 14.2393 32Z" fill="#1E2D3D"/>
        <path d="M18.56 19.68H0V27.52H4.16052C4.20334 24.2432 6.873 21.6 10.16 21.6C13.447 21.6 16.1167 24.2432 16.1595 27.52H19.84C20.1935 27.52 20.48 27.2335 20.48 26.88V21.6C20.48 20.5396 19.6204 19.68 18.56 19.68Z" fill="#1E2D3D"/>
        <path d="M14.56 27.6C14.56 30.0301 12.5901 32 10.16 32C7.72995 32 5.76 30.0301 5.76 27.6C5.76 25.17 7.72995 23.2 10.16 23.2C12.5901 23.2 14.56 25.17 14.56 27.6Z" fill="#1E2D3D"/>
        <path d="M26.4219 7.41883C26.13 7.65691 25.7038 7.77595 25.1431 7.77595H23.6225V4.97659H25.1431C25.7038 4.97659 26.13 5.09947 26.4219 5.34523C26.7137 5.58331 26.8596 5.92891 26.8596 6.38203C26.8596 6.82747 26.7137 7.17307 26.4219 7.41883Z" fill="#1E2D3D"/>
        <path fill-rule="evenodd" clip-rule="evenodd" d="M18.56 0.480011C18.2065 0.480011 17.92 0.766549 17.92 1.12001V13.92C17.92 14.2735 18.2065 14.56 18.56 14.56H31.36C31.7135 14.56 32 14.2735 32 13.92V1.12001C32 0.766549 31.7135 0.480011 31.36 0.480011H18.56ZM27.1015 3.81307C26.5793 3.57499 25.9611 3.45595 25.2468 3.45595H21.7563V11.5199H23.6225V9.29659H25.2468C25.9611 9.29659 26.5793 9.18139 27.1015 8.95099C27.6315 8.71291 28.0385 8.37499 28.3227 7.93723C28.6068 7.49179 28.7489 6.97339 28.7489 6.38203C28.7489 5.78299 28.6068 5.26459 28.3227 4.82683C28.0385 4.38907 27.6315 4.05115 27.1015 3.81307Z" fill="#1E2D3D"/>
    </g>
    <defs>
        <clipPath id="clip0_8909:59843">
            <rect width="32" height="32" fill="white"/>
        </clipPath>
    </defs>
</svg>
