<svg width="32" height="32" viewBox="0 0 32 32" fill="none" xmlns="http://www.w3.org/2000/svg">
    <path d="M19.5163 19.2846V18.0137C19.5163 18.0137 23.5397 18.1388 25.4493 16.1897C25.4493 16.1897 22.6705 15.3995 23.1709 10.3488C23.6714 5.29163 22.5453 0.853396 18.4824 1.22874C18.4824 1.22874 16.7177 -0.891607 13.2145 0.438547C12.0095 0.899491 8.78287 2.05185 8.94749 9.0582C9.11211 16.0646 6.45839 16.1041 6.45839 16.1041C6.45839 16.1041 7.82805 18.0927 12.4704 18.0532V19.357L15.9999 29.669L19.5229 19.3768L19.5163 19.2846Z" fill="#1E2D3D"/>
    <path d="M28.2874 25.8958C28.0569 24.6249 27.2338 23.5384 26.0749 22.9655L21.63 20.7727C21.3732 20.6476 21.123 20.5093 20.8728 20.371L22.2754 24.5063L20.3196 24.3549L15.9999 29.669L11.6802 24.3483L9.7245 24.4998L11.1534 20.3644L10.2645 20.8188L5.925 22.9655C4.76606 23.5384 3.94294 24.6249 3.71247 25.8958L3.37006 27.7856C6.64935 30.3933 11.1007 32 15.9999 32C20.8991 32 25.3505 30.3933 28.6298 27.7856L28.2874 25.8958Z" fill="#1E2D3D"/>
</svg>
