<svg width="231" height="70" viewBox="0 0 231 70" fill="none" xmlns="http://www.w3.org/2000/svg">
<path d="M229.543 35C229.543 39.4738 226.561 43.8819 220.818 48.0148C215.092 52.135 206.758 55.8764 196.392 59.0312C175.67 65.338 146.997 69.25 115.293 69.25C83.5894 69.25 54.9164 65.338 34.1941 59.0312C23.8282 55.8764 15.4942 52.135 9.76829 48.0148C4.02464 43.8819 1.04297 39.4738 1.04297 35C1.04297 30.5262 4.02464 26.1181 9.76829 21.9852C15.4942 17.865 23.8282 14.1236 34.1941 10.9688C54.9164 4.66197 83.5894 0.75 115.293 0.75C146.997 0.75 175.67 4.66197 196.392 10.9688C206.758 14.1236 215.092 17.865 220.818 21.9852C226.561 26.1181 229.543 30.5262 229.543 35Z" stroke="#FFC692" stroke-width="1.5"/>
</svg>
