<svg width="19" height="19" viewBox="0 0 19 19" fill="none" xmlns="http://www.w3.org/2000/svg">
<path fill-rule="evenodd" clip-rule="evenodd" d="M5.36524 0.0552824C4.39341 0.0995376 3.72934 0.253627 3.1494 0.479285C2.54879 0.712318 2.04035 1.02495 1.53227 1.53221C1.02419 2.03946 0.712347 2.54869 0.479304 3.14927C0.253638 3.72956 0.0995416 4.39324 0.0552847 5.36503C0.0102974 6.33835 0 6.64952 0 9.12854C0 11.6076 0.0102974 11.9187 0.0552847 12.8921C0.0995416 13.8639 0.253638 14.5275 0.479304 15.1078C0.712347 15.708 1.02426 16.2178 1.53227 16.7249C2.04027 17.2319 2.54879 17.5441 3.1494 17.7778C3.73044 18.0035 4.39341 18.1575 5.36524 18.2018C6.33911 18.2461 6.64979 18.2571 9.12891 18.2571C11.608 18.2571 11.9192 18.2468 12.8926 18.2018C13.8645 18.1575 14.5281 18.0035 15.1084 17.7778C15.7087 17.5441 16.2175 17.2321 16.7255 16.7249C17.2336 16.2176 17.5448 15.708 17.7785 15.1078C18.0042 14.5275 18.159 13.8638 18.2025 12.8921C18.2468 11.918 18.2571 11.6076 18.2571 9.12854C18.2571 6.64952 18.2468 6.33835 18.2025 5.36503C18.1583 4.39317 18.0042 3.72919 17.7785 3.14927C17.5448 2.54905 17.2328 2.04027 16.7255 1.53221C16.2183 1.02415 15.7087 0.712318 15.1091 0.479285C14.5281 0.253627 13.8644 0.0988073 12.8933 0.0552824C11.9199 0.0110273 11.6088 0 9.12964 0C6.65052 0 6.33911 0.010297 5.36524 0.0552824ZM6.08634 9.1284C6.08634 7.44795 7.44829 6.08531 9.12882 6.08531C10.8093 6.08531 12.172 7.44795 12.172 9.1284C12.172 10.8089 10.8093 12.1715 9.12882 12.1715C7.44829 12.1715 6.08634 10.8089 6.08634 9.1284ZM4.44123 9.1284C4.44123 11.7173 6.53986 13.8158 9.12882 13.8158C11.7178 13.8158 13.8164 11.7173 13.8164 9.1284C13.8164 6.53955 11.7178 4.44101 9.12882 4.44101C6.53986 4.44101 4.44123 6.53955 4.44123 9.1284ZM12.9062 4.25539C12.9062 4.47204 12.9703 4.68386 13.0906 4.86405C13.2109 5.04424 13.382 5.18471 13.5821 5.2677C13.7822 5.35069 14.0025 5.37247 14.215 5.33029C14.4275 5.2881 14.6228 5.18385 14.776 5.03072C14.9293 4.87758 15.0337 4.68244 15.0761 4.46996C15.1184 4.25749 15.0968 4.03722 15.014 3.83703C14.9311 3.63683 14.7908 3.46569 14.6107 3.34526C14.4306 3.22482 14.2188 3.16049 14.0022 3.1604H14.0017C13.7113 3.16054 13.4328 3.27593 13.2274 3.48124C13.022 3.68655 12.9065 3.96498 12.9062 4.25539Z" fill="#868686"/>
</svg>
