<svg width="25" height="25" viewBox="0 0 25 25" fill="none" xmlns="http://www.w3.org/2000/svg">
<path d="M20.8214 25H4.17865C1.87885 25 0 23.1212 0 20.8214V4.17865C0 1.87885 1.87885 0 4.17865 0H20.8214C23.1211 0 25 1.87885 25 4.17865V20.8214C25 23.1314 23.1314 25 20.8214 25Z" fill="black"/>
<path d="M12.5028 18.9216C10.7882 18.9216 9.17628 18.2542 7.96479 17.0427C6.75329 15.8312 6.08594 14.2193 6.08594 12.5047C6.08594 10.7901 6.75329 9.17824 7.96479 7.96674C9.17628 6.75524 10.7882 6.08789 12.5028 6.08789C14.2174 6.08789 15.8293 6.75524 17.0408 7.96674C18.2523 9.17824 18.9196 10.7901 18.9196 12.5047C18.9196 14.2193 18.2523 15.8312 17.0408 17.0427C15.819 18.2542 14.2174 18.9216 12.5028 18.9216ZM12.5028 7.45339C9.72043 7.45339 7.45144 9.71212 7.45144 12.5047C7.45144 15.2871 9.71017 17.5561 12.5028 17.5561C15.2851 17.5561 17.5541 15.2973 17.5541 12.5047C17.5438 9.72239 15.2851 7.45339 12.5028 7.45339Z" fill="white"/>
<path d="M20.1696 5.87819C20.85 5.87819 21.4016 5.32658 21.4016 4.64613C21.4016 3.96568 20.85 3.41406 20.1696 3.41406C19.4891 3.41406 18.9375 3.96568 18.9375 4.64613C18.9375 5.32658 19.4891 5.87819 20.1696 5.87819Z" fill="white"/>
</svg>
