<svg width="1623" height="548" viewBox="0 0 1623 548" fill="none" xmlns="http://www.w3.org/2000/svg">
<path d="M1786.44 134.675C1791.46 166.914 1771.48 201.615 1730.72 236.794C1689.98 271.952 1628.61 307.477 1551.16 341.353C1396.28 409.102 1177.23 470.207 930.715 508.599C684.202 546.991 456.94 555.396 288.792 537.956C204.714 529.236 135.444 514.057 85.9441 492.952C36.4154 471.836 6.82842 444.854 1.80749 412.615C-3.21344 380.376 16.7671 345.675 57.5283 310.497C98.2661 275.338 159.639 239.813 237.083 205.937C391.964 138.189 611.018 77.0833 857.531 38.6912C1104.04 0.299039 1331.31 -8.10506 1499.45 9.3345C1583.53 18.0547 1652.8 33.2336 1702.3 54.3381C1751.83 75.4549 1781.42 102.436 1786.44 134.675Z" stroke="black"/>
</svg>
