<svg width="27" height="27" viewBox="0 0 27 27" fill="none" xmlns="http://www.w3.org/2000/svg">
<path d="M21.8214 26H5.17865C2.87885 26 1 24.1212 1 21.8214V5.17865C1 2.87885 2.87885 1 5.17865 1H21.8214C24.1211 1 26 2.87885 26 5.17865V21.8214C26 24.1314 24.1314 26 21.8214 26Z" stroke="white"/>
<path d="M8.96479 18.0437C10.1763 19.2552 11.7882 19.9225 13.5028 19.9225C15.2174 19.9225 16.819 19.2552 18.0408 18.0437C19.2523 16.8322 19.9196 15.2203 19.9196 13.5057C19.9196 11.7911 19.2523 10.1792 18.0408 8.96772C16.8293 7.75622 15.2174 7.08887 13.5028 7.08887C11.7882 7.08887 10.1763 7.75622 8.96479 8.96772C7.75329 10.1792 7.08594 11.7911 7.08594 13.5057C7.08594 15.2203 7.75329 16.8322 8.96479 18.0437Z" stroke="white"/>
<path d="M21.1696 6.87819C21.85 6.87819 22.4016 6.32658 22.4016 5.64613C22.4016 4.96568 21.85 4.41406 21.1696 4.41406C20.4891 4.41406 19.9375 4.96568 19.9375 5.64613C19.9375 6.32658 20.4891 6.87819 21.1696 6.87819Z" stroke="white"/>
</svg>
