<svg width="18" height="23" viewBox="0 0 18 23" fill="none" xmlns="http://www.w3.org/2000/svg">
<path d="M17 9.35742C17 15.3574 9 21.3574 9 21.3574C9 21.3574 1 15.3574 1 9.35742C1 7.23569 1.84285 5.20086 3.34315 3.70057C4.84344 2.20028 6.87827 1.35742 9 1.35742C11.1217 1.35742 13.1566 2.20028 14.6569 3.70057C16.1571 5.20086 17 7.23569 17 9.35742V9.35742Z" stroke="#F48B72" stroke-width="1.5" stroke-linecap="round" stroke-linejoin="round"/>
<path d="M9 12.3574C10.6569 12.3574 12 11.0143 12 9.35742C12 7.70057 10.6569 6.35742 9 6.35742C7.34315 6.35742 6 7.70057 6 9.35742C6 11.0143 7.34315 12.3574 9 12.3574Z" stroke="#F48B72" stroke-width="1.5" stroke-linecap="round" stroke-linejoin="round"/>
</svg>
