<svg width="22" height="23" viewBox="0 0 22 23" fill="none" xmlns="http://www.w3.org/2000/svg">
<path d="M20.9994 16.3313V19.3421C21.0005 19.6216 20.9432 19.8982 20.831 20.1543C20.7188 20.4104 20.5542 20.6403 20.3478 20.8293C20.1415 21.0182 19.8978 21.1621 19.6325 21.2516C19.3672 21.3412 19.0861 21.3744 18.8072 21.3493C15.7128 21.0137 12.7404 19.9584 10.1289 18.2682C7.69921 16.7273 5.63926 14.6715 4.09534 12.2466C2.39586 9.62841 1.33824 6.6475 1.00816 3.54537C0.983033 3.26784 1.01608 2.98813 1.1052 2.72405C1.19432 2.45996 1.33757 2.21729 1.52581 2.01149C1.71405 1.80568 1.94317 1.64125 2.19858 1.52866C2.45398 1.41606 2.73008 1.35778 3.0093 1.35752H6.02608C6.5141 1.35273 6.98722 1.5252 7.35725 1.84279C7.72727 2.16039 7.96896 2.60143 8.03727 3.08371C8.1646 4.04724 8.40074 4.9933 8.74118 5.90384C8.87648 6.26305 8.90576 6.65344 8.82556 7.02875C8.74536 7.40407 8.55903 7.74857 8.28867 8.02144L7.01156 9.29601C8.44308 11.8086 10.5276 13.8889 13.0451 15.3176L14.3222 14.0431C14.5956 13.7732 14.9408 13.5873 15.3169 13.5072C15.6929 13.4272 16.0841 13.4564 16.444 13.5914C17.3564 13.9312 18.3043 14.1669 19.2698 14.294C19.7582 14.3627 20.2044 14.6083 20.5233 14.9839C20.8422 15.3596 21.0116 15.8391 20.9994 16.3313Z" stroke="#F48B72" stroke-width="1.5" stroke-linecap="round" stroke-linejoin="round"/>
</svg>
