<svg width="72" height="56" viewBox="0 0 72 56" fill="none" xmlns="http://www.w3.org/2000/svg">
<path opacity="0.5" d="M11.4059 31.9591C17.1089 31.4836 20.9109 32.6725 22.8119 35.5259C25.1881 38.3794 26.1386 41.4706 25.6634 44.7996C25.1881 48.1286 23.7624 50.7443 21.3861 52.6466C19.0099 54.5489 16.396 55.5 13.5446 55.5C11.6436 55.5 9.50495 55.2622 7.12871 54.7866C4.75248 53.8355 2.85149 52.171 1.42574 49.7931C0.475248 46.9397 0 44.0863 0 41.2328C0 38.8549 0.475248 35.7637 1.42574 31.9591C2.85149 28.1546 5.22772 24.1122 8.55445 19.832C12.3564 15.0763 17.1089 10.5584 22.8119 6.27821C28.5149 1.99805 31.604 0.0957631 32.0792 0.571336C33.0297 0.571336 33.5049 0.809122 33.5049 1.2847C33.5049 2.23584 31.8416 4.13813 28.5149 6.99157C23.7624 11.2717 20.198 15.0763 17.8218 18.4053C15.4455 21.7343 13.3069 26.2523 11.4059 31.9591ZM49.901 31.9591C55.604 31.4836 59.4059 32.6725 61.3069 35.5259C63.6832 38.3794 64.6337 41.4706 64.1584 44.7996C63.6832 48.1286 62.2574 50.7443 59.8812 52.6466C57.5049 54.5489 54.8911 55.5 52.0396 55.5C50.1386 55.5 48 55.2622 45.6238 54.7866C43.2475 53.8355 41.3465 52.171 39.9208 49.7931C38.9703 46.9397 38.495 44.0863 38.495 41.2328C38.495 38.8549 38.9703 35.7637 39.9208 31.9591C41.3465 28.1546 43.7228 24.1122 47.0495 19.832C50.8515 15.0763 55.604 10.5584 61.3069 6.27821C67.0099 1.99805 70.099 0.0957631 70.5743 0.571336C71.5247 0.571336 72 0.809122 72 1.2847C72 2.23584 70.3366 4.13813 67.0099 6.99157C62.2574 11.2717 58.6931 15.0763 56.3168 18.4053C53.9406 21.7343 51.802 26.2523 49.901 31.9591Z" fill="#9868E7"/>
</svg>
