<svg width="69" height="54" viewBox="0 0 69 54" fill="none" xmlns="http://www.w3.org/2000/svg">
<path opacity="0.5" d="M21.0255 23.7889C15.7745 23.7889 12.1943 22.6127 10.2849 20.2603C8.37547 17.4374 7.42075 14.3793 7.42075 11.0859C7.89811 7.32202 9.09151 4.73435 11.0009 3.3229C13.3877 1.44097 15.7745 0.5 18.1613 0.5C20.0708 0.5 22.2189 0.970484 24.6057 1.91145C27.4698 2.38194 29.3792 4.02863 30.334 6.85153C31.2887 9.20395 31.766 11.5564 31.766 13.9088C31.766 16.7317 31.05 19.7898 29.6179 23.0832C28.6632 26.3766 26.5151 30.1405 23.1736 34.3748C19.8321 38.6092 15.2972 43.0788 9.56887 47.7836C4.31792 52.018 1.21509 53.8999 0.260377 53.4294C-0.69434 52.9589 0.976415 50.6065 5.27264 46.3722C9.56887 42.1378 12.6717 38.6092 14.5811 35.7863C16.4906 32.4929 18.6387 28.4938 21.0255 23.7889ZM58.2594 23.7889C53.0085 23.7889 49.4283 22.6127 47.5189 20.2603C45.6094 17.4374 44.6547 14.3793 44.6547 11.0859C45.1321 7.32202 46.3255 4.73435 48.2349 3.3229C50.6217 1.44097 53.0085 0.5 55.3953 0.5C57.3047 0.5 59.4528 0.970484 61.8396 1.91145C64.7038 2.38194 66.6132 4.02863 67.5679 6.85153C68.5226 9.20395 69 11.5564 69 13.9088C69 16.7317 68.284 19.7898 66.8519 23.0832C65.8972 26.3766 63.7491 30.1405 60.4075 34.3748C57.066 38.6092 52.5311 43.0788 46.8028 47.7836C41.5519 52.018 38.4491 53.8999 37.4943 53.4294C36.5396 52.9589 38.2104 50.6065 42.5066 46.3722C46.8028 42.1378 49.9057 38.6092 51.8151 35.7863C53.7245 32.4929 55.8726 28.4938 58.2594 23.7889Z" fill="#9868E7"/>
</svg>
