<svg width="18" height="16" viewBox="0 0 18 16" fill="none" xmlns="http://www.w3.org/2000/svg">
<path fill-rule="evenodd" clip-rule="evenodd" d="M12.5388 15.8003C12.7476 15.6816 13.6908 15.017 14.1193 14.6867C15.0683 13.9552 16.0288 12.7125 16.6004 11.4767C17.4477 9.64482 17.8916 7.57345 17.8982 5.42071C17.9012 4.43853 17.8754 4.23134 17.6808 3.67432C16.9401 1.55524 14.5785 0.405663 12.4257 1.1162C11.2142 1.51603 10.2205 2.48596 9.80607 3.67317C8.97006 6.06797 10.469 8.62698 12.9888 9.10705C13.5665 9.21711 14.5298 9.15889 14.9837 8.98654C15.0354 8.9669 15.0778 8.96401 15.0778 8.98016C15.0778 9.19227 14.7104 10.5563 14.4795 11.2016C14.0562 12.3847 13.6717 13.1841 12.6848 14.9329C12.1364 15.9046 12.1133 16.0422 12.5388 15.8003ZM3.4272 15.7577C3.74785 15.5603 4.59009 14.9646 4.94845 14.6817C5.30972 14.3964 5.98934 13.709 6.28897 13.3257C7.55291 11.7089 8.38516 9.43298 8.65927 6.84348C8.73989 6.08212 8.76487 5.06092 8.71405 4.6047C8.55862 3.20949 7.7502 2.03531 6.48697 1.37014C4.9376 0.554333 2.986 0.829208 1.7006 2.04437C-0.54352 4.16589 0.225796 7.83899 3.14221 8.9273C3.87871 9.20218 4.82936 9.2452 5.60778 9.03892L5.90779 8.95943L5.88668 9.0815C5.83685 9.36947 5.68837 9.97493 5.56469 10.3942C5.1612 11.7623 4.60884 12.9952 3.62421 14.7256C3.16661 15.5299 3.01402 15.841 3.05659 15.8832C3.10372 15.9299 3.2008 15.897 3.4272 15.7577Z" fill="#FFC692"/>
</svg>
