<svg width="24" height="27" viewBox="0 0 24 27" fill="none" xmlns="http://www.w3.org/2000/svg">
<path d="M16.9248 1.95102L16.6161 1.46441C16.4327 1.17522 16.1141 1 15.7717 1H13.6715C13.1192 1 12.6715 1.44772 12.6715 2V9.56539L12.6591 17.9319C12.6653 17.994 12.6715 18.0624 12.6715 18.1246C12.6715 20.2193 10.9677 21.9286 8.86599 21.9286C6.76425 21.9286 5.06047 20.2255 5.06047 18.1246C5.06047 16.0298 6.76425 14.3205 8.86599 14.3205V14.3205C9.48916 14.3205 10.1158 13.8866 10.1158 13.2634V11.2061C10.1158 10.7181 9.7637 10.2938 9.27653 10.2667C9.14098 10.2592 9.00413 10.2553 8.86599 10.2553C4.53192 10.2616 1 13.7921 1 18.1308C1 22.4694 4.53192 26 8.87221 26C13.2125 26 16.7444 22.4694 16.7444 18.1308V10.5928C16.7444 9.70202 17.8462 9.23286 18.5544 9.77318C19.433 10.4434 20.3948 11.0273 21.4145 11.4195C22.0101 11.6486 22.6019 11.1747 22.6019 10.5366V8.15894C22.6019 7.76318 22.3659 7.40975 22.0224 7.21324C19.7833 5.93238 17.6634 3.13007 16.9248 1.95102Z" stroke="white"/>
</svg>
