<svg width="1200" height="44" viewBox="0 0 1200 44" fill="none" xmlns="http://www.w3.org/2000/svg">
<path d="M17.3171 14.7194L21.9994 19.3999L34.3341 7.06523C35.0217 6.37783 35.9542 5.99168 36.9264 5.99168C37.8987 5.99168 38.8312 6.37783 39.5188 7.06523L17.3171 29.2669C18.2237 30.8044 18.5384 32.6198 18.2022 34.3728C17.866 36.1258 16.902 37.6959 15.4909 38.789C14.0799 39.882 12.3186 40.4229 10.5372 40.3103C8.75587 40.1976 7.07676 39.4391 5.81464 38.177C4.55252 36.9149 3.79404 35.2358 3.68138 33.4544C3.56872 31.6731 4.10961 29.9118 5.20267 28.5007C6.29573 27.0896 7.8659 26.1257 9.61886 25.7895C11.3718 25.4533 13.1872 25.768 14.7248 26.6746L19.4071 21.9941L14.7248 17.3117C13.1872 18.2183 11.3718 18.533 9.61886 18.1968C7.8659 17.8606 6.29573 16.8966 5.20267 15.4856C4.10961 14.0745 3.56872 12.3132 3.68138 10.5319C3.79404 8.7505 4.55252 7.07139 5.81464 5.80927C7.07676 4.54715 8.75587 3.78867 10.5372 3.67601C12.3186 3.56335 14.0799 4.10424 15.4909 5.1973C16.902 6.29035 17.866 7.86053 18.2022 9.61349C18.5384 11.3665 18.2237 13.1819 17.3171 14.7194ZM27.1804 24.5809L39.5188 36.9192C38.8312 37.6066 37.8987 37.9928 36.9264 37.9928C35.9542 37.9928 35.0217 37.6066 34.3341 36.9192L24.5863 27.1732L27.1804 24.5809ZM13.5918 30.3999C13.2535 30.0497 12.8489 29.7704 12.4016 29.5782C11.9542 29.386 11.4731 29.2849 10.9862 29.2806C10.4994 29.2764 10.0166 29.3692 9.56593 29.5535C9.11531 29.7379 8.70592 30.0102 8.36165 30.3544C8.01738 30.6987 7.74511 31.1081 7.56075 31.5587C7.37639 32.0093 7.28362 32.4922 7.28785 32.979C7.29208 33.4659 7.39323 33.947 7.58539 34.3944C7.77756 34.8417 8.05689 35.2463 8.4071 35.5846C9.09864 36.2525 10.0248 36.6221 10.9862 36.6137C11.9476 36.6053 12.8673 36.2197 13.5471 35.5399C14.2269 34.8601 14.6125 33.9404 14.6209 32.979C14.6293 32.0176 14.2597 31.0914 13.5918 30.3999ZM13.5918 13.5864C13.942 13.2482 14.2213 12.8436 14.4135 12.3962C14.6056 11.9489 14.7068 11.4677 14.711 10.9809C14.7152 10.494 14.6225 10.0112 14.4381 9.56056C14.2537 9.10994 13.9815 8.70055 13.6372 8.35628C13.2929 8.012 12.8835 7.73974 12.4329 7.55538C11.9823 7.37102 11.4995 7.27824 11.0126 7.28247C10.5258 7.28671 10.0446 7.38785 9.59728 7.58002C9.14993 7.77219 8.74534 8.05152 8.4071 8.40173C7.74861 9.09507 7.38703 10.0182 7.39944 10.9743C7.41185 11.9305 7.79727 12.8439 8.47353 13.5199C9.14979 14.196 10.0634 14.5811 11.0195 14.5931C11.9756 14.6052 12.8987 14.2451 13.5918 13.5864Z" fill="#3E3E3E"/>
<line x1="59" y1="20.5" x2="1200" y2="20.5" stroke="#3E3E3E" stroke-width="3" stroke-dasharray="16 16"/>
</svg>
