<svg width="27" height="26" viewBox="0 0 27 26" fill="none" xmlns="http://www.w3.org/2000/svg">
<path d="M24.7512 8.19262C24.1159 6.78893 23.204 5.52869 22.0463 4.44262C20.8885 3.3668 19.5463 2.51639 18.0504 1.92213C16.5032 1.30738 14.8639 1 13.1733 1C11.4827 1 9.84337 1.30738 8.29624 1.92213C6.80034 2.51639 5.45813 3.35656 4.30034 4.44262C3.14256 5.52869 2.23068 6.78893 1.59543 8.19262C0.939697 9.64754 0.601562 11.2049 0.601562 12.8033C0.601562 15.4399 1.53015 17.9764 3.24146 20.0438C3.43914 20.2826 3.52985 20.5946 3.4739 20.8995L2.8804 24.1341C2.73522 24.9253 3.53613 25.5554 4.27091 25.228L7.5901 23.7494C7.84436 23.6361 8.13362 23.6358 8.39308 23.7366C9.90347 24.3234 11.4987 24.6168 13.163 24.6168C14.8536 24.6168 16.493 24.3094 18.0401 23.6947C19.536 23.1004 20.8782 22.2602 22.036 21.1742C23.1938 20.0881 24.1057 18.8279 24.7409 17.4242C25.3967 15.9693 25.7348 14.4119 25.7348 12.8135C25.745 11.2049 25.4069 9.65779 24.7512 8.19262Z" stroke="white"/>
<path d="M18.2752 15.1596C17.7424 14.8932 17.3531 14.7293 17.0765 14.6268C16.9023 14.5654 16.4925 14.3809 16.349 14.4936C15.9694 14.8043 15.5679 15.5945 15.1446 15.9525C15.0027 16.0726 14.8069 16.0863 14.6272 16.0385C13.4629 15.7289 12.3881 14.9203 11.5334 14.094C11.1829 13.761 10.5775 12.9033 10.3071 12.4762C10.2347 12.3618 10.1871 12.2253 10.2464 12.1037C10.3558 11.8789 10.633 11.6337 10.7785 11.4495C10.8289 11.3856 10.8758 11.3177 10.9257 11.2534C11.3944 10.6495 11.0679 10.2438 10.9471 9.96172C10.9252 9.91037 10.9069 9.85772 10.8834 9.80701C10.7372 9.49021 10.5126 8.98728 10.3142 8.57151C10.1298 8.27438 10.0887 7.8338 9.76087 7.66987C8.36743 6.95265 7.56829 8.38708 7.24042 9.13503C5.27054 13.8811 17.0573 22.8975 19.538 16.7882C19.5564 16.7429 19.5719 16.6929 19.5819 16.6451C19.6644 16.2504 19.6449 16.0456 19.5421 15.8581C19.4906 15.7643 19.4096 15.6905 19.3174 15.6362C18.9815 15.4386 18.6085 15.3308 18.2752 15.1596Z" stroke="white"/>
</svg>
